<svg width="208" height="46" viewBox="0 0 208 46" fill="none" xmlns="http://www.w3.org/2000/svg">
<path d="M181.098 20.3396C181.098 17.7289 181.61 15.4135 182.636 13.3933C183.693 11.3731 185.107 9.8191 186.879 8.73131C188.681 7.64351 190.686 7.09961 192.892 7.09961C194.819 7.09961 196.498 7.48811 197.927 8.2651C199.388 9.0421 200.554 10.0211 201.424 11.2022V7.51919H207.997V33.3466H201.424V29.5704C200.585 30.7825 199.419 31.7926 197.927 32.6007C196.467 33.3777 194.773 33.7662 192.846 33.7662C190.67 33.7662 188.681 33.2067 186.879 32.0879C185.107 30.969 183.693 29.3994 182.636 27.3792C181.61 25.328 181.098 22.9814 181.098 20.3396ZM201.424 20.4329C201.424 18.8478 201.113 17.4958 200.492 16.377C199.87 15.227 199.031 14.3568 197.974 13.7662C196.917 13.1446 195.783 12.8338 194.571 12.8338C193.359 12.8338 192.24 13.1291 191.214 13.7196C190.189 14.3101 189.349 15.1804 188.697 16.3303C188.075 17.4492 187.764 18.7857 187.764 20.3396C187.764 21.8936 188.075 23.2612 188.697 24.4422C189.349 25.5921 190.189 26.4779 191.214 27.0995C192.271 27.7211 193.39 28.0319 194.571 28.0319C195.783 28.0319 196.917 27.7367 197.974 27.1461C199.031 26.5245 199.87 25.6543 200.492 24.5354C201.113 23.3855 201.424 22.018 201.424 20.4329Z" fill="#F0F0F0"/>
<path d="M157.703 11.2488C158.542 10.0677 159.692 9.08872 161.152 8.31173C162.644 7.50365 164.338 7.09961 166.234 7.09961C168.441 7.09961 170.43 7.64351 172.201 8.73131C174.004 9.8191 175.418 11.3731 176.444 13.3933C177.5 15.3824 178.029 17.6979 178.029 20.3396C178.029 22.9814 177.5 25.328 176.444 27.3792C175.418 29.3994 174.004 30.969 172.201 32.0879C170.43 33.2067 168.441 33.7662 166.234 33.7662C164.338 33.7662 162.66 33.3777 161.199 32.6007C159.769 31.8237 158.604 30.8447 157.703 29.6636V45.6542H151.176V7.51919H157.703V11.2488ZM171.362 20.3396C171.362 18.7857 171.036 17.4492 170.383 16.3303C169.762 15.1804 168.922 14.3101 167.866 13.7196C166.84 13.1291 165.721 12.8338 164.509 12.8338C163.328 12.8338 162.209 13.1446 161.152 13.7662C160.127 14.3568 159.288 15.227 158.635 16.377C158.013 17.5269 157.703 18.8789 157.703 20.4329C157.703 21.9869 158.013 23.3389 158.635 24.4888C159.288 25.6388 160.127 26.5245 161.152 27.1461C162.209 27.7367 163.328 28.0319 164.509 28.0319C165.721 28.0319 166.84 27.7211 167.866 27.0995C168.922 26.4779 169.762 25.5922 170.383 24.4422C171.036 23.2922 171.362 21.9247 171.362 20.3396Z" fill="#F0F0F0"/>
<path d="M134.004 33.6799C131.735 33.6799 129.684 33.2914 127.85 32.5144C126.048 31.7374 124.618 30.6185 123.561 29.1577C122.505 27.697 121.961 25.9721 121.93 23.9829H128.923C129.016 25.3194 129.482 26.3761 130.321 27.1531C131.192 27.9301 132.373 28.3186 133.864 28.3186C135.387 28.3186 136.584 27.9612 137.454 27.2463C138.324 26.5004 138.759 25.5369 138.759 24.3559C138.759 23.3924 138.464 22.5999 137.874 21.9783C137.283 21.3567 136.537 20.875 135.636 20.5331C134.766 20.1601 133.554 19.7561 132 19.321C129.886 18.6994 128.161 18.0933 126.825 17.5028C125.519 16.8812 124.385 15.9643 123.422 14.7522C122.489 13.509 122.023 11.8618 122.023 9.81051C122.023 7.88356 122.505 6.20524 123.468 4.77557C124.432 3.34589 125.784 2.25809 127.524 1.51218C129.265 0.735178 131.254 0.34668 133.491 0.34668C136.848 0.34668 139.568 1.1703 141.65 2.81753C143.763 4.43369 144.929 6.70252 145.146 9.62403H137.967C137.905 8.50515 137.423 7.5883 136.522 6.87346C135.651 6.12754 134.486 5.75458 133.025 5.75458C131.751 5.75458 130.725 6.08092 129.948 6.7336C129.202 7.38628 128.829 8.33421 128.829 9.57741C128.829 10.4476 129.109 11.178 129.669 11.7685C130.259 12.328 130.974 12.7942 131.813 13.1671C132.683 13.509 133.895 13.9131 135.449 14.3793C137.563 15.0009 139.288 15.6224 140.624 16.244C141.961 16.8656 143.111 17.798 144.074 19.0412C145.038 20.2844 145.519 21.9161 145.519 23.9363C145.519 25.6768 145.069 27.293 144.167 28.7848C143.266 30.2766 141.945 31.4732 140.205 32.3745C138.464 33.2448 136.397 33.6799 134.004 33.6799Z" fill="#F0F0F0"/>
<path d="M116.33 7.52539V33.3528H109.757V30.0894C108.918 31.2083 107.814 32.0941 106.447 32.7467C105.11 33.3683 103.65 33.6791 102.064 33.6791C100.044 33.6791 98.2572 33.2596 96.7032 32.4204C95.1492 31.5502 93.9215 30.2914 93.0202 28.6442C92.15 26.9659 91.7148 24.9768 91.7148 22.6768V7.52539H98.2416V21.7444C98.2416 23.7957 98.7544 25.3808 99.7801 26.4997C100.806 27.5875 102.204 28.1314 103.976 28.1314C105.779 28.1314 107.193 27.5875 108.218 26.4997C109.244 25.3808 109.757 23.7957 109.757 21.7444V7.52539H116.33Z" fill="#F0F0F0"/>
<path d="M62.2266 20.4329C62.2266 17.76 62.7705 15.429 63.8583 13.4399C64.9461 11.4197 66.4534 9.86572 68.3804 8.77792C70.3073 7.65905 72.514 7.09961 75.0004 7.09961C78.2016 7.09961 80.8434 7.90769 82.9258 9.52384C85.0392 11.1089 86.4533 13.3467 87.1682 16.2371H80.1286C79.7556 15.1182 79.1185 14.248 78.2172 13.6264C77.3469 12.9737 76.2591 12.6474 74.9538 12.6474C73.089 12.6474 71.6127 13.3311 70.5249 14.6986C69.4371 16.0351 68.8932 17.9465 68.8932 20.4329C68.8932 22.8882 69.4371 24.7996 70.5249 26.1671C71.6127 27.5036 73.089 28.1718 74.9538 28.1718C77.5956 28.1718 79.3205 26.9907 80.1286 24.6287H87.1682C86.4533 27.4259 85.0392 29.6481 82.9258 31.2953C80.8123 32.9425 78.1706 33.7662 75.0004 33.7662C72.514 33.7662 70.3073 33.2223 68.3804 32.1345C66.4534 31.0156 64.9461 29.4616 63.8583 27.4725C62.7705 25.4523 62.2266 23.1058 62.2266 20.4329Z" fill="#F0F0F0"/>
<path d="M45.6353 33.7662C43.1489 33.7662 40.9112 33.2223 38.9221 32.1345C36.933 31.0156 35.3634 29.4461 34.2135 27.4259C33.0946 25.4057 32.5352 23.0747 32.5352 20.4329C32.5352 17.7911 33.1101 15.4601 34.2601 13.4399C35.4411 11.4197 37.0417 9.86572 39.0619 8.77792C41.0821 7.65905 43.3354 7.09961 45.8218 7.09961C48.3082 7.09961 50.5615 7.65905 52.5817 8.77792C54.6019 9.86572 56.187 11.4197 57.3369 13.4399C58.518 15.4601 59.1085 17.7911 59.1085 20.4329C59.1085 23.0747 58.5024 25.4057 57.2903 27.4259C56.1093 29.4461 54.4931 31.0156 52.4418 32.1345C50.4216 33.2223 48.1528 33.7662 45.6353 33.7662ZM45.6353 28.0785C46.8164 28.0785 47.9197 27.7988 48.9453 27.2394C50.0021 26.6489 50.8412 25.7786 51.4628 24.6287C52.0844 23.4787 52.3952 22.0801 52.3952 20.4329C52.3952 17.9776 51.7425 16.0972 50.4372 14.7919C49.1629 13.4554 47.5934 12.7872 45.7286 12.7872C43.8638 12.7872 42.2942 13.4554 41.02 14.7919C39.7768 16.0972 39.1552 17.9776 39.1552 20.4329C39.1552 22.8882 39.7612 24.7841 40.9733 26.1205C42.2165 27.4259 43.7705 28.0785 45.6353 28.0785Z" fill="#F0F0F0"/>
<path d="M12.1331 0.802734C15.5518 0.802734 18.5511 1.47095 21.1307 2.80739C23.7414 4.14382 25.7461 6.05524 27.1446 8.54163C28.5743 10.9969 29.2892 13.8563 29.2892 17.1197C29.2892 20.3831 28.5743 23.2424 27.1446 25.6977C25.7461 28.122 23.7414 30.0023 21.1307 31.3387C18.5511 32.6752 15.5518 33.3434 12.1331 33.3434H0.757812V0.802734H12.1331ZM11.9 27.7956C15.3187 27.7956 17.9605 26.8632 19.8253 24.9984C21.6901 23.1336 22.6225 20.5074 22.6225 17.1197C22.6225 13.732 21.6901 11.0902 19.8253 9.19431C17.9605 7.26735 15.3187 6.30388 11.9 6.30388H7.28459V27.7956H11.9Z" fill="#F0F0F0"/>
</svg>
