<svg width="237" height="50" viewBox="0 0 237 50" fill="none" xmlns="http://www.w3.org/2000/svg">
<g filter="url(#filter0_n_2222_270)">
<path d="M228.598 25.3465C226.949 25.3465 225.481 25.0641 224.194 24.4994C222.906 23.9347 221.89 23.1667 221.144 22.1955C220.399 21.2016 219.981 20.0948 219.891 18.8751H225.617C225.684 19.5301 225.989 20.0609 226.531 20.4675C227.074 20.8741 227.74 21.0774 228.53 21.0774C229.253 21.0774 229.807 20.9419 230.191 20.6708C230.597 20.3772 230.8 20.0045 230.8 19.5527C230.8 19.0106 230.518 18.6153 229.953 18.3669C229.389 18.0958 228.474 17.8022 227.209 17.4859C225.854 17.1697 224.724 16.8422 223.821 16.5034C222.917 16.142 222.138 15.5886 221.483 14.8432C220.828 14.0752 220.5 13.0474 220.5 11.7599C220.5 10.6757 220.794 9.69317 221.381 8.81225C221.991 7.90874 222.872 7.19723 224.024 6.67771C225.199 6.1582 226.588 5.89844 228.192 5.89844C230.563 5.89844 232.427 6.48572 233.782 7.66028C235.16 8.83484 235.95 10.3934 236.154 12.3359H230.8C230.71 11.6809 230.417 11.1614 229.92 10.7774C229.445 10.3934 228.813 10.2014 228.022 10.2014C227.345 10.2014 226.825 10.3369 226.464 10.608C226.102 10.8564 225.922 11.2066 225.922 11.6583C225.922 12.2004 226.204 12.607 226.769 12.878C227.356 13.1491 228.259 13.4201 229.479 13.6912C230.88 14.0526 232.02 14.414 232.901 14.7754C233.782 15.1142 234.55 15.6789 235.205 16.4695C235.883 17.2375 236.233 18.2765 236.255 19.5866C236.255 20.6934 235.939 21.6872 235.307 22.5682C234.697 23.4265 233.805 24.1041 232.63 24.6011C231.478 25.098 230.134 25.3465 228.598 25.3465Z" fill="#6343FF"/>
</g>
<g filter="url(#filter1_n_2222_270)">
<path d="M216.744 6.16406V25.07H210.951V22.495C210.363 23.3307 209.562 24.0084 208.545 24.5279C207.551 25.0248 206.444 25.2733 205.225 25.2733C203.779 25.2733 202.503 24.957 201.396 24.3246C200.289 23.6695 199.431 22.7321 198.821 21.5124C198.211 20.2927 197.906 18.8584 197.906 17.2095V6.16406H203.666V16.4302C203.666 17.6951 203.994 18.6777 204.649 19.3779C205.304 20.0781 206.185 20.4282 207.291 20.4282C208.421 20.4282 209.313 20.0781 209.968 19.3779C210.623 18.6777 210.951 17.6951 210.951 16.4302V6.16406H216.744Z" fill="#6343FF"/>
</g>
<g filter="url(#filter2_n_2222_270)">
<path d="M193.88 0V25.0724H188.086V0H193.88Z" fill="#6343FF"/>
</g>
<g filter="url(#filter3_n_2222_270)">
<path d="M185.064 8.9463C185.064 10.3241 184.748 11.5891 184.115 12.741C183.483 13.8704 182.512 14.7852 181.202 15.4854C179.892 16.1857 178.265 16.5358 176.323 16.5358H172.731V25.0739H166.938V1.28906H176.323C178.22 1.28906 179.824 1.61658 181.134 2.27163C182.444 2.92667 183.427 3.83018 184.082 4.98215C184.737 6.13413 185.064 7.45551 185.064 8.9463ZM175.882 11.9279C176.989 11.9279 177.813 11.6681 178.356 11.1486C178.898 10.6291 179.169 9.89498 179.169 8.9463C179.169 7.99761 178.898 7.26351 178.356 6.74399C177.813 6.22448 176.989 5.96472 175.882 5.96472H172.731V11.9279H175.882Z" fill="#6343FF"/>
</g>
<g filter="url(#filter4_n_2222_270)">
<path d="M148.559 25.3465C146.91 25.3465 145.442 25.0641 144.155 24.4994C142.867 23.9347 141.851 23.1667 141.105 22.1955C140.36 21.2016 139.942 20.0948 139.852 18.8751H145.578C145.645 19.5301 145.95 20.0609 146.492 20.4675C147.034 20.8741 147.701 21.0774 148.491 21.0774C149.214 21.0774 149.768 20.9419 150.152 20.6708C150.558 20.3772 150.761 20.0045 150.761 19.5527C150.761 19.0106 150.479 18.6153 149.914 18.3669C149.35 18.0958 148.435 17.8022 147.17 17.4859C145.815 17.1697 144.685 16.8422 143.782 16.5034C142.878 16.142 142.099 15.5886 141.444 14.8432C140.789 14.0752 140.461 13.0474 140.461 11.7599C140.461 10.6757 140.755 9.69317 141.342 8.81225C141.952 7.90874 142.833 7.19723 143.985 6.67771C145.16 6.1582 146.549 5.89844 148.153 5.89844C150.524 5.89844 152.388 6.48572 153.743 7.66028C155.121 8.83484 155.911 10.3934 156.115 12.3359H150.761C150.671 11.6809 150.377 11.1614 149.881 10.7774C149.406 10.3934 148.774 10.2014 147.983 10.2014C147.306 10.2014 146.786 10.3369 146.425 10.608C146.063 10.8564 145.882 11.2066 145.882 11.6583C145.882 12.2004 146.165 12.607 146.73 12.878C147.317 13.1491 148.22 13.4201 149.44 13.6912C150.84 14.0526 151.981 14.414 152.862 14.7754C153.743 15.1142 154.511 15.6789 155.166 16.4695C155.844 17.2375 156.194 18.2765 156.216 19.5866C156.216 20.6934 155.9 21.6872 155.268 22.5682C154.658 23.4265 153.766 24.1041 152.591 24.6011C151.439 25.098 150.095 25.3465 148.559 25.3465Z" fill="#6343FF"/>
</g>
<g filter="url(#filter5_n_2222_270)">
<path d="M129.661 25.3465C128.012 25.3465 126.544 25.0641 125.256 24.4994C123.969 23.9347 122.952 23.1667 122.207 22.1955C121.461 21.2016 121.043 20.0948 120.953 18.8751H126.679C126.747 19.5301 127.052 20.0609 127.594 20.4675C128.136 20.8741 128.802 21.0774 129.593 21.0774C130.316 21.0774 130.869 20.9419 131.253 20.6708C131.66 20.3772 131.863 20.0045 131.863 19.5527C131.863 19.0106 131.581 18.6153 131.016 18.3669C130.451 18.0958 129.536 17.8022 128.272 17.4859C126.916 17.1697 125.787 16.8422 124.883 16.5034C123.98 16.142 123.201 15.5886 122.546 14.8432C121.891 14.0752 121.563 13.0474 121.563 11.7599C121.563 10.6757 121.857 9.69317 122.444 8.81225C123.054 7.90874 123.935 7.19723 125.087 6.67771C126.261 6.1582 127.65 5.89844 129.254 5.89844C131.626 5.89844 133.489 6.48572 134.845 7.66028C136.222 8.83484 137.013 10.3934 137.216 12.3359H131.863C131.773 11.6809 131.479 11.1614 130.982 10.7774C130.508 10.3934 129.875 10.2014 129.085 10.2014C128.407 10.2014 127.888 10.3369 127.526 10.608C127.165 10.8564 126.984 11.2066 126.984 11.6583C126.984 12.2004 127.266 12.607 127.831 12.878C128.418 13.1491 129.322 13.4201 130.542 13.6912C131.942 14.0526 133.083 14.414 133.964 14.7754C134.845 15.1142 135.613 15.6789 136.268 16.4695C136.945 17.2375 137.295 18.2765 137.318 19.5866C137.318 20.6934 137.002 21.6872 136.369 22.5682C135.759 23.4265 134.867 24.1041 133.693 24.6011C132.541 25.098 131.197 25.3465 129.661 25.3465Z" fill="#6343FF"/>
</g>
<g filter="url(#filter6_n_2222_270)">
<path d="M118.911 15.3175C118.911 15.8596 118.877 16.4243 118.81 17.0116H105.697C105.788 18.1862 106.16 19.0897 106.815 19.7221C107.493 20.332 108.318 20.6369 109.289 20.6369C110.734 20.6369 111.74 20.0271 112.304 18.8073H118.471C118.154 20.0496 117.579 21.1677 116.743 22.1616C115.93 23.1554 114.902 23.9347 113.66 24.4994C112.417 25.0641 111.028 25.3465 109.492 25.3465C107.64 25.3465 105.991 24.9512 104.545 24.1606C103.1 23.37 101.97 22.2406 101.157 20.7724C100.344 19.3042 99.9375 17.5876 99.9375 15.6224C99.9375 13.6573 100.333 11.9407 101.123 10.4724C101.937 9.00425 103.066 7.87486 104.512 7.08429C105.957 6.29372 107.617 5.89844 109.492 5.89844C111.322 5.89844 112.948 6.28243 114.371 7.05041C115.794 7.81839 116.901 8.9139 117.691 10.3369C118.505 11.76 118.911 13.4201 118.911 15.3175ZM112.982 13.7928C112.982 12.799 112.643 12.0084 111.965 11.4211C111.288 10.8339 110.441 10.5402 109.424 10.5402C108.453 10.5402 107.629 10.8226 106.951 11.3873C106.296 11.9519 105.889 12.7538 105.731 13.7928H112.982Z" fill="#6343FF"/>
</g>
<g filter="url(#filter7_n_2222_270)">
<path d="M89.7854 5.96875C91.999 5.96875 93.7608 6.69156 95.0709 8.13717C96.4036 9.5602 97.0699 11.5253 97.0699 14.0326V25.078H91.31V14.8118C91.31 13.5469 90.9825 12.5644 90.3275 11.8641C89.6724 11.1639 88.7915 10.8138 87.6847 10.8138C86.5779 10.8138 85.697 11.1639 85.0419 11.8641C84.3869 12.5644 84.0594 13.5469 84.0594 14.8118V25.078H78.2656V6.17204H84.0594V8.67928C84.6467 7.84353 85.4372 7.18849 86.4311 6.71414C87.4249 6.21721 88.543 5.96875 89.7854 5.96875Z" fill="#6343FF"/>
</g>
<g filter="url(#filter8_n_2222_270)">
<path d="M74.0672 0V25.0724H68.2734V0H74.0672Z" fill="#6343FF"/>
</g>
<g filter="url(#filter9_n_2222_270)">
<path d="M64.075 0V25.0724H58.2812V0H64.075Z" fill="#6343FF"/>
</g>
<g filter="url(#filter10_n_2222_270)">
<path d="M55.2237 15.3175C55.2237 15.8596 55.1898 16.4243 55.122 17.0116H42.0099C42.1002 18.1862 42.4729 19.0897 43.128 19.7221C43.8056 20.332 44.63 20.6369 45.6013 20.6369C47.0469 20.6369 48.0521 20.0271 48.6168 18.8073H54.7832C54.467 20.0496 53.891 21.1677 53.0553 22.1616C52.2421 23.1554 51.2144 23.9347 49.972 24.4994C48.7297 25.0641 47.3406 25.3465 45.8046 25.3465C43.9524 25.3465 42.3035 24.9512 40.8579 24.1606C39.4123 23.37 38.2829 22.2406 37.4697 20.7724C36.6566 19.3042 36.25 17.5876 36.25 15.6224C36.25 13.6573 36.6453 11.9407 37.4359 10.4724C38.249 9.00425 39.3784 7.87486 40.824 7.08429C42.2696 6.29372 43.9298 5.89844 45.8046 5.89844C47.6342 5.89844 49.2605 6.28243 50.6835 7.05041C52.1066 7.81839 53.2134 8.9139 54.0039 10.3369C54.8171 11.76 55.2237 13.4201 55.2237 15.3175ZM49.2944 13.7928C49.2944 12.799 48.9556 12.0084 48.278 11.4211C47.6003 10.8339 46.7533 10.5402 45.7368 10.5402C44.7656 10.5402 43.9411 10.8226 43.2635 11.3873C42.6084 11.9519 42.2019 12.7538 42.0437 13.7928H49.2944Z" fill="#6343FF"/>
</g>
<g filter="url(#filter11_n_2222_270)">
<path d="M34.4988 1.28906L28.2985 25.0739H21.285L17.4903 9.42064L13.56 25.0739H6.54654L0.515625 1.28906H6.71595L10.138 18.6025L14.3732 1.28906H20.7429L24.8087 18.6025L28.2646 1.28906H34.4988Z" fill="#6343FF"/>
</g>
<path d="M118.855 30.1562H236.23L230.18 50.0005H112.805L118.855 30.1562Z" fill="#FFDC32"/>
<path d="M160.038 43.6188H160.749C159.253 47.7939 154.255 47.7756 154.893 44.3298C155.203 42.616 155.459 41.0481 155.732 39.6077C156.097 37.6205 154.273 38.7873 153.452 40.3188L152.193 46.7364H149.676L151.956 35.4144C151.19 35.4873 150.332 35.3597 149.42 35.1592L146.994 46.7364H144.513L147.03 34.7398C145.188 34.5211 143.801 34.6487 143.254 35.542C142.871 36.1437 143.126 37.584 143.637 38.8602L141.156 39.9906C140.882 37.0371 141.43 35.1592 142.469 34.1746C143.984 32.7343 146.538 32.9349 148.928 33.4636C151.354 34.0106 153.707 34.4299 154.893 33.0625L153.762 38.842C155.696 36.7636 158.724 36.9094 157.976 40.9204C157.739 42.1784 157.52 43.6005 157.32 44.8221C156.882 46.9917 159.454 45.369 160.038 43.6188Z" fill="#6343FF"/>
<path d="M162.826 39.6077C163.975 37.6934 165.526 36.8 167.916 38.2221L166.219 39.626C164.741 38.5503 163.391 39.9542 162.461 41.4674L161.439 46.7364H158.867L160.71 37.6205H163.209L162.826 39.6077Z" fill="#6343FF"/>
<path d="M172.613 43.5094H173.324C171.883 47.4475 166.374 48.5049 167.395 43.4L168.599 37.6205H171.117C170.533 40.7017 170.114 42.5795 169.694 44.7309C169.274 46.9187 171.993 45.2961 172.613 43.5094ZM170.205 36.5995C169.803 36.5995 169.457 36.4719 169.183 36.1984C168.928 35.9249 168.8 35.5967 168.8 35.1774C168.818 34.7763 168.946 34.4481 169.22 34.1564C169.512 33.8829 169.84 33.7371 170.26 33.7371C170.679 33.7371 170.989 33.8829 171.263 34.1564C171.555 34.4481 171.701 34.7763 171.701 35.1774C171.701 35.5967 171.537 35.9249 171.245 36.1984C170.953 36.4719 170.606 36.5995 170.205 36.5995Z" fill="#6343FF"/>
<path d="M177.802 37.6205H179.316C178.13 40.0453 176.397 44.0381 175.01 46.7364H172.475L172.493 37.6205H175.01L174.974 43.8558L177.802 37.6205Z" fill="#6343FF"/>
<path d="M185.71 43.6005H186.367C184.944 46.2259 183.448 46.9005 181.368 46.8458C177.92 46.7364 177.866 42.379 179.562 39.6807C180.949 37.5293 183.321 37.0735 184.36 37.9486C185.291 38.6962 185.309 40.0818 184.762 41.1575C183.941 42.6707 182.408 43.2359 180.839 43.1812C180.858 44.0563 181.186 45.0773 181.971 45.4602C183.375 46.1165 184.853 45.0226 185.71 43.6005ZM180.912 42.1237C180.912 42.1967 180.894 42.2696 180.894 42.3243C183.777 42.4155 184.105 38.9514 183.649 38.5868C183.284 38.3133 182.481 38.6597 181.825 39.6989C181.441 40.2823 181.113 41.1028 180.912 42.1237Z" fill="#6343FF"/>
<path d="M200.676 35.869H202.413L197.117 46.7138H194.274L194.165 39.2959L190.628 46.7138H187.719L187.654 35.869H190.497L190.563 43.2868L194.165 35.869H196.943L197.117 43.2652L200.676 35.869Z" fill="#6343FF"/>
<path d="M208.622 43.5779H209.279C207.856 46.2033 206.36 46.8779 204.28 46.8232C200.832 46.7138 200.777 42.3564 202.474 39.6581C203.86 37.5067 206.232 37.0509 207.272 37.926C208.202 38.6735 208.22 40.0592 207.673 41.1348C206.852 42.6481 205.32 43.2133 203.751 43.1586C203.769 44.0337 204.097 45.0547 204.882 45.4376C206.287 46.0939 207.764 45 208.622 43.5779ZM203.824 42.1011C203.824 42.1741 203.806 42.247 203.806 42.3017C206.688 42.3928 207.016 38.9288 206.56 38.5642C206.195 38.2907 205.393 38.6371 204.736 39.6763C204.353 40.2597 204.025 41.0802 203.824 42.1011Z" fill="#6343FF"/>
<path d="M213.491 43.6508H214.184C212.816 47.3884 207.671 48.3911 208.638 43.5232L210.554 33.9515H213.016C212.396 37.0509 211.21 42.721 210.791 44.8177C210.389 46.8961 212.925 45.3464 213.491 43.6508Z" fill="#6343FF"/>
<path d="M218.283 43.6508H218.976C217.608 47.3884 212.464 48.3911 213.43 43.5232L215.346 33.9515H217.809C217.189 37.0509 216.003 42.721 215.583 44.8177C215.182 46.8961 217.718 45.3464 218.283 43.6508Z" fill="#6343FF"/>
<path d="M224.338 44.9508C224.338 46.0037 223.484 46.8571 222.43 46.8571C221.377 46.8571 220.523 46.0037 220.523 44.9508C220.523 43.898 221.377 43.0446 222.43 43.0446C223.484 43.0446 224.338 43.898 224.338 44.9508Z" fill="#275DAD"/>
<path d="M125.96 39.54C126.207 39.2133 126.527 38.9467 126.92 38.74C127.313 38.5333 127.74 38.43 128.2 38.43C128.853 38.43 129.377 38.6267 129.77 39.02C130.17 39.4133 130.37 39.9467 130.37 40.62C130.37 40.8133 130.35 41.02 130.31 41.24C130.21 41.7933 130.007 42.2867 129.7 42.72C129.4 43.1533 129.03 43.49 128.59 43.73C128.157 43.97 127.697 44.09 127.21 44.09C126.737 44.09 126.34 43.9867 126.02 43.78C125.7 43.5733 125.477 43.31 125.35 42.99L125.17 44H124.26L125.57 36.6H126.48L125.96 39.54ZM129.38 41.24C129.407 41.1 129.42 40.9467 129.42 40.78C129.42 40.2933 129.277 39.9133 128.99 39.64C128.703 39.36 128.333 39.22 127.88 39.22C127.547 39.22 127.223 39.3033 126.91 39.47C126.597 39.63 126.327 39.8667 126.1 40.18C125.88 40.4867 125.733 40.8433 125.66 41.25C125.633 41.39 125.62 41.5433 125.62 41.71C125.62 42.1967 125.763 42.5833 126.05 42.87C126.343 43.15 126.713 43.29 127.16 43.29C127.5 43.29 127.823 43.21 128.13 43.05C128.443 42.8833 128.71 42.6467 128.93 42.34C129.157 42.0267 129.307 41.66 129.38 41.24ZM132.348 38.52L133.278 42.94L135.768 38.52H136.708L131.988 46.58H131.038L132.588 43.94L131.338 38.52H132.348Z" fill="#333333"/>
<defs>
<filter id="filter0_n_2222_270" x="219.891" y="5.89844" width="16.3672" height="19.4453" filterUnits="userSpaceOnUse" color-interpolation-filters="sRGB">
<feFlood flood-opacity="0" result="BackgroundImageFix"/>
<feBlend mode="normal" in="SourceGraphic" in2="BackgroundImageFix" result="shape"/>
<feTurbulence type="fractalNoise" baseFrequency="0.93451732397079468 0.93451732397079468" stitchTiles="stitch" numOctaves="3" result="noise" seed="6" />
<feColorMatrix in="noise" type="luminanceToAlpha" result="alphaNoise" />
<feComponentTransfer in="alphaNoise" result="coloredNoise1">
<feFuncA type="discrete" tableValues="0 0 0 0 0 0 0 0 0 0 0 0 0 0 0 0 0 0 1 1 1 1 1 1 1 1 1 1 1 1 1 1 0 0 0 0 0 0 0 0 0 0 0 0 0 0 0 0 0 0 0 0 0 0 0 0 0 0 0 0 0 0 0 0 0 0 0 0 0 0 0 0 0 0 0 0 0 0 0 0 0 0 0 0 0 0 0 0 0 0 0 0 0 0 0 0 0 0 0 0 "/>
</feComponentTransfer>
<feComposite operator="in" in2="shape" in="coloredNoise1" result="noise1Clipped" />
<feFlood flood-color="rgba(240, 240, 240, 0.65)" result="color1Flood" />
<feComposite operator="in" in2="noise1Clipped" in="color1Flood" result="color1" />
<feMerge result="effect1_noise_2222_270">
<feMergeNode in="shape" />
<feMergeNode in="color1" />
</feMerge>
</filter>
<filter id="filter1_n_2222_270" x="197.906" y="6.16406" width="18.8359" height="19.1094" filterUnits="userSpaceOnUse" color-interpolation-filters="sRGB">
<feFlood flood-opacity="0" result="BackgroundImageFix"/>
<feBlend mode="normal" in="SourceGraphic" in2="BackgroundImageFix" result="shape"/>
<feTurbulence type="fractalNoise" baseFrequency="0.93451732397079468 0.93451732397079468" stitchTiles="stitch" numOctaves="3" result="noise" seed="6" />
<feColorMatrix in="noise" type="luminanceToAlpha" result="alphaNoise" />
<feComponentTransfer in="alphaNoise" result="coloredNoise1">
<feFuncA type="discrete" tableValues="0 0 0 0 0 0 0 0 0 0 0 0 0 0 0 0 0 0 1 1 1 1 1 1 1 1 1 1 1 1 1 1 0 0 0 0 0 0 0 0 0 0 0 0 0 0 0 0 0 0 0 0 0 0 0 0 0 0 0 0 0 0 0 0 0 0 0 0 0 0 0 0 0 0 0 0 0 0 0 0 0 0 0 0 0 0 0 0 0 0 0 0 0 0 0 0 0 0 0 0 "/>
</feComponentTransfer>
<feComposite operator="in" in2="shape" in="coloredNoise1" result="noise1Clipped" />
<feFlood flood-color="rgba(240, 240, 240, 0.65)" result="color1Flood" />
<feComposite operator="in" in2="noise1Clipped" in="color1Flood" result="color1" />
<feMerge result="effect1_noise_2222_270">
<feMergeNode in="shape" />
<feMergeNode in="color1" />
</feMerge>
</filter>
<filter id="filter2_n_2222_270" x="188.086" y="0" width="5.79688" height="25.0703" filterUnits="userSpaceOnUse" color-interpolation-filters="sRGB">
<feFlood flood-opacity="0" result="BackgroundImageFix"/>
<feBlend mode="normal" in="SourceGraphic" in2="BackgroundImageFix" result="shape"/>
<feTurbulence type="fractalNoise" baseFrequency="0.93451732397079468 0.93451732397079468" stitchTiles="stitch" numOctaves="3" result="noise" seed="6" />
<feColorMatrix in="noise" type="luminanceToAlpha" result="alphaNoise" />
<feComponentTransfer in="alphaNoise" result="coloredNoise1">
<feFuncA type="discrete" tableValues="0 0 0 0 0 0 0 0 0 0 0 0 0 0 0 0 0 0 1 1 1 1 1 1 1 1 1 1 1 1 1 1 0 0 0 0 0 0 0 0 0 0 0 0 0 0 0 0 0 0 0 0 0 0 0 0 0 0 0 0 0 0 0 0 0 0 0 0 0 0 0 0 0 0 0 0 0 0 0 0 0 0 0 0 0 0 0 0 0 0 0 0 0 0 0 0 0 0 0 0 "/>
</feComponentTransfer>
<feComposite operator="in" in2="shape" in="coloredNoise1" result="noise1Clipped" />
<feFlood flood-color="rgba(240, 240, 240, 0.65)" result="color1Flood" />
<feComposite operator="in" in2="noise1Clipped" in="color1Flood" result="color1" />
<feMerge result="effect1_noise_2222_270">
<feMergeNode in="shape" />
<feMergeNode in="color1" />
</feMerge>
</filter>
<filter id="filter3_n_2222_270" x="166.938" y="1.28906" width="18.125" height="23.7812" filterUnits="userSpaceOnUse" color-interpolation-filters="sRGB">
<feFlood flood-opacity="0" result="BackgroundImageFix"/>
<feBlend mode="normal" in="SourceGraphic" in2="BackgroundImageFix" result="shape"/>
<feTurbulence type="fractalNoise" baseFrequency="0.93451732397079468 0.93451732397079468" stitchTiles="stitch" numOctaves="3" result="noise" seed="6" />
<feColorMatrix in="noise" type="luminanceToAlpha" result="alphaNoise" />
<feComponentTransfer in="alphaNoise" result="coloredNoise1">
<feFuncA type="discrete" tableValues="0 0 0 0 0 0 0 0 0 0 0 0 0 0 0 0 0 0 1 1 1 1 1 1 1 1 1 1 1 1 1 1 0 0 0 0 0 0 0 0 0 0 0 0 0 0 0 0 0 0 0 0 0 0 0 0 0 0 0 0 0 0 0 0 0 0 0 0 0 0 0 0 0 0 0 0 0 0 0 0 0 0 0 0 0 0 0 0 0 0 0 0 0 0 0 0 0 0 0 0 "/>
</feComponentTransfer>
<feComposite operator="in" in2="shape" in="coloredNoise1" result="noise1Clipped" />
<feFlood flood-color="rgba(240, 240, 240, 0.65)" result="color1Flood" />
<feComposite operator="in" in2="noise1Clipped" in="color1Flood" result="color1" />
<feMerge result="effect1_noise_2222_270">
<feMergeNode in="shape" />
<feMergeNode in="color1" />
</feMerge>
</filter>
<filter id="filter4_n_2222_270" x="139.852" y="5.89844" width="16.3672" height="19.4453" filterUnits="userSpaceOnUse" color-interpolation-filters="sRGB">
<feFlood flood-opacity="0" result="BackgroundImageFix"/>
<feBlend mode="normal" in="SourceGraphic" in2="BackgroundImageFix" result="shape"/>
<feTurbulence type="fractalNoise" baseFrequency="0.93451732397079468 0.93451732397079468" stitchTiles="stitch" numOctaves="3" result="noise" seed="6" />
<feColorMatrix in="noise" type="luminanceToAlpha" result="alphaNoise" />
<feComponentTransfer in="alphaNoise" result="coloredNoise1">
<feFuncA type="discrete" tableValues="0 0 0 0 0 0 0 0 0 0 0 0 0 0 0 0 0 0 1 1 1 1 1 1 1 1 1 1 1 1 1 1 0 0 0 0 0 0 0 0 0 0 0 0 0 0 0 0 0 0 0 0 0 0 0 0 0 0 0 0 0 0 0 0 0 0 0 0 0 0 0 0 0 0 0 0 0 0 0 0 0 0 0 0 0 0 0 0 0 0 0 0 0 0 0 0 0 0 0 0 "/>
</feComponentTransfer>
<feComposite operator="in" in2="shape" in="coloredNoise1" result="noise1Clipped" />
<feFlood flood-color="rgba(240, 240, 240, 0.65)" result="color1Flood" />
<feComposite operator="in" in2="noise1Clipped" in="color1Flood" result="color1" />
<feMerge result="effect1_noise_2222_270">
<feMergeNode in="shape" />
<feMergeNode in="color1" />
</feMerge>
</filter>
<filter id="filter5_n_2222_270" x="120.953" y="5.89844" width="16.3672" height="19.4453" filterUnits="userSpaceOnUse" color-interpolation-filters="sRGB">
<feFlood flood-opacity="0" result="BackgroundImageFix"/>
<feBlend mode="normal" in="SourceGraphic" in2="BackgroundImageFix" result="shape"/>
<feTurbulence type="fractalNoise" baseFrequency="0.93451732397079468 0.93451732397079468" stitchTiles="stitch" numOctaves="3" result="noise" seed="6" />
<feColorMatrix in="noise" type="luminanceToAlpha" result="alphaNoise" />
<feComponentTransfer in="alphaNoise" result="coloredNoise1">
<feFuncA type="discrete" tableValues="0 0 0 0 0 0 0 0 0 0 0 0 0 0 0 0 0 0 1 1 1 1 1 1 1 1 1 1 1 1 1 1 0 0 0 0 0 0 0 0 0 0 0 0 0 0 0 0 0 0 0 0 0 0 0 0 0 0 0 0 0 0 0 0 0 0 0 0 0 0 0 0 0 0 0 0 0 0 0 0 0 0 0 0 0 0 0 0 0 0 0 0 0 0 0 0 0 0 0 0 "/>
</feComponentTransfer>
<feComposite operator="in" in2="shape" in="coloredNoise1" result="noise1Clipped" />
<feFlood flood-color="rgba(240, 240, 240, 0.65)" result="color1Flood" />
<feComposite operator="in" in2="noise1Clipped" in="color1Flood" result="color1" />
<feMerge result="effect1_noise_2222_270">
<feMergeNode in="shape" />
<feMergeNode in="color1" />
</feMerge>
</filter>
<filter id="filter6_n_2222_270" x="99.9375" y="5.89844" width="18.9766" height="19.4453" filterUnits="userSpaceOnUse" color-interpolation-filters="sRGB">
<feFlood flood-opacity="0" result="BackgroundImageFix"/>
<feBlend mode="normal" in="SourceGraphic" in2="BackgroundImageFix" result="shape"/>
<feTurbulence type="fractalNoise" baseFrequency="0.93451732397079468 0.93451732397079468" stitchTiles="stitch" numOctaves="3" result="noise" seed="6" />
<feColorMatrix in="noise" type="luminanceToAlpha" result="alphaNoise" />
<feComponentTransfer in="alphaNoise" result="coloredNoise1">
<feFuncA type="discrete" tableValues="0 0 0 0 0 0 0 0 0 0 0 0 0 0 0 0 0 0 1 1 1 1 1 1 1 1 1 1 1 1 1 1 0 0 0 0 0 0 0 0 0 0 0 0 0 0 0 0 0 0 0 0 0 0 0 0 0 0 0 0 0 0 0 0 0 0 0 0 0 0 0 0 0 0 0 0 0 0 0 0 0 0 0 0 0 0 0 0 0 0 0 0 0 0 0 0 0 0 0 0 "/>
</feComponentTransfer>
<feComposite operator="in" in2="shape" in="coloredNoise1" result="noise1Clipped" />
<feFlood flood-color="rgba(240, 240, 240, 0.65)" result="color1Flood" />
<feComposite operator="in" in2="noise1Clipped" in="color1Flood" result="color1" />
<feMerge result="effect1_noise_2222_270">
<feMergeNode in="shape" />
<feMergeNode in="color1" />
</feMerge>
</filter>
<filter id="filter7_n_2222_270" x="78.2656" y="5.96875" width="18.8047" height="19.1094" filterUnits="userSpaceOnUse" color-interpolation-filters="sRGB">
<feFlood flood-opacity="0" result="BackgroundImageFix"/>
<feBlend mode="normal" in="SourceGraphic" in2="BackgroundImageFix" result="shape"/>
<feTurbulence type="fractalNoise" baseFrequency="0.93451732397079468 0.93451732397079468" stitchTiles="stitch" numOctaves="3" result="noise" seed="6" />
<feColorMatrix in="noise" type="luminanceToAlpha" result="alphaNoise" />
<feComponentTransfer in="alphaNoise" result="coloredNoise1">
<feFuncA type="discrete" tableValues="0 0 0 0 0 0 0 0 0 0 0 0 0 0 0 0 0 0 1 1 1 1 1 1 1 1 1 1 1 1 1 1 0 0 0 0 0 0 0 0 0 0 0 0 0 0 0 0 0 0 0 0 0 0 0 0 0 0 0 0 0 0 0 0 0 0 0 0 0 0 0 0 0 0 0 0 0 0 0 0 0 0 0 0 0 0 0 0 0 0 0 0 0 0 0 0 0 0 0 0 "/>
</feComponentTransfer>
<feComposite operator="in" in2="shape" in="coloredNoise1" result="noise1Clipped" />
<feFlood flood-color="rgba(240, 240, 240, 0.65)" result="color1Flood" />
<feComposite operator="in" in2="noise1Clipped" in="color1Flood" result="color1" />
<feMerge result="effect1_noise_2222_270">
<feMergeNode in="shape" />
<feMergeNode in="color1" />
</feMerge>
</filter>
<filter id="filter8_n_2222_270" x="68.2734" y="0" width="5.79688" height="25.0703" filterUnits="userSpaceOnUse" color-interpolation-filters="sRGB">
<feFlood flood-opacity="0" result="BackgroundImageFix"/>
<feBlend mode="normal" in="SourceGraphic" in2="BackgroundImageFix" result="shape"/>
<feTurbulence type="fractalNoise" baseFrequency="0.93451732397079468 0.93451732397079468" stitchTiles="stitch" numOctaves="3" result="noise" seed="6" />
<feColorMatrix in="noise" type="luminanceToAlpha" result="alphaNoise" />
<feComponentTransfer in="alphaNoise" result="coloredNoise1">
<feFuncA type="discrete" tableValues="0 0 0 0 0 0 0 0 0 0 0 0 0 0 0 0 0 0 1 1 1 1 1 1 1 1 1 1 1 1 1 1 0 0 0 0 0 0 0 0 0 0 0 0 0 0 0 0 0 0 0 0 0 0 0 0 0 0 0 0 0 0 0 0 0 0 0 0 0 0 0 0 0 0 0 0 0 0 0 0 0 0 0 0 0 0 0 0 0 0 0 0 0 0 0 0 0 0 0 0 "/>
</feComponentTransfer>
<feComposite operator="in" in2="shape" in="coloredNoise1" result="noise1Clipped" />
<feFlood flood-color="rgba(240, 240, 240, 0.65)" result="color1Flood" />
<feComposite operator="in" in2="noise1Clipped" in="color1Flood" result="color1" />
<feMerge result="effect1_noise_2222_270">
<feMergeNode in="shape" />
<feMergeNode in="color1" />
</feMerge>
</filter>
<filter id="filter9_n_2222_270" x="58.2812" y="0" width="5.79688" height="25.0703" filterUnits="userSpaceOnUse" color-interpolation-filters="sRGB">
<feFlood flood-opacity="0" result="BackgroundImageFix"/>
<feBlend mode="normal" in="SourceGraphic" in2="BackgroundImageFix" result="shape"/>
<feTurbulence type="fractalNoise" baseFrequency="0.93451732397079468 0.93451732397079468" stitchTiles="stitch" numOctaves="3" result="noise" seed="6" />
<feColorMatrix in="noise" type="luminanceToAlpha" result="alphaNoise" />
<feComponentTransfer in="alphaNoise" result="coloredNoise1">
<feFuncA type="discrete" tableValues="0 0 0 0 0 0 0 0 0 0 0 0 0 0 0 0 0 0 1 1 1 1 1 1 1 1 1 1 1 1 1 1 0 0 0 0 0 0 0 0 0 0 0 0 0 0 0 0 0 0 0 0 0 0 0 0 0 0 0 0 0 0 0 0 0 0 0 0 0 0 0 0 0 0 0 0 0 0 0 0 0 0 0 0 0 0 0 0 0 0 0 0 0 0 0 0 0 0 0 0 "/>
</feComponentTransfer>
<feComposite operator="in" in2="shape" in="coloredNoise1" result="noise1Clipped" />
<feFlood flood-color="rgba(240, 240, 240, 0.65)" result="color1Flood" />
<feComposite operator="in" in2="noise1Clipped" in="color1Flood" result="color1" />
<feMerge result="effect1_noise_2222_270">
<feMergeNode in="shape" />
<feMergeNode in="color1" />
</feMerge>
</filter>
<filter id="filter10_n_2222_270" x="36.25" y="5.89844" width="18.9766" height="19.4453" filterUnits="userSpaceOnUse" color-interpolation-filters="sRGB">
<feFlood flood-opacity="0" result="BackgroundImageFix"/>
<feBlend mode="normal" in="SourceGraphic" in2="BackgroundImageFix" result="shape"/>
<feTurbulence type="fractalNoise" baseFrequency="0.93451732397079468 0.93451732397079468" stitchTiles="stitch" numOctaves="3" result="noise" seed="6" />
<feColorMatrix in="noise" type="luminanceToAlpha" result="alphaNoise" />
<feComponentTransfer in="alphaNoise" result="coloredNoise1">
<feFuncA type="discrete" tableValues="0 0 0 0 0 0 0 0 0 0 0 0 0 0 0 0 0 0 1 1 1 1 1 1 1 1 1 1 1 1 1 1 0 0 0 0 0 0 0 0 0 0 0 0 0 0 0 0 0 0 0 0 0 0 0 0 0 0 0 0 0 0 0 0 0 0 0 0 0 0 0 0 0 0 0 0 0 0 0 0 0 0 0 0 0 0 0 0 0 0 0 0 0 0 0 0 0 0 0 0 "/>
</feComponentTransfer>
<feComposite operator="in" in2="shape" in="coloredNoise1" result="noise1Clipped" />
<feFlood flood-color="rgba(240, 240, 240, 0.65)" result="color1Flood" />
<feComposite operator="in" in2="noise1Clipped" in="color1Flood" result="color1" />
<feMerge result="effect1_noise_2222_270">
<feMergeNode in="shape" />
<feMergeNode in="color1" />
</feMerge>
</filter>
<filter id="filter11_n_2222_270" x="0.515625" y="1.28906" width="33.9844" height="23.7812" filterUnits="userSpaceOnUse" color-interpolation-filters="sRGB">
<feFlood flood-opacity="0" result="BackgroundImageFix"/>
<feBlend mode="normal" in="SourceGraphic" in2="BackgroundImageFix" result="shape"/>
<feTurbulence type="fractalNoise" baseFrequency="0.93451732397079468 0.93451732397079468" stitchTiles="stitch" numOctaves="3" result="noise" seed="6" />
<feColorMatrix in="noise" type="luminanceToAlpha" result="alphaNoise" />
<feComponentTransfer in="alphaNoise" result="coloredNoise1">
<feFuncA type="discrete" tableValues="0 0 0 0 0 0 0 0 0 0 0 0 0 0 0 0 0 0 1 1 1 1 1 1 1 1 1 1 1 1 1 1 0 0 0 0 0 0 0 0 0 0 0 0 0 0 0 0 0 0 0 0 0 0 0 0 0 0 0 0 0 0 0 0 0 0 0 0 0 0 0 0 0 0 0 0 0 0 0 0 0 0 0 0 0 0 0 0 0 0 0 0 0 0 0 0 0 0 0 0 "/>
</feComponentTransfer>
<feComposite operator="in" in2="shape" in="coloredNoise1" result="noise1Clipped" />
<feFlood flood-color="rgba(240, 240, 240, 0.65)" result="color1Flood" />
<feComposite operator="in" in2="noise1Clipped" in="color1Flood" result="color1" />
<feMerge result="effect1_noise_2222_270">
<feMergeNode in="shape" />
<feMergeNode in="color1" />
</feMerge>
</filter>
</defs>
</svg>
