<svg width="213" height="46" viewBox="0 0 213 46" fill="none" xmlns="http://www.w3.org/2000/svg">
<mask id="mask0_2224_409" style="mask-type:alpha" maskUnits="userSpaceOnUse" x="0" y="0" width="213" height="46">
<path d="M152.859 35.4115H150.213L149.551 33.7577C148.559 35.0807 146.574 35.7423 144.259 35.7423H140.62C136.982 35.7423 135.328 34.4192 135.328 31.7731C135.328 31.1116 135.328 30.1193 135.659 29.127L138.967 16.8887C139.628 14.5734 140.62 12.9196 141.943 11.9273C143.266 10.935 145.251 10.2734 147.566 10.2734H152.528C154.182 10.2734 155.505 10.6042 156.497 11.2657C157.489 11.9273 157.82 12.9196 157.82 14.2426C157.82 14.9041 157.82 15.5657 157.489 16.558L157.159 18.5425H152.528L152.859 16.8887C152.859 16.558 152.859 16.2272 152.859 15.5657C152.859 14.9041 152.859 14.5734 152.197 14.5734C151.866 14.2426 151.205 14.2426 150.543 14.2426H147.566C146.574 14.2426 145.582 14.5734 145.251 14.9041C144.59 15.2349 144.259 16.2272 143.928 17.2195L140.62 28.4655C140.62 29.127 140.29 29.4578 140.29 30.1193C140.29 30.7808 140.29 31.1116 140.951 31.1116C141.282 31.4423 141.943 31.4423 142.605 31.4423H145.913C146.905 31.4423 147.897 31.1116 148.228 30.7808C148.889 30.45 149.22 29.4578 149.551 28.4655V27.8039L150.213 25.8194H145.582L146.574 21.8502H155.836L152.859 35.4115Z" fill="#D22108"/>
<path d="M166.748 10.5859C167.74 15.2166 168.402 19.5166 169.063 23.155C171.709 19.5166 174.686 15.2166 177.994 10.5859H183.617L170.386 27.7857L168.071 35.724H163.44L165.756 27.4549L162.117 10.5859H166.748Z" fill="#D22108"/>
<path d="M189.238 22.5117C189.238 19.5348 189.238 17.2195 189.238 15.8964L183.946 35.7423H178.984L185.93 10.6042H192.876C192.876 18.5425 193.207 24.4963 193.207 28.1347V30.7808C195.523 26.4809 199.492 19.5348 204.784 10.2734H212.061L205.115 35.4115H200.484L206.107 15.5657C203.461 20.5271 199.823 27.1424 194.861 35.4115H189.569C189.238 31.7731 189.238 27.4732 189.238 22.5117Z" fill="#D22108"/>
<path d="M87.0295 10.5948H53.9531L56.5992 0.671875H89.6756L87.0295 10.5948Z" fill="#D22108"/>
<path d="M64.5516 27.1339H82.4129L85.059 17.2109H52.3133L44.375 45.3259H59.5901L64.5516 27.1339Z" fill="#D22108"/>
<path fill-rule="evenodd" clip-rule="evenodd" d="M101.916 35.074C101.585 34.7432 101.254 34.7432 101.254 34.0817V33.7509V33.4202L107.208 11.9205C107.208 11.259 107.539 10.9282 108.2 10.5974C108.531 10.2667 109.193 10.2667 110.516 10.2667H127.054L129.7 0.34375H106.547C102.247 0.34375 99.2697 0.674514 97.6159 1.66681C95.9621 2.6591 94.639 4.31292 93.9775 6.95903L85.3776 37.7201C85.3776 38.0509 85.3776 38.7124 85.0469 39.0431C85.0469 39.3739 85.0469 40.0354 85.0469 40.3662C85.3776 41.6893 86.3699 43.0123 88.0238 44.0046C89.6776 44.9969 91.6622 45.3277 93.6467 45.3277H117.793L120.439 35.4047H102.908C102.908 35.4047 102.247 35.4047 101.916 35.074Z" fill="#D22108"/>
<path fill-rule="evenodd" clip-rule="evenodd" d="M10.9673 0.671875L0.713577 37.7175C0.382812 38.379 0.382812 38.7097 0.382812 39.3713C0.382812 40.0328 0.382812 40.3636 0.382812 40.6943C0.713577 42.0174 1.70587 43.3404 3.35969 44.3327C5.01351 45.325 6.99809 45.6558 8.98268 45.6558H26.1824C30.4823 45.6558 33.4592 45.325 35.113 44.3327C36.7669 43.3404 38.0899 41.6866 38.7514 39.0405L49.3359 0.671875H34.1208L25.1901 34.0791C25.1901 34.7406 24.8594 35.0713 24.1978 35.4021C23.5363 35.7329 23.2055 35.7329 21.8825 35.7329H19.2364C18.5748 35.7329 18.2441 35.7329 17.9133 35.4021C17.5825 35.0713 17.2518 35.0713 17.2518 34.4098V34.0791V33.7483L26.1824 0.671875H10.9673Z" fill="#D22108"/>
<path d="M203.794 40.3594H133.011L131.688 45.3208H202.471L203.794 40.3594Z" fill="#D22108"/>
</mask>
<g mask="url(#mask0_2224_409)">
<rect x="-90.2578" y="-1.72656" width="311.762" height="49.4573" fill="#F0F0F0"/>
</g>
</svg>
