<svg width="167" height="168" viewBox="0 0 167 168" fill="none" xmlns="http://www.w3.org/2000/svg">
<circle cx="83.5" cy="83.5" r="79.5" fill="#6848FF"/>
<path d="M166.586 95.305C165.732 106.38 162.358 113.515 157.605 122.483C147.536 142.738 122.298 162.164 99.2754 165.678C94.0962 166.663 88.799 167.151 83.5 167.139C71.3166 167.132 59.1018 164.379 48.2243 159.248C47.4243 158.872 46.9901 158.557 46.6305 158.378C43.2282 156.747 37.7475 153.545 34.7427 151.3C28.1888 146.876 18.5875 136.915 14.768 130.767C13.0528 128.232 11.4723 125.513 11.0832 124.371C10.5447 123.395 10.087 122.949 9.93956 122.697C9.93815 122.694 9.93677 122.691 9.93537 122.688C9.45513 121.88 8.51742 119.691 8.29342 119.22C8.25971 119.15 8.33334 119.648 7.83452 118.479C7.79141 118.375 7.9182 118.431 7.48046 117.456C7.35076 117.209 5.82586 113.971 5.47472 113.004C4.14775 109.858 2.03831 101.977 1.43861 97.9505C1.332 97.3371 1.21746 96.9919 1.11489 96.3399C1.0618 96.0032 1.0496 95.494 1.03476 95.3906C0.961611 94.9424 0.439904 92.9887 1.07398 93.6354C0.798819 91.569 0.69708 92.194 0.57113 92.1607C0.326786 89.9121 0.536469 88.8013 0.225548 88.2247C0.142438 86.652 0.103317 85.0849 0.107913 83.5C0.131527 73.9185 1.80363 64.3539 5.07 55.3512C5.02899 55.333 4.98798 55.3147 4.94697 55.2965C6.24365 52.2678 6.42939 51.1283 7.42323 49.5098C7.84377 48.43 8.28522 47.3624 8.75233 46.2974C22.0209 19.5597 50.2469 1.06377 79.8357 0.0699892C81.0738 0.023118 81.3832 0.0967462 83.4377 0.0869155C83.4584 0.0869067 83.4792 0.0868957 83.5 0.0868835C85.7643 0.0797193 88.9159 0.0912256 91.8516 0.390806C94.4661 0.636749 98.2679 1.30523 101.11 1.94647C101.754 2.08799 102.231 2.13691 102.303 2.15373C102.727 2.2544 102.727 2.35244 103.136 2.45353C103.627 2.57492 104.231 2.65357 104.798 2.80761C106.912 3.37264 109.177 4.07796 109.442 4.16896C110.705 4.59445 110.947 4.78736 111.051 4.82276C112.439 5.32728 111.944 5.06527 112.289 5.1951C114.08 5.88988 115.248 6.5689 117.723 7.45235C117.625 7.49425 117.528 7.53632 117.432 7.57854C119.232 8.44481 118.117 7.71076 118.505 7.84627C118.672 7.87851 122.524 9.82228 122.799 10.0067C123.811 10.5672 123.786 10.6794 123.873 10.7278C124.089 10.8406 126.67 12.1871 127.878 13.075C129.306 14.1133 127.444 13.1754 127.792 13.4447C127.853 13.4857 129.407 14.4694 129.572 14.666C129.76 14.8744 128.437 13.9972 128.439 14.0384C128.449 14.0573 130.551 15.6472 130.075 15.4485C129.696 15.2853 126.779 13.2398 126.095 12.9058C125.985 12.848 126.122 13.0739 126.026 13.0207C125.691 12.7187 118.446 8.87359 118.072 8.78893C118.483 8.91788 118.892 9.04997 119.301 9.18561C118.792 8.93363 118.28 8.687 117.765 8.44537C118.519 8.74125 119.267 9.04717 120.015 9.36664C119.144 8.39896 115.62 7.34414 115.394 7.51566C115.296 7.5855 117.213 8.70444 115.267 8.04401C115.543 8.1896 115.819 8.33723 116.093 8.48603C116.698 8.70067 117.3 8.92243 117.9 9.15123C117.525 8.94643 117.148 8.74437 116.768 8.54508C116.925 8.57994 117.082 8.61528 117.238 8.6511C118.353 9.09851 119.458 9.57026 120.556 10.0681C121.096 10.3691 120.939 10.3946 121.307 10.6056C125.848 13.3223 122.97 11.4033 125.941 13.184C126.338 13.4831 126.733 13.7861 127.124 14.0919C127.087 13.8243 128.321 14.7408 129.901 15.7172C129.68 15.6473 129.458 15.5783 129.237 15.5106C131.521 16.9415 135.56 20.5948 134.641 19.3956C135.102 19.8044 135.557 20.2176 136.008 20.6364C136.445 20.9227 136.88 21.2134 137.313 21.5086C137.851 21.9852 138.382 22.4686 138.908 22.9591C138.888 22.9856 138.868 23.0121 138.848 23.0386C138.426 22.6521 138 22.2703 137.57 21.8928C137.826 22.2516 138.079 22.612 138.329 22.9737C138.652 23.244 138.973 23.5169 139.292 23.7923C138.06 22.5217 139.878 23.9877 140.374 24.2911C141.487 25.2939 142.03 26.1021 142.373 26.4659C142.541 26.628 144.655 28.4555 143.669 27.8841C144.667 28.904 145.639 29.9498 146.585 31.022C146.923 31.4679 147.256 31.9162 147.584 32.3681C146.71 31.5209 148.74 34.3746 147.087 32.3995C145.841 30.9387 145.633 30.493 145.036 29.803C144.493 29.1845 144.131 28.9257 143.523 28.2699C139.412 23.8814 135.721 20.6245 131.124 17.2322C130.214 16.5654 129.337 16.0243 128.711 15.5989C128.002 15.1199 128.965 15.6078 128.037 15.0338C127.058 14.4361 126.791 14.3945 126.534 14.2352C126.375 14.1367 125.913 13.7454 125.443 13.4636C123.516 12.2854 120.542 10.8329 120.253 10.6974C119.957 10.4766 114.175 7.7748 113.873 7.70431C113.725 7.63857 114.162 7.4459 112.72 7.26698C112.307 7.11584 111.893 6.96771 111.478 6.82336C111.567 6.78519 111.657 6.74734 111.747 6.70962C109.212 6.07102 110.109 6.22762 107.709 5.48004C101.989 3.66799 93.2075 2.04435 86.6438 1.90612C85.3707 1.86589 84.7804 1.9156 83.5 1.93176C83.3097 1.93466 83.1043 1.93727 82.8795 1.93968C81.2654 1.92397 77.0573 1.93921 77.9904 2.21732C74.3997 2.19833 73.8764 2.80254 72.0664 2.72918C71.8581 2.80341 71.6505 2.87842 71.4435 2.95421C69.4904 3.0611 68.9202 3.32876 66.851 3.7714C65.9571 3.97263 66.9428 3.54404 65.1888 4.16901C64.8414 4.23159 64.4946 4.29639 64.1484 4.3634C64.2163 4.2962 64.2844 4.22906 64.3527 4.16202C62.3736 4.68855 62.238 4.72063 62.5124 4.83319C61.5456 5.05577 60.5846 5.29572 59.6297 5.55274C59.5299 5.64647 59.4306 5.74039 59.3316 5.83448C59.65 5.39711 77.4531 1.55013 83.5 2.08824C84.1751 2.08067 84.692 2.0818 85.0097 2.0819C88.6726 2.19757 96.0178 2.85189 98.9223 3.52518C100.079 3.765 100.573 3.99995 102.246 4.40592C103.913 4.80962 106.045 5.27832 106.922 5.54194C109.971 6.12341 123.213 12.0441 114.111 8.27082C114.347 8.43917 114.583 8.60858 114.817 8.77904C118.489 10.1287 117.141 9.6778 120.042 11.123C121.261 11.7285 124.166 13.1885 123.852 13.3692C121.636 12.1524 119.288 10.847 117.288 9.93571C117.094 9.83785 114.658 8.90658 113.429 8.38959C112.318 7.92142 113.199 7.92646 110.619 7.33086C108.887 6.38062 107.704 6.32495 107.208 6.20281C106.343 5.99562 106.294 5.8184 105.441 5.55743C104.511 5.27542 103.834 5.21067 103.706 5.17791C102.442 4.76842 95.6286 3.482 95.3121 3.44236C95.591 3.45516 95.8691 3.46927 96.1507 3.4854C94.3775 3.17073 94.7274 3.39385 94.2568 3.3467C93.9082 3.29976 93.5589 3.25505 93.2088 3.21258C93.3515 3.19628 93.4943 3.18035 93.6371 3.1648C91.5232 2.92874 93.1198 3.19835 90.1281 2.92323C88.2196 2.76133 86.2482 2.57114 86.0623 2.57597C86.0076 2.57701 86.6065 2.68078 85.827 2.66844C85.1692 2.65878 84.2647 2.6486 83.5 2.63568C82.7644 2.62241 82.1635 2.60386 82.0396 2.54909C81.4057 2.57768 81.4632 2.6917 81.3791 2.69602C81.0102 2.65871 74.7198 3.11343 73.594 3.32662C70.4962 3.72027 67.0378 4.32115 63.7544 5.17002C63.4173 5.25718 63.6148 5.13173 63.2769 5.22072C62.7252 5.35202 59.9832 6.25267 59.582 6.39957C58.5534 6.72357 55.8725 7.60827 55.4702 7.80505C55.4127 7.83121 56.3197 7.60123 55.3099 8.00735C54.1929 8.46526 54.7537 8.11274 54.6917 8.13414C52.3827 8.97478 50.9984 9.69031 49.4873 10.4092C48.9985 10.6421 48.051 10.986 47.3783 11.3579C47.3009 11.4004 47.4985 11.4043 47.4231 11.4472C46.4103 12.0084 45.378 12.3686 44.9321 12.5997C43.8424 13.1679 44.4904 12.9564 44.4343 12.9876C43.7219 13.3876 42.7444 13.8934 41.6871 14.5431C36.9851 17.4654 33.3405 20.1748 28.9815 24.1276C28.436 24.6258 27.7398 25.1672 27.6583 25.246C27.4072 25.4895 27.5486 25.4922 26.8272 26.1989C25.3105 27.6935 23.9637 29.1403 22.5803 30.7309C22.3022 31.0514 22.1111 31.1264 21.8997 31.3722C21.1703 32.1851 19.0952 35.2572 18.8199 35.1279C17.7561 37.022 16.7506 38.0636 15.8013 39.519C13.5151 42.9458 10.5496 48.6797 8.98606 52.4734C8.6482 53.2663 8.42481 53.6136 8.2447 54.0597C7.88197 54.8488 6.3303 59.5255 6.27636 59.7803C6.11244 60.2576 5.82811 59.8576 5.43296 62.457C5.06217 63.9437 4.97603 63.73 4.88975 64.0354C4.23503 66.4159 4.13196 68.8408 3.91915 68.3427C3.46833 71.1849 3.41593 73.0409 3.00075 74.1754C3.13874 74.1772 3.05931 75.5255 2.88292 77.1368C2.80638 75.4659 2.57559 75.6389 3.16193 71.6449C3.17177 71.5823 3.25187 71.7163 3.26171 71.6537C3.34941 71.0903 3.489 69.8845 3.67128 68.9207C3.85472 67.956 3.8222 68.5047 3.8938 68.1188C3.96076 67.7661 3.86514 67.7594 3.96663 67.2497C4.3001 65.5867 4.62905 64.1273 4.86706 63.1979C5.01748 62.6082 5.27561 61.9742 5.40305 61.5217C5.87329 59.7688 7.01114 56.0852 7.88606 53.936C8.06536 53.4883 8.07363 53.7086 8.47767 52.7366C8.52604 52.623 8.60253 52.1727 8.95109 51.3137C9.30017 50.4562 9.64164 49.8242 9.88249 49.2826C10.0856 48.8304 9.91553 48.9803 10.3527 48.0608C10.5919 47.2221 15.4448 38.9235 15.8627 38.5725C16.2951 37.9599 16.598 37.7343 16.8458 37.3501C16.8891 37.2822 16.8707 37.1033 17.0244 36.8698C19.4401 32.9223 26.3715 25.3688 30.4616 22.0499C38.8006 14.8955 47.772 9.71155 58.3151 6.20797C58.4974 6.12721 58.6801 6.04707 58.8633 5.96757C57.7897 6.30759 56.7258 6.6693 55.672 7.05216C55.6465 7.00289 55.6209 6.95362 55.5954 6.90436C54.1617 7.42368 54.4011 7.4828 54.4682 7.5387C53.9308 7.7085 53.3955 7.88385 52.8621 8.06468C52.4811 8.40768 48.9884 9.7755 47.2674 10.6626C46.1389 11.2218 44.859 11.9913 44.2761 12.309C43.0467 12.9795 43.0243 12.867 42.9268 12.9185C42.761 13.0072 41.1275 14.0833 39.9386 14.8422C38.1878 15.9683 37.8836 15.931 35.6535 17.7211C32.6385 19.7957 29.5462 22.4409 26.7362 25.2057C27.1524 24.5563 24.7403 27.1485 23.6757 28.3333C16.9876 35.4003 10.5262 45.683 7.10429 54.9579C6.65229 56.1446 6.25015 57.0163 6.02877 57.6902C5.90941 58.0554 5.96762 58.2505 5.79072 58.7537C5.76075 58.8416 5.63128 58.8726 5.32712 59.814C4.5066 62.1528 3.33964 68.1958 2.93002 69.7026C2.17279 74.2595 1.80506 78.879 1.82303 83.5C1.83806 87.3386 2.11574 91.1442 2.66243 94.939C2.64767 95.1547 2.63376 95.3704 2.62068 95.5863C3.02585 97.1564 4.13187 103.387 5.07795 106.348C6.5707 111.589 9.34718 117.98 11.655 122.147C12.1481 123.056 12.509 123.828 13.0045 124.674C13.218 125.038 13.5582 125.445 13.7864 125.818C16.3129 130.044 20.2811 135.436 23.6974 139.046C31.3938 147.275 40.1994 153.612 50.6457 158.241C60.9773 162.796 72.2586 165.118 83.5 165.091C110.705 165.283 137.203 150.685 151.83 128.006C152.109 127.578 152.176 127.652 152.39 127.318C153.689 125.365 156.166 120.762 157.262 118.356C158.182 116.466 159.58 113.422 159.689 112.686C156.816 119.586 152.996 126.548 148.237 132.682C147.899 133.118 147.784 133.115 147.741 133.168C146.942 134.136 147.539 133.597 146.397 135.015C146.048 135.525 142.083 139.504 142.728 139.193C141.818 140.197 134.803 146.567 133.286 147.604C132.855 147.954 133.218 147.781 133.134 147.852C132.766 148.16 132.521 148.196 132.177 148.451C131.272 149.141 128.945 150.881 128.479 151.176C127.434 151.898 124.143 153.806 122.675 154.614C121.337 155.368 121.649 155.34 120.474 155.961C119.541 156.439 120.52 155.85 118.404 156.842C117.367 157.35 113.67 159.015 112.74 159.345C111.819 159.7 110.768 160.009 109.485 160.448C107.639 161.11 103.556 162.305 101.615 162.742C101.499 162.77 101.238 162.928 100.95 162.989C100.354 163.114 100.508 162.958 100.056 163.041C99.629 163.212 91.7767 164.434 90.4267 164.439C89.5029 164.516 88.8658 164.628 88.3512 164.658C87.9479 164.681 87.8965 164.584 87.4884 164.603C87.3624 164.609 86.2898 164.747 85.2059 164.766C84.8713 164.772 84.2299 164.774 83.5 164.762C81.9964 164.742 80.1482 164.634 79.8483 164.618C79.5564 164.604 79.8763 164.692 79.0099 164.645C78.2187 164.6 77.7079 164.471 77.2602 164.436C76.2209 164.355 75.0607 164.323 73.9548 164.193C70.7952 163.801 70.9872 163.666 70.7956 163.643C70.2735 163.55 70.0474 163.616 69.8752 163.59C69.1466 163.481 67.3833 163.165 66.7407 163.029C65.9401 162.865 65.6241 162.694 64.7827 162.496C64.1564 162.349 62.8693 162.135 61.4475 161.739C58.2513 160.862 54.5082 159.556 51.5201 158.26C50.626 157.874 50.5285 157.727 50.2581 157.604C48.8412 156.952 48.0173 156.654 47.6157 156.456C44.7423 155.083 39.9356 152.057 37.5477 150.34C36.5434 149.685 32.2829 146.61 30.0897 144.61C29.8358 144.385 30.1207 144.542 29.8306 144.301C29.139 143.723 29.1063 143.883 28.7697 143.572C28.608 143.421 28.2908 143.021 27.8285 142.574C25.4336 140.253 23.845 138.596 22.8334 137.458C13.0813 126.536 6.47581 112.63 3.92691 99.2284C3.63678 97.7427 3.225 95.8855 3.02447 93.6017C3.06018 93.5261 3.09599 93.4505 3.13191 93.375C3.07855 93.3007 3.02528 93.2261 2.97212 93.1514C2.65739 90.5641 2.52154 89.594 2.45066 86.9354C2.44523 86.7069 2.62442 86.0062 2.36061 85.5809C2.44894 83.7711 2.41661 83.8844 2.36499 83.5C2.3434 83.3243 2.32059 83.0439 2.32276 82.4295C2.33123 80.4721 2.48034 78.5813 2.64969 76.6938C2.81099 75.6654 2.71198 80.0286 2.73033 80.3004C2.7118 80.754 2.57132 81.2231 2.55487 81.6628C2.52975 82.325 2.54498 82.9789 2.5533 83.5C2.56119 84.0032 2.56182 84.3807 2.50823 84.5253C2.65512 86.2084 2.56015 84.112 2.67281 84.3211C2.63964 85.4463 2.62944 86.5676 2.64195 87.6855C2.97348 88.2467 3.10816 94.448 3.37698 93.9873C3.38512 94.4827 3.39775 94.9778 3.41486 95.4725C4.08942 97.5638 4.05277 98.8361 4.5866 101.689C4.58342 101.476 4.58107 101.263 4.57957 101.05C4.60164 101.108 5.26263 103.561 4.86586 102.723C5.74478 105.186 5.3237 105.199 6.2816 107.349C6.73875 108.662 6.29853 107.928 7.10728 110.281C7.59329 111.669 8.33567 113.356 8.98066 114.864C9.12918 115.213 9.10163 115.405 9.23616 115.715C9.37123 116.026 9.52825 116.137 9.69733 116.509C10.046 117.278 10.4496 118.296 10.6877 118.768C10.9004 119.192 11.2747 119.762 11.8119 120.765C13.7292 124.248 13.0819 123.236 13.345 123.81C13.6456 124.418 14.0271 124.754 14.7159 125.911C14.7854 126.027 14.5139 125.784 14.749 126.155C14.9402 126.454 15.1244 126.549 15.7788 127.521C15.9747 127.951 20.2384 133.811 21.0076 134.608C22.0635 135.928 24.5059 138.801 25.7491 140.037C26.2215 140.52 26.7953 140.965 27.309 141.464C29.0016 143.128 31.8489 145.652 34.2407 147.482C36.3597 149.17 40.2266 151.972 41.6088 152.567C44.884 154.503 45.6697 155.007 45.9151 155.155C46.6012 155.521 46.9668 155.596 47.847 156.026C57.8303 161.087 72.0143 164.473 83.5 164.298C85.0554 164.299 86.543 164.255 87.9665 164.177C115.918 162.892 142.453 145.616 155.221 120.671C155.215 120.584 155.21 120.497 155.205 120.41C153.676 123.332 151.608 126.616 149.737 129.271C147.299 132.857 143.231 137.89 140.742 139.905C141.632 138.975 143.138 137.507 142.993 137.426C141.439 139.124 139.812 140.754 138.12 142.311C138.219 142.318 138.319 142.324 138.419 142.33C136.674 143.99 134.787 145.579 132.886 147.071C132.555 147.329 132.831 147.199 132.541 147.423C132.216 147.672 132.396 147.45 132.334 147.496C131.511 148.123 131.298 148.358 131.196 148.433C130.933 148.622 131.1 148.424 130.332 148.955C128.906 149.935 127.962 150.753 128.142 150.292C127.679 150.602 127.213 150.907 126.743 151.208C126.663 151.352 126.583 151.495 126.502 151.638C123.428 153.192 122.287 154.411 120.402 154.907C119.877 155.254 119.348 155.595 118.813 155.931C118.46 156.016 118.109 156.099 117.758 156.179C117.724 156.268 117.691 156.358 117.657 156.448C114.58 157.841 111.257 159.225 108.176 160.203C106.026 160.875 105.504 160.991 103.573 161.504C99.2733 162.553 103.523 161.428 99.9014 162.084C100.106 162.125 100.311 162.166 100.516 162.206C99.9232 162.364 99.3328 162.514 98.7402 162.658C98.311 162.673 97.8816 162.683 97.4522 162.691C95.6489 163.357 94.3973 163.231 94.1451 163.266C93.9422 163.288 93.2564 163.613 91.0206 163.65C91.966 163.852 89.3296 163.801 89.1185 163.803C88.9174 163.825 86.3718 164.027 85.3339 164.036C84.9076 164.044 84.2278 164.038 83.5 164.022C82.8339 164.008 82.132 163.985 81.5517 163.973C80.4801 163.947 80.5862 164.043 80.5078 164.042C79.1906 163.996 80.0223 163.957 79.0677 163.906C78.1109 163.85 77.3665 163.875 77.1614 163.851C77.0583 163.839 77.4106 163.777 76.9387 163.73C75.6782 163.612 73.3677 163.439 71.9296 163.222C71.4204 163.148 70.7856 162.973 70.2172 162.876C69.3463 162.727 68.9231 162.751 68.4197 162.653C68.2442 162.618 67.159 162.256 65.7713 161.968C65.5096 161.914 64.6554 162.062 63.7546 161.349C63.6602 161.393 63.5657 161.437 63.471 161.482C58.8263 160.42 57.7749 159.401 55.6301 159.148C52.4202 157.871 54.705 158.54 54.3597 158.38C54.138 158.277 53.0789 157.906 52.9668 157.855C52.7675 157.767 52.8249 157.726 52.6045 157.635C48.5755 155.905 50.3225 156.765 49.0275 156.254C45.9726 154.957 43.8588 153.436 48.9462 156.111C48.9606 156.081 48.9749 156.051 48.9893 156.021C47.6864 155.462 44.5315 153.754 45.6681 154.169C46.5133 154.592 54.1964 158.185 49.9031 156.025C48.9382 155.525 48.364 155.4 46.7961 154.329C45.7016 153.74 45.3945 153.927 43.9805 152.989C44.1694 153.219 44.3601 153.448 44.5525 153.676C42.4559 152.679 40.1286 151.003 38.6312 150.053C38.1168 149.741 36.0449 148.888 36.7542 148.771C35.887 148.236 32.181 145.21 31.4996 144.64C31.3373 144.503 30.9164 144.562 28.6963 142.393C28.5617 142.222 28.4278 142.05 28.2948 141.878C30.4232 143.743 26.8603 140.244 28.0231 140.992C28.2671 141.399 29.8604 142.971 30.0962 143.249C30.4911 143.732 29.0296 142.612 30.8082 144.133C32.1923 144.783 28.9122 142.146 29.6722 142.267C27.3067 140.33 27.2458 139.95 26.7601 139.462C24.7193 137.332 23.4509 135.971 21.7196 133.791C21.2033 133.333 24.3791 137.26 24.8633 137.667C23.0898 136.163 25.7503 139.12 27.0806 140.161C27.1173 140.323 27.1546 140.485 27.1925 140.648C25.6688 139.078 24.2312 137.505 22.7602 135.915C22.6932 135.786 22.6267 135.658 22.5605 135.529C22.914 135.865 23.2701 136.198 23.6289 136.527C22.5115 135.121 23.0056 136.112 21.6493 134.127C21.5247 134.134 21.4 134.14 21.2752 134.146C19.8475 132.341 18.4982 130.476 17.2311 128.557C16.3607 127.702 14.1041 123.878 14.7595 124.435C13.8707 122.891 14.8642 124.86 13.9673 123.447C13.5771 122.831 12.883 121.583 12.7824 121.24C13.0666 121.259 14.121 123.106 14.5977 123.569C14.3162 123.279 9.7988 114.519 10.525 115.156C10.2474 114.42 10.2451 114.813 9.67032 113.518C8.01708 109.884 6.53284 103.898 5.52972 100.848C6.17249 104.563 6.71847 105.586 7.59747 108.329C7.96749 110.157 12.5743 120.415 11.3408 118.222C11.5509 118.581 11.7635 118.938 11.9787 119.293C12.0963 119.702 12.2173 120.11 12.3417 120.518C11.7864 119.477 11.2515 118.418 10.7435 117.355C10.6951 117.066 10.6483 116.778 10.6031 116.49C10.4989 116.394 10.3948 116.299 10.291 116.203C10.0778 115.753 9.86871 115.302 9.66365 114.848C9.77993 114.95 9.89639 115.052 10.0131 115.154C9.71968 114.445 9.43942 113.739 9.16753 113.024C9.16049 113.248 9.15443 113.472 9.14934 113.697C7.80503 110.346 8.31197 111.456 7.79846 109.521C7.3403 108.1 7.96357 110.556 6.9443 107.558C5.85272 104.051 6.72413 106.299 5.51811 101.708C5.4592 101.651 5.40034 101.594 5.34154 101.538C5.15039 100.507 4.97892 99.4693 4.82969 98.4381C4.80082 98.584 4.77234 98.73 4.74426 98.8761C4.33951 96.7554 3.83133 93.8134 3.97183 93.0754C4.13862 95.2626 4.5328 95.179 4.51797 94.6114C4.49919 93.9866 3.79023 88.7613 3.80369 83.5C3.76393 78.9448 4.23912 74.4195 4.45181 72.8785C5.02124 68.6314 5.82023 65.4956 6.69295 61.6772C5.66812 64.1591 4.11936 73.3782 3.97022 75.1516C3.94315 75.3254 3.5956 75.2428 3.88389 76.3991C3.65522 78.5436 3.55602 80.9409 3.57925 83.5C3.59509 85.2599 3.66669 87.048 3.78558 88.901C3.67637 88.7692 3.56748 88.6368 3.45891 88.5038C3.48906 86.1093 3.17075 83.8787 3.31977 83.5C3.34487 83.4369 3.38327 83.4277 3.43962 83.4807C3.43975 82.9217 3.44561 82.364 3.45715 81.8077C3.39011 81.8064 3.32307 81.805 3.25604 81.8036C3.27349 80.9626 3.30378 80.1264 3.34698 79.2904C3.41394 79.2939 3.4809 79.2973 3.54786 79.3008C3.58386 78.6042 3.62876 77.91 3.68245 77.2183C3.62139 77.1411 3.56043 77.0637 3.49959 76.9862C3.71517 74.9229 4.47013 67.8437 4.37645 70.9949C4.52826 70.0267 4.6974 69.0643 4.88356 68.108C4.83483 68.1017 4.78609 68.0955 4.73736 68.0893C4.81104 67.6761 4.8877 67.2646 4.96857 66.8494C4.98331 66.9945 4.99845 67.1395 5.01398 67.2843C5.3247 65.3709 5.99221 63.6709 6.17839 62.4064C5.92644 63.2045 5.68808 64.0027 5.46196 64.8056C5.87724 63.2685 6.56907 60.3881 6.65427 60.1413C6.88776 59.3745 7.11167 58.9947 7.3899 58.1698C7.64375 57.4253 7.53926 57.5041 7.58886 57.3661C9.09392 53.3963 8.94381 55.0776 9.21583 53.0542C9.3575 52.8845 9.49971 52.7157 9.64246 52.5478C9.69913 52.269 9.75847 51.9876 9.81883 51.7077C10.3216 50.5572 10.8493 49.4236 11.4049 48.2997C11.1459 48.6394 10.8903 48.9798 10.6368 49.3234C11.4075 47.604 11.9734 46.9024 12.057 46.7422C12.3021 46.2888 12.3202 46.0319 12.3945 45.8908C16.1537 39.204 13.9438 43.2982 16.2716 40.2525C16.8831 39.0286 16.0022 40.0956 15.7657 40.1763C16.815 38.692 17.0954 38.1975 18.2149 36.64C18.508 36.236 18.8942 35.8547 19.0828 35.6036C19.2455 35.3856 19.6868 34.6503 20.09 34.1342C20.76 33.2725 21.7146 32.1779 22.6899 31.0475C23.4865 30.0968 26.0068 27.2452 27.9402 25.4259C28.7605 24.6456 28.6237 24.884 28.8367 24.6841C28.9252 24.6011 29.5116 23.9357 30.0546 23.4532C34.4749 19.508 39.4865 16.0211 44.6939 13.1456C48.3589 11.117 52.22 9.28367 56.1798 7.86239C57.021 7.56288 56.5981 7.78491 56.9664 7.65739C57.0938 7.6157 57.2043 7.44415 58.5341 7.05501C59.0151 6.91652 58.4928 7.17056 58.9618 7.02357C59.1904 6.95464 59.2561 6.81703 60.5853 6.39416C63.0115 5.63523 64.3814 5.46904 64.5969 5.408C65.0101 5.30114 64.8691 5.24753 65.4206 5.11671C68.1252 4.48417 70.406 4.07285 72.8517 3.73872C73.9933 3.47714 81.9353 2.94003 82.3808 3.04261C83.3024 3.06462 82.5556 3.22596 83.5 3.237C83.562 3.23793 83.6313 3.23832 83.7089 3.23815C84.0615 3.19467 84.4142 3.15346 84.767 3.11453C84.3458 3.08261 83.9235 3.05392 83.5 3.0285C83.3616 3.0202 83.2233 3.01224 83.085 3.00464C83.2219 3.00894 83.3604 3.0125 83.5 3.01551C84.9375 3.04463 86.4772 3.02639 87.5091 3.08134C87.7192 3.08772 89.6557 3.28248 90.6348 3.36688C90.2148 3.36303 89.7944 3.36241 89.3736 3.36504C89.5196 3.40376 89.6653 3.44287 89.8107 3.48237C91.7689 3.59088 93.8574 3.83171 95.8438 4.14544C96.566 4.26094 96.3114 4.28878 97.0394 4.41289C101.246 5.20739 100.277 4.71193 104.14 6.22792C102.82 5.77799 97.8402 4.79618 97.1104 4.69395C96.6083 4.58799 94.6996 3.84692 95.3555 4.41251C91.2895 3.8663 94.8604 4.04344 91.0298 3.6875C91.1008 3.75075 91.1717 3.8141 91.2423 3.87754C89.9095 3.78596 88.9198 3.74901 88.1092 3.6027C87.9 3.77887 85.6989 3.63725 83.5 3.6201C82.5184 3.60941 81.5504 3.61779 80.7817 3.64952C77.1783 3.7877 73.1312 4.27529 69.6201 4.91181C68.4106 5.12904 67.7112 5.16635 67.56 5.19627C67.3403 5.24105 66.7355 5.46261 66.2964 5.56043C64.6477 5.87769 59.675 7.09932 58.5577 7.78693C66.5899 5.1395 75.0347 3.80277 83.5 3.80587C85.0374 3.80597 86.5557 3.84899 88.0807 3.93532C86.8489 3.61956 96.8987 4.61908 97.3919 4.87615C97.8584 4.9645 97.4493 4.9834 97.5872 5.01341C98.6136 5.23517 99.5101 5.28622 99.8396 5.35485C100.089 5.40732 100.581 5.5708 101.462 5.77163C101.624 5.80869 101.683 5.75607 101.857 5.79664C103.003 6.06646 104.132 6.35952 105.272 6.68166C105.342 6.70188 105.603 6.87429 105.889 6.95813C106.176 7.04183 106.486 7.03635 106.559 7.0579C107.462 7.32663 108.992 7.89014 109.837 8.19038C110.131 8.29363 109.95 8.15634 110.28 8.27378C111.288 8.63986 110.912 8.64248 112.167 9.08243C112.586 9.23279 112.598 9.12338 113.385 9.45398C113.941 9.69016 113.81 9.83761 113.896 9.87994C114.014 9.93103 115.991 10.6184 116.557 11.0189C115.074 10.6924 118.025 11.7125 117.945 11.5383C118.675 11.9262 119.4 12.3257 120.117 12.7353C120.382 12.8345 120.647 12.9351 120.911 13.0372C123.771 14.7523 125.555 15.7259 128.246 17.5926C128.383 17.6741 130.588 19.3321 130.449 19.3024C129.072 18.3936 127.71 17.4767 126.909 16.7742C125.29 16.0835 125.401 15.8506 122.96 14.4729C122.138 14.0193 122.039 14.0598 121.945 14.0075C118.76 12.2249 113.408 9.90875 111.162 8.87972C110.495 8.69434 112.806 9.59542 111.889 9.29565C111.464 8.89601 99.29 5.54457 103.24 6.37215C102.832 6.27583 102.424 6.18264 102.015 6.09263C101.551 6.23205 99.5284 5.73466 99.8084 5.54253C99.6033 5.55209 99.3999 5.56277 99.1969 5.57429C98.807 5.54051 98.3512 5.47483 97.7125 5.37316C96.0014 5.02328 88.2666 4.00214 83.5 4.09955C81.4758 4.09555 80.0177 4.17139 79.7861 4.19118C79.7712 4.25123 79.7563 4.31128 79.7415 4.37134C80.9925 4.32594 82.2429 4.30172 83.5 4.30247C88.7029 4.31121 93.9294 4.7149 99.4955 5.99076C99.3054 5.89497 99.1159 5.80011 98.9251 5.7058C101.688 6.3298 104.412 7.10202 107.076 8.01499C104.209 7.19571 99.5701 6.17009 96.4961 5.60682C95.9482 5.50206 96.364 5.49155 96.239 5.46162C95.9115 5.38534 95.5348 5.45541 94.3493 5.30337C93.1638 5.136 90.1684 4.74613 89.8934 4.73921C89.364 4.69955 87.9089 4.75644 87.0106 4.7186C85.8251 4.66817 86.6232 4.60499 86.3852 4.59361C85.3987 4.54882 84.5088 4.5823 83.7302 4.57302C83.6581 4.57216 83.5812 4.57077 83.5 4.56904C82.2791 4.53513 80.1256 4.47063 79.3894 4.74599C80.2065 4.71529 81.0247 4.6971 81.8466 4.69142C77.4138 4.88824 73.8918 4.92125 69.6074 5.91117C68.6816 6.3754 72.2304 5.71562 69.2476 6.36728C69.7907 6.26326 70.3357 6.16483 70.8828 6.07206C71.0012 5.9897 71.1201 5.9076 71.2393 5.82577C72.1907 5.72196 73.1374 5.63638 74.0919 5.56723C73.8147 5.54432 73.5373 5.52287 73.2598 5.50286C76.6195 5.01088 80.0491 4.80227 81.2316 5.07459C81.2991 5.00036 81.3668 4.92622 81.4346 4.85216C82.0761 4.85346 82.7844 4.84494 83.5 4.83953C86.2937 4.80773 89.1383 4.889 88.4198 5.16094C88.5699 5.14887 88.72 5.13721 88.8701 5.12598C90.7593 5.34661 89.962 5.12442 90.675 5.16524C90.8751 5.15736 94.5452 5.67458 92.9023 5.59991C96.4533 6.15269 95.4057 5.66118 96.3945 5.79157C98.6479 6.31917 102.75 7.00054 100.983 6.89481C101.316 6.98171 101.648 7.07071 101.978 7.1618C103.126 7.20074 104.146 7.73966 105.291 8.16117C105.687 8.28082 106.081 8.4035 106.474 8.52918C106.76 8.53537 107.049 8.54374 107.337 8.55378C110.919 10.1281 110.083 8.80398 111.462 10.2161C111.185 10.1648 110.907 10.1151 110.63 10.0669C110.006 9.86225 109.383 9.6667 108.756 9.4782C111.244 10.3506 113.692 11.3518 116.081 12.4745C119.006 14.1064 120.823 14.7563 123.914 16.8266C124.223 16.9879 124.532 17.1513 124.839 17.3167C124.434 17.2941 123.312 16.5525 125.388 17.9615C125.495 18.1893 124.059 17.2988 123.45 16.8176C123.303 16.6995 124.713 17.4263 123.19 16.507C122.144 15.8987 123.976 17.1174 120.85 15.2864C120.952 15.3803 121.053 15.4743 121.154 15.5686C120.812 15.3772 120.467 15.1881 120.123 15.0025C119.852 14.77 119.579 14.539 119.304 14.3096C118.454 14 117.939 13.8957 116.102 12.9995C116.625 13.191 116.011 12.7265 115.08 12.3156C115.058 12.3666 115.035 12.4176 115.012 12.4686C112.744 11.5229 113.589 11.7049 111.645 11.0669C111.471 10.9515 111.296 10.8367 111.12 10.7225C110.021 10.4662 106.105 9.31449 106.892 9.29021C105.721 9.19027 103.44 8.42726 102.617 8.00918C102.536 8.04606 102.456 8.08307 102.376 8.1202C101.911 8.01581 101.445 7.9156 100.978 7.81962C100.726 7.72729 100.473 7.63618 100.219 7.5463C99.881 7.50648 99.5423 7.46886 99.2031 7.43345C99.0144 7.33792 98.8262 7.24333 98.6367 7.14929C98.0909 7.10966 97.5446 7.07573 96.9977 7.04754C96.6778 6.9464 96.3566 6.84722 96.0341 6.75001C95.9762 6.84331 92.7275 6.40345 91.8093 6.24999C91.5311 6.25433 91.2559 6.26045 90.9811 6.26804C90.8535 6.20036 90.7256 6.13298 90.5973 6.06592C90.3903 6.09156 90.1834 6.11801 89.9766 6.14527C89.5123 6.06259 89.0459 5.98399 88.5776 5.90954C86.636 6.06428 86.6 5.84358 86.1586 5.82594C85.6723 5.81004 84.4798 5.843 83.5 5.8922C82.8464 5.92354 82.2925 5.95774 82.1074 5.95753C81.6454 5.95723 81.4202 5.86605 81.0475 5.86815C74.8977 6.01594 77.4431 6.19867 76.2208 6.31673C75.5664 6.40066 75.0852 6.36045 74.5017 6.43753C73.4956 6.52359 68.5171 7.46557 68.242 7.54853C67.8229 7.61648 68.7204 6.99531 67.3856 7.38302C67.3834 7.60518 64.4558 8.04494 65.8721 8.04414C64.6853 8.29142 63.502 8.56732 62.3241 8.87169C62.5289 9.09747 61.047 9.32619 59.4969 9.84927C57.2849 10.5351 52.5543 12.6741 52.6257 12.3704C52.1429 12.6502 51.6642 12.9348 51.1897 13.2239C47.718 14.7272 44.5061 16.6086 41.3648 18.6572C32.0049 24.6946 23.3448 33.4994 17.524 42.9572C17.2425 43.4108 17.205 43.2982 17.0048 43.6261C15.9193 45.3313 13.5158 50.0076 12.4127 52.6117C12.0454 53.442 11.7982 53.8147 11.6847 54.0792C11.3036 54.9775 11.5008 54.8084 11.3323 55.2246C11.0471 55.8754 9.68415 59.3662 9.31601 60.6119C9.12234 61.2206 8.9977 61.9716 8.76967 62.6855C8.75015 62.7471 8.68957 62.6066 8.67333 62.6588C8.30123 63.9755 8.59853 63.2033 8.47432 63.6491C7.60361 66.8197 6.91276 70.2923 6.4551 73.8321C6.33796 74.7132 6.13158 76.062 6.06325 76.8187C6.03738 77.1083 6.1501 76.5943 6.06573 77.5956C6.0382 77.9389 5.93532 78.0499 5.90382 78.4389C5.77615 80.125 6.06333 80.6767 5.78761 82.1156C5.78271 82.5344 5.78176 83.0007 5.78653 83.5C5.7945 86.3201 6.1011 90.1178 6.35958 92.2557C6.42757 92.8526 6.40763 93.1495 6.48236 93.7161C6.53545 94.1186 6.71908 94.8103 6.81688 95.4335C6.91461 96.0602 6.99346 97.062 7.22589 98.2544C7.46537 99.5064 7.86973 101.059 7.93701 101.336C8.01696 101.675 7.95368 101.857 8.03821 102.195C8.28159 103.22 9.13964 105.916 9.57721 107.2C10.0354 108.587 10.286 109.425 10.4551 109.893C10.6124 110.326 10.8847 110.802 10.9603 110.998C11.0783 111.304 11.0099 111.414 11.1623 111.802C11.4131 112.436 11.7334 113.061 12.1358 113.999C19.3809 130.909 32.5388 144.752 48.4945 152.873C50.2809 153.771 51.319 154.204 54.0202 155.366C55.1185 155.826 54.6139 155.737 55.4864 156.057C55.8765 156.197 55.8081 156.083 56.2998 156.263C58.464 157.065 61.0209 157.933 61.9839 158.202C62.3663 158.311 62.8283 158.344 63.6171 158.552C69.4809 160.12 76.6301 161.139 83.1762 161.12C83.2825 161.12 83.3904 161.12 83.5 161.12C86.9674 161.136 91.9946 160.728 95.7835 160.091C106.63 158.425 117.765 153.899 126.068 148.336C138.681 140.034 148.667 128.026 154.72 114.249C151.791 120.656 146.74 128.866 141.47 134.666C127.514 150.674 105.46 161.087 83.5 160.876C82.0794 160.877 80.6753 160.839 79.2755 160.764C71.2158 160.406 61.1591 158.217 53.0966 154.622C52.7295 154.463 51.939 154.198 51.1572 153.829C50.9877 153.757 48.9914 152.655 48.3153 152.296C48.8512 152.842 46.2826 151.271 45.4803 150.803C44.4588 150.236 42.2834 149.1 40.0545 147.499C38.0402 146.035 38.6679 146.34 38.5558 146.26C37.8649 145.717 37.5332 145.652 36.9848 145.259C34.5319 143.901 24.355 133.972 22.2224 130.595C21.6022 129.783 21.6635 129.701 21.5258 129.517C21.1634 129.029 20.5781 128.383 20.0208 127.581C19.0114 126.136 18.0024 124.379 17.5027 123.549C16.2821 121.589 14.1017 117.76 12.8973 115C12.5528 114.226 12.665 114.234 12.5126 113.882C11.8196 112.349 10.1761 108.272 9.58966 106.253C8.58747 103.004 7.84166 99.5718 7.24987 96.1694C7.25677 95.9456 7.26464 95.7219 7.27346 95.4983C7.17501 95.1615 7.07981 94.8307 6.98619 94.495C6.49151 90.869 6.20192 87.1933 6.17818 83.5C6.16394 81.2763 6.24488 79.0833 6.43134 76.9021C6.46849 76.2381 6.93184 72.9394 7.02868 72.401C7.09414 71.9481 7.05526 71.4834 7.18198 70.81C7.36423 69.8698 7.40637 70.7891 7.62695 69.2459C7.68941 68.8317 7.52572 69.2138 7.66036 68.383C7.65962 68.0982 8.88128 62.8299 9.01224 62.5604C9.15293 62.096 9.45412 61.7348 9.49324 61.6166C9.69787 61.0022 9.55367 60.9874 9.66913 60.5681C10.0094 59.3227 10.6549 57.7688 10.7249 57.5734C11.5156 55.1746 13.2741 50.7814 14.5713 48.4595C14.7466 48.137 14.822 48.2254 14.8544 48.1697C15.0644 47.8115 15.0765 47.5268 15.2597 47.1768C16.2368 45.2849 18.0188 42.4658 19.2334 40.7092C19.3714 40.506 19.6135 40.0421 19.8683 39.6834C21.3216 37.666 20.9439 38.3894 21.0256 38.2739C21.2302 38.0094 21.4917 37.4731 22.0267 36.7593C23.3813 34.9045 26.2565 31.5651 27.995 29.8223C29.2871 28.5072 29.3626 28.6239 29.4477 28.5382C29.6351 28.361 30.0781 27.7878 30.9591 26.953C32.6646 25.3586 32.5415 25.621 33.2604 24.9871C33.3224 24.9355 33.1527 24.9537 33.9616 24.2604C35.5069 22.8981 39.2649 20.2017 41.1186 19.0178C41.8251 18.5529 41.9443 18.3718 42.6788 17.9093C43.8362 17.1615 46.5837 15.7197 46.8048 15.6141C46.865 15.5817 46.9516 15.419 47.3075 15.2296C47.6991 15.0215 48.1104 14.8669 48.4045 14.7162C50.0726 13.8389 52.9675 12.3677 52.291 13.0648C52.8046 12.7393 53.3265 12.418 53.8476 12.1048C57.5006 10.6071 61.136 9.37605 64.9332 8.41969C65.7853 8.20591 66.517 8.1097 67.2433 7.9505C67.9672 7.77232 71.1626 7.07882 71.715 7.01051C72.6669 6.80638 78.1981 6.22803 78.8972 6.24611C80.251 6.18071 81.5542 6.29745 82.1052 6.25935C82.546 6.22927 82.1357 6.14893 82.9796 6.11734C83.1417 6.1117 83.3166 6.10832 83.5 6.10707C84.973 6.09032 86.9616 6.2533 87.3525 6.275C87.5407 6.28691 87.191 6.18912 88.9697 6.30002C89.9269 6.365 90.4307 6.48547 90.7755 6.51665C90.8842 6.53043 90.7273 6.37989 92.619 6.60842C93.9209 6.77434 94.4569 6.95019 94.5927 6.96846C94.796 6.99867 95.2999 6.97237 96.1209 7.10992C98.0373 7.41285 101.475 8.26378 103.24 8.75707C103.583 8.85171 103.499 8.69889 104.861 9.09497C105.833 9.38435 105.635 9.42638 105.997 9.53852C106.566 9.71809 107.464 9.87571 108.718 10.3111C110.406 10.6126 121.606 15.9863 122.033 16.5457C122.397 16.7788 122.827 17.0345 122.984 17.1873C122.802 17.135 122.62 17.0834 122.438 17.0325C120.884 15.9361 121.447 16.4907 121.004 16.253C120.365 15.9005 117.95 14.6094 117.328 14.3667C117.108 14.2782 117.549 14.6017 116.385 14.1025C115.135 13.5744 114.653 13.1674 114.057 13.1795C112.396 12.1547 110.56 11.7661 112.598 12.6662C113.837 12.9627 124.598 18.6979 126.501 20.3437C128.17 21.4738 131.233 23.6879 133.095 25.3296C134.214 26.2654 136.817 28.7373 136.605 28.7369C137.517 29.6513 136.633 28.6009 136.839 28.7772C137.293 29.1272 140.024 32.1027 140.512 32.6886C143.046 35.4713 146.046 39.1936 147.862 42.3793C147.74 42.2551 147.618 42.1315 147.495 42.0084C147.017 41.3434 144.899 38.1736 144.487 37.947C147.817 42.3973 150.658 47.2113 152.94 52.2776C153.095 52.0943 155.657 58.5127 155.625 58.8661C155.519 58.7743 155.413 58.683 155.307 58.5921C154.241 54.8397 154.001 55.3072 153.151 52.8306C152.721 51.8567 152.744 52.1991 152.506 51.7323C150.045 47.1388 152.725 51.5327 150.822 48.0198C151.233 49.1598 149.659 46.2978 148.881 45.0607C148.736 44.7621 146.431 41.0463 146.107 40.6378C144.473 38.2173 141.28 34.3571 139.361 32.1874C137.818 30.5047 136.843 29.7006 135.322 28.2994C134.159 27.2455 134.543 27.4921 133.995 26.9952C132.835 25.9614 132.278 25.8356 131.743 24.9238C130.902 24.2884 130.048 23.6708 129.182 23.0715C129.216 23.027 129.25 22.9825 129.284 22.938C128.755 22.538 128.223 22.146 127.685 21.7602C127.495 21.692 127.304 21.6246 127.113 21.558C125.435 20.2975 126.225 20.6903 125.991 20.3365C125.62 20.0734 125.247 19.8135 124.871 19.5568C124.509 19.467 124.148 19.38 123.786 19.296C122.079 18.2105 120.327 17.1933 118.54 16.249C118.45 16.1391 118.359 16.0295 118.268 15.92C118.239 15.9675 118.21 16.0149 118.181 16.0624C115.128 14.5023 111.976 13.153 108.743 12.0232C107.867 11.7734 112.968 13.7727 113.325 13.9885C115.465 14.8571 120.921 17.6491 120.807 17.8673C122.14 18.4175 125.771 20.7678 126.747 21.7094C125.088 20.533 123.382 19.4239 121.635 18.3859C121.658 18.4765 121.681 18.5671 121.704 18.6576C119.653 17.1588 119.307 16.9854 116.875 16.0396C116.913 15.9587 116.95 15.8778 116.988 15.7968C115.238 15.2524 112.498 13.5065 112.261 13.8348C111.382 13.438 110.493 13.0573 109.595 12.6931C107.6 12.0883 110.633 13.1915 102.85 10.7961C102.308 10.6455 102.446 10.5783 101.626 10.3804C101.39 10.3301 100.003 10.1036 97.3922 9.59501C96.9841 9.51699 96.9682 9.4281 96.544 9.34252C95.5621 9.13755 93.5721 9.02395 94.5034 8.88289C90.5913 8.27946 92.1821 8.735 90.9574 8.68446C90.1422 8.66585 90.3197 8.52051 89.6123 8.49833C88.7376 8.48898 89.3605 8.64021 85.8751 8.42381C86.2676 8.42494 86.6595 8.42907 87.0507 8.4362C86.8562 8.38293 86.6612 8.33039 86.4655 8.27861C84.4654 8.31821 84.6525 8.18187 83.7047 8.42101C83.6361 8.41562 83.5679 8.41055 83.5 8.40579C82.1214 8.31227 80.8943 8.32635 79.0031 8.45346C75.1495 8.7837 77.1571 8.83564 72.7416 9.03072C72.0465 9.18127 71.3441 9.34319 70.6505 9.51411C69.4784 9.61545 70.3851 9.30726 68.6618 9.61317C70.056 9.59817 66.4123 10.2416 65.8697 10.6388C65.7933 10.5998 65.7168 10.5609 65.6401 10.5222C65.2608 10.6147 64.8852 10.7094 64.5057 10.8082C64.5158 10.8519 64.5259 10.8955 64.5361 10.9391C64.0238 11.0379 63.513 11.1421 63.0036 11.2514C62.6394 11.4007 62.2772 11.5525 61.9168 11.707C61.2777 11.8011 60.6341 11.9053 59.9925 12.0177C59.606 12.138 59.2208 12.2613 58.8368 12.3877C58.9795 12.4087 59.122 12.4302 59.2643 12.4521C58.7666 12.5983 58.2706 12.7496 57.7766 12.906C58.381 12.807 58.0645 13.0413 56.5568 13.6137C55.3205 14.1016 56.6179 13.3126 54.0133 14.5014C53.8362 14.5938 53.5549 14.848 51.1306 16.0241C48.2389 17.4837 49.6009 16.6906 49.082 16.9443C48.9801 16.9959 48.1426 17.5238 47.3376 17.9841C46.8806 18.2443 46.4084 18.4382 46.3482 18.473C46.0682 18.6373 46.0329 18.7652 45.6477 18.9952C44.6699 19.5767 43.3435 20.3494 42.4148 20.9695C41.9916 21.2503 41.6277 21.5638 41.4407 21.6922C41.1506 21.8906 40.7357 22.0751 40.445 22.2806C39.3658 23.0347 37.9544 24.4608 37.237 24.5347C36.4595 25.5837 34.1725 26.9675 34.4787 27.0292C31.7487 29.0639 25.9319 35.9367 25.8657 35.5376C24.9162 37.2331 24.8422 36.9488 24.3491 37.5821C23.8059 38.2947 24.1419 37.9674 23.7095 38.5326C22.7059 39.8539 21.7675 41.1383 20.8601 42.5189C20.956 42.2715 21.0533 42.0244 21.1521 41.7776C20.1788 43.2184 20.61 42.7853 19.6919 44.3007C18.0515 47.1131 18.6817 45.8925 18.3079 46.2329C18.4745 46.1813 16.6207 49.5467 16.4513 49.9013C16.3405 50.1072 16.6204 49.101 15.6426 51.2504C15.7482 51.1579 15.8539 51.0662 15.96 50.9743C15.4114 51.8975 14.3283 54.6132 14.1379 55.0639C14.044 55.2672 13.1677 56.2328 13.1135 57.4059C13.0146 57.5125 12.9157 57.6204 12.8176 57.7272C12.4572 58.9102 12.1255 60.1046 11.8239 61.306C11.6701 61.4642 11.5168 61.6234 11.364 61.7838C11.2509 62.1598 11.1408 62.5371 11.0335 62.9156C11.1902 62.6887 11.348 62.4632 11.5068 62.2392C10.7682 64.5511 10.2633 67.463 9.87315 67.8953C9.81962 68.4189 9.77333 68.9341 9.73155 69.4541C9.57082 69.7668 9.41202 70.0816 9.25519 70.3985C8.87878 72.7891 8.95742 72.8311 8.85479 74.4791C8.78507 74.406 8.71546 74.3326 8.64596 74.2591C8.60072 75.4883 8.49126 77.6897 8.41791 79.4509C8.37635 80.2804 8.22806 81.7044 8.23616 81.9032C8.23942 82.0289 8.39434 82.8535 8.42918 83.5C8.44896 83.8809 8.42493 84.1993 8.29039 84.2797C8.49217 87.1559 8.43992 88.4196 8.52948 89.5863C8.59417 90.342 8.71178 90.6728 8.80966 91.5245C8.95105 92.745 9.07576 93.969 9.1863 94.6641C9.24951 95.0609 9.34639 95.1247 9.39253 95.3995C9.61978 96.6981 9.40197 95.9525 9.65378 97.3173C9.67853 97.4447 9.9636 98.4141 10.1954 99.5376C10.3188 100.165 10.5917 101.798 10.6314 101.938C10.7976 102.562 10.8737 102.008 11.2073 104.211C11.2325 104.137 11.2578 104.063 11.2833 103.989C12.1497 106.578 12.1354 107.041 12.2909 107.572C12.312 107.639 12.6 108.245 12.7239 108.623C12.9321 109.262 12.9298 109.552 12.9772 109.695C13.1422 110.197 13.8254 111.831 14.1898 112.933C14.3536 112.608 16.1016 116.241 16.2325 117.186C16.6147 117.799 17.0051 118.405 17.4033 119.003C17.5074 119.315 17.6147 119.627 17.7237 119.938C17.8683 120.084 18.0134 120.229 18.1589 120.374C18.5671 121.344 18.9946 122.305 19.4463 123.262C19.5858 123.254 19.7252 123.246 19.8645 123.237C20.0079 123.493 20.1528 123.748 20.2992 124.001C20.3407 124.246 20.3835 124.491 20.4276 124.737C20.6444 125.034 20.8632 125.329 21.0841 125.622C21.1934 125.658 21.3028 125.693 21.4121 125.728C22.6061 127.29 21.4395 126.896 24.1821 129.532C24.4961 130.026 24.8162 130.518 25.1423 131.006C25.7671 131.347 26.4336 132.397 27.1175 133.125C27.5994 133.636 27.6521 133.537 28.2985 134.24C28.9488 134.941 28.8542 134.983 28.9041 135.038C29.4356 135.61 29.9116 135.967 30.3016 136.386C30.3608 136.448 30.4247 136.689 30.9405 137.206C31.4584 137.722 31.8635 137.934 32.6436 138.689C33.0449 139.075 33.0953 139.259 33.4577 139.596C35.1913 141.207 37.3561 142.272 38.399 143.822C38.7597 144.01 41.2637 145.471 42.2907 146.147C43.8838 147.214 43.2021 146.91 43.8359 147.338C43.9288 147.396 44.4412 147.682 45.8279 148.501C46.0767 148.647 46.0531 148.553 46.0894 148.573C47.7061 149.53 50.9265 151.247 52.8131 152.079C52.982 152.154 53.9352 152.383 55.3496 153.233C57.6535 153.989 61.8548 155.849 65.048 156.329C65.4774 156.432 65.9839 156.624 66.1757 156.666C67.8335 157.011 67.254 156.735 70.9606 157.707C70.671 157.549 71.5757 157.614 72.8167 157.799C74.6925 158.065 73.3309 158.087 74.8519 158.255C74.8582 158.2 74.8645 158.144 74.8708 158.089C78.3457 158.6 79.0717 158.407 82.5854 158.484C82.8678 158.488 83.1806 158.496 83.5 158.505C84.6172 158.54 85.8024 158.579 86.0369 158.571C86.1561 158.57 87.5244 158.376 87.6606 158.364C88.4066 158.318 88.8307 158.351 89.4718 158.302C91.5827 158.148 94.082 157.622 93.6666 157.998C94.2379 157.854 94.7992 157.703 95.3695 157.545C97.6132 157.531 99.129 156.718 99.6522 156.941C100.024 156.79 100.394 156.636 100.762 156.48C109.97 154.351 118.766 150.438 126.538 145.027C126.803 144.748 130.123 142.301 130.282 142.159C131.084 141.606 130.438 142.442 131.936 141.13C132.039 140.911 132.142 140.692 132.243 140.472C134.1 138.812 133.26 139.672 134.04 139.067C134.336 138.78 134.185 138.812 134.589 138.43C136.82 136.394 141.008 131.827 142.966 129.168C143.369 128.64 143.366 128.763 143.491 128.598C143.833 128.144 144.424 127.188 145.074 126.253C149.198 120.532 153.608 111.479 155.566 104.646C155.706 104.185 155.806 104.151 155.899 103.839C156.028 103.406 156.22 102.409 156.341 101.953C156.457 101.523 156.589 101.261 156.707 100.797C157.253 98.6689 157.68 95.7533 158.172 93.4572C158.224 93.2709 158.85 90.8468 158.869 90.7956C159.03 90.4773 159.062 92.704 159.565 89.1033C159.45 92.3469 159.923 91.4017 160.318 87.1451C160.256 89.2886 160.109 91.4114 159.871 93.5437C159.907 93.5514 159.942 93.5592 159.978 93.567C160.405 91.6516 160.673 89.73 160.821 86.7541C160.851 86.8479 160.881 86.9418 160.91 87.0357C160.972 89.6798 160.67 92.8478 160.598 94.8679C161.195 91.9743 161.628 89.0246 161.894 86.0626C161.916 86.2117 161.937 86.3608 161.958 86.51C161.991 87.9333 161.792 91.0546 161.71 92.2406C161.438 96.7868 162.311 88.3055 162.285 89.7073C161.908 94.5018 161.093 99.2604 159.849 103.904C160.404 104.218 163.39 85.8915 163.222 86.0211C163.198 87.538 163.129 89.0761 163.018 90.5941C163.162 89.9252 163.298 89.2518 163.426 88.5738C163.441 88.7638 163.456 88.9537 163.469 89.1437C163.356 91.7246 163.118 94.3108 162.754 96.8799C163.928 89.0637 163.796 85.4133 164.515 83.5C164.532 83.7167 164.548 83.9334 164.564 84.15C164.217 85.8749 163.846 93.9605 163.031 98.2123C163.335 97.3716 163.798 93.6005 163.939 92.806C163.986 92.5815 163.979 93.3824 164.083 92.8617C164.416 91.509 164.888 85.626 164.962 86.4868C165.162 87.0436 164.372 96.5472 163.869 98.3664C164.819 94.1015 165.32 89.6109 165.602 85.229C165.793 87.9965 166.058 90.5062 165.365 95.5685C165.404 97.1598 166.702 86.3858 166.616 86.1305C166.642 87.9974 166.603 89.9012 166.502 91.773C166.636 90.1943 166.725 88.5893 166.769 87.004C166.797 87.0005 166.825 86.997 166.853 86.9936C166.8 91.1262 166.642 94.9247 165.73 99.5975C165.912 99.4821 166.408 96.6673 166.586 95.305ZM140.267 33.7012C140.233 33.8451 139.21 32.6591 138.605 32.0158C138.679 32.1279 138.753 32.2401 138.827 32.3525C137.584 30.9386 135.09 28.4703 134.824 28.5664C133.822 27.6777 134.395 27.929 134.091 27.6194C133.973 27.4963 132.592 26.4184 131.602 25.4151C131.345 25.2027 131.087 24.9923 130.827 24.7834C130.728 24.8036 130.629 24.8239 130.531 24.8444C130.229 24.4806 129.922 24.1191 129.612 23.7598C133.468 26.7192 137.04 30.0518 140.262 33.6958C140.263 33.6976 140.265 33.6994 140.267 33.7012ZM99.1461 9.71195C97.432 9.29074 94.7577 8.80277 95.2662 9.10073C96.3738 9.26305 97.4738 9.44949 98.5657 9.65954C98.7576 9.67593 98.9527 9.69373 99.1461 9.71195ZM19.168 123.192C19.7735 124.562 20.6614 125.615 21.96 127.502C21.9943 127.474 22.0286 127.445 22.0629 127.417C21.4245 126.722 20.0868 124.638 19.168 123.192ZM159.095 72.9677C159.124 73.2955 159.15 73.6238 159.175 73.9525C158.766 72.6549 158.904 72.4073 158.638 70.9101C158.621 70.8203 158.573 70.8606 158.567 70.8293C158.502 70.4648 158.508 70.1165 158.447 69.788C158.328 69.1534 158.17 68.6565 157.935 67.5361C157.751 66.672 157.848 66.642 157.776 66.3397C157.721 66.0784 156.826 63.6084 156.458 61.966C155.932 58.7747 159.288 71.9277 159.095 72.9677ZM159.612 82.462C159.607 82.1441 159.599 81.8266 159.59 81.5097C159.772 82.4594 159.715 80.5359 159.626 79.1252C159.793 79.1669 159.855 82.1454 159.883 83.5C159.795 83.1523 159.705 82.8063 159.612 82.462ZM149.085 44.1943C149.736 45.2555 149.459 45.1767 149.385 45.1602C149.186 44.8189 148.984 44.4793 148.78 44.1414C148.882 44.1588 148.983 44.1764 149.085 44.1943ZM153.464 52.4701C153.196 52.1632 152.005 49.7426 151.397 48.6155C151.371 48.5662 151.598 48.8444 151.174 48.045C151.056 47.7986 149.532 45.5888 150.074 45.9583C151.307 48.0711 152.438 50.2444 153.462 52.4667C153.463 52.4678 153.463 52.4689 153.464 52.4701ZM154.456 55.0151C154.228 54.558 153.996 54.105 153.759 53.653C153.713 53.3868 153.665 53.1205 153.616 52.8544C153.863 53.3802 154.104 53.9087 154.338 54.4384C154.378 54.6306 154.417 54.8228 154.456 55.0151ZM131.827 142.952C131.693 142.976 131.56 142.999 131.426 143.023C131.051 143.285 129.454 144.875 130.049 144.487C130.65 143.984 131.243 143.472 131.827 142.952ZM138.871 136.649C139.218 136.336 139.562 136.019 139.904 135.699C140.187 135.229 140.464 134.758 140.735 134.284C139.143 135.977 137.33 137.651 137.844 137.602C137.468 137.98 137.089 138.353 136.705 138.723C136.932 138.312 136.862 138.33 135.794 139.221C135.702 139.567 134.586 140.481 133.364 141.584C134.28 140.812 135.178 140.018 136.057 139.204C136.08 139.228 136.103 139.252 136.125 139.276C134.154 141.087 136.759 138.998 137.887 137.655C138.015 137.589 138.143 137.522 138.272 137.456C138.473 137.188 138.673 136.919 138.871 136.649ZM7.59734 72.5106C7.51721 72.833 7.43909 73.1566 7.363 73.4812C7.63691 74.8092 7.5341 72.1666 8.20442 70.3838C7.83366 70.9431 8.35354 68.1555 8.38167 67.9972C8.22957 68.2988 8.07946 68.6009 7.93101 68.9055C7.79185 70.1019 7.679 71.3143 7.59734 72.5106ZM6.53205 81.8641C6.64379 81.3463 6.67049 82.2121 6.69803 83.5C6.72569 85.0736 6.80057 87.2278 6.84431 88.2787C6.85972 88.7413 6.80099 89.5716 6.84439 89.9022C6.90501 90.0999 6.96637 90.297 7.02847 90.4936C6.87867 90.7407 7.46221 94.4198 7.8021 95.8356C7.76916 95.9803 7.73662 96.1252 7.70449 96.2703C7.81422 96.7926 7.92923 97.3127 8.04942 97.8304C7.98258 97.7751 7.91579 97.7196 7.84906 97.6639C7.98827 98.0478 8.13032 98.4295 8.27516 98.8092C8.66992 100.342 8.1723 99.4519 8.52132 100.593C8.91843 101.856 8.61116 99.7086 8.74007 99.7229C8.47478 98.684 7.96891 96.3201 7.80929 95.2393C7.72121 94.6223 8.00239 95.3013 7.42541 92.6713C7.41159 92.081 7.40381 91.4827 7.40419 90.8981C7.2127 89.8379 7.04283 88.7675 6.89529 87.6872C6.96197 87.4799 7.02964 87.2764 7.09807 87.0727C7.09508 86.9615 6.84927 84.472 6.80126 84.603C6.83934 84.3142 6.86796 83.9395 6.8928 83.5C6.95468 82.3893 6.99777 80.882 7.08802 79.3231C7.05719 79.1098 7.02722 78.8963 6.99813 78.6827C6.97175 80.8077 6.91576 79.3548 6.80287 79.9816C6.73783 80.3418 6.60888 81.454 6.53205 81.8641ZM119.653 151.258C122.676 149.368 120.847 150.614 124.139 148.621C123.858 148.679 123.577 148.734 123.296 148.788C121.793 149.943 118.991 151.307 119.65 151.259C119.651 151.259 119.652 151.258 119.653 151.258ZM147.028 126.045C145.932 127.753 146.654 127.015 145.178 129.13C145.177 129.131 145.177 129.132 145.176 129.133C145.979 128.069 146.756 126.981 147.502 125.876C147.344 125.933 147.186 125.989 147.028 126.045ZM42.1836 147.98C40.5771 146.881 40.8514 147.156 39.4903 146.02C37.2443 144.642 39.0649 145.919 38.9673 146.059C39.4876 146.368 40.0112 146.671 40.5381 146.968C41.66 147.915 40.4653 147.211 40.4565 147.223C40.4575 147.223 40.4585 147.224 40.4595 147.225C40.4307 147.267 40.3845 147.251 40.8341 147.589C41.2837 147.724 41.7335 147.854 42.1836 147.98ZM35.2943 143.269C35.8899 143.599 36.2063 143.677 34.895 142.513C34.8941 142.512 34.8931 142.511 34.8922 142.511C34.6187 142.62 33.4609 141.378 32.8794 140.88C32.7103 140.768 32.5415 140.655 32.3731 140.541C33.3216 141.474 34.2966 142.385 35.2943 143.269ZM16.215 121.006C16.4588 120.864 17.1986 122.136 16.4169 120.198C16.2187 119.847 16.0247 119.497 15.8326 119.144C15.6548 118.94 15.4779 118.734 15.3019 118.527C13.5417 113.709 11.9771 112.759 16.2114 120.311C16.2122 120.312 16.213 120.313 16.2137 120.314C16.213 120.544 16.2135 120.775 16.215 121.006ZM21.0996 128.613C21.2576 128.579 21.4154 128.545 21.5731 128.51C21.952 129.632 23.0933 130.601 24.3084 132.467C24.4711 132.593 24.6342 132.718 24.7977 132.843C25.1698 133.616 30.8076 139.498 29.7523 138.055C29.2716 137.45 28.0129 136.342 27.9179 136.233C27.5898 135.87 27.2476 135.32 26.6913 134.714C26.3694 134.365 25.5911 133.714 24.9635 132.97C23.5396 131.315 21.4561 127.942 19.5838 125.764C19.5074 125.568 19.4319 125.371 19.3572 125.175C18.1942 123.409 18.445 124.077 17.5766 122.304C16.1932 121.542 21.8887 128.957 20.3776 127.641C20.3783 127.642 20.379 127.643 20.3797 127.644C20.6172 127.969 20.8572 128.292 21.0996 128.613ZM69.5167 159.014C69.6174 159.171 72.0876 159.38 71.4678 159.584C72.2824 159.605 73.0889 159.612 73.9004 159.607C73.8978 159.579 73.8952 159.55 73.8926 159.521C73.0972 159.444 72.3094 159.355 71.5159 159.253C71.5197 159.209 71.5236 159.164 71.5275 159.12C70.3145 159.14 65.4706 158.043 65.6642 157.893C65.3917 157.897 65.119 157.899 64.8462 157.899C62.5898 157.143 60.578 156.752 58.1936 155.735C57.987 155.721 57.7802 155.706 57.5734 155.69C57.4659 155.604 57.3588 155.518 57.252 155.432C56.3691 155.104 55.4927 154.759 54.6251 154.399C51.7187 153.398 57.1543 155.881 57.8719 156.046C57.9641 156.074 57.9878 155.962 58.5617 156.141C59.5643 156.514 65.2801 158.285 67.1227 158.538C67.1221 158.616 67.1215 158.695 67.1209 158.773C67.9236 158.867 68.718 158.946 69.5167 159.014ZM11.6745 110.517C11.6999 110.363 11.7257 110.209 11.752 110.056C10.8768 107.909 10.5228 106.48 10.4548 107.13C10.4552 107.131 10.4556 107.132 10.4559 107.133C10.8365 108.273 11.2408 109.396 11.6745 110.517ZM107.893 10.8116C107.887 10.647 106.841 10.2292 105.435 9.92704C105.489 9.98986 105.542 10.0527 105.595 10.1157C106.345 10.2085 107.184 10.6862 109.361 11.4275C109.387 11.3541 109.414 11.2808 109.44 11.2075C108.926 11.0702 108.41 10.9382 107.893 10.8116ZM12.3753 112.399C12.5513 113.093 13.6022 114.81 13.0949 113.603C12.7113 112.68 12.2794 112.028 12.3753 112.399ZM151.253 119.272C150.993 119.728 150.729 120.182 150.459 120.633C150.384 120.904 150.308 121.176 150.23 121.447C150.23 121.446 150.231 121.444 150.231 121.443C150.584 120.724 150.925 119.999 151.253 119.272ZM47.9404 151.318C46.362 150.499 44.808 149.623 43.2889 148.696C43.2511 148.723 43.2132 148.75 43.1754 148.778C44.7786 149.58 45.3198 150.07 45.677 150.288C45.6754 150.287 45.6738 150.286 45.6721 150.285C46.8209 150.976 47.9325 151.597 49.0428 152.213C48.6716 151.917 48.3042 151.619 47.9404 151.318ZM53.3426 154.188C53.1883 153.78 52.8299 153.631 50.2676 152.653C50.3488 152.734 50.4303 152.814 50.5121 152.895C51.8043 153.484 52.5959 153.746 52.3021 153.792C52.6479 153.926 52.9947 154.058 53.3426 154.188ZM30.2293 138.73C30.3907 139.037 32.3787 140.738 32.311 140.599C32.2693 140.56 29.8925 138.156 30.2293 138.73ZM125.674 19.4032C125.184 19.0537 124.69 18.7097 124.192 18.3712C124.888 18.7682 125.578 19.1762 126.262 19.5948C126.066 19.53 125.87 19.4662 125.674 19.4032ZM131.293 22.929C131.602 23.2296 130.352 22.5638 132.299 24.2348C130.855 23.0524 129.367 21.921 127.842 20.8468C128.582 21.317 129.313 21.7991 130.038 22.2956C129.964 22.1402 129.89 21.9848 129.814 21.8294C130.312 22.1901 130.804 22.5567 131.293 22.929ZM132.728 24.3525C132.103 23.5237 136.138 26.9934 136.45 27.3884C136.526 27.4684 136.797 27.9446 136.911 28.1031C136.335 27.547 135.749 26.9998 135.155 26.4618C135.32 26.6787 135.484 26.8964 135.647 27.1147C134.948 26.4913 134.239 25.8814 133.518 25.2843C133.854 25.5072 134.188 25.7329 134.521 25.9614C133.932 25.4162 133.334 24.8798 132.728 24.3525ZM114.693 13.1879C115.303 13.465 115.91 13.7498 116.512 14.0422C116.424 13.9144 116.337 13.7867 116.248 13.6591C115.885 13.4883 115.519 13.3202 115.152 13.1549C114.999 13.1654 114.846 13.1764 114.693 13.1879ZM126.672 19.7299C125.661 19.4916 123.869 17.3576 126.312 19.3177C126.556 19.5177 126.768 19.752 126.672 19.7299ZM137.85 28.8073C139.516 30.1021 138.758 30.1808 137.49 28.6671C137.426 28.5908 137.725 28.7108 137.85 28.8073ZM147.786 40.8941C147.876 41.0386 147.885 41.3823 148.904 42.6494C149.026 42.8874 149.148 43.1261 149.268 43.3653C148.905 42.8508 145.877 38.4711 146.434 38.9768C146.908 39.6419 147.323 40.1876 147.786 40.8941ZM145.356 36.2447C144.86 35.6051 144.354 34.9735 143.839 34.3502C143.96 34.5956 144.08 34.8413 144.198 35.0875C143.937 34.7877 143.674 34.49 143.409 34.1945C143.059 33.6037 142.701 33.0164 142.334 32.433C143.501 33.7515 144.624 35.1083 145.701 36.5036C145.586 36.4169 145.471 36.3306 145.356 36.2447ZM130.203 21.0359C131.404 22.0341 132.962 23.1438 134.862 24.8226C134.863 24.8236 134.864 24.8246 134.864 24.8255C134.959 24.9096 135.072 25.1201 135.373 25.3931C135.679 25.5695 140.611 30.3103 140.098 30.063C138.186 28.2385 137.588 27.4371 136.915 27.2261C136.868 27.0892 136.82 26.9523 136.772 26.8155C134.991 24.9987 134.273 24.7126 133.133 23.8611C133.169 23.826 133.206 23.7908 133.242 23.7557C132.514 23.1424 131.776 22.5428 131.025 21.9563C131.111 22.0646 131.197 22.1731 131.282 22.2818C131.017 22.0747 130.751 21.8692 130.483 21.6654C129.921 21.0499 129.101 20.4049 130.203 21.0359ZM147.449 39.2583C148.248 39.6157 151.937 45.944 153.394 48.9389C152.42 47.47 151.266 45.0201 150.276 43.3878C148.342 40.2465 149.562 42.4914 149.181 41.9922C148.996 41.7456 148.058 39.8632 147.449 39.2583ZM125.486 17.8458C127.013 18.8675 127.913 19.3829 129.122 20.4258C128.998 20.3703 128.874 20.3152 128.749 20.2604C128.342 19.8952 124.684 17.3826 125.486 17.8458ZM155.332 53.4218C154.047 50.1052 154.428 51.8575 153.89 50.0733C154.426 51.162 154.939 52.2672 155.424 53.3831C155.394 53.396 155.363 53.4089 155.332 53.4218ZM12.679 116.678C13.3052 118.04 14.0133 119.57 14.5652 120.291C14.1043 119.382 13.661 118.464 13.2354 117.536C13.0477 117.25 12.8628 116.965 12.679 116.678ZM4.37539 74.7777C4.29925 75.1259 4.27098 76.5028 4.26144 76.6482C4.23871 76.9169 4.195 76.8394 4.18155 76.8421C4.05464 78.6063 4.33078 76.9905 4.27356 78.2979C4.25219 78.5265 4.02989 81.5756 4.04348 82.834C4.04277 83.0564 4.04272 83.2791 4.04337 83.5C4.04635 85.1953 4.10305 86.7639 4.13685 87.3947C4.19588 88.6133 4.46855 90.8366 4.71166 92.8165C4.81093 93.6312 4.75479 93.9271 4.87102 94.7424C5.45698 100.022 8.45371 110.053 10.3818 114.335C10.8191 115.411 11.1661 116.47 11.4351 117.022C11.6802 117.442 11.9282 117.858 12.1813 118.274C12.4796 119.789 13.0284 120.075 13.8226 121.464C14.3329 122.347 14.4693 122.817 14.5371 122.936C14.9919 123.723 15.2705 124.078 15.6474 124.682C16.0705 125.362 16.643 126.36 16.808 126.594C16.917 126.733 16.7089 126.201 18.4578 128.758C20.2613 131.349 22.182 133.813 24.3135 136.217C23.9611 135.1 23.1154 134.623 22.2689 133.62C22.043 133.351 22.2427 133.475 22.0474 133.24C21.4941 132.579 20.4226 131.317 20.0129 130.73C19.5696 130.098 19.8665 130.208 19.2423 129.453C19.2108 129.415 19.2426 129.585 19.0988 129.405C17.6689 127.58 17.3395 126.887 15.8113 124.394C14.5972 122.852 9.51194 112.224 9.60093 111.749C8.94563 109.759 13.8739 121.094 14.8038 122.248C15.0475 122.691 14.7151 122.27 14.9305 122.678C15.0221 122.853 16.0292 124.298 16.9755 125.754C18.0903 127.53 20.4623 131.026 21.7353 132.576C32.4636 146.03 47.4013 155.844 64.1086 160.049C64.464 160.137 64.9515 160.17 66.1164 160.434C71.7677 161.707 77.6157 162.363 83.5 162.368C100.261 162.461 117.23 156.87 130.587 146.798C134.53 143.846 138.112 140.507 141.526 136.902C141.894 136.403 142.256 135.901 142.611 135.395C141.624 136.623 139.515 138.596 139.324 138.772C139.256 138.838 138.893 139.317 138.2 139.983C137.224 140.918 136.738 141.265 136.658 141.341C136.405 141.573 136.618 141.473 136.375 141.694C134.559 143.334 133.112 144.559 131.332 145.931C129.312 147.47 128.178 148.089 126.719 149.23C126.514 149.299 126.309 149.367 126.103 149.434C125.131 150.47 117.937 154.512 114.82 155.712C113.851 156.126 113.983 155.959 113.658 156.096C113.446 156.175 113.595 156.294 111.011 157.25C109.707 157.72 109.334 157.743 108.678 157.971C108.321 158.092 108.409 158.161 107.893 158.33C104.909 159.294 102.427 159.917 99.4137 160.526C98.5696 160.693 98.5452 160.616 98.3565 160.654C97.6639 160.789 96.4637 161.148 94.6775 161.402C91.7824 161.868 86.0213 162.24 83.5 162.129C83.456 162.128 83.413 162.127 83.3711 162.125C83.0117 162.115 82.7157 162.02 82.4525 162.018C82.0542 162.015 81.8963 162.108 81.8262 162.107C80.4958 162.075 81.2985 162.007 80.4095 161.998C79.9311 161.991 79.4286 162.083 78.3073 162.024C76.8318 161.938 77.1339 161.823 76.5201 161.786C76.4553 161.782 76.4276 161.872 75.8264 161.818C73.5323 161.62 70.2305 161.149 68.1031 160.714C67.4944 160.592 67.0461 160.438 66.197 160.247C64.4457 160.032 54.928 157.019 54.2332 156.533C54.1553 156.497 55.0243 156.705 53.7166 156.18C53.3166 156.076 52.9186 155.969 52.5179 155.858C51.9211 155.505 51.3307 155.145 50.7468 154.778C50.6341 155.093 46.9781 153.349 47.1738 153.068C46.7894 152.852 46.4075 152.634 46.0269 152.412C45.1169 152.16 44.6161 151.799 43.0252 150.999C42.8223 150.799 42.6203 150.598 42.4196 150.396C42.3368 150.397 42.2541 150.398 42.1713 150.4C41.4903 149.699 40.0625 149.052 39.9049 148.945C39.2982 148.546 38.8832 148.184 38.6029 147.991C37.5499 147.278 35.2895 145.697 34.164 144.723C34.1111 144.678 34.2287 144.641 33.9093 144.365C33.3359 143.864 33.1788 143.933 32.5202 143.14C32.3355 143.04 32.151 142.94 31.9667 142.839C31.8174 142.678 31.6688 142.518 31.5209 142.356C30.5506 141.514 29.5998 140.648 28.671 139.759C29.6333 140.444 28.728 139.45 27.7392 138.644C27.4042 138.371 27.5961 138.717 27.484 138.626C27.2929 138.536 23.444 134.231 23.2929 133.861C23.092 133.673 22.8919 133.484 22.6929 133.294C22.6572 133.145 22.622 132.996 22.5872 132.846C22.4744 132.744 22.3617 132.642 22.2493 132.539C21.383 131.315 18.8786 128.326 18.5143 127.713C18.314 127.392 18.7282 127.52 17.7166 126.028C17.6167 126.018 17.5168 126.008 17.4168 125.998C17.1829 125.656 16.9517 125.312 16.723 124.966C16.315 124.301 15.856 123.26 15.9189 123.181C15.748 123.001 15.5777 122.819 15.4082 122.637C15.2236 121.989 13.5179 118.973 12.8217 117.751C12.692 117.359 12.5667 116.968 12.444 116.575C12.152 116.106 11.8645 115.634 11.5815 115.157C11.053 113.996 11.6928 115.187 11.5928 114.934C11.3652 114.406 10.0967 111.767 10.3932 111.857C10.2495 111.485 10.1086 111.112 9.97043 110.738C9.83656 110.568 9.70349 110.399 9.57117 110.229C9.55964 109.508 9.06657 108.423 8.44285 106.077C8.33376 105.897 8.22528 105.717 8.11743 105.537C7.97925 104.795 7.85174 104.051 7.73498 103.305C7.61126 103.177 7.48797 103.05 7.36519 102.922C7.27263 102.61 7.18195 102.296 7.09315 101.981C7.1266 101.292 6.65963 100.175 6.61667 99.5598C6.55789 98.6669 6.81712 99.3156 7.20295 100.91C7.28123 100.763 6.27712 95.9971 6.14753 94.8748C6.13061 94.9521 6.11379 95.0295 6.09709 95.107C6.28816 96.2422 6.50523 97.3778 6.7456 98.4991C6.57484 99.5166 6.0722 96.4235 5.8359 95.0017C5.81414 94.8726 5.56311 94.158 5.40518 92.7107C5.3358 92.1457 5.32805 89.952 5.3153 89.5343C5.19199 86.1568 5.03183 88.6484 5.16371 85.3449C5.0326 85.875 5.05539 84.8868 5.074 83.5C5.07977 83.0757 5.08539 82.6158 5.08459 82.1523C5.07063 81.8122 5.02771 78.9696 5.0482 78.7683C5.10128 77.5639 5.17657 78.8815 5.26164 77.1447C5.23407 76.9331 5.20734 76.7214 5.18145 76.5096C5.21698 76.1064 5.25527 75.7067 5.29712 75.3026C5.95538 72.8958 5.77249 72.3118 5.86166 71.4401C5.90171 71.0881 5.93058 71.5532 6.05548 70.6451C6.10429 70.3038 6.08021 69.9111 6.24301 68.999C6.77642 66.1454 7.36127 65.2806 7.68061 62.6061C7.84275 62.2254 8.00766 61.8469 8.17531 61.4704C8.18874 61.1873 8.20372 60.904 8.22026 60.6207C9.03078 58.6596 8.62183 59.3297 8.86017 58.6032C9.47203 56.6823 11.0517 52.8626 11.3587 52.6048C11.7054 50.8538 12.9836 49.1531 13.2792 48.5378C13.4211 48.1539 13.5661 47.7709 13.7142 47.3889C13.9742 46.9844 14.2375 46.5829 14.5042 46.1844C14.0713 46.2143 15.5893 44.2149 15.7211 44.0206C15.8456 43.7784 17.7513 40.473 18.5764 39.3161C19.3687 38.1372 20.9186 36.2148 21.0559 36.046C21.2035 35.8446 22.6006 33.8764 23.8375 32.4486C24.7917 31.0753 31.8838 24.3481 31.3979 24.7264C30.8895 25.1173 30.1889 25.7025 29.6009 26.2286C27.5342 27.6253 18.1825 38.6134 16.5135 41.9485C12.5629 48.1846 9.44078 55.3112 7.44544 62.455C7.32772 62.8758 7.22086 62.916 7.12243 63.2787C6.96998 63.8319 6.71667 65.2488 6.59261 65.7965C6.10682 67.8412 5.65372 70.3359 5.4867 71.4535C5.10946 73.9197 4.88073 75.6386 4.72618 77.5234C4.66907 78.1207 4.60959 81.1123 4.5681 83.1785C4.56019 83.2856 4.5525 83.3928 4.54501 83.5C4.52633 83.7678 4.50899 84.0355 4.49297 84.303C4.48489 84.0942 4.47511 83.8185 4.46629 83.5C4.42442 82.1938 4.43345 80.1956 4.48744 79.1585C4.58241 77.2271 4.7611 76.24 4.82748 75.5361C4.8729 74.9383 5.15636 71.9162 5.39713 70.5463C5.46692 70.1211 5.57816 70.0506 5.64119 69.6884C5.97625 67.7273 6.54572 65.1556 6.89617 63.4629C6.72826 64.147 7.97332 59.9149 8.0721 59.7049C8.19191 59.3263 8.23506 58.8871 8.49413 58.1191C9.00318 56.6453 9.10699 56.9004 9.6194 55.0097C9.84492 54.5797 10.0741 54.1527 10.3068 53.7287C10.0375 53.5859 12.829 48.1693 13.4258 46.5297C13.3375 46.4282 9.87711 53.5711 9.7263 54.2169C8.20718 57.8449 6.59837 63.4483 5.81514 67.1801C5.54445 68.2886 4.79706 71.8391 4.7804 72.1065C4.72297 72.5415 4.86618 72.1615 4.84279 72.3495C4.41154 76.2096 4.4937 74.2711 4.37539 74.7777ZM133.496 23.4247C132.61 22.6731 131.708 21.9414 130.789 21.2292C130.89 21.2358 130.991 21.2427 131.092 21.2498C131.503 21.5914 131.909 21.9371 132.312 22.2865C132.653 22.5161 132.993 22.7485 133.33 22.9837C133.386 23.1306 133.441 23.2777 133.496 23.4247ZM135.818 25.123C136.587 25.7784 136.541 25.9025 136.708 26.064C137.206 26.5494 137.674 26.9292 138.157 27.4013C137.408 27.0563 136.295 25.838 135.818 25.123ZM118.673 13.3124C118.874 13.4284 120.087 14.3725 121.732 14.9736C122.821 15.6841 123.885 16.4177 124.934 17.1792C123.152 15.8864 120.416 14.5421 119.464 14.0545C119.103 13.8653 119.076 13.7479 118.785 13.5989C117.107 12.7373 115.357 12.1886 115.304 11.8309C116.894 12.6324 118.418 13.1659 118.673 13.3124ZM128.374 19.2265C128.584 19.4517 128.793 19.6777 129 19.9048C128.117 19.2724 127.22 18.6572 126.313 18.0625C126.594 18.1694 126.875 18.2779 127.155 18.3882C127.563 18.6635 127.97 18.9434 128.374 19.2265ZM48.691 13.0161C49.296 12.7176 49.9023 12.4282 50.513 12.1462C50.4596 12.1187 49.7625 12.4453 49.4939 12.5406C49.4951 12.5401 49.4962 12.5396 49.4973 12.539C49.1972 12.6443 49.2922 12.5304 48.7627 12.7603C48.7387 12.8456 48.7148 12.9308 48.691 13.0161ZM143.299 134.909C144.186 134.167 150.31 125.683 149.569 126.265C149.271 126.604 147.314 129.588 146.666 130.418C145.838 131.575 143.273 134.413 143.299 134.909ZM153.661 119.61C153.644 119.401 150.421 125.067 150.042 125.587C150.135 125.485 150.292 125.337 150.398 125.19C150.939 124.488 153.003 120.854 153.661 119.61ZM19.708 36.7519C20.0894 36.3771 20.4744 36.0062 20.8626 35.64C20.6899 35.6823 20.5171 35.7254 20.3442 35.7691C20.1294 36.0956 19.9175 36.423 19.708 36.7519ZM4.55006 84.7277C4.67323 93.506 6.26705 102.283 9.27305 110.535C8.96555 109.827 8.6679 109.112 8.38032 108.391C5.98499 101.186 4.66708 93.1285 4.41064 85.8176C4.45466 85.4542 4.50114 85.0909 4.55006 84.7277ZM116.668 11.7878C114.62 10.8429 112.86 10.195 110.601 9.22632C112.843 9.92206 113.833 10.5383 115.987 11.2934C115.988 11.294 115.99 11.2945 115.991 11.295C116.218 11.4583 116.443 11.6225 116.668 11.7878ZM67.5397 6.0868C68.1931 5.87328 68.8507 5.66798 69.5137 5.47081C68.6988 5.61592 67.8942 5.77221 67.0823 5.94318C67.2351 5.99061 67.3875 6.03849 67.5397 6.0868ZM39.6733 149.71C41.701 150.928 46.8229 154.18 48.6753 154.793C48.7925 154.833 47.8049 154.261 49.5368 154.912C48.2661 154.345 47.3779 153.92 47.225 153.99C46.8774 153.76 46.5321 153.528 46.1891 153.294C45.5699 153.001 44.9505 152.697 44.3373 152.386C44.4673 152.308 44.4142 152.293 43.4588 151.839C43.061 151.567 42.6669 151.292 42.274 151.012C42.0713 150.953 41.8687 150.893 41.6662 150.833C41.3532 150.546 41.0432 150.258 40.736 149.968C39.3333 149.154 40.077 149.818 39.6733 149.71ZM33.0376 144.753C33.2138 145.161 42.2274 151.411 38.2956 148.339C37.2322 147.606 36.1882 146.849 35.161 146.065C35.7395 147.068 33.2024 144.585 33.0013 144.38C31.9617 143.467 30.5745 142.375 29.8413 141.687C29.2099 141.097 28.8929 140.686 28.4554 140.265C26.9524 138.844 24.7382 136.443 24.3135 136.217C25.3825 137.422 26.5067 138.613 27.6994 139.79C28.9659 141.023 29.9689 142.249 32.6608 144.222C33.2764 144.768 32.9661 144.684 33.0376 144.753ZM71.5613 5.15216C71.4994 5.31785 75.6371 4.75503 75.6608 4.70761C75.6683 4.66245 74.3075 4.80795 74.1136 4.81821C74.1123 4.81836 74.1111 4.81851 74.1098 4.81866C74.0283 4.82155 74.4297 4.70403 73.7906 4.76154C73.0434 4.88142 72.3002 5.01169 71.5613 5.15216ZM131.751 146.386C132.427 146.319 141.926 137.529 141.967 137.039C142.026 136.954 141.897 137.03 141.905 136.983C139.989 139.317 136.768 142.164 134.568 143.981C133.957 144.492 134.184 144.392 134.15 144.423C134.149 144.424 134.147 144.425 134.146 144.426C133.801 144.722 132.104 145.861 131.751 146.386ZM52.472 156.439C51.9771 156.197 51.4854 155.951 50.997 155.7C50.8472 155.694 50.6974 155.687 50.5475 155.679C50.5487 155.68 50.5498 155.68 50.551 155.681C51.1877 155.942 51.8281 156.194 52.472 156.439ZM70.6664 161.895C70.5402 161.835 70.4143 161.775 70.2887 161.714C68.9216 161.479 67.5744 161.211 66.2191 160.904C66.3602 160.913 66.5012 160.922 66.6422 160.93C64.6115 160.422 63.7522 160.33 62.6753 160.022C62.6765 160.023 62.6777 160.023 62.6789 160.023C62.5637 159.989 62.4448 159.873 62.0167 159.75C61.0312 159.484 58.2526 158.565 57.895 158.516C57.1171 158.476 62.7705 160.174 63.8553 160.393C64.3344 160.52 64.8984 160.73 65.1928 160.801C65.5154 160.878 65.9762 160.888 66.7659 161.061C66.999 161.121 69.5367 161.742 70.6664 161.895ZM95.0143 161.98C94.5814 161.955 93.7119 162.157 93.3846 162.182C93.3068 162.189 93.9004 162.04 93.1668 162.109C92.9661 162.184 92.7646 162.259 92.5626 162.332C93.3841 162.227 94.2013 162.11 95.0143 161.98ZM78.5382 4.32653C78.4144 4.30733 76.1742 4.48769 76.0704 4.51721C74.7469 4.78653 79.3727 4.39669 78.5382 4.32653ZM131.771 20.3136C131.209 19.3533 140.388 27.5748 141.042 28.6052C140.903 28.6556 138.953 26.4768 139.887 27.7049C138.96 26.5687 135.949 23.8754 135.233 23.2521C134.809 22.8621 134.778 22.6722 134.714 22.6126C134.469 22.3683 132.019 20.5891 131.771 20.3136ZM147.491 36.4406C146.822 35.4848 146.13 34.5418 145.418 33.6154C146.296 34.6774 147.149 35.7645 147.971 36.8708C147.811 36.7266 147.651 36.5832 147.491 36.4406ZM148.405 37.5915C148.517 37.4674 150.655 40.8131 151.207 41.6984C150.385 40.8254 149.515 39.0599 148.405 37.5915ZM93.4721 4.42376C91.6604 4.112 90.8305 4.46789 93.0651 4.52624C93.1329 4.52779 93.5473 4.43802 93.4721 4.42376ZM39.8092 150.531C40.0553 150.724 43.3098 152.885 43.5529 152.918C44.2795 153.083 42.0265 151.879 41.3485 151.343C40.2569 150.487 42.0122 151.503 39.1571 149.728C39.2961 149.768 39.4351 149.807 39.5741 149.846C37.952 148.739 38.3134 149.345 37.9982 149.179C37.9007 149.129 36.9084 148.396 36.7181 148.279C34.3133 146.852 39.5365 150.421 39.8092 150.531ZM49.2871 11.4661C45.9547 12.9627 47.4328 12.4058 44.1505 14.2009C44.0717 14.3106 48.8707 11.7051 49.2871 11.4661ZM15.3398 125.075C17.3489 128.271 19.054 130.885 21.393 133.525C21.3056 133.295 14.7632 124.3 15.3398 125.075ZM158.167 112.547C152.521 126.156 142.001 140.152 129.043 149.021C127.64 149.991 127.44 149.982 126.932 150.33C126.597 150.556 126.703 150.59 126.251 150.879C113.242 159.176 98.3172 163.388 83.5 163.373C79.6594 163.374 75.852 163.101 72.0652 162.548C70.8927 162.432 65.3386 161.163 64.1063 161.081C63.1558 161.072 67.1913 161.865 67.8657 161.97C68.3681 162.07 68.3715 162.17 68.7081 162.233C69.0655 162.3 68.7822 162.18 69.1975 162.255C70.9628 162.57 72.8842 162.871 74.4978 163.044C77.4991 163.369 80.4951 163.526 83.5 163.521C96.2384 163.5 108.774 160.509 120.135 154.654C121.827 153.772 121.511 154.013 121.598 153.971C121.599 153.97 121.6 153.969 121.601 153.969C130.656 149.14 139.72 141.417 146.423 132.897C151.185 126.929 155.095 120.27 157.977 113.187C158.041 112.974 158.104 112.76 158.167 112.547ZM33.4491 145.563C34.0121 146.379 34.3315 146.323 37.0138 148.426C37.2686 148.547 37.5239 148.666 37.7797 148.784C36.2993 147.759 34.8529 146.683 33.4447 145.56C33.4461 145.561 33.4476 145.562 33.4491 145.563ZM52.6577 157.16C53.0053 157.818 60.2887 160.227 63.6345 161.043C64.2856 161.03 59.4504 159.794 58.3451 159.356C57.7848 159.17 54.8817 157.943 52.6436 157.11C52.6483 157.126 52.653 157.143 52.6577 157.16ZM121.246 12.8374C120.75 12.5852 120.251 12.338 119.75 12.096C120.971 12.7667 122.173 13.4687 123.356 14.2016C121.447 13.0682 119.493 12.0161 117.495 11.0455C117.904 11.1464 118.313 11.2504 118.723 11.3589C119.575 11.8373 120.416 12.3303 121.246 12.8374ZM114.725 9.76458C118.306 11.2984 114.499 9.84987 113.638 9.41206C113.122 9.13867 114.36 9.60985 114.725 9.76458ZM105.224 6.28083C107.018 6.60734 110.512 7.78997 109.178 7.64526C107.355 6.89603 106.124 6.61618 103.384 5.82274C103.8 5.87148 104.219 5.92439 104.636 5.98014C104.637 5.98064 104.639 5.98115 104.641 5.98166C104.836 6.08067 105.03 6.1804 105.224 6.28083ZM116.427 10.3171C118.695 11.4927 111.943 8.5057 114.117 9.31966C114.221 9.34817 116.342 10.2628 116.427 10.3171ZM150.999 127.192C151.089 126.885 150.013 128.527 149.63 129.059C148.006 131.382 145.805 134.28 143.84 136.48C144.01 136.334 144.179 136.187 144.348 136.039C146.764 133.247 148.988 130.289 150.999 127.192ZM137.371 143.044C135.87 144.403 134.317 145.706 132.718 146.949C132.57 147.065 131.915 147.668 132.45 147.283C134.148 145.936 135.79 144.521 137.371 143.044ZM23.8204 137.221C24.8155 138.42 21.6381 135.245 22.0102 135.194C22.6024 135.88 23.206 136.556 23.8204 137.221ZM15.0611 125.739C15.5981 126.554 16.1492 127.359 16.7141 128.152C16.6869 128.172 16.6598 128.192 16.6326 128.211C16.0942 127.397 15.5702 126.573 15.0611 125.739ZM155.058 120.33C154.49 121.199 153.323 123.369 152.525 124.681C153.16 123.829 154.358 121.602 155.058 120.33ZM41.5911 152.143C41.4969 152.056 46.8806 155.098 44.9447 154.175C43.8084 153.524 42.6912 152.847 41.5911 152.143ZM52.7345 157.944C51.5013 157.452 50.5718 156.999 50.8718 157C51.5124 157.291 52.1599 157.574 52.8059 157.847C52.7821 157.879 52.7583 157.911 52.7345 157.944ZM98.5329 4.47251C96.3311 4.06756 94.123 3.75617 91.8896 3.53555C91.9758 3.51079 92.0621 3.48616 92.1485 3.46167C94.3019 3.6809 96.4343 3.98486 98.5591 4.37569C98.5504 4.40796 98.5416 4.44023 98.5329 4.47251ZM155.899 119.334C156.566 117.94 157.189 116.535 157.774 115.105C157.148 116.519 156.484 117.906 155.778 119.279C155.818 119.299 155.858 119.318 155.898 119.338C155.898 119.337 155.899 119.336 155.899 119.334ZM127.062 15.3608C121.285 11.6246 128.892 16.0337 130.191 17.3567C130.193 17.3576 130.194 17.3586 130.196 17.3596C130.314 17.4678 129.983 17.3542 130.176 17.539C129.632 17.0989 129.08 16.6649 128.524 16.2385C127.964 15.9291 127.4 15.6266 126.833 15.3309C126.668 15.1999 126.502 15.0695 126.336 14.9397C126.579 15.0788 126.821 15.2192 127.062 15.3608ZM147.495 33.9171C151.199 38.9285 147.278 33.9017 145.411 31.4497C145.466 31.4319 147.153 33.4542 147.495 33.9171ZM136.22 22.1368C135.461 21.5135 134.691 20.9041 133.911 20.3095C133.83 20.2094 133.75 20.1094 133.669 20.0095C134.277 20.4555 134.879 20.9094 135.476 21.3729C135.726 21.6261 135.974 21.8807 136.22 22.1368ZM108.37 6.04071C106.857 5.54383 104.85 5.20537 109.717 6.69668C109.725 6.66411 109.734 6.63154 109.742 6.59898C109.548 6.53784 108.973 6.37916 108.943 6.36703C108.856 6.33025 108.997 6.25659 108.37 6.04071ZM154.668 43.0735C154.764 43.2235 155.138 43.1321 155.705 44.951C155.99 45.4375 156.271 45.9275 156.547 46.421C156.544 46.5864 156.54 46.7517 156.536 46.9168C155.603 44.9441 155.333 44.8276 155.26 44.6885C154.9 44.0597 155.228 44.4912 155.004 44.0808C154.434 43.015 152.974 40.6958 153.812 41.6435C154.114 41.9852 154.569 42.9233 154.668 43.0735ZM152.629 39.3106C152.747 39.5496 152.198 38.8869 152.282 39.0714C152.365 39.2271 153.663 41.5198 153.138 41.0056C152.919 40.6338 152.697 40.2639 152.473 39.8959C152.435 39.7469 152.397 39.5979 152.358 39.4489C152.096 39.1209 151.831 38.7952 151.563 38.4721C151.276 37.8219 150.552 36.4931 151.634 37.9162C151.261 37.3771 150.88 36.8413 150.494 36.3112C150.252 36.0662 150.008 35.823 149.764 35.5817C149.938 35.6749 150.111 35.7691 150.285 35.8639C151.096 36.9929 151.877 38.1424 152.629 39.3106ZM161.345 57.6508C161.277 57.5889 161.21 57.5272 161.142 57.4657C162.009 59.7225 162.998 63.3386 162.168 61.3593C161.267 58.2377 160.174 55.1586 158.904 52.1679C158.852 51.9557 158.8 51.7448 158.746 51.5319C159.558 53.82 159.786 52.9213 160.394 54.9629C160.49 55.308 159.967 54.4001 160.835 56.4673C160.851 56.3772 160.866 56.2871 160.882 56.1969C161.041 56.6797 161.195 57.1644 161.345 57.6508ZM165.25 77.9434C164.992 73.8265 165.529 78.3403 165.413 79.1204C165.413 79.119 165.413 79.1177 165.413 79.1164C165.153 81.2174 165.089 76.7267 165.035 76.4581C164.998 76.0944 164.677 75.2881 164.82 73.2735C165.008 74.8316 165.151 76.3806 165.25 77.9434ZM163.319 64.6249C163.406 64.9606 163.297 64.789 163.332 64.9346C163.332 64.9358 163.333 64.9371 163.333 64.9384C163.897 67.0839 164.794 72.2631 164.616 72.8564C164.481 71.2327 162.994 64.0732 162.957 63.6307C163.079 63.9608 163.2 64.2922 163.319 64.6249ZM158.185 49.9844C157.756 48.6888 159.029 51.4701 159.259 52.2391C159.303 52.3836 158.628 51.3225 158.185 49.9844ZM73.6595 1.8799C70.703 2.3391 74.61 1.92904 73.2778 2.22983C73.8416 2.14828 74.4074 2.07247 74.9752 2.00245C74.537 1.95814 74.0985 1.91729 73.6595 1.8799ZM2.80166 100.581C2.93238 101.271 2.9425 100.929 2.9562 100.988C3.05106 101.438 3.08317 101.876 3.12958 102.046C4.01841 105.182 3.57808 103.059 3.5836 103.025C3.64535 102.94 3.93648 103.745 3.74773 102.577C3.55418 101.887 3.36933 101.193 3.19337 100.495C3.16305 100.136 3.13571 99.7791 3.11076 99.4228C2.7477 98.0462 3.07307 99.8762 2.996 100.108C2.96399 100.199 2.63556 98.8919 2.80166 100.581ZM68.3111 2.42557C67.8572 2.65126 66.7313 3.05563 67.8993 2.96983C67.9006 2.96958 67.9019 2.96934 67.9032 2.96909C68.1188 2.95256 68.9833 2.80743 69.2553 2.79782C71.1213 2.29701 70.3648 2.21001 68.3111 2.42557ZM0.887749 87.7828C0.861357 86.623 0.858901 85.4596 0.880679 84.2913C0.964966 84.3104 1.04926 84.3294 1.13356 84.3484C1.11718 84.9716 1.10772 85.5937 1.10514 86.2146C1.15053 86.4309 1.19675 86.6466 1.2438 86.8618C1.30881 86.0905 1.38443 85.3192 1.4707 84.548C1.45373 84.1994 1.43893 83.85 1.42632 83.5C1.4054 82.9193 1.39052 82.3395 1.38163 81.7608C1.3284 82.1859 1.27841 82.6125 1.23169 83.0405C1.21103 80.7659 1.40851 81.2641 1.56464 79.4047C1.51834 78.7601 1.47978 78.1109 1.4486 77.4642C1.5942 76.5398 1.75431 75.629 1.93073 74.7118C2.06632 73.1536 2.03185 73.0103 1.81776 74.0458C1.80519 73.2596 2.07197 72.4352 2.16563 71.5071C2.17346 71.4304 2.0574 71.5601 2.06611 71.4926C2.75853 66.6873 3.06104 67.02 3.20832 66.2582C3.32137 65.7239 3.65671 63.5682 3.61489 63.5219C3.5664 63.4589 2.11063 67.7994 3.90706 60.8914C2.67337 64.3884 2.11539 68.5745 2.96316 65.977C2.64043 67.101 1.87597 72.1773 1.86124 72.4999C1.78511 72.9701 1.68808 72.7889 1.61125 73.3822C1.57371 73.7348 1.6966 74.6906 1.24797 77.4496C1.26657 77.8092 1.28748 78.1689 1.3107 78.5285C1.25424 78.8602 1.19955 79.1971 1.14728 79.5259C1.04936 78.8337 0.960626 78.1303 0.880361 77.4309C0.830062 79.8641 0.594341 81.8875 0.700823 83.5C0.715129 83.7144 0.735603 83.9203 0.763531 84.1173C0.750216 85.5637 0.755828 86.2625 0.621692 85.6465C0.632718 86.08 0.647072 86.5126 0.664732 86.9445C0.737684 87.2249 0.812001 87.5038 0.887749 87.7828ZM59.7998 4.69565C58.4001 4.98271 57.9958 5.42126 58.2128 5.36531C59.4301 5.06243 60.5273 4.55132 59.7998 4.69565ZM2.45468 98.0113C2.24978 96.4453 2.09179 94.8852 1.97779 93.3169C1.88947 93.3274 1.80115 93.338 1.71282 93.3485C1.91575 94.9114 2.1622 96.4609 2.45468 98.0113ZM74.0721 1.63043C74.2239 1.68023 74.3755 1.73044 74.5268 1.78106C76.2154 1.35034 77.9463 1.58151 78.793 1.46306C78.9771 1.43707 78.597 1.33976 78.2427 1.33697C78.017 1.3155 74.3795 1.55207 74.0721 1.63043ZM140.055 23.6119C139.558 23.2035 139.055 22.8009 138.549 22.4049C138.626 22.373 138.702 22.3411 138.779 22.3093C139.024 22.5118 139.268 22.716 139.511 22.9214C139.694 23.1508 139.875 23.381 140.055 23.6119ZM134.454 18.9276C133.561 18.2137 132.651 17.5176 131.729 16.8417C135.27 19.395 132.428 17.2116 134.59 18.7566C134.545 18.8136 134.5 18.8706 134.454 18.9276ZM124.971 12.2774C125.116 12.3097 125.26 12.3424 125.404 12.3756C126.391 12.9583 127.37 13.5641 128.333 14.1882C127.808 13.663 127.275 13.1433 126.732 12.6295C126.371 12.4082 126.009 12.1906 125.645 11.9751C125.42 12.075 125.195 12.1758 124.971 12.2774ZM14.4281 129.185C14.8014 129.772 16.3029 131.679 16.2877 131.56C15.7533 130.709 15.2334 129.846 14.7322 128.978C14.6553 129.024 14.5784 129.069 14.5016 129.114C14.4602 128.972 14.4192 128.829 14.3786 128.686C14.0382 128.227 13.7022 127.764 13.3706 127.297C13.2838 127.011 13.1987 126.726 13.1152 126.44C12.8885 126.239 12.6634 126.039 12.4387 125.836C13.7345 128.28 13.8478 128.1 14.152 128.585C14.3103 128.83 14.3658 129.014 14.3997 129.115C14.4091 129.138 14.4186 129.161 14.4281 129.185ZM1.71121 97.0302C2.23788 100.294 2.89756 102.083 3.29699 104.439C3.18012 102.899 0.934221 93.2489 1.19421 89.7229C1.10052 89.3681 1.00906 89.0119 0.919886 88.6541C1.09788 90.5487 1.09564 91.8507 1.17824 92.7831C1.2456 93.5174 1.30865 93.432 1.31382 93.4881C1.31414 93.4907 1.31446 93.4934 1.31477 93.496C1.49816 95.2099 1.51245 95.7344 1.71121 97.0302ZM76.4706 1.06344C75.5824 1.02749 74.0372 1.20616 74.0378 1.36402C74.9041 1.31035 75.7605 1.27132 76.6207 1.2452C76.4416 1.22036 76.6225 1.06892 76.4706 1.06344ZM124.026 11.2381C123.448 10.8502 121.985 10.1187 122.543 10.5691C122.644 10.6461 124.115 11.3493 123.163 11.1C124.548 11.8641 124.354 11.4586 124.026 11.2381ZM11.7057 42.6851C11.9893 42.1782 12.2781 41.6747 12.572 41.1744C12.5878 41.0264 12.6041 40.8783 12.6207 40.7301C12.3071 41.3781 12.002 42.0298 11.7057 42.6851ZM83.9427 0.66302C84.716 0.971848 86.0458 0.695165 87.4764 1.01527C88.0076 1.04239 88.5478 1.07514 89.0814 1.11274C89.0827 1.11283 89.0841 1.11292 89.0854 1.113C89.1054 1.03083 89.1255 0.948662 89.1457 0.866501C87.4014 0.74423 85.6894 0.677473 83.9427 0.66302ZM1.02926 77.0084C1.09563 76.6544 1.16422 76.3016 1.23502 75.9499C1.24726 75.3147 1.26722 74.675 1.29483 74.0339C1.22352 74.3738 1.15424 74.7152 1.08712 75.0568C1.06031 75.7061 1.04101 76.3567 1.02926 77.0084ZM93.3576 1.21627C91.4889 0.966952 90.7618 1.16301 93.1495 1.42128C94.1525 1.53988 95.3058 1.50041 93.3576 1.21627ZM40.0166 153.865C39.482 153.507 38.9522 153.144 38.4271 152.774C38.2136 152.702 38.0002 152.628 37.787 152.554C38.5233 153.002 39.2666 153.439 40.0166 153.865ZM131.521 16.0329C131.427 16.0346 131.333 16.0364 131.24 16.0384C130.779 15.6982 130.315 15.3625 129.847 15.0316C129.997 15.0666 130.147 15.102 130.298 15.138C130.708 15.4327 131.116 15.731 131.521 16.0329ZM36.4228 151.467C36.0071 151.165 35.5944 150.86 35.1847 150.551C34.8894 150.372 34.5952 150.19 34.302 150.006C34.6718 150.314 35.0446 150.618 35.4202 150.92C35.7533 151.105 36.0875 151.287 36.4228 151.467ZM110.669 5.22062C110.011 4.91102 107.197 4.22688 109.653 5.08102C111.207 5.64277 110.768 5.26791 110.669 5.22062ZM114.343 6.52223C111.82 5.41254 113.528 6.70245 116.697 7.61902C113.636 6.37212 114.486 6.59904 114.343 6.52223ZM135.397 18.4139C135.451 18.4578 135.438 18.5653 135.867 18.9171C137.416 20.1789 139.362 21.9572 140.393 22.9443C143.022 25.1657 149.965 33.101 150.354 34.3465C150.459 34.5856 149.975 34.2135 150.029 34.3025C150.195 34.5577 151.281 35.933 150.99 35.7426C149.999 34.342 148.963 32.9712 147.886 31.6348C148.219 31.9075 148.55 32.1832 148.88 32.4621C146.163 29.1433 147.032 30.2648 146.097 29.4444C145.68 28.848 145.254 28.2564 144.82 27.6698C143.7 26.5513 142.551 25.4666 141.372 24.4168C141.667 24.6272 141.96 24.8398 142.252 25.0544C140.634 23.3053 141.051 23.8217 140.015 23.0246C140.051 22.9822 140.087 22.9397 140.123 22.8973C138.346 21.4342 138.104 21.0349 137.728 20.7C136.935 20.0291 135.574 19.6525 132.828 16.7775C131.309 16.0525 131.706 15.5596 130.719 15.266C128.597 13.3855 132.963 16.4887 134.918 18.1032C134.919 18.1041 134.92 18.1049 134.921 18.1057C135.07 18.2251 134.87 17.989 135.397 18.4139ZM123.212 10.6971C124.861 11.2299 118.906 8.09559 120.696 9.49102C120.985 9.65173 121.273 9.81406 121.56 9.97803C122.114 10.2123 122.665 10.4521 123.215 10.699C123.214 10.6984 123.213 10.6977 123.212 10.6971ZM62.0617 3.18624C56.1104 5.01814 59.5535 4.18101 61.5352 3.45546C61.9327 3.31337 62.1451 3.21213 62.0617 3.18624ZM2.39221 101.712C2.44594 101.794 2.49979 101.875 2.55375 101.956C2.02813 99.9232 1.50563 95.93 1.29727 96.0132C1.59702 97.9332 1.95907 99.8178 2.39221 101.712ZM0.256885 85.3425C0.246709 85.7933 0.286212 87.6232 0.366741 87.3979C0.392215 86.6046 0.428808 85.8103 0.47659 85.015C0.431216 84.6459 0.388253 84.2757 0.347725 83.9044C0.335949 84.4232 0.25728 85.2207 0.256885 85.3425Z" fill="#6848FF"/>
</svg>
