<svg width="350" height="309" viewBox="0 0 350 309" fill="none" xmlns="http://www.w3.org/2000/svg">
<path opacity="0.5" d="M59.013 146.781C59.0346 133.471 59.1466 121.098 59.2416 105.379C59.2415 105.37 59.2415 105.362 59.2414 105.354C59.2547 103.097 59.2678 100.766 59.2797 98.4038C59.2855 97.2087 59.2911 95.9749 59.2962 94.6982C59.3878 86.0286 59.5852 74.491 63.5303 63.1043C64.6238 57.6537 70.6926 52.2115 75.6663 51.0941C80.6671 49.6339 85.1137 49.6642 89.4663 49.789C98.1776 50.1596 106.808 51.5058 116.216 52.5865C123.412 53.4333 130.253 54.0951 136.802 54.4073C168.218 55.6398 193.88 56.0246 210.566 56.9781C214.355 57.1817 218.261 57.3089 228.179 57.7549C234.678 58.0949 243.443 58.3871 256.299 59.8026C256.82 59.8633 257.339 59.926 257.858 59.991C264.406 60.9631 271.739 61.5164 280.996 65.6534C283.25 66.8219 286.04 68.3086 288.248 71.7741C290.633 75.3575 289.971 80.2971 289.481 82.3896C286.86 96.3321 283.862 112.389 282.553 129.544C280.096 149.281 278.458 168.679 278.16 188.451C278.067 192.665 278.006 196.852 277.966 201.052C278.003 222.119 281.041 242.284 282.832 258.167C283.736 265.74 284.629 273.288 285.331 280.886C285.737 286.962 286.128 292.422 284.145 299.53C283.466 301.58 282.242 304.077 279.786 305.933C277.329 307.809 274.347 308.274 272.222 308.261C259.375 308.125 247.724 304.482 236.014 300.785C227.779 298.138 219.519 295.147 211.1 292.747C195.447 288.296 177.949 286.25 158.821 284.487C155.897 284.223 153.173 283.983 150.201 283.731C124.725 281.366 100.569 280.405 74.7013 278.451C72.7892 278.202 70.8552 277.872 68.9438 277.447C67.5702 277.142 66.1975 276.825 64.8272 276.496C53.9931 273.913 43.2923 270.466 32.5416 266.613C24.2344 263.165 15.8891 263.847 5.29536 257.931C2.64808 255.692 0.833079 252.21 0.446643 248.794C0.76591 228.154 14.2038 215.74 16.2377 200.963C19.1099 178.393 19.3985 156.672 20.923 133.686C21.9282 118.622 23.1638 102.899 26.5048 86.0542C26.5284 85.9371 26.552 85.8203 26.5755 85.7037C29.1125 73.7407 31.6089 59.054 37.738 43.7692C41.7141 34.6608 41.6882 24.3693 45.1065 12.7069C46.9101 7.4737 52.3072 5.64139 55.9938 4.83881C62.3373 3.41706 68.8582 3.09461 75.2476 3.37614C78.6617 3.52626 82.0524 3.84653 85.403 4.27061C85.4199 4.27275 85.4369 4.27489 85.4538 4.27703C100.76 6.23381 115.34 10.2532 129.179 11.6682C148.092 13.2382 166.097 13.4207 180.796 13.5641C210.049 13.6976 226.178 12.773 237.561 11.8728C242.055 11.5041 245.803 11.1341 249.365 10.7425C254.113 10.2167 258.493 9.66307 263.704 8.90847C271.962 7.73142 282.005 5.9135 293.207 3.7748C293.313 3.75403 293.631 3.72079 293.739 3.71645C304.247 3.32995 315.751 2.81862 327.116 1.01334C327.172 1.00373 327.339 0.983718 327.395 0.978579C331.966 0.615021 336.413 0.572022 340.877 0.531941C340.989 0.531066 341.102 0.530224 341.214 0.529415C346.105 0.502409 350.022 0.967827 350 1.51791C349.976 2.07378 346.018 2.50528 341.145 2.53296C336.597 2.57106 332.079 2.61482 327.563 2.9743C327.539 2.9765 327.467 2.98507 327.444 2.98918C316.957 4.66283 306.585 5.1959 297.04 5.60002C296.678 5.86471 295.503 6.12923 293.825 6.33429C293.797 6.33539 293.717 6.34379 293.69 6.34904C292.229 6.76012 290.373 7.19043 288.342 7.56772C281.138 8.81957 264.122 12.6163 237.773 14.7792C224.736 15.8649 209.408 16.5065 192.003 16.7592C195.601 16.8345 198.614 16.8911 201.257 16.9376C204.358 16.9918 206.73 17.028 208.779 17.0533C213.033 17.1023 215.876 17.1221 220.906 17.0031C225.605 16.8528 231.404 16.6064 237.874 16.1515C247.47 15.4796 258.582 14.3798 269.963 12.6289C274.778 11.8946 278.728 11.65 278.802 12.2008C278.875 12.7467 275.027 13.8826 270.184 14.6205C270.089 14.6349 269.995 14.6494 269.9 14.6638C258.829 16.3573 247.751 17.4684 238.02 18.149C231.068 18.6381 224.772 18.8956 219.683 19.0475C216.584 19.1389 213.907 19.1891 211.897 19.2171C210.291 19.2399 208.291 19.258 207.174 19.247C207.026 19.2455 206.745 19.2423 206.409 19.2352C206.404 19.235 206.398 19.2348 206.392 19.2345C206.205 19.2307 205.246 19.2111 204.221 19.1462C204.014 19.1331 203.563 19.1036 203.041 19.052C202.906 19.0495 202.772 19.0468 202.637 19.0442C200.762 19.0077 198.846 18.9648 196.775 18.9186C188.687 18.6932 175.889 18.605 149.259 17.3265C143.393 17.0068 136.527 16.6872 128.753 15.909C109.394 14.4707 85.1835 3.74411 56.8823 8.7992C53.4883 9.53935 49.9588 10.9312 48.9277 14.0644C47.6011 17.8424 47.0486 22.0595 46.341 26.3289C46.9482 22.8922 47.4722 19.4463 48.3877 16.1962C48.589 15.4881 48.8116 14.7898 49.0613 14.1118C50.0776 11.1255 53.4797 9.75957 56.9371 9.04355C61.0715 8.16057 65.3179 7.77046 69.5784 7.72868C72.8979 7.69661 76.1791 7.86936 79.5177 8.1854C84.8956 8.69675 90.266 9.57375 95.6295 10.5823C99.2541 11.2643 102.884 12.0097 106.52 12.7523C106.529 12.7539 106.537 12.7555 106.545 12.7571C111.595 13.7867 116.678 14.8221 121.875 15.6531C123.698 15.9449 125.499 16.2041 127.305 16.4235C127.766 16.4795 128.226 16.5327 128.685 16.583C135.349 17.2751 141.998 17.6422 149.518 18.0608C150.525 18.1201 151.551 18.1836 152.354 18.2336C153.214 18.2867 154.043 18.3379 154.807 18.3864C155.488 18.4293 156.144 18.4711 156.78 18.5101C156.865 18.5153 156.95 18.5205 157.035 18.5257C157.727 18.5686 158.391 18.6082 159.037 18.6456C159.678 18.6828 160.321 18.7187 160.918 18.7504C160.923 18.7505 160.929 18.7507 160.934 18.7508C161.565 18.7837 162.047 18.8083 162.725 18.8391C163.577 18.8776 164.314 18.9084 165.188 18.9412C166.038 18.9731 166.935 19.0036 167.842 19.0315C168.733 19.0592 169.648 19.0849 170.583 19.1089C171.527 19.1331 172.457 19.1552 173.413 19.1757C174.365 19.1961 175.346 19.2148 176.307 19.232C177.275 19.2493 178.26 19.2655 179.253 19.2802C181.512 19.3139 183.706 19.4366 185.299 19.6302C186.901 19.8239 187.793 20.0731 187.782 20.331C187.771 20.5887 186.856 20.8365 185.236 21.0168C183.624 21.197 181.416 21.2927 179.151 21.2813C178.526 21.2782 177.901 21.2748 177.275 21.2705C176.904 21.2679 176.529 21.2647 176.157 21.2617C175.166 21.2537 174.131 21.2442 173.115 21.2322C172.098 21.2202 171.071 21.2056 170.024 21.1885C168.972 21.1713 167.943 21.1523 166.851 21.1284C165.77 21.1048 164.698 21.078 163.578 21.0458C162.48 21.0144 161.26 20.974 160.153 20.9321C159.334 20.9016 158.337 20.8589 157.516 20.8214C156.667 20.7826 155.78 20.7398 154.967 20.6975C154.148 20.655 153.359 20.6115 152.585 20.5684C152.503 20.5639 152.421 20.5594 152.339 20.5549C151.664 20.5169 151.02 20.4796 150.418 20.4447C149.718 20.4047 149.063 20.3675 148.449 20.3329C147.769 20.2944 147.384 20.274 146.856 20.2467C141.418 19.9795 134.992 19.6962 128.434 19.0744C126.858 18.9169 125.284 18.727 123.736 18.5165C122.733 18.3802 121.725 18.2328 120.746 18.082C115.514 17.2755 110.408 16.2789 105.349 15.2986C101.675 14.5857 98.0221 13.8767 94.3818 13.238C89.0263 12.2986 83.6819 11.5059 78.388 11.0973C75.0997 10.8445 71.8892 10.741 68.6684 10.8463C64.9202 10.9696 61.2166 11.3845 57.642 12.1856C56.0725 12.5331 54.6586 12.9979 53.7353 13.5406C52.7956 14.1084 52.4717 14.5174 52.1984 15.2263C51.8503 16.202 51.5542 17.2621 51.2927 18.3758C49.5681 26.3851 48.7333 36.2639 45.148 45.2873C44.9878 45.7057 44.822 46.1261 44.6499 46.5493C41.4823 54.2407 39.143 62.5441 37.1637 70.8282C35.8384 76.3428 34.5696 82.037 33.3646 87.4579C33.1805 88.2854 33.0022 89.1117 32.8296 89.9345C32.1486 93.1803 31.5516 96.3993 31.0182 99.5693C31.0163 99.5802 31.0143 99.591 31.0124 99.6019C30.543 102.396 30.1231 105.153 29.7384 107.913C28.9155 113.819 28.2617 119.657 27.7035 125.517C27.1468 131.369 26.6901 137.213 26.281 143.114C25.875 148.972 25.5138 154.933 25.1569 160.854C24.7971 166.805 24.4484 172.647 24.0126 178.802C23.4702 186.402 22.8429 193.969 21.8414 201.707C21.7695 202.258 21.6805 202.812 21.5759 203.368C19.743 212.199 15.689 219.545 12.349 227.028C11.1616 229.628 10.0137 232.222 9.01752 234.819C9.01365 234.829 9.00977 234.839 9.00591 234.849C7.19694 239.595 5.74397 244.676 6.58184 248.648C6.97931 250.506 7.86779 251.992 9.33017 253.239C12.0053 255.158 18.9158 256.109 24.3829 257.454C27.8046 258.249 31.2575 259.165 34.6791 260.322C39.3238 261.89 43.9896 263.401 48.6902 264.8C55.7361 266.904 62.9984 268.768 70.4011 270.292C71.365 270.492 72.3264 270.665 73.2983 270.814C80.5385 271.882 88.4613 271.87 96.109 272.227C98.1586 272.308 100.18 272.393 102.188 272.484C111.852 272.918 121.129 273.483 130.3 274.116C139.55 274.756 148.62 275.458 157.903 276.224C158.444 276.269 158.989 276.314 159.538 276.36C168.262 277.09 177.071 277.916 185.971 279.079C195.165 280.285 204.313 281.862 213.445 284.313C213.715 284.385 213.986 284.458 214.259 284.532C223.581 287.101 232.552 290.244 241.675 292.946C246.738 294.453 252.123 295.926 257.206 296.969C262.292 298.013 267.366 298.717 272.175 298.657C272.202 298.657 272.228 298.656 272.255 298.655C272.968 298.639 273.449 298.519 273.703 298.395C273.958 298.265 274.093 298.157 274.331 297.821C274.529 297.534 274.748 297.078 274.927 296.507C275.369 295.1 275.618 293.126 275.731 291.213C275.911 288.094 275.806 284.855 275.496 281.812C275.331 280.219 275.156 278.625 274.974 277.041C274.423 272.263 273.819 267.6 273.211 263.096C272.579 258.428 272.033 254.588 271.375 249.974C269.83 238.732 269.01 231.706 268.268 223.851C268.125 222.305 267.985 220.726 267.851 219.063C267.376 213.072 267.045 207.046 267.066 200.943C267.081 197.455 267.111 194.1 267.162 190.675C267.305 181.346 267.587 172.081 268.161 162.734C268.702 153.474 269.735 143.95 270.916 134.909C271.174 132.794 271.406 130.722 271.569 128.681C272.138 121.542 272.974 114.435 274.027 107.37C275.373 98.2804 277.116 89.1223 278.785 80.4089C278.814 80.2566 278.842 80.1114 278.869 79.9729C279.114 78.7641 279.154 78.0953 279.115 77.8269C279.07 77.5668 279.089 77.526 278.777 77.1358C278.173 76.3688 276.227 75.2384 274.242 74.4929C271.303 73.358 267.944 72.5506 264.614 71.9017C263.239 71.6354 261.841 71.3952 260.507 71.1855C259.162 70.9749 257.919 70.7976 256.562 70.6205C253.173 70.1789 249.812 69.8431 246.496 69.5605C241.917 69.1724 237.452 68.8907 233.07 68.6673C228.672 68.4442 224.391 68.2837 220.078 68.1606C215.608 68.0353 211.891 67.9624 207.142 67.9029C204.044 67.8651 201.011 67.8376 197.984 67.8155C193.453 67.7827 188.948 67.7636 184.414 67.7512C179.883 67.7388 175.398 67.7333 170.897 67.7275C169.445 67.7255 167.928 67.7234 166.465 67.721C161.972 67.7138 157.545 67.7043 153.094 67.6803C148.651 67.6557 144.245 67.6186 139.842 67.5423C138.661 67.5219 137.424 67.4962 136.273 67.4696C132.996 67.3908 129.752 67.2386 126.487 67.0312C118.863 66.5471 111.663 65.7099 105.477 65.0197C99.2357 64.3274 93.4322 63.6712 88.1909 63.5774C87.1976 63.5619 86.2617 63.5685 85.3167 63.6057C81.2921 63.6702 77.9884 64.8349 77.636 65.621C77.4321 65.8771 77.2519 66.1956 77.0878 66.8097C75.8036 71.2176 75.0322 74.0707 74.5578 77.835C73.9267 82.6979 73.7789 87.9364 73.8186 93.1403C73.8227 93.6209 73.8286 94.1095 73.8364 94.6067C73.9127 99.6016 73.9873 104.309 74.0688 109.368C74.1571 114.908 74.2597 120.582 74.3613 126.71C74.4622 132.811 74.5564 139.262 74.6241 145.75C74.6919 152.306 74.7337 158.82 74.7412 165.436C74.7525 171.995 74.7158 178.602 74.7059 185.032C74.7024 189.062 74.7254 192.99 74.8558 196.891C74.9418 199.827 74.7888 202.441 74.6138 204.994C74.1201 211.707 73.3604 218.182 73.0712 224.064C72.3043 233.209 74.0785 243.766 76.8084 244.316C77.1643 244.513 77.5941 244.68 78.2027 244.804C85.6431 246.309 93.6209 246.183 101.813 245.301C105.916 244.859 110.047 244.232 114.2 243.488C119.465 242.546 124.773 241.292 130.175 239.941C139.768 237.585 149.638 234.711 160.632 233.666C161.723 233.568 162.824 233.492 163.932 233.443C165.134 233.389 166.274 233.331 167.473 233.26C174.983 232.819 182.44 232.011 189.848 230.842C189.899 230.834 189.95 230.826 190.001 230.818C199.613 229.387 208.624 226.977 219.456 225.586C220.142 225.509 220.848 225.44 221.543 225.385C220.116 225.498 218.985 226.072 218.338 226.539C217.828 226.905 217.544 227.212 217.359 227.428C217.165 227.662 217.129 227.73 217.083 227.798C217.045 227.859 217.037 227.877 217.047 227.859C217.086 227.799 217.278 227.361 217.43 226.909C217.765 225.939 218.079 224.753 218.375 223.447C219.065 220.386 219.589 217.082 220.037 213.745C220.485 210.384 220.841 207.025 221.139 203.688C221.439 200.305 221.674 197.002 221.862 193.659C222.036 190.574 222.165 187.554 222.265 184.207C222.274 183.902 222.283 183.601 222.291 183.297C222.393 179.645 222.453 175.504 222.455 171.648C222.455 161.451 222.084 151.506 220.964 141.652C220.889 141.003 220.811 140.362 220.731 139.728C219.656 129.09 220.143 119.159 217.476 113.491C217.067 112.65 216.66 112.209 216.492 112.088C216.314 111.973 216.329 111.944 215.829 111.887C215.174 111.834 214.533 111.787 213.877 111.743C207.849 111.341 201.751 111.308 195.63 111.595C190.676 111.822 185.836 112.281 180.667 112.843C175.368 113.395 170.019 114.005 164.636 114.617C154.143 115.81 143.555 117.03 132.923 118.063C132.143 118.138 131.347 118.214 130.567 118.287C119.939 119.218 109.559 118.182 102.742 120.127C101.579 120.47 100.74 120.914 100.378 121.211C100.015 121.529 99.9973 121.538 99.8402 121.981C98.4224 127.245 99.3243 135.183 100.981 142.382C101.17 143.208 101.369 144.03 101.582 144.863C103.869 159.214 100.886 168.463 102.185 178.111C103.008 185.496 105.441 190.215 110.874 192.111C112.352 192.68 115.153 192.876 117.858 192.633C122.081 192.275 126.542 191.125 130.863 189.532C139.684 186.898 145.624 187.432 152.31 186.789C159.175 186.312 165.873 185.697 172.032 184.222C175.261 183.369 178.172 182.295 180.568 180.988C185.187 178.467 187.514 175.366 188.332 171.52C190.302 160.424 190.212 147.664 188.716 136.159C188.486 134.703 188.084 133.188 187.854 132.765C187.813 132.679 187.796 132.693 187.932 132.885C188.065 133.065 188.404 133.474 189.046 133.846C189.675 134.225 190.495 134.401 190.894 134.411C191.312 134.428 191.372 134.386 191.22 134.424C191.037 134.465 190.606 134.586 190.055 134.74C188.626 135.14 187.286 135.559 185.738 136.073C185.345 136.203 184.926 136.344 184.504 136.488C181.807 137.41 178.679 138.547 174.292 140.189C170.612 141.567 166.087 143.292 160.763 145.304C153.505 148.042 144.768 151.511 134.593 155.459C130.163 157.175 127.141 157.842 127.889 156.95C128.403 156.328 130.65 155.094 133.452 153.826C128.172 155.947 122.909 158.085 117.484 160.107C115.337 160.903 113.177 161.554 111.524 161.851C109.877 162.163 108.579 162.105 108.754 161.814C108.922 161.535 110.2 161.03 111.838 160.301C113.496 159.578 115.571 158.705 117.726 157.871C123.392 155.667 128.931 153.347 134.47 151.057C140.015 148.759 145.528 146.475 151.07 144.254C153.757 143.177 156.447 142.116 159.144 141.081C162.029 139.975 164.904 138.878 167.789 137.794C173.371 135.703 178.972 133.631 184.596 131.873C186.055 131.419 187.518 130.991 188.965 130.607C190.013 130.314 190.908 130.126 191.119 130.169C191.227 130.185 191.131 130.162 191.152 130.166C191.167 130.173 191.291 130.284 191.436 130.52C192.071 131.539 192.554 133.589 192.853 135.512C192.883 135.702 192.913 135.898 192.942 136.099C193.418 139.485 193.63 143.09 193.743 146.602C193.783 147.916 193.806 149.198 193.814 150.481C193.821 151.532 193.817 152.585 193.802 153.672C193.69 159.987 193.369 166.492 192.079 172.395C191.099 176.819 188.312 180.454 184.403 182.968C175.35 188.632 163.388 189.607 151.958 190.568C145.567 191.195 139.328 190.986 132.253 193.207C127.508 195.007 122.562 196.341 117.654 196.739C114.784 196.96 111.838 196.851 109.483 196.038C102.068 193.734 98.4776 186.19 97.7523 178.081C96.4713 167.93 99.0915 157.749 97.0385 146.054C96.7672 145.031 96.5161 144.029 96.2758 143.003C94.5734 135.519 93.3905 127.575 95.0746 120.678C95.2854 119.894 95.6086 119.201 96.0562 118.58C97.4947 116.47 100.519 115.255 103.643 114.591C111.925 112.926 121.038 113.607 130.017 112.595C131.085 112.473 132.157 112.347 133.229 112.22C132.141 112.335 131.067 112.447 130.013 112.554C122.143 113.295 115.078 112.976 108.627 113.591C102.343 114.135 95.8005 115.799 94.7759 120.597C94.6545 121.061 94.5508 121.536 94.4619 122.021C94.1656 123.643 94.0378 125.333 94.0149 127.027C93.9659 133.339 95.1791 139.679 96.8929 146.092C99.3421 159.002 95.0865 171.591 99.0972 185.273C100.788 190.69 104.533 194.595 109.413 196.236C116.774 198.393 125.388 196.035 132.362 193.496C162.411 189.035 188.942 190.077 192.676 172.534C194.071 166.21 194.317 160.169 194.501 154.973C194.699 147.076 194.454 140.57 193.746 135.372C193.411 133.051 192.893 130.829 192.106 129.727C191.691 129.21 191.588 129.153 191.009 129.111C190.431 129.096 189.572 129.312 188.681 129.53C184.389 130.577 180.835 131.669 177.375 132.721C172.336 134.261 165.565 136.623 158.429 139.219C146.98 143.384 134.705 148.48 127.073 151.619C122.577 153.48 118.777 154.51 118.578 153.992C118.416 153.464 121.895 151.594 126.385 149.736C133.867 146.662 145.802 141.683 157.704 137.329C166.566 134.099 175.323 131.016 182.109 129.128C183.96 128.613 185.892 128.091 188.16 127.553C189.631 127.237 192.029 126.381 193.536 128.273C194.882 129.999 195.316 132.39 195.734 135.061C196.447 140.319 196.737 147.033 196.481 155.79C196.275 160.852 196.029 166.637 194.626 172.99C190.161 192.568 161.849 191.028 133.071 195.37C125.838 197.942 117.255 200.548 108.744 198.125C103.313 196.346 98.9037 191.661 97.1438 185.744C93.0417 171.269 97.285 158.484 94.9513 146.601C93.3553 140.635 92.1696 134.682 92.0118 128.519C91.975 126.756 92.032 124.977 92.2508 123.192C92.2523 123.181 92.2538 123.17 92.2553 123.159C92.3846 122.123 92.5695 121.085 92.8367 120.067C94.4149 113.751 102.031 112.196 108.36 111.599C114.994 110.964 122.13 111.286 129.821 110.558C134.661 110.064 139.769 109.498 145.181 108.882C156.181 107.635 167.924 106.163 179.843 104.866C191.995 103.411 204.521 102.826 216.491 103.777C224.951 104.516 226.631 113.994 227.496 120.016C228.358 126.604 228.253 132.959 228.957 138.68C231.218 156.688 230.952 170.952 230.989 177.481C230.974 181.001 230.921 184.422 230.817 188.006C230.653 193.395 230.399 199.266 229.776 206.588C229.456 210.255 229.05 214.288 228.375 218.873C228.037 221.135 227.628 223.579 227.05 226.118C226.753 227.4 226.433 228.674 225.947 230.087C225.726 230.723 225.429 231.494 225.052 232.2C224.944 232.402 224.831 232.595 224.71 232.78C224.65 232.873 224.588 232.963 224.524 233.051C224.456 233.144 224.354 233.275 224.261 233.381C224.066 233.603 223.867 233.8 223.581 233.999C223.238 234.238 222.793 234.436 222.287 234.478C216.151 235.029 209.202 236.71 201.19 238.28C193.134 239.885 183.581 241.458 173.072 242.327C170.169 242.618 167.274 242.855 164.389 243.04C152.163 243.946 140.612 247.868 130.098 250.512C125.336 251.751 120.685 252.894 116.084 253.821C109.962 255.054 103.992 256.056 98.0227 256.644C95.0127 256.938 91.962 257.127 88.8855 257.152C84.5972 257.19 80.2375 256.889 75.9771 256.15C72.2897 255.57 68.524 253.397 66.2316 250.382C61.8678 244.592 61.15 237.918 60.7346 231.501C60.1083 220.662 62.066 208.786 61.9016 197.284C61.3098 182.329 61.6236 166.151 61.5897 147.471C61.6277 128.543 61.581 111.018 61.5234 94.6842C61.4351 84.1397 62.3056 72.708 65.506 63.6443C66.3004 60.5167 68.4973 57.2172 71.294 55.3674C74.0577 53.4784 76.8829 52.7267 79.4107 52.2752C74.1815 52.7572 66.7173 57.3026 65.4665 63.6335C61.5776 74.8656 61.4044 86.008 61.3064 94.6856C61.2991 96.5421 61.291 98.3088 61.2821 99.997C61.2692 102.325 61.2569 104.821 61.2428 106.996C61.1441 122.87 61.0346 134.324 61.0153 146.675C61.0457 167.52 60.575 183.538 60.9714 197.312C61.4217 219.714 51.9855 237.547 69.0238 255.057C71.0314 256.4 73.3496 257.274 75.6756 257.687C81.1918 258.669 87.1875 258.952 93.319 258.62C100.762 258.225 108.444 257.027 116.374 255.414C125.981 253.477 135.727 250.481 145.729 247.94C151.771 246.43 158.049 245.019 164.463 244.6C177.065 243.847 190.378 241.894 203.812 238.918C203.82 238.916 203.828 238.914 203.837 238.913C207.896 238.041 211.978 237.099 216.041 236.334C218.148 235.941 220.274 235.597 222.361 235.39C223.084 235.329 223.702 235.035 224.153 234.708C224.5 234.456 224.77 234.182 225.004 233.902C225.462 233.334 225.649 232.981 225.914 232.476C226.313 231.682 226.625 230.829 226.872 230.065C227.374 228.494 227.721 227.001 228.045 225.446C228.664 222.418 229.11 219.362 229.484 216.356C230.23 210.299 230.706 204.169 231.042 198.084C231.701 185.858 231.811 173.592 231.338 161.48C231.224 158.642 231.05 155.258 230.752 151.362C230.459 147.573 230.058 143.319 229.41 138.623C228.721 133.402 228.767 127.295 227.959 120.705C227.532 117.411 226.962 113.933 225.478 110.507C224.129 107.14 220.823 103.607 216.518 103.447C205.244 102.555 192.833 102.95 179.799 104.439C173 105.131 165.981 105.92 158.768 106.7C149.649 107.683 140.212 108.667 129.724 109.555C128.193 109.683 126.622 109.757 125.018 109.803C121.249 109.914 117.3 109.858 113.133 109.955C109.504 110.06 105.668 110.199 101.605 111.118C97.7303 111.96 92.4914 114.282 91.0988 119.592C88.9138 128.219 90.3709 137.474 92.755 147.177C93.8334 151.964 93.1785 158.013 92.9464 164.21C92.7071 170.274 92.4228 176.842 93.9344 183.763C95.2228 190.579 100.174 198.159 107.874 200.581C116.994 203.239 125.708 200.756 133.999 197.824C138.846 196.249 145.187 196.154 151.16 195.659C165.499 194.174 183.238 194.626 194.097 180.694C195.56 178.528 196.587 176.099 197.177 173.585C199.747 160.186 199.685 147.562 198.203 134.675C197.812 132.436 197.538 130.229 196.057 127.638C195.387 126.384 193.466 124.766 191.537 124.724C189.708 124.625 188.562 125.082 187.569 125.312C176.899 128.203 167.034 132.142 157.131 135.835C145.276 140.333 133.73 145.227 122.185 149.909C122.177 149.912 122.169 149.915 122.161 149.918C117.674 151.741 113.991 152.65 113.975 152.062C113.916 151.499 117.496 149.655 121.969 147.834C133.321 143.222 144.707 138.406 156.414 133.963C166.344 130.263 176.179 126.325 187.057 123.375C188.033 123.166 189.271 122.608 191.692 122.727C194.281 122.762 196.98 125.054 197.758 126.581C199.553 129.749 199.754 132.011 200.182 134.365C201.699 147.68 201.783 160.103 199.127 174.041C198.46 176.895 197.25 179.698 195.524 182.153C183.509 196.881 165.734 196.086 151.376 197.651C145.434 198.125 138.859 198.323 134.707 199.698C126.155 202.67 117.414 205.391 107.205 202.47C98.6602 199.836 93.1249 191.051 91.8913 183.803C90.3594 176.387 90.7257 169.605 90.9761 163.418C91.227 157.517 91.7339 151.624 90.8146 147.686C88.4101 137.81 86.8194 128.445 89.1602 119.062C91.048 112.09 97.9699 109.72 102.229 108.926C106.864 108.043 111.022 107.984 114.931 107.908C119.344 107.848 123.393 107.892 127.133 107.706C127.95 107.665 128.754 107.614 129.53 107.549C140.693 106.602 150.191 105.607 159.449 104.61C166.353 103.863 173.071 103.111 179.593 102.447C192.693 100.951 205.293 100.548 216.681 101.45C221.823 101.608 225.92 106.061 227.324 109.721C228.948 113.495 229.513 117.101 229.956 120.49C230.778 127.236 230.74 133.398 231.407 138.368C231.948 142.28 232.317 145.896 232.598 149.207C232.938 153.22 233.143 156.777 233.279 159.784C233.824 172.17 233.749 184.707 233.107 197.277C232.777 203.547 232.303 209.857 231.551 216.112C231.167 219.26 230.716 222.424 230.073 225.62C229.745 227.231 229.374 228.856 228.838 230.56C228.693 231.012 228.551 231.427 228.384 231.866C228.192 232.368 227.988 232.848 227.755 233.317C227.449 233.913 227.196 234.396 226.606 235.139C226.286 235.53 225.901 235.933 225.376 236.321C224.727 236.804 223.714 237.311 222.527 237.407C221.302 237.529 220.059 237.701 218.801 237.905C214.9 238.542 210.885 239.452 206.854 240.328C206.846 240.33 206.838 240.332 206.83 240.334C192.601 243.562 178.138 245.83 164.56 246.618C159.021 246.978 153.478 248.129 148.077 249.435C137.213 252.115 126.932 255.365 116.74 257.419C110.626 258.667 104.65 259.672 98.6579 260.267C90.9268 261.035 83.0231 261.075 75.2836 259.686C74.2576 259.498 73.2962 259.253 72.2844 258.908C65.4731 256.775 61.0042 250.165 59.4507 244.971C57.7081 239.576 57.356 234.574 57.2559 229.474C57.019 219.507 58.9383 208.284 58.969 197.373C58.5715 183.3 59.0447 167.355 59.013 146.781ZM141.601 150.546C148.636 147.811 154.797 145.411 160.046 143.433C162.945 142.339 165.548 141.351 167.879 140.467C165.259 141.426 162.648 142.392 160.022 143.37C157.047 144.477 154.072 145.619 151.097 146.781C147.929 148.019 144.767 149.277 141.601 150.546ZM171.478 240.447C173.36 240.27 175.268 240.067 177.152 239.843C172.883 240.288 168.588 240.616 164.284 240.833C163.306 240.882 162.328 240.955 161.351 241.048C154.874 241.671 148.521 243.122 142.238 244.684C149.699 242.851 157.086 241.246 164.287 240.898C166.747 240.78 169.11 240.631 171.478 240.447ZM63.5928 147.391C63.6254 166.344 63.3246 182.438 63.9279 197.222C64.1362 207.294 62.5907 217.369 62.6704 226.903C62.7408 233.393 63.0192 239.977 65.9432 246.118C67.1751 248.618 69.095 250.993 71.6608 252.462C64.1216 247.423 63.7537 238.616 63.3441 232.068C63.1325 225.218 63.7434 218.961 64.2477 213.364C64.7821 207.489 65.4156 202.037 65.3205 197.18C65.1402 173.368 65.7545 158.162 65.8109 144.351C65.8621 139.464 65.9035 134.891 65.9348 130.115C65.8626 126.182 65.7863 122.05 65.7145 117.999C65.6128 112.18 65.5051 106.021 65.4037 100.048C65.3735 98.2956 65.3431 96.4985 65.3126 94.6603C65.2434 90.407 65.2877 86.1602 65.5768 81.9127C65.9074 76.0404 67.1413 69.9358 68.8247 64.5513C68.873 64.3708 68.9246 64.1926 68.9795 64.0169C70.9075 57.0939 78.7557 55.2953 83.9757 55.0706C84.3066 55.0501 84.6072 55.0346 84.9282 55.0211C90.8187 54.8099 96.3759 55.4056 101.445 55.9045C106.608 56.4407 110.86 56.9296 114.644 57.2863C119.376 57.738 124.194 58.1497 128.969 58.4243C131.535 58.5723 134.073 58.6811 136.626 58.7434C138.807 58.796 141.05 58.8366 143.278 58.8682C148.062 58.9353 152.815 58.9655 157.582 58.9863C159.11 58.9927 160.748 58.9987 162.261 59.003C162.965 59.0051 163.673 59.0068 164.383 59.0087C155.427 58.8594 146.131 58.7048 136.643 58.3161C136.244 58.2992 135.844 58.2812 135.445 58.262C121.139 57.7397 106.211 54.7171 88.6385 53.7565C85.0645 53.6848 81.3225 53.6999 77.2505 54.8134C73.2716 55.7136 68.4881 59.3918 67.438 64.1723C64.2652 73.1993 63.4522 84.1161 63.5255 94.6716C63.5824 110.859 63.6306 128.294 63.5928 147.391ZM285.027 94.5323C285.566 91.4435 286.326 87.2418 287.288 81.9836C287.538 80.5357 288.046 78.4238 287.511 75.9162C286.972 73.2247 285.013 70.919 283.045 69.5337C283.091 69.5685 283.139 69.604 283.185 69.639C284.932 70.947 286.699 72.9491 287.338 75.4944C287.993 78.0147 287.475 80.3272 287.159 81.9597C286.906 83.2608 286.651 84.5722 286.392 85.9106C284.719 94.5573 283.171 102.933 281.955 111.43C281.099 117.389 280.411 123.352 279.913 129.336C279.692 132.007 279.367 134.648 279.035 137.241C277.877 145.865 276.965 154.378 276.415 162.982C275.848 171.599 275.536 180.159 275.349 188.828C275.29 191.56 275.245 194.323 275.212 197.112C275.347 190.979 275.527 184.49 275.816 177.789C276.05 172.378 276.352 166.785 276.804 160.888C276.978 158.622 277.209 155.909 277.53 152.739C278.075 146.626 279.35 139.065 280.311 129.368C281.134 119.435 282.677 107.799 285.027 94.5323ZM281.445 265.641C281.693 267.641 281.936 269.642 282.165 271.607C282.537 274.802 282.882 277.96 283.186 281.088C283.424 283.567 283.521 286.002 283.5 288.439C283.43 291.85 283.305 295.178 282.174 298.884C281.964 299.526 281.706 300.179 281.376 300.831C280.475 302.707 278.623 304.682 276.388 305.501C274.921 306.073 273.482 306.223 272.212 306.233C270.582 306.244 268.946 306.177 267.359 306.056C268.955 306.187 270.592 306.262 272.212 306.258C274.117 306.268 276.577 305.862 278.576 304.337C280.578 302.831 281.637 300.737 282.243 298.906C284.055 292.479 283.75 286.949 283.338 281.074C282.641 273.531 281.747 265.973 280.834 258.324C280.806 258.086 280.777 257.848 280.748 257.608C280.989 260.347 281.223 263.018 281.445 265.641Z" fill="white" fill-opacity="0.3"/>
</svg>
