<svg width="252" height="277" viewBox="0 0 252 277" fill="none" xmlns="http://www.w3.org/2000/svg">
<path opacity="0.5" d="M85.6094 58.3339C90.3678 56.8919 94.6001 56.2124 98.1528 55.2191C103.417 53.7249 109.211 53.0417 115.381 53.3209C115.387 53.3211 115.394 53.3212 115.4 53.3214C117.109 53.3969 118.847 53.5425 120.617 53.7549C123.178 54.062 125.819 54.5114 128.558 55.0978C141.42 57.921 154.375 64.7593 172.089 72.8586C172.769 73.1706 173.434 73.4777 174.114 73.7932C188.509 80.3868 201.044 87.6814 210.644 94.0648C219.761 100.339 224.103 107.08 227.779 112.178C229.254 114.373 230.862 116.592 234.447 122.39C236.645 126.008 239.524 130.829 243.017 138.054C243.223 138.484 243.427 138.922 243.629 139.366C245.635 143.772 247.548 149.131 248.88 155.531C250.875 164.529 251.149 175.92 251.304 187.394C251.032 204.276 242.334 218.481 232.229 230.923C230.981 232.358 229.726 233.805 228.476 235.236C220.716 244.164 212.775 252.659 205.102 259.579C200.634 263.631 195.666 266.103 191.329 267.826C181.86 271.475 172.727 273.199 163.62 275.214C153.197 277.509 142.63 275.578 133.021 272.953C127.154 271.384 121.409 269.533 115.713 268.508C102.837 266.451 88.6011 261.329 75.7559 253.661C74.5495 252.996 73.3575 252.339 72.1705 251.699C58.2076 244.185 44.8359 235.344 33.5076 224.176C31.9415 222.676 30.3987 221.168 28.8624 219.72C28.7124 219.579 28.5625 219.438 28.4128 219.298C16.4475 206.575 15.567 190.681 8.77719 176.445C8.41089 175.651 8.03138 174.869 7.64231 174.114C-3.76831 149.37 0.90017 126.532 3.95601 104.781C4.2595 102.371 4.67338 99.9689 5.19099 97.5685C7.33669 87.4339 11.487 77.7185 14.7577 67.176C14.8063 67.0192 14.8551 66.8628 14.904 66.7068C18.2719 54.2698 27.2041 38.3257 36.4691 24.0721C40.3374 16.4743 47.3456 11.568 54.2661 7.86421C56.3103 6.78146 58.3866 5.79969 60.4763 4.88646C60.4868 4.88187 60.4973 4.87728 60.5077 4.8727C61.0941 4.61666 61.6831 4.36532 62.264 4.12211C79.0175 -1.3244 94.4431 0.834692 108.15 0.120011C114.866 -0.0108914 121.073 1.38448 126.261 3.00718C143.812 9.06748 153.269 13.1823 160.548 15.4611C160.572 15.469 160.641 15.4953 160.664 15.5041C164.272 16.8712 167.16 17.9591 169.847 18.9736C172.873 20.1164 175.67 21.1759 178.99 22.4607C190.07 26.8455 206.06 32.8811 222.937 40.8053C222.954 40.8146 223.007 40.8439 223.024 40.8536C224.4 41.6376 225.827 42.5446 227.138 43.4935C227.204 43.5408 227.269 43.5875 227.333 43.6342C230.139 45.6963 231.831 47.7804 231.479 48.1901C231.1 48.6098 228.809 47.1987 226.111 45.2221C224.802 44.2684 223.413 43.3807 222.029 42.592C222.022 42.5878 222 42.5753 221.992 42.5714C213.942 38.6263 206.171 35.5791 199.015 32.6038C198.41 32.8691 195.996 32.2671 193.29 31.1635C188.599 29.2495 177.121 24.7858 159.597 18.222C151.619 15.6274 142.606 12.185 132.401 8.49151C134.626 9.41468 136.469 10.2219 138.088 10.9361C139.993 11.778 141.43 12.4258 142.691 12.9895C145.296 14.1536 147.032 14.9265 150.167 16.1752C152.689 17.1467 155.729 18.2796 159.148 19.4849L159.107 19.4694C165.445 21.9901 173.008 24.9906 180.821 28.1302C183.838 29.3428 186.108 30.7447 185.885 31.2504C185.667 31.7587 183.039 31.1792 180.024 29.968C179.965 29.9444 179.907 29.9208 179.847 29.8971C172.301 26.8649 164.797 23.8871 158.374 21.3337L158.49 21.3766C154.753 20.0596 151.412 18.8099 148.646 17.7378C146.718 16.9905 145.032 16.3163 143.798 15.8158C142.793 15.4084 141.569 14.906 140.877 14.6022C140.787 14.5624 140.615 14.486 140.412 14.3928C140.408 14.3912 140.405 14.3895 140.402 14.3879C140.291 14.337 139.704 14.0682 139.096 13.744C138.973 13.6786 138.708 13.536 138.41 13.3563C138.33 13.3204 138.245 13.2826 138.163 13.2455C137.011 12.7295 135.855 12.2108 134.591 11.6583C129.961 10.0453 123.114 5.25338 108.214 4.63796C107.044 4.63203 105.891 4.62572 104.643 4.62103C94.8105 5.06789 79.9036 2.94757 63.8493 7.89981C55.371 11.5392 45.2213 16.2686 40.0957 25.8854C39.212 27.6496 38.1862 29.3367 37.1211 31.0033C38.2014 29.3757 39.2583 27.706 40.1837 25.9294C40.3597 25.5924 40.5449 25.2605 40.739 24.9333C43.5999 20.1292 48.2209 16.4786 53.1676 13.5729C55.0743 12.4565 57.0193 11.4583 59.0465 10.5135C60.6846 9.75059 62.3562 9.03535 64.0406 8.35544C65.6199 7.71824 67.294 7.24584 69.0007 6.88958C71.3231 6.40509 73.7434 6.11551 76.1625 5.91192C76.168 5.91139 76.1735 5.91085 76.179 5.91032C79.5543 5.63077 82.9726 5.50885 86.4484 5.42888C87.6453 5.40332 88.852 5.38321 90.047 5.36723C94.7916 5.30563 99.4655 5.29896 104.844 5.34188C105.504 5.35244 106.217 5.36822 106.742 5.38236C107.25 5.39547 107.747 5.4091 108.225 5.42331C108.279 5.42506 108.332 5.42691 108.385 5.42886C108.824 5.44498 109.236 5.46782 109.631 5.49402C109.685 5.49751 109.738 5.50109 109.792 5.50477C110.238 5.53579 110.656 5.571 111.064 5.61007C111.47 5.64912 111.857 5.69198 112.24 5.73697C112.244 5.73723 112.247 5.7375 112.251 5.73777C112.652 5.78501 112.955 5.82403 113.377 5.8807C113.908 5.95293 114.362 6.02043 114.913 6.10887C115.446 6.19479 116.001 6.29208 116.56 6.39912C117.121 6.50632 117.687 6.62333 118.266 6.75219C118.84 6.88017 119.431 7.02129 120.018 7.17029C120.608 7.32 121.204 7.48001 121.805 7.65014C122.409 7.8211 123.01 8.00015 123.621 8.18967C125.025 8.62491 126.331 9.17622 127.26 9.69492C128.179 10.2104 128.65 10.6458 128.557 10.8858C128.463 11.1267 127.814 11.1552 126.773 10.994C125.725 10.8301 124.369 10.4934 122.995 10.092C122.621 9.9825 122.242 9.87492 121.868 9.77176C121.647 9.7108 121.419 9.64865 121.194 9.58907C120.592 9.42921 119.982 9.27706 119.373 9.13443C118.762 8.99148 118.15 8.8576 117.528 8.73333C116.906 8.60909 116.277 8.49478 115.639 8.39125C115.003 8.28789 114.353 8.19448 113.693 8.11309C113.047 8.03315 112.312 7.95699 111.653 7.90225C111.172 7.86175 110.576 7.81914 110.08 7.79268C109.557 7.76439 109.051 7.74447 108.552 7.7322C108.454 7.72976 108.355 7.72762 108.257 7.72577C107.814 7.71895 107.389 7.71152 106.982 7.70447C106.928 7.7036 106.874 7.70274 106.82 7.70187C106.37 7.69411 105.956 7.68622 105.533 7.68002C105.07 7.67296 104.637 7.66755 104.229 7.66351C103.78 7.65882 103.508 7.65837 103.164 7.65844C98.7066 7.6933 93.191 7.77886 87.9947 7.94773C87.3247 7.96973 86.7074 7.99135 86.0471 8.0166C82.66 8.1492 79.2639 8.32915 76.0084 8.66436C73.6327 8.91137 71.3287 9.24269 69.1757 9.75643C67.7557 10.0957 66.4166 10.5144 65.1677 11.0412C63.3493 11.8069 61.5624 12.6086 59.8277 13.4636C57.8782 14.4246 56.0199 15.4363 54.228 16.551C49.5626 19.4486 45.4433 23.0496 43.2679 27.2976C43.2441 27.3437 43.2206 27.39 43.1973 27.4363C40.0769 33.4222 36.4669 37.9349 33.5035 42.9232C30.4639 47.8821 27.7566 53.2228 25.4874 58.6245C24.009 62.1256 22.6332 65.7631 21.4303 69.2752C21.263 69.7654 21.0968 70.2439 20.9289 70.7211C20.159 72.9089 19.3687 75.0196 18.579 77.0815C18.5762 77.0885 18.5734 77.0956 18.5705 77.1026C17.8778 78.911 17.1868 80.6802 16.5134 82.4291C15.0692 86.1764 13.7125 89.82 12.5793 93.4909C11.4454 97.1565 10.5425 100.835 9.94356 104.592C9.89245 104.912 9.84323 105.234 9.79599 105.558C9.23389 109.245 8.56336 112.817 8.04066 116.34C7.44995 120.252 6.97419 124.066 6.63859 128.082C6.20103 133.376 6.03896 138.616 6.29009 143.963C6.54343 149.26 7.21408 154.558 8.51423 159.655C8.96866 161.434 9.5009 163.192 10.1203 164.907C10.1227 164.913 10.1251 164.92 10.1274 164.926C10.9215 167.122 11.8586 169.252 12.9548 171.283C13.5096 172.313 14.0346 173.359 14.5326 174.407C17.0138 179.652 18.9076 184.993 20.8248 190.236C22.7393 195.469 24.6342 200.683 27.0741 205.415C28.7439 208.637 30.7295 211.694 33.1939 213.886C34.597 215.132 35.9578 216.393 37.3078 217.64C41.1023 221.167 44.9169 224.533 48.8938 227.588C49.9353 228.392 50.999 229.188 52.0698 229.966C57.1655 233.668 62.3347 236.928 67.5997 239.969C70.3457 241.554 73.1296 243.083 75.9573 244.573C78.6054 245.969 81.1951 247.404 83.7807 248.778C89.1668 251.665 94.6216 254.184 100.421 256.033C105.864 257.785 111.428 258.995 117.193 259.894C117.613 259.96 118.033 260.03 118.453 260.104C125.023 261.275 131.167 263.166 137.284 264.574C140.682 265.366 144.256 266.063 147.592 266.415C150.96 266.777 154.264 266.824 157.441 266.463C158.726 266.318 159.998 266.107 161.236 265.831C161.34 265.808 161.444 265.784 161.548 265.76C163.463 265.318 165.353 264.88 167.204 264.44C170.514 263.653 173.727 262.857 176.781 262.006C179.837 261.154 182.727 260.249 185.398 259.224C188.153 258.157 190.316 257.156 192.653 255.743C194.909 254.391 196.594 253.057 197.994 251.729C200.481 249.378 202.536 247.35 204.688 245.151C205.389 244.434 206.101 243.695 206.839 242.918C211.065 238.487 215.146 233.893 219.15 229.266C220.752 227.417 222.344 225.562 223.942 223.706C226.131 221.154 228.218 218.284 230.128 215.336C233.26 210.486 236 205.298 237.909 200.042C239.422 195.86 240.401 191.568 240.322 187.681C240.294 186.426 240.276 185.175 240.26 183.939C240.191 177.757 240.111 171.683 239.519 165.994C239.186 162.709 238.655 159.274 237.951 156.154C237.445 153.9 236.841 151.716 236.142 149.611C235.856 148.75 235.556 147.906 235.238 147.069C234.671 145.575 234.057 144.126 233.396 142.716C232.767 141.378 232.118 140.061 231.456 138.766C230.079 136.073 228.659 133.502 227.198 131.025C225.736 128.548 224.233 126.17 222.659 123.85C221.024 121.451 219.611 119.5 217.718 117.113C216.482 115.562 215.235 114.085 213.957 112.675C212.047 110.57 210.057 108.601 207.988 106.91C206.771 105.917 205.539 105.033 204.321 104.321C203.254 103.69 202.195 103.063 201.137 102.442C200.31 101.957 199.433 101.445 198.607 100.968C196.048 99.4893 193.517 98.0774 190.961 96.7189C188.409 95.3616 185.858 94.0694 183.283 92.8201C180.705 91.5699 178.138 90.3782 175.5 89.1983C172.376 87.801 169.351 86.4669 166.5 85.2252C165.223 84.6684 164.001 84.1297 162.828 83.6092C158.94 81.8831 155.33 80.2441 151.837 78.6875C151.188 78.3983 150.526 78.1042 149.879 77.8185C147.062 76.5743 144.311 75.3852 141.609 74.2871C138.28 72.9356 135.022 71.7164 131.805 70.7363C129.757 70.1131 127.715 69.5878 125.738 69.2213C124.551 69 123.37 68.8063 122.202 68.6447C118.912 68.1932 115.806 67.9829 112.57 68.1115C109.371 68.2451 106.229 68.7227 102.931 69.7321C102.772 69.7812 102.612 69.8315 102.451 69.883C98.1726 71.2122 94.1631 72.0053 90.7409 73.0914C87.1254 74.2104 84.3876 75.6318 82.7213 77.4311C82.5083 77.6563 82.3072 77.8887 82.1139 78.1334C79.7683 81.0514 77.4834 83.9974 75.3246 86.9389C72.848 90.3149 70.5105 93.7151 68.422 97.1327C67.5716 98.5249 66.7511 99.9414 65.9913 101.352C64.9628 103.26 64.0867 105.244 63.3467 107.249C61.4183 112.429 60.2535 118.346 58.8232 124.722C58.7507 125.044 58.6794 125.367 58.6096 125.691C57.3025 131.765 56.5215 137.944 56.5716 143.892C56.615 148.842 57.2617 153.662 58.7506 157.809C59.1079 158.802 59.4688 159.778 59.84 160.75C62.0997 166.662 64.6766 172.229 67.9732 176.786C68.7013 177.793 69.4639 178.75 70.2638 179.654C72.3416 182.003 74.6714 183.972 77.2915 185.565C78.247 186.146 79.2294 186.681 80.2434 187.173C80.2699 187.186 80.2964 187.199 80.3229 187.212C85.2873 189.657 91.0938 190.838 97.9604 192.727C98.8455 192.977 99.7313 193.239 100.62 193.521C102.06 193.978 103.484 194.422 104.924 194.861C107.15 195.539 109.339 196.185 111.549 196.812C113.762 197.438 115.964 198.035 118.129 198.59C120.319 199.15 122.452 199.664 124.594 200.134C126.559 200.565 128.505 200.955 130.598 201.312C130.79 201.345 130.981 201.377 131.17 201.408C132.081 201.557 133.03 201.701 133.98 201.826C135.543 202.031 137.137 202.231 138.654 202.408C145.295 203.173 151.815 203.639 157.653 203.04C161.312 202.744 164.806 201.381 165.17 200.709C166.82 198.909 168.4 197.161 169.832 195.425C171.4 193.526 172.782 191.642 173.879 189.756C175.593 186.819 176.609 183.885 176.972 180.659C177.222 178.451 177.168 176.13 176.857 173.695C176.306 169.307 176.007 165.181 175.587 161.181C174.892 154.446 173.872 147.735 171.57 143.266C170.564 141.317 169.429 140.042 168.199 139.302C164.842 137.3 161.502 135.357 158.191 133.575C153.283 130.935 148.411 128.648 143.476 127.074C141.584 126.471 139.732 125.895 137.898 125.372C130.901 123.363 123.516 122.034 118.395 123.301C117.497 123.523 116.706 123.819 116.031 124.176C110.783 126.978 105.935 130.267 103.37 133.9C102 135.849 101.42 137.61 101.48 139.502C101.659 143.66 102.014 147.74 102.769 151.508C103.562 155.523 104.929 159.221 106.801 161.342C107.668 162.243 108.537 162.802 109.494 163.181C109.753 163.286 110.116 163.43 110.401 163.537C117.622 166.191 124.539 167.891 130.823 168.651C133.953 169.013 137.069 169.089 139.404 168.621C140.549 168.404 141.391 167.999 141.587 167.804C141.695 167.707 141.665 167.703 141.656 167.703C141.643 167.7 141.671 167.658 141.706 167.41C141.719 167.33 141.732 167.249 141.744 167.169C141.932 165.887 142.018 164.851 142.049 163.638C142.055 163.408 142.058 163.164 142.057 162.919C142.046 161.4 141.921 159.568 141.39 157.973C141.247 157.551 141.076 157.175 140.912 156.906C139.571 154.603 138.694 152.454 137.794 150.743C137.361 149.904 136.912 149.199 136.675 148.913C136.562 148.768 136.52 148.742 136.621 148.797C136.715 148.85 136.977 148.964 137.218 148.997C134.536 148.326 131.744 148.139 130.288 148.614C129.751 148.773 129.38 148.873 129.02 148.927C128.18 149.365 127.69 149.415 127.766 148.962C127.804 148.741 127.971 148.424 128.247 148.039C128.412 147.65 128.791 147.203 129.418 146.869C128.87 147.087 128.399 147.36 127.964 147.714C125.926 149.425 123.928 151.172 121.979 152.953C120.888 153.949 119.82 154.818 118.98 155.373C118.145 155.924 117.601 156.114 117.481 155.868C117.362 155.623 117.666 154.973 118.336 154.065C119.003 153.159 119.995 152.066 121.085 151.048C122.882 149.367 124.713 147.722 126.571 146.114C127.406 145.39 128.388 144.869 129.511 144.536C132.016 143.789 135.094 144.02 138.14 144.674C138.431 144.737 138.696 144.843 138.977 145.014C140.939 146.163 142.442 150.118 144.423 153.902C144.552 154.141 144.688 154.385 144.829 154.627C146.235 157.039 146.592 160.555 146.386 163.986C146.304 165.371 146.134 166.759 145.896 168.141C145.583 169.885 144.738 170.966 143.052 171.801C141.451 172.58 139.288 172.929 137.12 173.009C136.294 173.04 135.503 173.035 134.685 173.005C134.026 172.981 133.343 172.938 132.653 172.879C125.317 172.2 117.76 170.134 110.683 167.561C109.763 167.219 108.879 166.873 108.044 166.514C102.952 164.419 100.313 158.16 99.0266 151.891C98.2061 147.952 97.7999 143.85 97.5596 139.713C97.3708 136.769 98.3788 133.874 100.218 131.298C103.468 126.767 108.622 123.341 113.934 120.374C115.05 119.751 116.29 119.287 117.602 118.961C124.374 117.374 132.135 118.944 139.455 120.903C141.272 121.397 143.081 121.935 144.891 122.484C148.676 123.63 152.364 125.138 155.987 126.852C158.094 127.805 160.159 128.819 162.187 129.862C165.133 131.377 168.059 132.969 170.974 134.586C173.511 135.964 175.498 138.333 176.941 141.07C175.468 138.125 173.464 135.795 171.061 134.438C164.663 130.77 158.945 127.699 153.256 125.28C152.167 124.818 151.08 124.381 149.989 123.971C148.323 123.343 146.647 122.777 144.954 122.281C135.524 119.795 124.451 115.585 113.868 120.255C113.687 120.354 113.505 120.456 113.319 120.559C104.345 125.422 96.6615 132.217 97.2493 139.73C97.8245 152.261 100.428 163.947 107.838 166.987C117.262 170.86 125.432 172.76 131.749 173.518C140.716 174.687 146.549 172.373 146.951 168.325C147.644 164.883 147.884 162.122 147.774 159.495C147.689 157.755 147.376 155.664 146.365 153.733C144.159 149.799 143.01 143.842 138.591 142.558C133.284 141.183 127.713 141.798 125.055 144.373C125.02 144.404 124.985 144.434 124.951 144.464C122.504 146.589 120.28 148.049 119.913 147.633C119.547 147.22 121.2 145.068 123.678 142.917C123.698 142.899 123.719 142.881 123.74 142.863C126.979 139.756 133.387 139.128 139.011 140.588C145.217 142.614 145.861 148.949 148.13 152.706C150.049 156.384 150.017 160.179 149.794 163.131C149.646 164.798 149.401 166.528 148.955 168.674C148.552 173.54 141.477 177.073 131.03 175.451C124.6 174.614 116.589 172.747 107.039 168.823C98.2205 164.972 95.9046 152.514 95.249 139.837C94.6793 130.859 103.312 123.729 112.44 118.756C112.595 118.669 112.749 118.585 112.9 118.501C124.987 113.305 135.817 117.893 145.546 120.361C146.957 120.775 148.36 121.237 149.758 121.743C150.87 122.145 151.982 122.576 153.095 123.034C153.102 123.037 153.109 123.04 153.116 123.043C159.158 125.534 165.242 128.785 172.079 132.708C177.062 135.514 179.928 141.483 181.488 147.96C183.386 155.695 183.748 164.237 184.821 172.684C187.392 185.844 179.157 198.22 171.215 206.266C163.856 212.751 154.724 211.483 148.32 211.629C141.703 211.404 136.651 210.761 133.792 210.45C133.47 210.413 133.152 210.376 132.839 210.34C130.811 210.102 128.83 209.799 126.767 209.437C119.814 208.184 111.834 206.412 97.8976 202.212C93.6409 200.888 88.5205 199.981 82.6318 198.121C79.4337 197.096 75.9277 195.679 72.4639 193.606C70.1158 192.206 67.8085 190.488 65.6601 188.461C57.4093 180.993 52.973 171.044 49.6533 162.76C49.4658 162.283 49.2814 161.81 49.0977 161.335C46.4101 154.24 45.72 147.257 45.6565 140.621C45.6457 138.57 45.7104 136.509 45.8417 134.459C46.1078 130.31 46.6447 126.189 47.3955 122.19C47.5327 121.455 47.6674 120.722 47.8034 119.986C48.4793 116.35 49.1417 112.447 50.1766 108.254C51.1909 104.152 52.6101 99.7487 54.8269 95.3377C59.0198 87.0053 64.7937 78.6446 71.9435 69.753C75.4805 65.2884 80.8614 62.4851 85.8798 60.9496C90.7145 59.4383 95.1565 58.7127 98.8577 57.6237C109.24 54.5601 119.469 55.4591 128.132 57.2284C137.331 59.1991 144.816 62.6097 151.774 65.6603C143.157 61.7769 135.566 58.6618 128.164 57.0685C125.057 56.4028 122.092 55.9197 119.239 55.6236C117.476 55.4405 115.77 55.33 114.109 55.2894C108.4 55.1456 103.284 55.8572 98.7174 57.1449C94.9428 58.191 90.8005 58.8546 86.2725 60.2248C80.8508 61.8092 75.1188 64.7636 71.4527 69.3485C63.4226 79.1459 57.7929 87.2756 53.8157 94.793C48.3425 105.467 47.5009 113.947 45.882 121.855C45.8624 121.957 45.8429 122.059 45.8235 122.161C44.9674 126.693 44.2961 131.755 44.0934 137.287C43.8657 144.755 44.297 153.247 47.6213 161.874C49.1017 165.608 50.7294 169.45 52.6784 173.304C56.5791 181.079 62.5388 189.636 71.746 194.802C75.5268 196.97 79.6982 198.558 83.9022 199.706C83.9078 199.708 83.9134 199.709 83.919 199.711C86.6913 200.477 89.4776 201.078 92.21 201.704C94.0443 202.125 95.8558 202.558 97.6303 203.065C108.957 206.256 120.652 209.43 132.754 210.971C136.634 211.419 140.539 211.805 144.438 212.029C146.345 212.137 148.639 212.229 151.28 212.206C156.627 211.828 164.549 212.769 171.49 206.519C178.437 199.119 187.786 187.434 185.234 172.632C184.622 167.659 184.322 162.409 183.699 156.992C182.723 150.04 182.201 142.159 176.536 134.946C175.477 133.704 174.194 132.56 172.702 131.649C171.767 131.076 170.816 130.497 169.845 129.913C163.392 126.102 156.002 121.608 146.16 118.369C140.442 116.552 134.049 114.521 126.533 113.846C121.958 113.504 116.675 113.569 111.654 116.243C103.962 120.689 92.5208 126.974 92.6285 139.978C92.8341 143.957 93.1884 148.01 93.9532 152.098C95.3031 159.007 97.9265 167.613 105.991 171.234C108.804 172.448 111.609 173.424 114.453 174.329C120.706 176.278 126.983 177.821 133.519 178.289C136.79 178.482 140.15 178.465 143.627 177.378C147.053 176.473 150.791 173.065 151.281 169.079C152.163 163.586 152.742 157.645 149.647 151.823C147.239 148.309 146.971 141.753 139.321 139.135C134.343 138.06 127.839 137.51 122.806 141.79C122.105 142.392 121.408 143 120.716 143.611C120.712 143.615 120.708 143.619 120.704 143.623C118.231 145.806 116.043 147.263 115.743 146.783C115.446 146.305 117.178 144.051 119.682 141.851C120.281 141.323 120.884 140.799 121.49 140.278C127.364 135.32 134.565 136.075 139.739 137.174C144.532 138.283 146.754 141.942 148.113 144.293C149.503 146.802 150.417 149.141 151.379 150.815C154.896 157.499 154.143 163.688 153.255 169.423C152.723 174.146 148.013 178.368 144.179 179.304C140.259 180.508 136.707 180.485 133.273 180.28C126.436 179.772 120.031 178.175 113.638 176.172C110.807 175.264 108.066 174.31 105.192 173.07C96.0982 168.943 93.4067 159.61 91.9949 152.521C91.1999 148.289 90.8387 144.141 90.6285 140.085C90.6278 125.405 102.929 119.06 110.687 114.489C116.509 111.411 122.3 111.493 127.196 111.892C134.77 112.645 141.118 114.662 146.751 116.451C157.423 119.972 165.176 124.814 171.915 128.811C172.526 129.181 173.128 129.548 173.723 129.913C176.02 131.306 177.819 133.154 179.164 135.038C184.531 143.245 184.821 150.636 185.759 157.366C186.342 162.637 186.643 167.697 187.22 172.379C189.953 187.965 179.831 200.617 172.969 207.878C165.408 214.71 157.993 213.681 152.67 214.196C149.882 214.265 147.458 214.193 145.405 214.094C141.078 213.881 136.76 213.46 132.486 212.968C120.172 211.397 108.484 208.222 97.0254 204.996C95.8271 204.655 94.6001 204.345 93.3474 204.047C90.7165 203.421 87.9659 202.846 85.1623 202.133C85.1566 202.132 85.1508 202.13 85.1451 202.129C80.2722 200.91 75.225 199.145 70.7042 196.537C61.595 191.418 55.4671 183.04 51.5182 175.449C49.1766 170.989 47.353 166.683 45.7158 162.57C42.7569 154.91 42.0555 147.571 41.9905 140.763C41.9691 134.865 42.5294 129.282 43.4515 123.865C43.5925 123.042 43.7419 122.226 43.8993 121.416C45.5096 113.607 46.4299 104.752 52.05 93.8418C56.1935 86.0244 61.9397 77.799 69.9074 68.0752C73.8808 63.1065 80.0519 59.9631 85.6094 58.3339ZM133.156 146.325C134.618 146.395 136.15 146.665 137.639 147.023C137.645 147.061 137.718 147.064 138.082 147.466C138.425 147.851 138.873 148.529 139.293 149.297C140.149 150.857 140.939 152.71 141.877 154.509C140.063 150.511 138.119 146.909 137.699 146.997C137.676 146.979 137.672 146.972 137.653 146.96C136.078 146.595 134.549 146.361 133.156 146.325ZM66.348 186.342C67.2671 187.208 68.2336 188.034 69.2423 188.81C66.5024 186.611 64.089 184.012 62.0015 181.183C59.4344 177.708 57.3379 173.896 55.5158 169.972C58.3671 176.226 61.9209 181.988 66.348 186.342ZM86.5403 62.8415C81.6491 64.3346 76.7079 66.9599 73.4922 71.0291C66.3851 79.883 60.7531 88.0719 56.6241 96.3059C55.0372 99.4841 53.8526 102.701 52.9372 105.863C51.7058 110.116 50.9342 114.265 50.1828 118.308C49.9152 119.752 49.6574 121.19 49.3914 122.633C49.3476 122.869 49.3045 123.107 49.2621 123.345C49.3137 123.109 49.3659 122.873 49.4186 122.639C51.4339 113.232 53.5068 104.202 57.1511 97.515C57.2771 97.2742 57.4048 97.0347 57.5344 96.7963C63.7611 85.6712 69.9524 78.3642 74.9873 72.2611C79.207 67.3097 84.6071 65.6038 89.2021 64.3657C92.3972 63.5355 95.4699 62.9724 98.5105 62.2126C99.0296 62.0617 99.5485 61.9044 100.064 61.7389C102.129 61.0777 104.301 60.5517 106.52 60.1926C110.446 59.5443 114.765 59.4252 118.823 59.724C121.695 59.9289 124.576 60.327 127.409 60.8521C128.609 61.0748 129.795 61.3388 130.965 61.6333C134.962 62.6431 138.782 63.9825 142.52 65.4285C146.034 66.7923 149.471 68.2602 152.776 69.7058C152.965 69.7887 153.156 69.8723 153.346 69.9558C156.834 71.4878 160.208 73.0081 163.311 74.3833C165.869 75.5171 168.074 76.48 170.071 77.3242C170.554 77.5288 171.019 77.7252 171.468 77.9143C174.404 79.1506 177.443 80.4761 180.392 81.817C183.369 83.1714 186.298 84.5598 189.203 86.0076C192.107 87.4546 194.97 88.9536 197.8 90.5114C198.72 91.0179 199.666 91.546 200.571 92.0594C200.981 92.2915 201.404 92.5325 201.811 92.7659C196.408 89.5139 190.636 86.3208 184.597 83.2723C180.1 80.9984 175.39 78.7438 170.452 76.4798C165.848 74.3708 161.085 72.1276 156.04 69.8015C147.71 66.0724 138.836 61.6333 127.74 59.1919C119.282 57.468 109.441 56.5935 99.4211 59.5455C95.5877 60.6693 91.1902 61.3909 86.5403 62.8415ZM248.812 174.071C248.678 171.312 248.471 167.242 247.71 161.988C247.529 160.749 247.311 159.44 247.049 158.074C247.055 158.107 247.061 158.14 247.066 158.172C247.646 161.571 247.997 164.724 248.244 168.109C248.684 174.146 248.652 179.965 248.714 185.724C248.72 186.3 248.729 186.888 248.738 187.461C248.815 193.245 247.364 198.664 245.436 203.744C243.256 209.401 240.386 214.701 237.149 219.678C235.003 222.96 232.699 226.11 230.118 229.085C228.808 230.588 227.492 232.104 226.168 233.619C224.945 235.018 223.715 236.419 222.476 237.814C224.993 235.064 227.553 232.179 230.221 229.174C230.536 228.819 230.878 228.423 231.187 228.059C233.623 225.175 235.926 222.026 238.144 218.58C238.993 217.257 239.994 215.643 241.087 213.708C244.028 208.083 248.952 199.938 249.123 187.451C249.032 183.379 249.029 178.906 248.812 174.071ZM185.736 267.427C184.418 267.868 183.101 268.275 181.794 268.657C178.083 269.736 174.473 270.617 170.936 271.444C168.454 272.023 166.001 272.571 163.59 273.107C163.453 273.137 163.315 273.168 163.178 273.198C162.221 273.41 161.269 273.587 160.315 273.732C158.473 274.012 156.633 274.171 154.812 274.226C157.62 274.164 160.431 273.852 163.191 273.258C172.224 271.26 181.328 269.542 190.643 265.944C190.802 265.881 190.96 265.816 191.119 265.752C189.286 266.404 187.489 266.948 185.736 267.427Z" fill="white" fill-opacity="0.25"/>
</svg>
