<svg width="250" height="288" viewBox="0 0 250 288" fill="none" xmlns="http://www.w3.org/2000/svg">
<path opacity="0.4" d="M90.0742 181.13C82.9524 176.986 76.3162 172.946 68.1228 167.858C67.8941 167.716 67.6649 167.574 67.4351 167.431C67.4305 167.428 67.4258 167.425 67.4212 167.422C66.1834 166.652 64.9583 165.884 63.6379 165.054C53.2261 158.409 39.5583 149.985 19.8982 135.424C14.1608 131.11 8.82595 126.814 4.0179 122.369C2.62817 121.046 0.798544 119.137 0.231435 115.628C-0.288793 112.035 1.34921 109.159 2.49014 107.707C4.98568 104.667 7.0595 103.588 9.00475 102.368C12.8602 100.129 16.3428 98.6511 19.5526 97.2777C25.981 94.5854 31.3729 92.5482 35.7126 90.8125C37.8988 89.9306 40.1903 89.0175 45.6642 86.369C48.5819 84.9284 52.3563 83.0419 57.0184 80.112C58.0999 79.4268 59.2365 78.7008 60.4425 77.9239C63.992 75.639 68.1042 72.9284 72.9305 69.7166C78.482 66.0402 85.0864 61.5229 92.6671 56.823C107.51 47.9502 125.244 40.6647 142.283 33.9601C142.822 33.751 143.36 33.5434 143.895 33.3374C158.821 27.5061 173.108 21.5272 184.42 17.7307C185.378 17.404 186.336 17.083 187.295 16.7682C200.938 12.2322 214.431 8.38811 227.417 2.62141C230.306 1.43834 232.934 0.285882 237.53 0.817073C238.389 0.964195 239.376 1.22181 240.453 1.81637C252.081 9.55698 249.612 21.8933 248.946 30.8029C247.858 40.1923 244.972 50.1103 244.258 59.0733C244.251 59.273 244.247 59.4615 244.246 59.6379C244.098 75.7664 243.394 91.0572 243.962 106.7C243.976 107.118 243.991 107.539 244.007 107.961C244.07 109.628 244.102 111.294 244.109 112.958C244.178 125.382 242.808 137.782 242.314 150.773C242.24 152.903 242.219 155.071 242.236 157.266C242.397 170.726 243.523 183.03 243.666 195.008C243.83 207.37 244.759 219.283 245.234 231.97C245.297 233.715 245.348 235.474 245.382 237.251C245.557 245.366 245.228 253.777 244.915 262.63C244.796 266.221 244.685 270.123 244.71 274.261C244.714 275.442 244.799 276.734 244.764 278.25C244.67 279.723 244.732 281.713 243.017 283.869C240.265 287.467 234.794 287.959 231.343 287.125C227.671 286.39 224.419 285.081 221.151 283.8C214.664 281.191 208.182 278.482 201.413 276.63C199.556 276.118 197.686 275.576 195.824 274.981C193.762 274.324 191.707 273.599 189.694 272.821C189.684 272.817 189.673 272.813 189.663 272.809C168.215 263.936 149.266 252.601 134.766 244.912C122.073 237.98 113.867 233.489 107.715 230.16L107.739 230.174C102.873 227.597 99.402 225.876 96.1798 224.352C93.4571 223.062 90.8946 221.933 87.7939 220.486C85.8062 219.557 83.6345 218.495 81.3571 217.316C70.8888 211.863 57.8244 204.264 44.5681 196.606C44.5065 196.571 44.4449 196.535 44.3832 196.499C41.7086 194.951 39.7768 193.314 40.065 192.842C40.3553 192.371 42.7558 193.243 45.4306 194.791C53.968 199.732 62.2932 204.541 69.8235 208.765C70.4444 208.568 72.6374 209.391 75.0783 210.746C76.7023 211.644 79.2461 213.03 82.6843 214.783C88.7625 217.979 97.9367 221.615 109.144 227.592C115.404 230.933 122.352 234.63 130.058 238.705C128.104 237.528 126.427 236.506 125.036 235.645C123.383 234.625 122.017 233.776 120.957 233.11C118.735 231.714 117.08 230.689 114.395 229.119C113.037 228.346 111.486 227.468 109.753 226.492C109.751 226.491 109.746 226.488 109.744 226.487C103.557 222.985 95.1323 218.927 86.5643 214.773C85.4089 214.19 84.3908 213.572 83.6127 213.011C82.562 212.252 81.9667 211.607 82.1242 211.33C82.281 211.055 83.1402 211.198 84.3406 211.622C85.2507 211.945 86.3502 212.423 87.5098 213.007C87.562 213.034 87.6141 213.06 87.6685 213.087C95.8078 217.026 104.371 221.147 110.701 224.727C110.706 224.73 110.721 224.738 110.726 224.741C112.731 225.87 114.519 226.881 116.069 227.764C117.741 228.716 119.284 229.6 120.363 230.224C121.243 230.733 122.297 231.346 122.907 231.72C122.989 231.77 123.145 231.867 123.328 231.984C123.331 231.986 123.334 231.988 123.337 231.99C123.44 232.055 123.965 232.388 124.497 232.775C124.604 232.853 124.838 233.024 125.099 233.236C125.171 233.282 125.244 233.327 125.316 233.372C126.334 234.007 127.309 234.62 128.446 235.319C132.817 238 139.805 242.257 154.453 250.534C165.079 256.075 180.666 266.501 202.491 272.71C209.07 274.511 215.724 277.233 222.61 280.017C220.577 279.163 218.535 278.281 216.478 277.425C211.969 275.542 207.349 273.775 202.58 272.388C201.882 272.185 201.205 271.984 200.515 271.774C198.481 271.155 196.498 270.503 194.501 269.774C191.29 268.603 188.129 267.256 184.994 265.806C182.888 264.832 180.764 263.799 178.672 262.751C178.667 262.749 178.662 262.747 178.657 262.744C175.75 261.287 172.87 259.785 169.957 258.236C168.943 257.696 167.913 257.143 166.94 256.618C162.975 254.48 159.091 252.344 154.641 249.813C154.117 249.509 153.541 249.169 153.108 248.91C152.642 248.633 152.188 248.362 151.756 248.102C151.368 247.868 151.025 247.659 150.694 247.457C150.649 247.43 150.605 247.403 150.56 247.375C150.188 247.149 149.828 246.93 149.479 246.719C149.131 246.509 148.793 246.304 148.457 246.103C148.454 246.101 148.451 246.1 148.447 246.098C148.095 245.888 147.826 245.728 147.446 245.505C146.975 245.228 146.601 245.009 146.12 244.732C145.657 244.465 145.169 244.185 144.67 243.901C144.171 243.617 143.657 243.327 143.129 243.029C142.608 242.735 142.114 242.456 141.59 242.161C141.07 241.869 140.537 241.571 139.996 241.267C139.455 240.964 138.901 240.653 138.34 240.339C137.118 239.653 135.969 238.895 135.162 238.236C134.356 237.578 133.965 237.078 134.096 236.856C134.226 236.633 134.869 236.704 135.863 237.039C136.86 237.376 138.114 237.942 139.351 238.61C139.706 238.802 140.06 238.993 140.413 239.184C140.623 239.297 140.834 239.411 141.043 239.524C141.605 239.828 142.168 240.132 142.727 240.434C143.292 240.741 143.818 241.026 144.428 241.358C145.021 241.681 145.615 242.004 146.208 242.33C146.8 242.654 147.397 242.983 147.995 243.315C148.574 243.637 149.299 244.042 149.904 244.384C150.352 244.637 150.896 244.949 151.343 245.206C151.818 245.479 152.241 245.726 152.718 246.002C153.18 246.27 153.621 246.527 154.038 246.77C154.083 246.796 154.128 246.822 154.172 246.848C154.54 247.063 154.891 247.268 155.221 247.459C155.592 247.674 155.931 247.87 156.269 248.063C156.653 248.282 156.885 248.412 157.169 248.57C160.85 250.582 165.462 253.028 169.887 255.309C170.453 255.601 171.005 255.885 171.541 256.159C174.451 257.646 177.336 259.09 180.239 260.483C182.316 261.48 184.474 262.484 186.585 263.413C189.696 264.782 192.83 266.044 196.012 267.128C197.984 267.801 199.944 268.399 201.985 268.977C202.454 269.11 202.928 269.242 203.409 269.374C208.656 270.812 213.735 272.702 218.613 274.669C223.909 276.758 229.371 279.307 233.705 279.955C234.708 280.092 235.551 280.058 236.08 279.914C236.615 279.762 236.932 279.584 237.4 279.075C237.21 279.313 237.241 279.411 237.295 279.198C237.35 278.999 237.406 278.581 237.427 278.081C237.475 277.066 237.417 275.745 237.427 274.292C237.43 273.924 237.435 273.558 237.44 273.193C237.506 268.876 237.765 264.499 238.033 260.491C238.177 258.335 238.325 256.238 238.464 254.173C238.464 254.166 238.465 254.159 238.466 254.152C238.587 252.342 238.702 250.56 238.801 248.792C239.014 245.001 239.156 241.295 239.195 237.585C239.196 237.498 239.197 237.411 239.198 237.324C239.232 233.702 239.181 230.08 239.084 226.419C238.985 222.699 238.839 218.907 238.689 215.141C238.538 211.356 238.385 207.63 238.256 203.706C238.161 200.837 238.084 197.974 238.036 195.085C237.998 192.833 237.927 190.565 237.831 188.267C237.617 183.124 237.278 177.925 236.946 172.679C236.829 170.846 236.715 169.005 236.608 167.157C236.608 167.15 236.608 167.143 236.607 167.136C236.41 163.718 236.239 160.275 236.151 156.805C236.1 154.771 236.077 152.728 236.1 150.675C236.137 147.347 236.244 144.037 236.364 140.735C236.559 135.416 236.791 130.104 236.897 124.795C237.005 119.487 236.992 114.064 236.683 108.674C236.678 108.597 236.673 108.519 236.669 108.441C236.376 103.542 236.191 98.6013 236.097 93.7727C236.071 92.4773 236.052 91.186 236.037 89.886C235.969 83.7407 236.025 77.8012 236.084 71.951C236.124 67.8377 236.168 63.7298 236.147 59.6398C236.146 57.628 236.355 55.7995 236.592 54.0013C237.438 47.9598 238.693 42.1815 239.597 36.3548C240.497 30.5351 241.198 24.739 240.708 19.3065C240.32 14.8816 238.813 11.0949 236.04 9.78518C236.376 9.93526 235.798 9.75688 235.139 9.86836C234.036 9.99995 232.585 10.461 231.302 11.0852C229.731 11.8359 228.149 12.5495 226.605 13.2169C223.355 14.6215 220.101 15.8991 216.885 17.1004C215.579 17.5882 214.28 18.0624 212.989 18.5267C211.107 19.2039 209.241 19.8596 207.406 20.498C204.311 21.5746 201.291 22.6067 198.372 23.6138C195.648 24.553 193.015 25.4697 190.468 26.379C190.286 26.4443 190.103 26.5098 189.921 26.5755C187.153 27.5764 184.884 28.4521 182.181 29.5457C175.585 32.1732 171.495 33.8652 166.938 35.7394C166.04 36.1104 165.123 36.491 164.168 36.8888C158.738 39.1366 153.292 41.4088 147.815 43.56C147.773 43.5764 147.731 43.5929 147.69 43.6093C142.237 45.7509 136.893 47.9191 131.52 50.1854C126.201 52.4309 120.878 54.7613 115.667 57.1919C110.466 59.6244 105.332 62.1494 100.505 64.9165C99.7992 65.3229 99.1058 65.7326 98.4342 66.1422C94.2498 68.6974 90.0447 71.429 85.9701 74.0992C83.2151 75.9054 80.2793 77.8391 77.5392 79.6306C75.5606 80.9245 73.6071 82.1952 71.6803 83.438C70.8941 83.9451 70.1108 84.4486 69.3344 84.9458C67.104 86.3743 64.9193 87.7577 62.7801 89.0965C62.3327 89.3767 61.8847 89.6525 61.4364 89.9241C58.7665 91.5403 56.1419 92.9792 53.5739 94.3192C50.9966 95.6628 48.4646 96.9111 45.9299 98.1268C43.3008 99.3858 41.1251 100.399 38.3413 101.685C36.5347 102.52 34.7579 103.33 33.0068 104.128C30.3729 105.327 27.7771 106.506 25.2191 107.715C22.6689 108.922 20.1898 110.136 17.8855 111.426C17.1508 111.837 16.3831 112.289 15.7253 112.707C14.6716 113.375 13.7509 114.041 13.1033 114.643C12.7996 114.925 12.5736 115.194 12.5171 115.3C12.4518 115.399 12.628 115.292 12.7622 114.691C12.9076 114.113 12.7295 113.247 12.5681 112.958C12.4209 112.654 12.4144 112.703 12.6073 112.847C13.6198 113.714 14.6504 114.565 15.703 115.411C17.7996 117.096 19.9057 118.701 22.1022 120.316C25.8282 123.054 29.461 125.651 32.6606 127.892C35.8934 130.157 38.9596 132.255 41.9598 134.265C42.5363 134.652 43.0784 135.013 43.6458 135.39C46.074 137.003 48.4856 138.577 50.8584 140.099C53.7875 141.978 56.718 143.816 59.6291 145.607C62.5184 147.385 65.5034 149.187 68.4036 150.903C70.8522 152.352 73.2028 153.722 75.714 155.166C76.2136 155.452 76.7272 155.747 77.2566 156.05C80.3008 157.791 83.409 159.536 86.8229 161.442C90.2057 163.33 93.7613 165.306 97.3608 167.31C100.956 169.312 104.612 171.351 108.229 173.374C111.855 175.402 115.493 177.442 119.079 179.455C122.684 181.48 126.261 183.49 129.825 185.491C133.38 187.487 137.053 189.546 140.489 191.464C146.047 194.567 151.581 197.627 157.165 200.628C159.71 201.996 162.246 203.34 164.781 204.649C167.78 206.196 170.782 207.697 173.734 209.064C176.165 210.188 178.607 211.247 180.784 211.994C181.814 212.357 182.968 212.634 183.136 212.639C183.155 212.645 183.089 212.627 182.757 212.655C182.427 212.701 181.77 212.737 180.641 213.355C179.502 213.929 178.259 215.464 177.932 216.444C177.554 217.442 177.599 217.832 177.586 217.856C177.615 217.411 177.626 216.888 177.62 216.323C177.478 210.98 176.65 204.087 176.376 197.641C176.304 196.189 176.246 194.751 176.201 193.3C176.149 191.618 176.116 189.935 176.101 188.249C176.073 184.908 176.071 181.576 176.075 178.274C176.076 178.24 176.076 178.207 176.076 178.173C176.085 171.828 176.119 165.635 176.084 159.417C176.071 157.134 176.05 154.947 176.014 152.73C175.977 150.511 175.927 148.34 175.855 146.16C175.782 143.977 175.688 141.823 175.563 139.714C175.539 139.308 175.514 138.908 175.488 138.514C175.374 136.786 175.245 135.075 175.104 133.346C174.944 131.39 174.769 129.442 174.572 127.308C174.554 127.113 174.535 126.918 174.517 126.722C174.299 124.387 174.048 121.718 173.826 119.228C173.24 112.633 172.656 106.157 172.203 99.4858C172.184 99.2 172.164 98.9145 172.146 98.6295C171.814 90.89 172.867 84.8326 173.324 78.6689C173.529 76.2028 173.686 73.7661 173.65 71.6611C173.654 70.2293 173.388 68.6603 173.35 68.7054C173.365 68.7383 173.424 68.9332 173.711 69.3226C173.995 69.714 174.618 70.3338 175.463 70.724C176.311 71.1297 177.17 71.2053 177.613 71.1811C178.094 71.1566 178.254 71.0878 178.29 71.0804C178 71.1778 177.706 71.2768 177.41 71.3776C171.34 73.4438 165.441 75.8016 159.914 78.6643C155.724 80.8369 151.752 83.3062 148.295 86.1232C146.968 87.2067 145.634 88.2452 144.308 89.2503C138.716 93.468 133.26 97.1902 128.355 101.185C125.93 103.149 123.614 105.175 121.404 107.3C118.592 110.001 115.799 112.971 112.804 116.01C107.474 121.474 101.338 126.935 94.6147 131.263C94.5159 131.328 94.4167 131.392 94.3172 131.456C93.8331 131.765 93.4894 132.006 93.3351 132.129C93.1758 132.243 93.2545 132.249 93.5278 131.784C93.8071 131.357 94.0985 130.222 93.9658 129.465C93.8563 128.697 93.6385 128.447 93.6442 128.454C93.694 128.733 95.6333 130.472 97.4949 131.641C99.1609 132.731 100.812 133.807 102.473 134.885C108.675 138.911 114.881 142.881 121.141 146.779C124.88 149.105 128.631 151.401 132.406 153.642C134.425 154.753 136.394 155.816 138.264 156.8C141.397 158.447 144.309 159.914 147.092 161.172C148.468 161.791 149.798 162.349 150.969 162.754C151.567 162.962 152.102 163.111 152.356 163.152C152.457 163.173 152.515 163.142 152.088 163.122C151.962 163.12 151.796 163.122 151.577 163.144C151.467 163.155 151.346 163.171 151.206 163.196C151.029 163.229 150.828 163.274 150.602 163.343C150.137 163.491 149.649 163.674 148.959 164.146C148.26 164.626 147.55 165.381 147.093 166.224C146.578 167.191 146.571 167.689 146.533 167.889C146.512 168.093 146.519 168.061 146.503 167.953C146.476 167.721 146.387 167.187 146.269 166.587C146.034 165.359 145.688 163.821 145.487 161.951C145.004 157.567 144.19 153.042 143.133 147.975C142.832 146.575 142.564 145.432 142.233 144.03C142.17 143.763 142.104 143.479 142.035 143.188C141.604 141.348 141.099 139.224 140.47 136.185C139.946 133.625 139.334 130.439 138.838 126.582C138.217 121.725 137.467 115.864 136.473 109.228C136.035 106.331 136.15 104.43 136.813 104.924C137.278 105.282 137.877 106.734 138.333 108.6C137.72 105.123 137.049 101.654 136.203 98.437C135.866 97.1576 135.606 96.0087 135.511 95.2691C135.415 94.5263 135.537 94.2747 135.78 94.1719C136.011 94.0625 136.429 94.2845 136.931 95.0928C137.429 95.8887 137.93 97.1467 138.29 98.4731C139.251 102.024 140.002 105.72 140.695 109.424C141.383 113.129 141.994 116.849 142.553 120.586C142.821 122.381 143.077 124.178 143.32 125.977C143.591 127.989 143.914 129.984 144.269 131.968C144.949 135.772 145.744 139.525 146.515 143.254C147.291 147.007 148.027 150.661 148.624 154.369C148.981 156.592 149.287 158.839 149.511 161.043C149.529 161.219 149.546 161.395 149.563 161.57C149.636 162.325 149.742 163.033 149.856 163.714C149.975 164.422 150.106 165.108 150.226 165.774C150.346 166.445 150.453 167.091 150.496 167.616C150.518 167.876 150.521 168.105 150.511 168.232C150.507 168.361 150.463 168.365 150.581 168.135C150.738 167.845 150.983 167.58 151.218 167.414C151.458 167.245 151.609 167.19 151.748 167.142C152.028 167.06 152.049 167.086 152.052 167.081C152.033 167.086 151.778 167.06 151.547 167.009C151.016 166.896 150.407 166.702 149.762 166.469C148.488 166.006 147.18 165.433 145.853 164.816C143.241 163.596 140.598 162.218 138.004 160.818C131.561 157.327 125.182 153.573 118.852 149.766C112.515 145.949 106.226 142.054 99.9604 138.117C98.3865 137.127 96.8305 136.145 95.2548 135.147C93.1605 133.82 91.0039 132.227 90.0328 130.749C89.8035 130.398 89.7014 130.1 89.6878 129.97C89.6788 129.836 89.6662 129.823 89.772 129.616C89.9806 129.195 90.8531 128.463 91.8984 127.786C92.0984 127.653 92.2968 127.52 92.4938 127.387C98.8132 123.152 104.496 117.919 109.627 112.502C112.457 109.543 115.165 106.583 117.976 103.801C119.127 102.661 120.305 101.547 121.51 100.458C123.112 98.9546 124.745 97.5166 126.394 96.1293C131.189 92.0842 136.318 88.3184 141.243 84.3122C132.282 91.1672 125.093 96.3505 119.124 102.267C118.669 102.711 118.226 103.151 117.78 103.602C117.435 103.951 117.094 104.299 116.754 104.652C109.629 112.028 103.028 120.345 91.8338 127.688C90.7339 128.388 89.7754 129.201 89.6054 129.635C89.5406 129.777 89.5331 129.832 89.535 129.943C89.539 130.051 89.5801 130.236 89.6953 130.477C89.927 130.969 90.414 131.58 90.9943 132.153C92.1676 133.309 93.6379 134.358 95.1404 135.327C122.046 152.865 143.6 164.514 151.182 168.465C151.129 168.632 151.243 168.262 151.216 167.853C151.205 167.43 151.145 166.933 151.07 166.429C150.826 164.83 150.477 163.165 150.339 161.497C149.185 149.701 147.718 143.957 147.034 138.474C146.567 135.119 145.82 130.568 145.299 125.71C144.488 118.025 143.186 109.719 142.103 104.616C141.479 101.604 141.294 99.0875 141.832 98.965C142.37 98.8299 143.443 101.203 144.074 104.255C145.146 109.324 146.442 117.44 147.305 125.44C147.948 131.354 148.987 137.173 149.613 141.607C150.106 145.64 151.242 150.129 152.336 161.31C152.464 162.946 152.854 164.691 153.117 166.6C153.217 167.519 153.372 168.563 152.939 169.428C140.021 167.35 122.094 154.443 94.062 137.015C92.4798 135.992 90.9174 134.893 89.5525 133.544C88.2418 132.249 86.9156 130.37 87.8366 128.694C88.4426 127.552 89.6209 126.757 90.7314 126.016C101.247 119.114 107.558 111.394 114.652 103.938C115.218 103.346 115.79 102.755 116.373 102.166C116.591 101.945 116.81 101.726 117.029 101.508C117.034 101.503 117.039 101.498 117.044 101.493C123.846 94.534 132.664 88.6176 143.317 80.069C144.208 79.3267 145.141 78.5971 146.113 77.8813C154.511 71.6932 165.096 67.0285 175.739 63.4182C176.625 63.1222 177.605 62.9479 178.6 63.2806C179.6 63.6117 180.295 64.464 180.693 65.2961C181.475 66.9699 181.629 68.7361 181.738 70.4164C181.902 73.8063 181.643 77.099 181.39 80.295C180.879 86.6725 180.089 92.7583 180.425 98.0879C181.283 109.299 182.283 118.06 182.703 122.13C182.943 124.353 183.179 126.5 183.418 128.77C183.707 131.518 184.007 134.456 184.295 137.938C184.924 145.503 185.264 155.631 185.376 171.908C185.417 176.66 185.435 182.156 185.523 188.12C185.531 188.691 185.542 189.244 185.555 189.818C185.905 199.788 187.644 208.944 187.836 217.983C187.832 218.141 187.827 218.297 187.821 218.452C187.783 219.039 187.751 219.858 187.186 220.864C186.619 221.9 185.444 222.577 184.635 222.771C182.985 223.168 181.949 222.943 180.933 222.804C178.938 222.455 177.256 221.906 175.605 221.35C172.318 220.214 169.29 218.954 166.319 217.679C164.572 216.926 162.833 216.153 161.104 215.367C160.627 215.15 160.142 214.928 159.647 214.699C155.991 213.016 152.355 211.271 148.837 209.526C145.665 207.951 142.345 206.298 138.846 204.537C126.124 198.129 110.96 190.286 91.7457 179.12C83.8057 174.501 76.3243 170.081 69.3176 165.861C58.2794 159.209 48.4322 152.932 39.5685 146.955C50.2108 154.175 58.5788 159.495 65.5626 163.889C66.8021 164.667 67.9833 165.405 69.1551 166.132C69.2245 166.176 69.2938 166.219 69.3632 166.262C77.943 171.586 84.2255 175.409 91.0217 179.365C123.54 198.202 135.996 204.829 150.292 211.972C152.957 213.289 155.833 214.679 158.922 216.119C160.229 216.729 161.533 217.326 162.864 217.923C166.143 219.39 169.589 220.887 173.384 222.286C175.292 222.976 177.252 223.662 179.594 224.181C180.809 224.411 181.985 224.721 184.055 224.503C185.053 224.372 186.814 223.939 188.101 222.312C189.32 220.696 189.323 219.302 189.38 218.543C189.464 214.527 188.943 211.096 188.59 207.521C187.919 201.365 187.316 194.925 187.058 188.099C186.837 182.399 186.679 176.46 186.503 170.354C186.503 170.349 186.503 170.343 186.503 170.338C186.427 167.706 186.349 165.041 186.261 162.351C185.992 154.369 185.684 146.162 184.966 137.894C184.19 129.212 183.134 120.549 182.242 112.006C182.056 110.226 181.83 108.093 181.585 105.646C181.359 103.383 181.116 100.846 180.885 98.0579C180.526 93.369 181.137 87.6791 181.652 81.3523C181.903 78.1714 182.189 74.8331 182.103 71.2523C182.032 69.4574 181.94 67.6018 181.224 65.669C180.859 64.7367 180.231 63.6475 179.054 63.0927C177.875 62.5447 176.64 62.7438 175.627 63.081C168.433 65.501 160.776 68.4386 153.193 72.5996C149.698 74.5299 146.21 76.7093 142.783 79.4198C140.472 81.2501 137.984 83.0529 135.329 84.9329C133.358 86.3288 131.297 87.7681 129.157 89.3106C124.778 92.4697 119.986 96.1137 115.049 100.815C109.57 105.987 104.161 112.364 96.8961 118.327C94.5708 120.235 92.0473 122.102 89.321 123.876C88.2242 124.621 86.9064 125.392 85.7928 127.074C84.5257 128.784 84.9069 131.707 85.8926 133.095C87.8147 136.066 90.2411 137.583 92.6585 139.212C99.9516 143.909 107.655 148.792 115.608 153.665C123.678 158.587 131.923 163.553 140.438 167.967C142.348 168.945 144.264 169.887 146.266 170.737C147.286 171.166 148.289 171.564 149.445 171.91C149.727 171.993 150.012 172.072 150.346 172.148C150.663 172.219 150.978 172.281 151.383 172.327C151.735 172.365 152.232 172.399 152.795 172.312C153.092 172.267 153.532 172.157 153.94 171.938C154.362 171.727 154.928 171.244 155.223 170.68C155.997 169.105 155.812 168.128 155.794 167.262C155.731 166.404 155.608 165.667 155.489 164.957C155.246 163.548 154.999 162.264 154.896 161.071C153.765 148.392 150.344 136.718 148.889 125.226C147.847 117.234 146.647 109.351 144.937 101.459C144.936 101.453 144.934 101.448 144.933 101.442C144.266 98.369 143.995 95.8048 144.553 95.7482C145.123 95.7134 146.306 98.2692 146.973 101.388C148.662 109.268 149.845 117.054 150.875 124.958C152.297 136.255 155.73 147.96 156.89 160.884C156.98 161.939 157.212 163.166 157.462 164.612C157.584 165.344 157.718 166.123 157.792 167.115C157.792 168.126 158.113 169.3 156.979 171.642C156.488 172.588 155.522 173.395 154.848 173.723C154.185 174.074 153.484 174.237 153.068 174.297C152.648 174.359 152.275 174.374 151.927 174.368C151.59 174.361 151.378 174.342 151.119 174.313C150.116 174.19 149.448 173.996 148.82 173.814C147.534 173.425 146.456 172.991 145.389 172.541C143.279 171.639 141.304 170.663 139.338 169.654C130.852 165.243 122.666 160.316 114.604 155.398C106.648 150.524 98.913 145.623 91.5802 140.9C89.0608 139.175 86.536 137.725 84.1766 134.129C83.6188 133.183 83.0638 131.955 82.9573 130.38C82.8314 128.807 83.372 127.117 84.0906 126.017C85.5676 123.803 87.0806 122.994 88.2183 122.203C91.0076 120.389 93.5786 118.475 95.9426 116.515C102.85 110.795 108.147 104.583 113.642 99.3804C119.032 94.2434 124.246 90.3497 128.907 87.0117C131.178 85.3872 133.31 83.9016 135.299 82.4823C137.54 80.8842 139.602 79.3691 141.504 77.8649C145.289 74.8759 149.01 72.5948 152.736 70.565C160.331 66.4591 167.908 63.5661 174.994 61.1816C176.245 60.7711 178.027 60.4101 179.924 61.2894C181.809 62.2006 182.647 63.8175 183.1 64.9672C183.973 67.3753 184.024 69.3274 184.107 71.2322C184.193 74.9961 183.898 78.3609 183.648 81.5635C183.129 87.9052 182.546 93.5775 182.893 97.9265C183.082 100.192 183.279 102.294 183.467 104.218C183.713 106.723 183.943 108.929 184.139 110.809C185.053 119.646 186.164 128.649 186.981 137.762C187.656 145.515 187.966 153.176 188.23 160.695C188.321 163.36 188.401 166.007 188.478 168.631C188.478 168.636 188.478 168.642 188.479 168.647C188.674 175.314 188.84 181.834 189.08 188.071C189.32 194.365 189.847 200.337 190.466 206.1C190.857 210.173 191.491 213.913 191.404 218.661C191.344 219.452 191.346 220.778 190.312 222.655C189.279 224.594 187.007 225.924 185.637 226.245C182.825 226.922 181.582 226.53 180.319 226.388C177.903 225.97 176.17 225.395 174.404 224.809C170.958 223.629 167.91 222.357 164.949 221.081C162.564 220.048 160.265 219.004 157.991 217.941C155.659 216.852 153.36 215.746 151.08 214.625C135.856 207.065 122.722 200.039 90.0742 181.13ZM139.22 114.009C139.857 118.674 140.381 122.798 140.825 126.314C141.086 128.381 141.385 130.226 141.676 131.856C141.382 130.023 141.116 128.173 140.892 126.305C140.656 124.324 140.405 122.343 140.137 120.365C139.85 118.24 139.546 116.12 139.22 114.009ZM183.575 190.772C183.53 189.905 183.489 189.035 183.453 188.148C183.439 187.814 183.426 187.477 183.412 187.138C183.418 187.476 183.424 187.813 183.43 188.149C183.486 191.187 183.602 194.192 183.78 197.216C184.018 201.336 184.389 205.444 184.762 209.536C184.184 203.023 183.719 196.683 183.575 190.772ZM92.7072 177.362C110.817 187.885 124.718 195.093 137.317 201.473C140.941 203.305 144.477 205.077 147.969 206.82C149.428 207.548 150.851 208.247 152.343 208.972C143.968 204.467 136.379 200.208 130.168 196.701C111.649 186.207 101.266 179.951 92.1538 174.479C89.4996 172.881 86.9938 171.367 84.3944 169.796C82.2012 168.585 79.9367 167.327 77.6495 166.041C75.6367 164.91 73.4464 163.667 71.3472 162.467C70.1154 161.762 68.9186 161.073 67.7359 160.387C64.4528 158.482 61.1222 156.511 57.8877 154.555C54.63 152.584 51.3984 150.587 48.2105 148.572C45.2088 146.674 42.2402 144.757 39.3844 142.873C39.2194 142.765 39.055 142.656 38.8912 142.548C35.8725 140.553 32.9557 138.579 30.2864 136.746C27.5689 134.881 25.3197 133.31 23.3201 131.926C20.8167 130.191 18.2673 128.367 15.798 126.522C13.2999 124.655 10.8625 122.756 8.47902 120.775C7.89876 120.292 7.32004 119.802 6.76456 119.324C5.63992 118.325 4.29683 116.855 4.11047 114.527C3.97708 112.193 5.13866 110.506 6.09785 109.375C6.92938 108.41 7.88812 107.604 8.73792 106.957C9.13387 106.655 9.57322 106.343 9.95359 106.083C8.28779 107.224 6.52523 108.347 4.97605 110.711C4.20449 111.902 3.60759 113.879 4.11885 115.708C4.63681 117.562 5.60942 118.596 6.59156 119.516C8.38305 121.138 10.2653 122.748 12.1675 124.317C19.3734 130.247 27.338 136.118 36.309 142.308C46.265 149.166 57.4327 156.36 70.3454 164.142C77.2815 168.32 84.7275 172.719 92.7072 177.362ZM88.1945 62.2357C86.0158 63.6541 82.8564 65.7618 78.8199 68.5011C77.8628 69.1501 76.8615 69.8311 75.8067 70.5478C75.8318 70.5315 75.8572 70.5144 75.8822 70.4981C78.5292 68.7772 80.974 67.1841 83.6252 65.4718C87.0917 63.2339 90.5103 61.0603 93.9882 58.9578C95.2802 58.177 96.5818 57.4336 97.8987 56.7089C102.844 53.9964 107.851 51.5906 112.902 49.2753C117.967 46.9597 123.073 44.7595 128.167 42.6421C133.309 40.5057 138.401 38.4709 143.564 36.4692C144.009 36.2966 144.454 36.1246 144.898 35.9533C146.085 35.4958 147.277 35.0293 148.469 34.5578C147.285 35.0047 146.089 35.4537 144.879 35.902C142.303 36.8564 139.658 37.859 136.921 38.92C133.695 40.1706 130.338 41.5026 126.822 42.9381C125.475 43.4884 123.848 44.1531 121.951 44.9447C115.481 47.7317 105.741 51.5612 93.8088 58.6678C91.9835 59.7939 90.1087 60.9879 88.1945 62.2357ZM189.554 18.4007C190.77 17.9865 191.972 17.5802 193.168 17.1785C196.565 16.0376 199.871 14.9444 203.105 13.8591C205.373 13.0981 207.614 12.3385 209.805 11.576C210.734 11.2529 211.655 10.9283 212.566 10.6032C214.093 10.0583 215.601 9.50692 217.091 8.94525C207.521 12.4371 197.867 15.3944 187.923 18.6694C186.956 18.9868 185.987 19.3114 185.017 19.6422C184.871 19.6919 184.726 19.7423 184.579 19.7926C185.727 19.4608 186.86 19.1405 187.977 18.8331C188.509 18.6868 189.033 18.5431 189.554 18.4007Z" fill="#6848FF" fill-opacity="0.16"/>
</svg>
