<svg width="184" height="204" viewBox="0 0 184 204" fill="none" xmlns="http://www.w3.org/2000/svg">
<path opacity="0.4" d="M23.4234 78.5917C23.4406 73.0193 23.604 67.7687 23.8669 61.244C23.8742 61.0616 23.8817 60.8788 23.8893 60.6954C23.8893 60.6918 23.8894 60.6881 23.8894 60.6844C23.9301 59.6965 23.974 58.7172 24.0221 57.6603C24.4606 49.2902 24.8487 38.4272 26.7793 21.8691C27.3848 16.987 28.1252 12.345 29.1546 7.91118C29.5281 6.40347 30.1218 4.21085 32.5898 2.17582C35.1581 0.136052 38.1159 0.133963 39.6282 0.354338C42.8509 0.896537 44.233 1.85902 45.7079 2.63947C48.4775 4.25926 50.5163 5.8423 52.4101 7.29776C56.154 10.2264 59.0989 12.729 61.5205 14.7221C62.7435 15.7236 64.0344 16.7672 67.3704 19.0602C69.1678 20.2751 71.5105 21.8357 74.7046 23.54C75.4564 23.9373 76.2491 24.3525 77.0944 24.7911C79.6128 26.0991 82.571 27.5947 86.0703 29.3448C90.0876 31.3657 94.9638 33.7171 100.325 36.6024C110.75 42.439 120.967 50.3585 130.688 58.1034C130.99 58.3469 131.291 58.5899 131.59 58.8322C139.992 65.5639 148.357 71.9433 154.439 77.3354C154.951 77.7852 155.461 78.2376 155.967 78.6923C163.22 85.1644 169.999 91.7703 177.571 97.3297C179.417 98.7943 181.124 99.9328 182.646 103.494C182.885 104.164 183.105 104.981 183.125 106.026C183.26 111.108 179.88 115.157 177.051 117.294C174.102 119.575 171.066 121.015 168.016 122.315C162.058 124.876 155.078 126.616 150.016 129.045C149.924 129.093 149.84 129.14 149.762 129.184C140.217 134.572 131.038 139.186 122.037 144.674C121.818 144.806 121.598 144.94 121.378 145.074C120.381 145.685 119.374 146.276 118.362 146.85C111.016 151.021 103.266 154.307 95.5432 158.303C94.2512 158.977 92.951 159.699 91.6475 160.455C83.8843 165.001 77.0738 169.791 70.1247 173.93C62.9416 178.219 56.2932 182.835 48.9937 187.467C48.0331 188.074 47.0604 188.68 46.0722 189.283C41.3364 192.186 36.2504 194.887 30.9446 197.729C28.8538 198.855 26.5966 200.084 24.2579 201.46C23.5965 201.846 22.8736 202.333 21.9219 202.856C20.9731 203.314 19.7055 204.165 17.4227 203.834C13.9733 203.394 11.536 199.869 10.8576 197.477C10.0066 194.948 9.67869 192.577 9.32104 190.216C8.65548 185.515 8.05876 180.858 6.87704 176.334C6.53694 175.021 6.2094 173.682 5.91795 172.326C5.60622 170.879 5.33709 169.415 5.11303 167.954C5.11191 167.947 5.11079 167.94 5.10968 167.932C3.07345 152.233 3.31069 137.377 2.899 126.287C2.6567 116.556 2.49142 110.261 2.33741 105.542L2.338 105.57C2.18183 101.833 1.99422 99.221 1.77759 96.8265C1.59706 94.8124 1.37794 92.9462 1.16503 90.6285C1.03047 89.1534 0.913074 87.524 0.828698 85.7961C0.460263 77.7802 0.500538 67.5636 0.50941 57.2041C0.509398 57.1561 0.509387 57.108 0.509377 57.06C0.513064 54.9727 0.965015 53.2901 1.51792 53.2993C2.07095 53.31 2.51605 55.0084 2.51237 57.0956C2.50124 63.7571 2.49574 70.2515 2.57073 76.085C3.04949 76.3808 3.42578 77.9403 3.45619 79.8254C3.47842 81.0859 3.53465 83.0542 3.6863 85.6793C3.8978 90.3334 4.91833 96.9193 5.2768 105.495C5.47451 110.268 5.70167 115.558 5.96887 121.415C6.02506 119.87 6.08441 118.552 6.1439 117.443C6.21354 116.132 6.27468 115.039 6.32897 114.202C6.44172 112.43 6.51394 111.109 6.54832 109.014C6.54747 107.975 6.54164 106.792 6.53171 105.473C6.53171 105.471 6.53151 105.465 6.5315 105.463C6.50672 100.655 6.03377 94.2916 5.57731 87.8778C5.53005 87.0245 5.57204 86.236 5.67644 85.5979C5.82496 84.7054 6.09669 84.1197 6.42043 84.1175C6.74128 84.1102 7.04265 84.6747 7.25925 85.5332C7.41661 86.1632 7.53047 86.9457 7.57803 87.7977C7.5803 87.8371 7.58254 87.8757 7.58487 87.9154C8.01916 93.9633 8.50693 100.493 8.53437 105.412C8.53442 105.418 8.53496 105.434 8.53496 105.44C8.54694 106.969 8.55387 108.336 8.55442 109.525C8.55486 110.817 8.55037 112.025 8.54199 112.866C8.53551 113.552 8.52516 114.382 8.50129 114.857C8.49815 114.922 8.49166 115.045 8.48099 115.193C8.48071 115.195 8.48042 115.197 8.48014 115.2C8.47426 115.282 8.44453 115.702 8.37135 116.145C8.35656 116.234 8.32347 116.429 8.26837 116.654C8.26488 116.711 8.26138 116.769 8.25789 116.827C8.20957 117.636 8.15978 118.421 8.11412 119.313C7.9423 122.784 7.71218 128.298 7.70946 139.665C7.97912 147.765 7.10312 160.467 10.8113 175.311C11.9676 179.751 12.6218 184.534 13.3065 189.446C13.1345 187.968 12.9737 186.472 12.7915 184.975C12.4 181.737 11.9009 178.468 11.1322 175.227C11.0089 174.705 10.8915 174.195 10.7763 173.677C10.466 172.283 10.1933 170.91 9.96084 169.503C9.58666 167.245 9.32936 164.957 9.13798 162.637C9.00988 161.082 8.91009 159.509 8.82777 157.922C8.82751 157.918 8.82725 157.914 8.82698 157.911C8.71445 155.724 8.6362 153.537 8.57477 151.315C8.5542 150.534 8.5356 149.76 8.51929 149.007C8.45314 145.969 8.41165 142.98 8.42924 139.524C8.43705 139.115 8.44976 138.662 8.46154 138.321C8.47374 137.954 8.48681 137.596 8.50087 137.255C8.51303 136.945 8.52709 136.686 8.53954 136.42C8.54119 136.385 8.54284 136.35 8.54449 136.315C8.55852 136.02 8.57127 135.735 8.58322 135.459C8.59516 135.184 8.60667 134.917 8.61587 134.652C8.61581 134.649 8.61575 134.647 8.61569 134.644C8.62498 134.367 8.63194 134.155 8.63856 133.857C8.64727 133.5 8.6534 133.199 8.65772 132.825C8.66198 132.463 8.66447 132.083 8.66542 131.695C8.66635 131.307 8.66586 130.907 8.66444 130.498C8.66341 130.104 8.66197 129.713 8.6595 129.308C8.65707 128.905 8.65368 128.492 8.65031 128.073C8.64698 127.654 8.64342 127.22 8.63987 126.793C8.63266 125.849 8.7241 124.917 8.89815 124.221C9.07221 123.526 9.31336 123.127 9.57123 123.126C9.82916 123.125 10.0851 123.524 10.2851 124.218C10.4851 124.913 10.6124 125.842 10.6422 126.784C10.6505 127.053 10.6593 127.328 10.6677 127.599C10.6727 127.76 10.6774 127.922 10.6823 128.082C10.6957 128.514 10.7095 128.946 10.7222 129.375C10.7349 129.81 10.7461 130.214 10.7581 130.677C10.77 131.134 10.7813 131.59 10.7908 132.048C10.8003 132.504 10.8083 132.965 10.814 133.427C10.8194 133.861 10.8242 134.431 10.8243 134.9C10.8248 135.247 10.8215 135.671 10.8177 136.02C10.8139 136.388 10.8079 136.728 10.8019 137.088C10.7959 137.449 10.7887 137.794 10.782 138.121C10.7814 138.156 10.7808 138.191 10.7801 138.225C10.7743 138.513 10.7685 138.789 10.7639 139.047C10.7587 139.335 10.7551 139.605 10.7529 139.86C10.7506 140.154 10.7518 140.337 10.7536 140.556C10.8084 143.382 10.9361 146.898 11.0966 150.247C11.1172 150.676 11.1376 151.095 11.1582 151.501C11.271 153.694 11.401 155.857 11.5651 158.009C11.683 159.553 11.8232 161.138 11.9896 162.666C12.235 164.923 12.5467 167.137 12.9726 169.312C13.236 170.662 13.5381 171.981 13.8817 173.349C13.9725 173.711 14.0646 174.07 14.1607 174.439C15.0964 178.023 15.7097 181.644 16.2008 185.14C16.7558 188.954 17.1494 193.049 18.0632 195.466C18.2759 196.027 18.5128 196.379 18.5868 196.46C18.6723 196.538 18.5438 196.503 18.7681 196.576C18.2525 196.49 17.9616 196.599 17.9669 196.603C17.9607 196.615 18.1547 196.547 18.4092 196.417C18.9335 196.155 19.6902 195.679 20.5849 195.175C20.7554 195.08 20.9257 194.985 21.0956 194.891C23.6774 193.467 26.3553 192.157 28.8097 190.986C30.1293 190.356 31.415 189.75 32.6749 189.151C32.6793 189.149 32.6837 189.147 32.6881 189.145C33.7942 188.62 34.8779 188.101 35.9478 187.578C38.2427 186.457 40.4591 185.323 42.6395 184.123C42.7308 184.073 42.8222 184.023 42.9138 183.972C45.0013 182.817 47.064 181.609 49.1337 180.355C51.2778 179.057 53.4498 177.699 55.6043 176.342C57.77 174.979 59.9003 173.628 62.1554 172.221C63.8391 171.169 65.5247 170.129 67.2373 169.095C68.4979 168.334 69.7574 167.549 71.0264 166.739C73.9435 164.878 76.8567 162.919 79.8055 160.941C80.8362 160.25 81.8731 159.557 82.9174 158.865C82.9215 158.862 82.9255 158.86 82.9296 158.857C84.8617 157.577 86.8209 156.3 88.8301 155.059C90.0371 154.314 91.2626 153.582 92.5134 152.873C94.4523 151.774 96.3978 150.724 98.3393 149.688C101.516 147.993 104.691 146.331 107.813 144.606C110.936 142.881 114.076 141.057 117.091 139.089C117.156 139.047 117.22 139.005 117.285 138.962C120.045 137.147 122.864 135.384 125.649 133.711C126.403 133.258 127.154 132.811 127.913 132.364C131.501 130.25 135.007 128.277 138.45 126.332C140.887 124.955 143.316 123.581 145.703 122.174C146.939 121.456 148.086 120.954 149.224 120.475C153.111 118.88 156.891 117.649 160.567 116.193C164.23 114.745 167.794 113.175 170.618 111.138C172.968 109.462 174.221 107.571 174.016 106.187C174.019 106.55 174.076 106.652 174.061 106.651C174.05 106.648 173.989 106.55 173.892 106.429C173.564 106.007 172.878 105.379 172.173 104.92C171.193 104.256 170.234 103.574 169.316 102.9C167.365 101.465 165.495 99.9889 163.687 98.5112C162.953 97.9108 162.23 97.3109 161.517 96.7127C160.476 95.8404 159.455 94.9712 158.455 94.1155C156.768 92.6719 155.135 91.2609 153.551 89.9034C152.067 88.6318 150.627 87.4088 149.22 86.2378C149.126 86.1595 149.032 86.0815 148.937 86.0037C147.416 84.7504 146.133 83.7439 144.57 82.5654C140.79 79.6609 138.417 77.8599 135.777 75.8478C135.256 75.4515 134.722 75.0477 134.165 74.6273C131.005 72.2282 127.823 69.8174 124.687 67.33C124.666 67.3134 124.645 67.2969 124.624 67.2804C121.538 64.8332 118.476 62.4543 115.352 60.0904C112.259 57.7508 109.119 55.4361 105.97 53.2222C102.824 51.016 99.6505 48.8798 96.4909 47.0263C96.0308 46.7574 95.5741 46.4973 95.1273 46.2509C92.2575 44.6716 89.2614 43.127 86.337 41.6319C84.361 40.6221 82.2462 39.5441 80.2783 38.5311C78.8572 37.7999 77.4565 37.0741 76.0804 36.3543C75.519 36.0606 74.9604 35.7673 74.4075 35.4758C72.8304 34.6445 71.2926 33.8244 69.7946 33.0171C69.4615 32.838 69.1314 32.657 68.8042 32.4747C66.9196 31.4234 65.1647 30.3458 63.4918 29.2759C61.8135 28.2015 60.21 27.1284 58.6262 26.049C56.9843 24.929 55.6443 23.9974 53.9355 22.8092C52.8265 22.0379 51.7442 21.2775 50.6813 20.5307C49.0813 19.4063 47.5106 18.3014 45.9461 17.2373C44.386 16.1779 42.8517 15.169 41.3752 14.314C40.9073 14.0434 40.4049 13.7675 39.9752 13.5523C39.2836 13.2021 38.653 12.943 38.2618 12.8444C38.0835 12.7973 37.969 12.8034 38.1093 12.838C38.2268 12.8601 38.7068 12.9455 39.5246 12.6476C40.3151 12.3763 41.0902 11.6449 41.3595 11.197C41.6488 10.7487 41.6723 10.5764 41.694 10.5812C41.5416 11.4653 41.4044 12.3586 41.2777 13.2638C41.0303 15.0347 40.8324 16.7838 40.6596 18.5974C40.3686 21.6692 40.1011 24.6484 39.8881 27.2543C39.672 29.8904 39.4903 32.3755 39.3368 34.7942C39.3071 35.2599 39.2807 35.6944 39.2534 36.1517C39.1369 38.1044 39.0369 40.0374 38.9557 41.9286C38.8553 44.2642 38.7801 46.5874 38.7277 48.8856C38.6756 51.1657 38.6437 53.5101 38.6352 55.7774C38.628 57.6913 38.6344 59.522 38.6548 61.4711C38.6592 61.8593 38.664 62.2582 38.6692 62.6693C38.6993 65.0329 38.7553 67.4362 38.8227 70.0726C38.8897 72.685 38.9646 75.4282 39.0339 78.2066C39.1035 80.9815 39.1681 83.8048 39.2239 86.599C39.28 89.4009 39.3288 92.2139 39.3715 94.9865C39.4145 97.7747 39.4518 100.54 39.4874 103.296C39.5229 106.044 39.5583 108.882 39.5928 111.532C39.6491 115.821 39.7208 120.08 39.8411 124.336C39.8971 126.302 39.9632 128.253 40.0496 130.185C40.1498 132.408 40.278 134.623 40.4598 136.726C40.614 138.499 40.8123 140.253 41.0753 141.635C41.1379 141.964 41.2093 142.284 41.2655 142.499C41.3201 142.72 41.3843 142.874 41.3182 142.728C41.2782 142.65 41.2149 142.494 40.9656 142.131C40.7042 141.783 40.2917 141.161 39.1101 140.42C37.9653 139.648 35.8577 139.279 34.7023 139.506C33.5064 139.692 33.0755 139.98 32.9442 140.032C33.1256 139.945 33.3631 139.817 33.6293 139.662C36.4063 137.987 40.3241 135.069 44.0366 132.711C44.8709 132.174 45.7085 131.644 46.5555 131.121C47.563 130.497 48.5782 129.885 49.6007 129.284C51.5339 128.149 53.4645 127.036 55.3778 125.938C55.3977 125.927 55.4176 125.916 55.4376 125.905C59.1602 123.769 62.792 121.704 66.4045 119.597C67.7305 118.823 68.9971 118.076 70.2734 117.313C71.551 116.548 72.7939 115.792 74.0316 115.022C75.2707 114.251 76.4845 113.477 77.6532 112.705C77.8952 112.545 78.1325 112.387 78.3653 112.231C79.3089 111.598 80.2404 110.96 81.1791 110.307C82.2589 109.556 83.3311 108.796 84.5049 107.959C84.6121 107.883 84.7194 107.806 84.827 107.729C86.112 106.812 87.5827 105.762 88.9641 104.791C92.6237 102.221 96.2254 99.6799 100.002 97.1353C100.177 97.0176 100.352 96.9002 100.526 96.7832C105.327 93.7308 109.167 92.3545 112.868 90.5529C114.348 89.8523 115.776 89.1384 116.862 88.4827C117.25 88.2495 117.585 88.0249 117.799 87.8625C118.008 87.7129 118.105 87.5718 117.87 87.8402C117.755 87.9843 117.533 88.2583 117.282 88.83C117.025 89.4084 116.767 90.4 116.859 91.4775C117.099 93.788 118.224 94.6856 118.412 94.8867C118.267 94.7583 118.12 94.629 117.972 94.4989C114.781 91.701 111.505 89.1195 108.111 86.9378C105.534 85.2823 102.889 83.8645 100.282 82.8635C99.1722 82.4397 98.0937 81.9986 97.0442 81.5527C92.6096 79.6566 88.653 77.7317 84.7815 76.235C82.8756 75.4916 80.9836 74.8349 79.0715 74.2699C76.6201 73.544 73.9603 72.9031 71.1344 72.1531C66.0779 70.8395 60.5931 68.9954 55.6383 66.4066C55.5772 66.3752 55.5161 66.3435 55.455 66.3118C55.139 66.1434 54.9548 66.0604 54.9764 66.0628C55.0025 66.0556 55.254 66.1834 56.0174 66.1872C56.7508 66.217 58.1061 65.8271 58.8628 65.2009C59.6432 64.5905 59.8765 64.0988 59.9708 63.9193C60.1209 63.5506 59.9254 63.9468 59.8456 64.4404C59.7479 64.948 59.672 65.6169 59.6259 66.3339C59.5437 67.6851 59.4642 69.0231 59.387 70.3669C59.1017 75.3426 58.8488 80.2984 58.6566 85.2568C58.5423 88.2173 58.4494 91.1733 58.3968 94.1183C58.4439 95.6636 58.5019 97.162 58.5717 98.5719C58.6893 100.936 58.8365 103.108 59.0558 105.09C59.1651 106.065 59.2953 106.99 59.4457 107.705C59.5192 108.065 59.6098 108.367 59.6267 108.363C59.623 108.348 59.6322 108.257 59.3797 107.776C59.3031 107.637 59.2014 107.467 59.0558 107.264C58.9829 107.163 58.8991 107.054 58.8001 106.937C58.6728 106.786 58.5213 106.622 58.3378 106.45C57.9539 106.098 57.53 105.749 56.7463 105.372C55.9501 104.99 54.9045 104.743 53.9097 104.77C52.697 104.811 52.1515 105.092 51.857 105.207C51.5666 105.339 51.5022 105.388 51.4949 105.383C51.4968 105.37 51.7412 105.169 52.0292 104.91C52.6302 104.379 53.4517 103.607 54.6009 102.758C56.894 101.038 59.1825 99.0733 61.7418 96.7559C62.4453 96.1071 63.0112 95.5587 63.7071 94.8835C63.8399 94.7547 63.9814 94.6179 64.1259 94.4778C65.0425 93.5906 66.1031 92.5609 67.6778 91.1399C69.0077 89.9448 70.6908 88.477 72.8453 86.8411C75.4541 84.866 78.6225 82.4956 82.169 79.7804C83.7163 78.5931 84.9619 78.1643 85.022 78.8425C85.0571 79.3226 84.484 80.2211 83.5782 81.1331C85.3952 79.6334 87.1915 78.0981 88.7388 76.5934C89.3526 75.9961 89.9287 75.5223 90.3314 75.3186C90.7365 75.1106 90.942 75.2295 91.1656 75.3637C91.387 75.4906 91.5155 75.7749 91.2853 76.3442C91.0642 76.9026 90.5385 77.6242 89.8981 78.2688C88.1796 79.9949 86.2818 81.6734 84.3619 83.3196C82.4387 84.9639 80.4782 86.5717 78.4907 88.1564C77.5373 88.9163 76.5785 89.6696 75.6144 90.4164C74.5167 91.2666 73.4481 92.1405 72.3998 93.0272C70.3929 94.725 68.4631 96.4662 66.5484 98.1778C64.6214 99.9004 62.7478 101.559 60.8029 103.149C59.6376 104.102 58.4433 105.031 57.2491 105.896C57.157 105.963 57.0653 106.029 56.9737 106.095C56.5269 106.415 56.1297 106.733 55.7573 107.042C55.3747 107.36 55.0154 107.672 54.6736 107.962C54.3322 108.252 54.0073 108.518 53.7673 108.684C53.6506 108.767 53.554 108.821 53.5445 108.826C53.537 108.837 53.6252 108.762 53.9985 108.746C54.3612 108.736 54.7456 108.823 55.036 108.958C55.3312 109.096 55.4753 109.214 55.6091 109.332C55.8711 109.582 55.8833 109.65 55.9236 109.708C55.9677 109.794 55.9094 109.684 55.8729 109.564C55.7813 109.286 55.6912 108.889 55.6138 108.457C55.4609 107.599 55.3545 106.658 55.2675 105.688C55.0987 103.776 55.0096 101.774 54.9497 99.793C54.8089 94.871 54.8421 89.8811 54.9221 84.9016C55.0058 79.9137 55.1498 74.926 55.327 69.9351C55.3721 68.67 55.4188 67.4171 55.4683 66.1477C55.5224 64.5289 55.7584 62.7534 56.173 61.9472C56.2625 61.7629 56.3403 61.705 56.2737 61.7571C56.2139 61.8132 55.9975 61.8637 56.0114 61.8495C56.0376 61.8138 56.7051 62.0054 57.4281 62.3834C57.5638 62.4506 57.6991 62.517 57.8341 62.5825C62.5075 64.8789 67.5671 66.455 72.4898 67.6239C75.1917 68.2796 77.834 68.8581 80.3899 69.5518C81.4317 69.8342 82.467 70.1409 83.498 70.4711C84.9089 70.8811 86.2937 71.3318 87.6573 71.8113C91.6273 73.1997 95.5785 74.8764 99.625 76.3623C92.5488 73.4421 87.1186 71.0444 81.6815 69.6037C81.2739 69.4921 80.8729 69.3865 80.4651 69.2827C80.1435 69.2009 79.8232 69.1215 79.5008 69.0431C72.8345 67.4281 65.6451 66.4016 57.4807 62.2788C56.7194 61.8657 55.9607 61.6699 56.0101 61.7111C56.0272 61.7123 56.1375 61.6757 56.1743 61.6442C56.2152 61.6136 56.182 61.6266 56.1205 61.718C55.9901 61.9013 55.8112 62.3302 55.6878 62.8128C55.4327 63.7934 55.3139 64.9683 55.2563 66.1382C53.8268 87.6184 55.2894 104.998 54.0138 109.432C53.6468 109.476 53.845 109.487 54.0268 109.357C54.2262 109.238 54.4806 109.051 54.7381 108.848C55.569 108.189 56.4497 107.403 57.4256 106.73C63.8822 102.151 66.7918 99.3932 69.8361 97.2199C71.6854 95.8591 74.1369 93.9181 76.8371 91.995C81.0906 88.9802 85.524 85.4421 88.1367 83.0883C89.6832 81.7084 91.1902 80.8567 91.5711 81.2567C91.9589 81.6521 91.0269 83.1949 89.4492 84.6018C86.8384 86.9502 82.5054 90.4335 78.0766 93.5954C74.8214 95.9216 71.7258 98.4461 69.2863 100.247C67.0439 101.839 64.7669 103.981 58.5879 108.365C57.6675 108.991 56.7717 109.811 55.7389 110.607C55.2406 110.97 54.6815 111.403 54.0585 111.435C51.0357 103.245 52.4897 88.348 53.2551 66.0485C53.3194 64.7882 53.4358 63.5141 53.7564 62.2808C54.067 61.0862 54.6912 59.7516 55.8706 59.7131C56.6996 59.6686 57.5663 60.0844 58.3798 60.4888C65.9664 64.3172 72.624 65.3656 79.3771 66.9469C79.9183 67.0751 80.4606 67.2073 81.0063 67.3463C81.2063 67.3973 81.4057 67.449 81.6043 67.5014C81.6089 67.5028 81.6135 67.5041 81.618 67.5054C87.9907 69.088 94.4575 72.21 103.042 75.5276C103.784 75.7991 104.533 76.0998 105.287 76.4288C111.754 79.2482 118.065 83.8577 123.78 88.8531C124.268 89.2845 124.73 89.8246 124.887 90.5787C125.046 91.3373 124.76 92.0883 124.395 92.6258C123.654 93.6963 122.663 94.3898 121.711 95.0321C119.773 96.2925 117.761 97.2618 115.809 98.2034C111.915 100.075 108.095 101.69 105.143 103.676C98.8874 108.005 94.1083 111.589 91.8799 113.233C90.6685 114.137 89.5022 115.013 88.2633 115.934C86.7765 117.038 85.1853 118.213 83.2758 119.563C79.0714 122.538 73.2684 126.212 63.7698 131.833C61.0307 133.461 57.8528 135.321 54.4318 137.373C54.0782 137.585 53.7391 137.791 53.3827 138.008C47.7234 141.659 43.1476 145.776 37.746 149.083C37.6818 149.118 37.6178 149.152 37.5538 149.187C37.1521 149.384 36.556 149.717 35.5309 149.724C34.4786 149.742 33.4468 149.116 32.9803 148.613C32.0233 147.584 31.8106 146.847 31.5184 146.152C31.0089 144.777 30.7436 143.568 30.4913 142.391C30.0049 140.029 29.6797 137.807 29.3791 135.608C29.2063 134.331 29.0458 133.038 28.8973 131.762C28.8593 131.435 28.8215 131.102 28.7842 130.762C28.4777 128.02 28.2155 125.271 28.0054 122.593C27.8183 120.203 27.6191 117.7 27.4203 115.056C26.7004 105.441 25.9605 93.9153 26.0006 78.8938C26.0199 72.6848 26.0837 66.8119 26.1945 61.2797C26.3708 52.5548 26.7394 44.6503 27.2648 37.4188C26.5935 46.1153 26.2571 52.8239 26.0004 58.4084C25.9559 59.3985 25.9154 60.3413 25.8779 61.2748C25.8756 61.3301 25.8733 61.3854 25.871 61.4406C25.598 68.2673 25.4426 73.2361 25.4256 78.5523C25.3971 103.955 25.7814 113.489 26.5895 124.289C26.7497 126.32 26.9473 128.51 27.1921 130.844C27.2908 131.795 27.3956 132.732 27.5105 133.696C27.8034 136.133 28.1373 138.696 28.6515 141.461C28.9198 142.852 29.2024 144.269 29.7421 145.939C30.0552 146.801 30.2691 147.659 31.2828 149.073C31.7907 149.738 32.8893 150.94 34.7883 151.239C36.6532 151.48 37.7162 150.837 38.2557 150.581C40.7582 149.169 42.5301 147.702 44.467 146.285C47.8323 143.763 51.3469 141.197 55.2175 138.688C58.4193 136.611 61.7856 134.481 65.2441 132.284C65.2472 132.282 65.2503 132.28 65.2534 132.278C66.755 131.324 68.2758 130.357 69.8084 129.375C74.3713 126.446 79.0551 123.416 83.6496 120.121C88.4233 116.679 93.0786 113.096 97.7257 109.66C98.697 108.942 99.8586 108.078 101.196 107.095C102.442 106.18 103.845 105.159 105.399 104.059C107.945 102.276 111.466 100.678 115.329 98.8193C117.27 97.878 119.318 96.9062 121.4 95.624C122.436 94.9617 123.501 94.2759 124.435 93.1433C124.876 92.585 125.348 91.7805 125.265 90.79C125.174 89.8017 124.581 89.0908 124.016 88.5873C120.171 85.1941 115.874 81.6927 110.882 78.6222C108.565 77.2057 106.103 75.8685 103.338 74.7403C101.509 73.9943 99.6344 73.133 97.6551 72.1971C96.1822 71.5013 94.6508 70.7645 93.0291 70.0156C89.7116 68.485 85.9552 66.8678 81.5152 65.525C76.6105 64.0203 71.0751 62.9762 65.2175 60.7354C63.3526 60.0224 61.4484 59.184 59.53 58.1987C58.7042 57.802 57.7645 57.2345 56.1739 57.132C55.3878 57.0886 54.3774 57.3102 53.614 57.8364C52.8447 58.3532 52.3706 59.007 52.0384 59.5952C50.836 61.967 50.8016 63.9178 50.6508 65.9319C50.3549 71.797 50.0915 77.9674 49.9179 84.2847C49.7556 90.676 49.6245 97.178 49.9071 103.694C49.9782 105.156 50.0719 106.611 50.2513 108.105C50.3459 108.866 50.4517 109.608 50.6497 110.453C50.6991 110.66 50.7527 110.866 50.8271 111.11C50.8989 111.341 50.9751 111.569 51.1022 111.862C51.2148 112.117 51.3866 112.479 51.6953 112.865C51.8556 113.067 52.1358 113.362 52.4979 113.587C52.8576 113.827 53.5182 114.064 54.1166 114.039C55.6424 113.931 56.1913 113.405 56.7463 113.079C57.2717 112.722 57.6737 112.389 58.0557 112.075C58.8094 111.448 59.4606 110.889 60.0775 110.46C67.1983 105.464 72.89 99.5175 79.0555 94.8593C83.3987 91.5474 87.6177 88.1872 91.6991 84.4968C91.7019 84.4943 91.7046 84.4917 91.7074 84.4891C93.2953 83.052 94.8386 82.1034 95.191 82.5326C95.5328 82.9798 94.4943 84.6794 92.8686 86.1424C88.7645 89.8364 84.5897 93.1596 80.2828 96.4439C74.2724 100.972 68.5595 106.946 61.2385 112.092C60.735 112.439 60.125 112.958 59.3435 113.61C58.9438 113.938 58.5107 114.3 57.8751 114.734C57.1853 115.117 56.5341 115.86 54.1613 116.041C53.1324 116.087 51.9889 115.664 51.4031 115.265C50.8 114.884 50.3454 114.391 50.1126 114.093C49.8734 113.791 49.6977 113.51 49.5526 113.248C49.4145 112.994 49.3388 112.83 49.2528 112.632C48.9298 111.865 48.8089 111.355 48.6921 110.879C48.4665 109.903 48.3543 109.089 48.255 108.28C48.066 106.679 47.9721 105.167 47.9001 103.653C47.6242 97.1199 47.7526 90.6616 47.9148 84.2681C48.0881 77.942 48.3523 71.7427 48.6498 65.8423C48.832 63.6916 48.7613 61.6885 50.2838 58.6286C50.7165 57.862 51.3623 56.9412 52.4907 56.1776C53.6099 55.3982 55.1315 55.0665 56.2365 55.1296C58.4737 55.2807 59.5428 55.9996 60.4293 56.4083C62.3681 57.4046 64.2899 58.2444 66.1752 58.9552C71.705 61.0459 77.0868 62.077 82.0559 63.5902C86.9486 65.0651 91.0241 66.861 94.5481 68.5014C96.2657 69.3022 97.8464 70.0643 99.3336 70.7609C101.004 71.5442 102.557 72.246 104.047 72.8562C107.147 74.1214 109.777 75.5805 112.256 77.1142C117.27 80.2408 121.54 83.7334 125.347 87.0916C126.094 87.7637 127.097 88.866 127.261 90.6364C127.392 92.4129 126.572 93.6652 125.987 94.4091C124.721 95.9181 123.553 96.6155 122.428 97.3439C120.188 98.7183 118.114 99.6964 116.153 100.649C112.274 102.512 108.778 104.127 106.519 105.731C105.258 106.625 104.095 107.468 103.034 108.244C101.665 109.246 100.464 110.136 99.439 110.893C94.6326 114.44 89.7984 118.174 84.7734 121.8C80.4441 124.905 76.0715 127.75 71.7704 130.519C70.2517 131.495 68.7406 132.458 67.2432 133.41C67.2402 133.412 67.2373 133.414 67.2343 133.416C63.4549 135.82 59.7555 138.154 56.2547 140.425C52.7018 142.73 49.4457 145.081 46.3034 147.429C44.0887 149.039 42.2039 150.67 39.1674 152.391C38.5758 152.672 37.5469 153.296 35.513 153.326C33.4169 153.381 31.289 152.11 30.4404 151.185C28.6819 149.291 28.5103 148.298 28.0989 147.386C27.4423 145.616 27.1715 144.334 26.8894 143.048C26.3622 140.517 26.037 138.259 25.7419 136.048C25.5137 134.31 25.3208 132.625 25.1483 130.949C24.9644 129.173 24.8048 127.424 24.6633 125.671C23.7765 114.173 23.3966 104.102 23.4234 78.5917ZM80.7242 83.4352C78.2013 85.3275 75.9688 86.9962 74.0726 88.4256C72.9239 89.2934 71.9272 90.1072 71.061 90.8415C72.054 90.0433 73.0698 89.2527 74.1141 88.4793C75.1893 87.6863 76.2597 86.8841 77.3232 86.0739C78.4668 85.2026 79.6018 84.3229 80.7242 83.4352ZM51.8184 136.619C52.3269 136.278 52.8428 135.936 53.3688 135.593C53.5348 135.485 53.7019 135.376 53.87 135.266C53.6987 135.37 53.5281 135.473 53.3585 135.576C51.5799 136.655 49.8368 137.762 48.1116 138.908C45.7857 140.449 43.5158 142.061 41.2514 143.668C44.8666 141.127 48.4097 138.71 51.8184 136.619ZM28.0037 78.8649C27.9664 93.0172 28.6342 103.588 29.3273 113.112C29.5284 115.854 29.7338 118.519 29.9342 121.152C30.0176 122.25 30.1083 123.317 30.2079 124.437C30.0261 118.01 29.9656 112.133 29.9289 107.314C29.8411 92.9344 30.0487 84.7482 30.2208 77.5705C30.2731 75.4783 30.3263 73.5005 30.3793 71.4502C30.3251 69.7577 30.2745 68.0085 30.2357 66.2354C30.2003 64.676 30.1707 62.9741 30.1481 61.3404C30.1356 60.3812 30.1261 59.4476 30.1201 58.5235C30.1033 55.9576 30.1116 53.3415 30.1468 50.7861C30.1822 48.2128 30.245 45.6438 30.3348 43.0953C30.4192 40.6955 30.5285 38.3078 30.6559 35.9974C30.6633 35.8638 30.6707 35.7307 30.6782 35.598C30.8152 33.1542 30.9748 30.7765 31.1319 28.5905C31.2916 26.365 31.4343 24.513 31.5447 22.8688C31.6837 20.8092 31.8612 18.6904 32.0798 16.6087C32.3015 14.5066 32.5648 12.4204 32.8965 10.3378C32.9816 9.80615 33.0707 9.27836 33.1622 8.76453C33.384 7.67542 33.8108 6.18431 35.3736 5.05477C36.9723 3.96045 38.634 4.08041 39.7283 4.26427C40.6756 4.43068 41.5351 4.73493 42.2497 5.02507C42.5749 5.15714 42.9339 5.31772 43.2238 5.45356C41.9357 4.84849 40.6608 4.14106 38.4285 4.02411C37.3246 3.96873 35.6222 4.38542 34.5417 5.51865C33.4449 6.66124 33.1434 7.72922 32.9118 8.7112C32.5591 10.3455 32.2469 12.0218 31.9648 13.698C30.9202 19.9575 30.1563 26.6174 29.542 33.9752C28.8679 42.1358 28.4035 51.1131 28.1965 61.3105C28.087 66.7835 28.0232 72.6268 28.0037 78.8649ZM95.2882 36.4159C93.7173 35.6176 91.4099 34.4805 88.4414 33.0467C87.7379 32.7065 87.0007 32.3516 86.2251 31.9774C86.243 31.9867 86.2616 31.9959 86.2795 32.0051C88.1715 32.989 89.923 33.8963 91.8164 34.8844C94.2943 36.178 96.7224 37.4652 99.1342 38.8128C100.035 39.3161 100.914 39.836 101.786 40.3701C105.064 42.3842 108.164 44.5249 111.226 46.7187C114.293 48.9202 117.304 51.1797 120.263 53.4564C123.25 55.7553 126.161 58.0558 129.079 60.4059C129.328 60.6062 129.576 60.8065 129.824 61.0067C130.493 61.5474 131.169 62.088 131.849 62.6275C131.19 62.0796 130.527 61.5257 129.858 60.9639C128.438 59.7703 126.966 58.5528 125.429 57.3006C123.613 55.8219 121.706 54.2933 119.684 52.7038C118.909 52.0947 117.975 51.3579 116.874 50.5041C113.066 47.619 107.586 43.1701 99.296 38.5124C98.012 37.8174 96.6722 37.1182 95.2882 36.4159ZM155.302 81.1265C155.957 81.6962 156.603 82.2601 157.243 82.8228C159.062 84.4206 160.818 85.982 162.543 87.5035C163.753 88.5707 164.95 89.6221 166.132 90.642C166.633 91.0743 167.132 91.5015 167.627 91.9226C168.458 92.6282 169.286 93.3195 170.112 93.9961C164.883 89.5825 159.908 84.917 154.632 80.1848C154.124 79.7276 153.61 79.272 153.093 78.8179C153.015 78.7491 152.936 78.6804 152.856 78.6111C153.422 79.183 153.977 79.7504 154.519 80.312C154.783 80.5866 155.043 80.8573 155.302 81.1265Z" fill="#6848FF" fill-opacity="0.16"/>
</svg>
