<svg width="537" height="469" viewBox="0 0 537 469" fill="none" xmlns="http://www.w3.org/2000/svg">
<path opacity="0.5" d="M130.889 158.555C139.281 144.08 147.15 130.666 157.095 113.596C157.1 113.587 157.105 113.578 157.111 113.569C158.539 111.116 160.011 108.587 161.503 106.019C162.254 104.728 163.028 103.395 163.828 102.015C169.355 92.6456 176.573 80.5258 187.914 70.6748C192.192 65.8563 201.167 63.954 206.949 65.7143C212.929 67.1678 217.651 69.9002 222.23 72.7237C231.341 78.5009 239.905 85.3815 249.492 92.4807C256.806 97.9265 263.873 102.96 270.855 107.433C304.379 128.515 332.088 144.939 349.7 156.362C353.705 158.941 357.881 161.52 368.385 168.218C375.236 172.657 384.59 178.476 397.63 188.037C398.157 188.429 398.682 188.822 399.204 189.217C405.671 194.331 413.293 199.591 420.516 209.559C422.179 212.14 424.138 215.348 424.341 220.04C424.653 224.938 421.227 229.429 419.346 231.45C407.743 244.972 394.349 260.606 382.101 278.512C367.114 298.315 352.993 318.598 340.251 339.913C337.502 344.44 334.806 348.952 332.125 353.494C318.829 376.608 309.471 400.466 301.436 418.886C297.67 427.677 293.912 436.428 289.923 445.101C286.628 451.838 283.555 458.04 277.257 464.198C275.348 465.897 272.682 467.666 269.227 468.092C265.762 468.539 262.549 467.314 260.37 466.041C246.72 457.982 236.34 446.76 225.931 435.399C218.652 427.378 211.549 418.952 203.849 411.014C189.496 396.242 171.672 382.996 151.936 369.049C148.91 366.919 146.083 364.939 142.997 362.791C116.764 344.226 90.875 327.991 64.05 309.812C62.1448 308.363 60.2712 306.817 58.478 305.184C57.1719 303.995 55.8742 302.793 54.5866 301.58C44.4203 292.03 34.9308 281.621 25.6283 270.717C18.7017 261.774 8.96901 256.954 1.49372 244.45C0.0696854 240.497 0.263107 235.798 1.92351 231.963C14.8543 210.192 37.3247 204.942 49.0136 189.977C66.3561 167.171 80.3423 143.728 96.4662 119.701C107.028 103.976 118.251 87.687 132.43 71.5268C132.54 71.402 132.65 71.2775 132.76 71.1533C143.032 59.75 154.958 45.3829 171.134 32.6884C181.267 25.2153 187.839 13.8462 198.692 3.50815C203.614 -0.77996 210.294 0.502809 214.774 1.93523C222.512 4.35611 229.772 8.08435 236.526 12.3961C240.124 14.6927 243.595 17.1611 246.962 19.7189C246.979 19.7318 246.996 19.7447 247.013 19.7577C262.367 31.4518 275.695 44.9684 289.925 55.2498C309.595 68.8935 329.073 80.4046 345.001 89.8186C376.74 108.355 394.874 117.516 407.835 123.723C412.969 126.163 417.289 128.131 421.42 129.958C426.92 132.386 432.039 134.551 438.192 137.019C447.927 140.947 460.014 145.294 473.539 150.008C473.642 150.043 473.933 150.173 474.029 150.224C485.724 156.418 498.576 163.1 512.162 168.31C512.215 168.329 512.369 168.395 512.42 168.419C517.577 170.873 522.44 173.617 527.316 176.374C527.439 176.444 527.562 176.513 527.685 176.583C533.017 179.622 537.046 182.49 536.747 182.952C536.443 183.419 531.922 181.303 526.604 178.273C521.633 175.458 516.689 172.668 511.568 170.231C511.546 170.221 511.48 170.193 511.457 170.185C498.964 165.405 487.339 159.465 476.694 153.902C476.162 153.906 474.737 153.403 472.794 152.534C472.77 152.521 472.696 152.489 472.67 152.48C470.836 151.976 468.557 151.26 466.115 150.396C457.488 147.232 436.58 140.624 406.565 126.346C391.716 119.304 374.662 110.335 355.599 99.6365C359.478 101.96 362.732 103.896 365.588 105.589C368.939 107.575 371.507 109.086 373.729 110.386C378.345 113.08 381.437 114.866 386.992 117.881C392.195 120.658 398.652 124.024 405.965 127.584C416.834 132.879 429.617 138.663 443.104 143.909C448.801 146.133 453.291 148.24 453.074 148.753C452.859 149.259 448.003 147.972 442.279 145.736C442.167 145.692 442.055 145.649 441.944 145.605C428.844 140.497 416.105 134.753 405.093 129.387C397.242 125.565 390.242 121.903 384.616 118.884C381.187 117.043 378.242 115.422 376.036 114.195C374.273 113.216 372.085 111.986 370.872 111.28C370.712 111.186 370.408 111.008 370.045 110.792C370.039 110.789 370.033 110.785 370.027 110.781C369.825 110.661 368.789 110.046 367.705 109.35C367.487 109.209 367.01 108.902 366.467 108.531C366.322 108.445 366.177 108.359 366.032 108.273C364.007 107.069 361.943 105.834 359.712 104.497C351.025 99.2263 337.12 91.1595 308.911 73.1127C302.71 69.0888 295.415 64.4303 287.435 58.7088C267.285 45.0391 247.676 18.1478 213.562 5.80896C209.39 4.47869 204.544 3.72644 201.321 6.59503C197.485 9.88887 194.243 14.1182 190.807 18.2978C193.619 14.9341 196.348 11.5058 199.405 8.52059C200.056 7.88861 200.727 7.27639 201.413 6.70249C204.534 3.96355 209.255 4.65666 213.488 6.04748C218.594 7.68998 223.507 9.94693 228.211 12.5942C231.861 14.6487 235.337 16.9009 238.785 19.3445C244.337 23.283 249.647 27.612 254.863 32.0757C258.387 35.0928 261.876 38.18 265.372 41.2669C265.38 41.2739 265.388 41.2808 265.396 41.2877C270.251 45.5718 275.137 49.8801 280.265 54.029C282.065 55.4853 283.86 56.8907 285.684 58.256C286.136 58.5941 286.588 58.9282 287.04 59.2585C293.858 64.1818 300.885 68.7549 308.831 73.9175C309.894 74.6113 310.97 75.3171 311.816 75.8717C312.721 76.4652 313.591 77.0347 314.397 77.5632C315.113 78.0331 315.804 78.4864 316.473 78.9237C316.563 78.9822 316.653 79.0411 316.743 79.0995C317.469 79.5744 318.171 80.0314 318.852 80.4734C319.528 80.9118 320.209 81.3517 320.839 81.7564C320.844 81.76 320.85 81.7637 320.856 81.7673C321.524 82.1959 322.035 82.5226 322.754 82.9786C323.66 83.5525 324.443 84.0449 325.375 84.6266C326.281 85.1921 327.24 85.7868 328.21 86.3842C329.163 86.9716 330.143 87.5721 331.146 88.184C332.159 88.8018 333.157 89.4076 334.185 90.0292C335.208 90.6478 336.263 91.2824 337.299 91.9036C338.342 92.529 339.405 93.1645 340.475 93.8025C342.913 95.2552 345.236 96.7417 346.871 97.9113C348.516 99.0863 349.361 99.8619 349.22 100.078C349.08 100.295 347.961 99.9352 346.11 99.0726C344.268 98.2154 341.821 96.9094 339.368 95.4735C338.691 95.0774 338.013 94.6803 337.336 94.2821C336.934 94.0458 336.529 93.807 336.127 93.57C335.054 92.938 333.936 92.2773 332.839 91.6253C331.741 90.9731 330.635 90.3131 329.507 89.6362C328.374 88.9568 327.269 88.291 326.095 87.5791C324.935 86.8752 323.784 86.1726 322.588 85.4373C321.413 84.7148 320.109 83.9059 318.932 83.1695C318.06 82.6239 317 81.9544 316.129 81.401C315.231 80.8302 314.29 80.2292 313.43 79.6761C312.563 79.1186 311.734 78.5817 310.916 78.0517C310.83 77.9957 310.743 77.9398 310.657 77.8839C309.944 77.4214 309.266 76.9795 308.632 76.5665C307.897 76.0887 307.203 75.6374 306.557 75.2169C305.839 74.7498 305.437 74.4893 304.878 74.1284C299.121 70.4242 292.289 66.0662 285.577 61.2911C283.988 60.1487 282.421 58.9731 280.891 57.7889C279.891 57.0153 278.892 56.2256 277.926 55.4505C272.764 51.3058 267.844 47.0213 262.956 42.7746C259.407 39.6894 255.873 36.617 252.303 33.6238C247.05 29.2208 241.706 24.9739 236.157 21.1669C232.709 18.8033 229.246 16.6478 225.63 14.7107C221.401 12.4468 217.023 10.5285 212.526 9.1213C208.446 7.80765 205.192 7.67878 203.572 9.23716C202.551 10.1052 201.548 11.0871 200.557 12.1396C193.518 19.9103 186.531 29.9876 177.094 37.466C176.645 37.8308 176.192 38.1918 175.728 38.5531C167.405 44.9742 159.61 52.587 152.261 60.3716C147.339 65.5728 142.38 71.003 137.667 76.1729C136.958 76.9517 136.255 77.7324 135.56 78.5128C132.779 81.6387 130.109 84.7852 127.541 87.918C127.532 87.9286 127.523 87.9393 127.514 87.95C125.251 90.7115 123.066 93.4624 120.918 96.237C116.322 102.176 111.955 108.139 107.676 114.184C103.404 120.22 99.245 126.305 95.0998 132.479C90.9852 138.608 86.8524 144.874 82.749 151.094C78.623 157.345 74.5755 163.482 70.2374 169.9C64.8736 177.824 59.4372 185.654 53.4942 193.424C53.0822 193.961 52.6497 194.492 52.1987 195.017C44.7948 203.322 35.7786 208.775 27.4245 214.814C24.4903 216.899 21.597 219.006 18.8555 221.223C18.8449 221.231 18.8343 221.24 18.8237 221.248C13.8318 225.316 8.94658 229.95 7.22753 235.128C6.433 237.555 6.4675 239.972 7.33368 242.403C9.35335 246.742 16.1791 251.86 21.2821 256.802C24.4932 259.808 27.653 262.956 30.6248 266.338C34.6964 270.969 38.8298 275.552 43.0738 280.039C49.4356 286.775 56.1933 293.39 63.3179 299.717C64.2506 300.546 65.198 301.346 66.1707 302.125C73.4767 307.904 82.0977 312.846 90.1997 318.033C92.3774 319.405 94.5268 320.767 96.6525 322.123C106.897 328.655 116.631 335.085 126.211 341.533C135.869 348.036 145.293 354.501 154.902 361.174C155.471 361.569 156.044 361.968 156.622 362.37C165.634 368.644 174.672 375.078 183.588 381.928C192.818 389.027 201.743 396.489 210.097 404.883C210.333 405.119 210.57 405.358 210.807 405.598C219.286 414.228 227.055 423.303 235.281 432.017C239.844 436.862 244.787 441.881 249.689 446.254C254.61 450.642 259.747 454.666 265.132 457.701C265.153 457.712 265.173 457.723 265.193 457.734C267.036 458.704 267.81 458.724 269.001 458.217C269.537 457.97 270.159 457.541 270.787 456.968C272.275 455.607 273.801 453.589 275.154 451.554C277.37 448.199 279.326 444.562 280.943 440.984C281.762 439.161 282.571 437.331 283.367 435.507C285.787 429.958 288.076 424.505 290.261 419.228C292.525 413.756 294.362 409.242 296.569 403.821C301.997 390.644 305.528 382.504 309.663 373.52C310.479 371.755 311.321 369.955 312.219 368.069C315.472 361.27 318.899 354.53 322.74 347.948C324.945 344.177 327.084 340.559 329.288 336.879C335.308 326.837 341.433 316.952 347.92 307.169C354.32 297.454 361.379 287.809 368.359 278.693C369.975 276.545 371.544 274.417 373.021 272.271C378.105 264.89 383.456 257.708 389.018 250.701C396.166 241.683 403.793 232.825 411.075 224.385C411.202 224.237 411.326 224.095 411.445 223.957C412.477 222.782 413.061 221.955 413.287 221.386C413.508 220.823 413.566 220.441 413.416 219.608C413.126 217.967 411.591 215.432 409.836 213.288C407.251 210.102 404.053 207.085 400.795 204.26C399.45 203.097 398.065 201.95 396.732 200.878C395.389 199.798 394.14 198.822 392.767 197.774C389.327 195.152 385.861 192.669 382.415 190.275C377.657 186.971 372.963 183.857 368.327 180.857C363.672 177.847 359.11 174.978 354.492 172.126C349.705 169.174 345.707 166.751 340.58 163.688C337.234 161.691 333.955 159.747 330.678 157.812C325.773 154.917 320.888 152.053 315.968 149.177C311.052 146.304 306.183 143.468 301.296 140.62C299.72 139.701 298.074 138.742 296.486 137.815C291.61 134.972 286.81 132.168 281.993 129.332C277.186 126.502 272.429 123.68 267.705 120.821C266.433 120.051 265.1 119.238 263.864 118.48C260.383 116.341 256.982 114.142 253.589 111.867C245.653 106.546 238.373 101.113 232.076 96.4612C225.718 91.7724 219.799 87.3861 214.046 83.9131C212.954 83.2578 211.907 82.6604 210.82 82.0861C206.268 79.5871 201.621 78.4281 199.789 79.3186C199.136 79.5608 198.513 79.9533 197.8 80.665C193.73 84.5513 190.894 87.3606 187.976 91.2009C184.145 96.1927 180.653 101.846 177.39 107.569C177.085 108.105 176.777 108.651 176.465 109.208C173.405 114.676 170.521 119.832 167.423 125.37C164.024 131.446 160.553 137.671 156.793 144.39C153.049 151.081 149.08 158.144 145.06 165.234C140.997 172.398 136.936 179.5 132.776 186.694C128.656 193.828 124.458 200.983 120.393 207.981C117.849 212.368 115.389 216.679 113.062 221.033C111.371 224.168 109.587 226.881 107.809 229.522C103.094 236.453 98.1769 243.05 94.1212 249.342C87.6116 258.984 82.0908 271.608 85.4627 275.886C85.8465 276.518 86.3516 277.126 87.072 277.76C94.4495 284.262 103.415 289.229 112.996 293.461C117.792 295.577 122.721 297.502 127.739 299.311C134.134 301.617 140.749 303.597 147.494 305.524C159.439 308.986 171.924 312.054 184.297 317.71C185.522 318.277 186.742 318.872 187.951 319.499C189.301 320.2 190.586 320.856 191.945 321.536C200.452 325.798 209.14 329.626 217.993 333.025C218.054 333.049 218.115 333.072 218.175 333.096C229.593 337.593 241.028 340.673 253.439 345.86C254.222 346.202 255.019 346.563 255.793 346.932C254.544 346.337 253.327 346.273 252.587 346.348C252.002 346.406 251.647 346.52 251.426 346.597C251.021 346.752 251.089 346.757 251.192 346.685C251.401 346.561 251.945 346.151 252.438 345.719C253.496 344.798 254.611 343.671 255.784 342.405C258.521 339.436 261.19 336.139 263.796 332.761C266.417 329.356 268.928 325.906 271.362 322.444C273.828 318.934 276.17 315.471 278.487 311.939C280.624 308.678 282.674 305.462 284.898 301.87C285.1 301.543 285.3 301.219 285.501 300.893C287.918 296.969 290.598 292.484 293.032 288.271C299.465 277.125 305.335 266.021 310.352 254.495C310.679 253.74 310.998 252.991 311.309 252.248C316.676 240.233 323.601 229.784 324.401 221.036C324.494 219.677 324.326 218.654 324.079 218.062C323.823 217.47 323.557 217.104 322.793 216.559C322.1 216.08 321.42 215.618 320.719 215.148C314.347 210.877 307.669 206.971 300.77 203.406C295.198 200.518 289.579 197.946 283.618 195.316C277.486 192.577 271.274 189.876 265.027 187.157C252.857 181.861 240.573 176.541 228.373 171C227.479 170.594 226.569 170.178 225.676 169.769C213.717 164.227 203.18 156.556 193.862 154.188C192.227 153.8 190.806 153.715 189.88 153.867C188.946 154.033 188.493 154.252 187.805 154.888C182.506 160.244 178.567 169.572 175.79 178.6C175.474 179.631 175.172 180.665 174.878 181.719C168.731 197.903 159.533 206.501 154.773 218.062C150.906 226.777 150.478 234.572 155.755 240.564C157.315 242.442 160.402 244.457 163.639 245.96C168.657 248.302 174.36 249.869 180.176 250.863C190.788 253.365 197.155 257.691 204.806 261.186C212.607 264.979 220.353 268.544 228.149 270.847C232.284 271.985 236.243 272.686 239.846 272.789C246.764 273.011 251.923 270.923 255.553 266.892C264.995 255.721 272.837 241.949 278.628 228.153C279.321 226.344 279.886 224.388 279.947 223.438C279.965 223.227 279.945 223.112 279.954 223.231C279.964 223.338 280.024 223.75 280.335 224.288C280.634 224.827 281.166 225.298 281.4 225.438C281.647 225.592 281.602 225.538 281.331 225.455C281.014 225.353 280.449 225.209 279.771 225.032C277.928 224.554 276.182 224.155 274.149 223.727C273.634 223.619 273.084 223.505 272.53 223.394C268.986 222.682 264.847 221.933 259.025 220.951C254.143 220.127 248.129 219.154 241.07 218.005C231.415 216.426 219.702 214.736 206.136 212.703C200.234 211.817 196.515 210.779 197.87 210.415C198.806 210.158 202.014 210.299 205.856 210.705C198.778 209.71 191.707 208.745 184.562 207.557C181.738 207.083 178.996 206.467 177.046 205.812C175.085 205.173 173.807 204.396 174.137 204.244C174.446 204.098 176.058 204.388 178.269 204.665C180.492 204.96 183.285 205.337 186.147 205.781C193.682 206.94 201.167 207.895 208.633 208.882C216.111 209.865 223.548 210.845 230.98 211.912C234.587 212.43 238.188 212.967 241.78 213.538C245.613 214.148 249.429 214.761 253.249 215.395C260.643 216.631 268.046 217.898 275.3 219.528C277.185 219.954 279.061 220.412 280.894 220.909C282.208 221.252 283.349 221.595 283.737 221.891C283.935 222.035 283.957 222.074 284.028 222.211C284.093 222.349 284.167 222.643 284.179 223.054C284.223 224.801 283.427 227.339 282.535 229.662C282.448 229.887 282.358 230.117 282.263 230.353C280.635 234.382 278.592 238.45 276.498 242.359C275.713 243.819 274.929 245.233 274.128 246.639C273.472 247.791 272.803 248.938 272.102 250.115C267.99 256.944 263.551 263.828 258.36 269.524C254.393 273.858 248.843 276.144 242.879 276.419C229.173 276.879 215.527 270.354 202.463 264.211C195.129 260.87 188.383 256.711 179.541 254.74C173.202 253.705 166.936 252.036 161.266 249.346C157.95 247.753 154.749 245.759 152.587 243.27C145.758 235.893 146.653 225.008 151.009 215.684C156.044 203.752 165.349 194.196 170.348 180.478C170.697 179.191 171.056 177.938 171.442 176.665C174.318 167.405 178.014 157.978 184.33 151.376C185.1 150.609 185.952 150.013 186.9 149.59C190.048 148.114 194.221 148.775 198.085 150.038C208.257 153.511 217.702 160.011 228.047 164.565C229.282 165.107 230.524 165.648 231.767 166.187C230.513 165.628 229.277 165.074 228.064 164.528C219.082 160.398 211.596 155.598 204.159 152.182C196.974 148.823 188.598 146.312 184.112 151.156C183.678 151.594 183.258 152.053 182.848 152.532C181.477 154.137 180.257 155.916 179.152 157.761C175.076 164.661 172.389 172.353 170.203 180.439C164.864 195.734 152.245 206.827 147.945 224.492C146.346 231.57 148.036 238.45 152.427 243.406C159.345 250.619 170.23 253.397 179.491 255.046C214.603 268.874 243.224 287.108 258.807 269.943C264.357 263.866 268.411 257.439 271.883 251.879C277.062 243.386 280.876 236.143 283.377 229.987C284.471 227.214 285.329 224.466 285.145 222.575C285.019 221.65 284.796 221.311 284.092 220.87C283.38 220.448 282.29 220.154 281.187 219.834C275.824 218.292 271.254 217.274 266.813 216.277C260.35 214.837 251.492 213.195 242.093 211.568C227.001 208.957 210.434 206.815 200.155 205.434C194.094 204.634 189.297 203.482 189.385 202.934C189.519 202.397 194.468 202.664 200.523 203.463C210.6 204.819 226.72 206.878 242.411 209.569C254.085 211.584 265.551 213.68 274.129 215.82C276.473 216.406 278.91 217.035 281.724 217.862C283.534 218.435 286.642 218.988 287.099 221.958C287.488 224.662 286.471 227.542 285.255 230.712C282.743 236.884 278.854 244.376 273.086 253.745C269.686 259.128 265.789 265.273 260.268 271.313C243.073 289.856 213.164 270.351 179.167 257.022C169.668 255.273 158.686 252.728 150.903 244.707C146.095 239.348 144.224 231.442 146.026 223.881C150.66 205.503 163.335 194.263 168.267 179.909C170.291 172.414 172.756 165.193 176.471 158.393C177.543 156.454 178.728 154.555 180.092 152.753C180.101 152.742 180.109 152.73 180.118 152.719C180.912 151.675 181.766 150.665 182.698 149.727C188.401 143.859 197.646 146.974 204.901 150.312C212.511 153.802 220.065 158.648 228.895 162.703C234.469 165.213 240.381 167.813 246.654 170.547C259.408 176.114 273.111 181.905 286.894 187.996C301.028 194.062 315.01 201.305 327.422 209.867C336.032 215.883 331.971 227.149 329.116 234.24C325.915 241.931 321.804 248.766 318.958 255.454C310.091 276.434 300.824 291.765 296.749 298.878C294.514 302.691 292.298 306.373 289.924 310.198C286.348 315.945 282.369 322.158 277.081 329.714C274.424 333.492 271.444 337.614 267.829 342.162C266.041 344.403 264.062 346.796 261.846 349.179C260.722 350.379 259.578 351.554 258.179 352.768C257.549 353.312 256.753 353.952 255.929 354.462C255.693 354.609 255.459 354.742 255.224 354.861C255.106 354.92 254.989 354.976 254.87 355.028C254.746 355.084 254.566 355.156 254.41 355.209C254.084 355.319 253.774 355.399 253.385 355.432C252.917 355.471 252.388 355.414 251.89 355.178C244.821 351.89 236.197 349.344 226.498 346.009C216.733 342.687 205.372 338.398 193.41 332.746C190.079 331.229 186.791 329.658 183.547 328.039C169.605 321.249 154.563 318.21 141.485 314.452C135.531 312.794 129.768 311.099 124.202 309.201C116.797 306.673 109.71 303.988 102.899 300.861C99.4651 299.282 96.0575 297.564 92.7302 295.657C88.0841 292.999 83.5862 289.938 79.4708 286.474C75.9881 283.632 73.4276 279.173 72.8561 274.675C71.7947 266.042 75.125 258.455 78.7049 251.313C84.8301 239.255 94.3967 227.733 101.647 214.895C110.412 198.363 120.986 180.936 132.687 160.593C144.621 140.025 155.574 120.928 165.764 103.117C172.289 91.6022 180.205 79.9796 189.354 72.1307C194.918 65.9768 204.922 66.4581 210.265 68.812C204.401 66.1638 194.338 66.408 189.326 72.1015C178.118 81.8405 171.114 93.6315 165.575 103.01C164.409 105.019 163.299 106.931 162.236 108.758C160.767 111.285 159.188 113.999 157.812 116.36C147.767 133.596 140.476 146.009 132.69 159.44C119.624 182.137 109.014 199.314 100.828 214.455C86.8832 239.327 66.0188 253.109 73.2187 281.055C74.4672 283.594 76.3015 285.844 78.4413 287.654C83.7312 292.141 89.973 296.19 96.7796 299.682C105.025 303.922 114.068 307.47 123.657 310.726C135.249 314.683 147.701 317.59 160.212 321.156C167.751 323.337 175.509 325.783 182.831 329.427C196.957 336.55 212.591 342.821 229.041 348.075C229.051 348.079 229.061 348.082 229.071 348.086C234.026 349.704 239.056 351.262 243.973 353.008C246.525 353.918 249.071 354.896 251.499 356.005C281.172 336.89 291.195 307.863 307.075 281.641C308.739 278.488 310.683 274.704 312.815 270.288C314.883 265.995 317.126 261.128 319.379 255.631C321.939 249.487 325.834 242.892 329.1 235.24C330.707 231.403 332.268 227.279 332.804 222.668C333.444 218.196 332.101 212.427 327.611 209.595C315.922 201.537 302.19 194.17 287.069 187.604C279.233 184.087 271.093 180.539 262.745 176.863C252.199 172.216 241.301 167.381 229.313 161.786C227.556 160.964 225.792 160.059 224.01 159.103C219.826 156.861 215.555 154.33 210.963 151.833C206.952 149.68 202.696 147.44 197.75 145.914C193.036 144.42 186.103 143.71 181.431 148.447C173.763 156.345 169.544 167.296 166.077 179.309C164.192 185.37 159.677 191.514 155.54 198.12C151.481 204.56 147.075 211.506 144.412 219.887C141.582 228.033 142.207 239.072 148.921 246.4C156.951 254.799 167.954 257.623 178.743 259.612C185.225 260.996 192.123 264.874 198.954 268.089C215.464 275.502 234.484 286.956 254.543 278.773C257.426 277.369 260.006 275.42 262.179 273.105C273.279 260.273 281.172 246.442 287.586 231.612C288.557 228.969 289.614 226.397 289.621 222.865C289.666 221.175 288.701 218.53 286.819 217.383C285.059 216.231 283.567 215.996 282.333 215.625C268.975 212.092 255.754 210.183 242.662 207.989C226.947 205.446 211.312 203.528 195.792 201.376C195.782 201.375 195.772 201.374 195.761 201.372C189.729 200.539 185.117 199.33 185.446 198.819C185.714 198.309 190.776 198.667 196.793 199.492C212.064 201.6 227.473 203.501 242.977 206.009C256.098 208.211 269.293 210.106 282.859 213.692C284.068 214.071 285.689 214.266 287.952 215.73C290.408 217.202 291.71 220.819 291.624 222.799C291.599 226.989 290.451 229.572 289.455 232.334C282.857 247.553 275.084 261.219 263.64 274.475C261.21 277.067 258.257 279.262 254.972 280.787C233.553 288.999 214.717 277.284 198.16 269.929C191.365 266.711 184.206 262.8 178.419 261.588C167.387 259.504 156.241 256.874 147.398 247.7C140.033 239.743 139.53 227.322 142.652 218.808C145.571 209.966 150.181 202.857 154.327 196.295C158.297 190.017 162.561 183.976 164.142 178.779C167.676 166.612 171.833 155.497 180.017 147.018C186.028 141.014 194.557 142.627 199.633 144.405C205.121 146.306 209.667 148.826 213.959 151.182C218.791 153.87 223.185 156.457 227.41 158.61C228.333 159.08 229.251 159.532 230.149 159.952C242.916 165.909 253.889 170.768 264.595 175.487C272.586 179.005 280.375 182.404 287.887 185.776C303.075 192.371 316.973 199.826 328.751 207.947C333.967 211.196 335.535 218.16 334.796 222.914C334.205 227.896 332.575 232.129 330.935 236.055C327.604 243.849 323.689 250.495 321.235 256.409C319.365 260.977 317.493 265.123 315.717 268.883C313.561 273.444 311.544 277.43 309.8 280.776C302.6 294.548 294.619 308.098 286.004 321.315C281.696 327.902 277.206 334.439 272.461 340.727C270.067 343.888 267.591 347.021 264.906 350.051C263.549 351.574 262.139 353.083 260.531 354.549C260.102 354.937 259.7 355.285 259.262 355.641C258.761 356.046 258.264 356.417 257.754 356.755C257.097 357.178 256.562 357.512 255.583 357.896C255.06 358.093 254.478 358.262 253.787 358.339C252.93 358.438 251.75 358.365 250.633 357.834C249.195 357.178 247.711 356.568 246.193 355.985C241.501 354.19 236.556 352.637 231.626 351.04C231.616 351.037 231.606 351.034 231.596 351.031C214.122 345.547 197.091 338.91 181.905 331.223C175.535 328.048 168.714 325.776 161.984 323.772C148.411 319.802 135.237 316.836 122.971 312.645C115.588 310.143 108.52 307.468 101.719 304.355C92.9283 300.335 84.4747 295.456 77.1023 289.189C76.1806 288.401 75.3582 287.597 74.5489 286.67C68.9618 280.582 68.2745 271.41 69.7733 265.062C71.2021 258.426 73.8928 252.891 76.9484 247.382C82.8921 236.536 91.9207 225.746 99.0633 213.506C107.418 198.07 117.995 180.957 130.889 158.555ZM216.791 212.234C226.179 213.64 234.41 214.883 241.385 216.025C245.225 216.653 248.679 217.214 251.772 217.719C248.316 217.121 244.867 216.539 241.395 215.959C237.449 215.3 233.483 214.679 229.506 214.081C225.274 213.445 221.037 212.835 216.791 212.234ZM192.638 330.163C194.794 331.16 196.994 332.146 199.183 333.095C194.257 330.893 189.379 328.547 184.559 326.075C183.466 325.514 182.356 324.978 181.236 324.465C173.804 321.071 165.983 318.652 158.167 316.399C167.437 319.093 176.48 321.989 184.53 326.133C187.28 327.551 189.945 328.874 192.638 330.163ZM134.472 161.507C122.598 182.147 112.1 199.47 103.433 215.855C97.2047 227.056 89.1797 236.948 83.2466 247.314C79.2283 254.367 75.3998 261.654 74.717 270.016C74.4829 273.444 75.0595 277.134 76.8703 280.262C71.9346 270.352 76.9415 260.599 80.6055 253.25C84.6563 245.695 89.2427 239.276 93.3041 233.504C97.575 227.444 101.691 221.906 104.66 216.515C119.39 190.511 129.595 174.312 138.306 159.308C141.422 154.018 144.333 149.06 147.36 143.879C149.768 139.561 152.297 135.026 154.777 130.58C158.341 124.196 162.113 117.434 165.771 110.88C166.839 108.965 167.936 107 169.057 104.992C171.665 100.325 174.392 95.7356 177.379 91.3093C181.432 85.1555 186.541 79.3844 191.775 74.5763C191.946 74.4049 192.12 74.2387 192.296 74.0778C198.549 67.9933 207.9 70.8816 213.705 73.9088C214.071 74.0917 214.408 74.2642 214.762 74.4501C221.25 77.9057 226.91 82.0432 232.101 85.7769C237.368 89.6085 241.684 92.8243 245.568 95.6068C250.422 99.093 255.399 102.591 260.421 105.915C263.113 107.696 265.8 109.418 268.534 111.1C270.878 112.541 273.298 114.008 275.706 115.454C280.864 118.552 286.009 121.587 291.177 124.62C292.833 125.592 294.609 126.633 296.251 127.593C297.014 128.04 297.782 128.488 298.553 128.939C288.892 123.145 278.864 117.132 268.763 110.738C268.343 110.472 267.925 110.205 267.507 109.936C252.23 100.361 237.806 87.6634 219.401 75.6662C215.588 73.361 211.54 71.0586 206.558 69.7511C201.785 68.2896 194.74 69.2206 190.763 73.5543C181.659 81.3835 174.051 92.5846 167.504 104.107C157.406 121.758 146.512 140.757 134.472 161.507ZM407.299 242.229C409.829 239.206 413.299 235.113 417.65 230.002C418.847 228.573 420.635 226.671 421.559 223.803C422.585 220.756 421.955 217.262 420.732 214.618C420.76 214.682 420.789 214.748 420.816 214.813C421.859 217.237 422.478 220.322 421.64 223.281C420.834 226.23 418.93 228.325 417.55 229.916C416.461 231.173 415.364 232.439 414.245 233.733C407.003 242.104 400.058 250.264 393.394 258.768C388.719 264.728 384.223 270.799 379.919 277.012C378.011 279.769 376.006 282.432 374.017 285.047C367.346 293.705 360.991 302.425 354.983 311.452C348.947 320.487 343.225 329.611 337.569 338.932C335.787 341.87 334 344.85 332.21 347.863C336.201 341.264 340.468 334.308 344.987 327.185C348.637 321.436 352.476 315.529 356.671 309.379C358.283 307.018 360.237 304.203 362.576 300.945C367.002 294.622 373.161 287.137 380.248 277.238C387.387 266.919 396.392 255.194 407.299 242.229ZM295.765 426.373C294.775 428.704 293.78 431.03 292.792 433.31C291.194 436.999 289.592 440.63 287.965 444.203C286.67 447.036 285.246 449.741 283.694 452.368C281.509 455.975 279.287 459.473 275.873 462.652C275.249 463.211 274.57 463.748 273.817 464.233C271.757 465.62 268.738 466.494 266.012 465.998C264.228 465.711 262.688 465.026 261.376 464.28C259.601 463.271 257.866 462.169 256.217 461.038C257.871 462.184 259.603 463.292 261.363 464.303C263.352 465.463 266.084 466.476 268.977 466.105C271.864 465.755 274.187 464.253 275.922 462.706C281.728 457.057 284.911 450.837 288.104 444.267C292.068 435.649 295.832 426.884 299.636 418.003C299.754 417.727 299.872 417.449 299.992 417.171C298.554 420.311 297.151 423.371 295.765 426.373Z" fill="#FF8A55" fill-opacity="0.25"/>
</svg>
