<svg width="89" height="102" viewBox="0 0 89 102" fill="none" xmlns="http://www.w3.org/2000/svg">
<path opacity="0.5" d="M56.6291 37.9637C59.1367 39.4231 61.4768 40.8417 64.3647 42.6282C64.4455 42.6782 64.5264 42.7283 64.6075 42.7786C64.6091 42.7796 64.6108 42.7806 64.6124 42.7816C65.0484 43.052 65.4806 43.3219 65.9455 43.6133C69.6139 45.9477 74.4306 48.9051 81.3343 54.0423C83.2912 55.5214 85.1076 56.9908 86.7473 58.5115C87.2218 58.9617 87.8417 59.6359 87.9938 60.7993C88.1281 61.978 87.5815 62.8829 87.2045 63.3589C86.3679 64.3626 85.6627 64.7445 84.9757 65.1776C83.6321 65.9674 82.3986 66.5057 81.2608 67.005C78.983 67.9849 77.0635 68.737 75.5278 69.3751C74.759 69.6975 73.9568 70.0273 72.0317 70.9834C71.0235 71.4939 69.7265 72.1597 68.1234 73.1838C67.7169 73.4455 67.2865 73.7249 66.8296 74.0241C65.5829 74.84 64.1405 75.8059 62.4476 76.9497C60.5065 78.2549 58.1986 79.8544 55.5556 81.5177C50.3744 84.6653 44.1353 87.2895 38.1493 89.6984C37.9486 89.778 37.7487 89.8571 37.5496 89.9355C32.3128 92.0278 27.3159 94.1638 23.3597 95.5307C23.0002 95.6567 22.6402 95.7807 22.2804 95.9021C17.4817 97.5413 12.7302 98.9384 8.13728 101.024C7.19496 101.428 6.30219 101.793 4.88285 101.696C4.55025 101.658 4.16302 101.582 3.72682 101.344C-0.213379 98.716 0.645315 94.4694 0.892221 91.3585C1.28803 88.0757 2.28489 84.6509 2.6036 81.4186C2.6118 81.2876 2.61645 81.1666 2.6177 81.0572C2.70687 75.4451 2.97508 70.1056 2.81052 64.6456C2.80421 64.413 2.79733 64.1809 2.78965 63.9458C2.77307 63.4486 2.76414 62.9511 2.76166 62.4542C2.73489 57.9824 3.24651 53.5126 3.44628 48.8076C3.47143 48.1609 3.48311 47.5058 3.48466 46.8429C3.47224 41.9463 3.08127 37.4919 3.06007 33.1523C3.03213 28.9343 2.75856 24.8535 2.61844 20.524C2.59487 19.7593 2.57674 18.9864 2.56773 18.2041C2.53202 15.4908 2.65115 12.6817 2.78085 9.72721C2.83982 8.31137 2.9021 6.75811 2.90446 5.10287C2.99184 4.25047 2.51032 3.29114 3.49016 1.78702C4.41669 0.56593 6.27035 0.364438 7.47932 0.649591C8.75715 0.8979 9.89724 1.3535 11.0417 1.79904C13.3149 2.70775 15.5881 3.65123 17.9606 4.28991C18.4654 4.42706 18.9674 4.56882 19.4723 4.72178C20.1993 4.94168 20.9237 5.18372 21.6365 5.44777C21.6401 5.44908 21.6437 5.45039 21.6472 5.45171C29.2267 8.48016 35.9053 12.5096 41.0228 15.2124C45.5977 17.7095 48.5446 19.3242 50.7212 20.5037C52.3381 21.3609 53.5113 21.9462 54.6094 22.4694C55.571 22.9285 56.4685 23.3263 57.5603 23.8335C58.2909 24.1735 59.0937 24.5645 59.9379 25.0015C63.6056 26.9132 68.1631 29.5638 72.7862 32.2333C72.8079 32.2458 72.8296 32.2583 72.8513 32.2708C73.7937 32.8161 74.4832 33.3773 74.3927 33.5246C74.3014 33.6715 73.4646 33.3489 72.5222 32.8036C69.5145 31.0636 66.5803 29.3694 63.9282 27.8828C63.7199 27.9363 62.9505 27.6323 62.0931 27.1574C61.5399 26.8521 60.6781 26.3825 59.5241 25.7927C57.4133 24.679 54.2037 23.4086 50.2754 21.3056C48.0299 20.1024 45.5225 18.7626 42.7393 17.2857C43.4177 17.6902 44.0326 18.0595 44.5143 18.3541C45.0985 18.7102 45.5616 18.9952 45.9587 19.2395C46.7437 19.7254 47.31 20.073 48.2752 20.6331C48.7979 20.9296 49.4023 21.2703 50.0831 21.6528C52.2431 22.8696 55.1319 24.2641 58.0779 25.6802C58.5414 25.9121 58.9388 26.1537 59.2257 26.3629C59.5353 26.5899 59.7079 26.775 59.6634 26.8536C59.6188 26.9312 59.3709 26.8897 59.0144 26.7669C58.6766 26.6498 58.247 26.4642 57.7819 26.2316C57.7631 26.2223 57.7443 26.2129 57.7256 26.2036C54.9206 24.8578 51.9911 23.4451 49.7871 22.2045C49.0026 21.764 48.3148 21.3764 47.7253 21.0418C47.1165 20.6967 46.5902 20.3961 46.2083 20.1764C45.9006 19.9994 45.5276 19.7841 45.3039 19.6489C45.2752 19.6314 45.2204 19.5981 45.1559 19.5576C45.1548 19.5569 45.1537 19.5562 45.1527 19.5555C45.1165 19.5329 44.9322 19.4176 44.7442 19.2847C44.7063 19.2579 44.6239 19.1993 44.5314 19.1271C44.5059 19.1114 44.4805 19.0957 44.4551 19.08C44.0977 18.8601 43.7554 18.6481 43.3432 18.3984C41.8197 17.4752 39.3357 15.9778 34.1626 13.0766C30.4935 11.1775 25.1333 7.61002 17.6282 5.51671C15.1784 4.86057 12.6914 3.81632 10.1063 2.79379C10.824 3.08512 11.5437 3.39275 12.2673 3.69381C13.9956 4.41565 15.7653 5.10123 17.5995 5.62272C17.6954 5.65007 17.7905 5.67743 17.8851 5.70485C18.6065 5.91384 19.3108 6.13186 20.0203 6.37735C21.1595 6.77047 22.2811 7.22832 23.3919 7.72817C24.1478 8.06808 24.8808 8.41753 25.6234 8.78308C25.625 8.78389 25.6267 8.78468 25.6284 8.78548C26.6559 9.29178 27.6776 9.81777 28.712 10.3621C29.0575 10.5445 29.4276 10.7408 29.7757 10.9268C31.1727 11.6734 32.5559 12.4284 34.1132 13.3067C34.3132 13.4212 34.5018 13.5318 34.6558 13.6223C34.8182 13.7178 34.9763 13.8112 35.127 13.9008C35.26 13.9799 35.3879 14.0565 35.5115 14.1303C35.5281 14.1402 35.5447 14.1501 35.5613 14.16C35.693 14.239 35.8175 14.3135 35.9395 14.3864C36.0611 14.459 36.1791 14.5296 36.2966 14.599C36.2977 14.5996 36.2988 14.6002 36.2999 14.6008C36.4228 14.6732 36.5167 14.7286 36.6493 14.8056C36.8142 14.9014 36.9672 14.9894 37.1293 15.0824C37.2907 15.1748 37.4611 15.2718 37.6353 15.3703C37.8095 15.4688 37.9889 15.5698 38.1732 15.6732C38.3577 15.7768 38.5484 15.8836 38.7265 15.9834C38.9081 16.085 39.0943 16.1889 39.2834 16.2945C39.4726 16.4001 39.6658 16.5081 39.8621 16.6177C40.32 16.8733 40.7025 17.1228 40.9929 17.3495C41.2781 17.5733 41.4192 17.7398 41.3781 17.8092C41.3373 17.8787 41.117 17.8459 40.7727 17.723C40.4228 17.597 40.0076 17.4075 39.5447 17.1571C39.4208 17.0901 39.2971 17.0234 39.1738 16.9568C39.1006 16.9172 39.027 16.8773 38.954 16.8379C38.7577 16.7318 38.5614 16.6259 38.3663 16.5203C38.1776 16.4182 37.961 16.3006 37.757 16.1898C37.5502 16.0774 37.3431 15.9647 37.1361 15.8515C36.9264 15.7367 36.7321 15.6299 36.5032 15.5035C36.2868 15.3839 36.0441 15.2488 35.8307 15.1289C35.6745 15.0412 35.4849 14.9334 35.3288 14.8443C35.1679 14.7525 34.9904 14.6511 34.8318 14.5599C34.6707 14.4673 34.517 14.3785 34.3718 14.2946C34.3562 14.2857 34.3407 14.2767 34.3252 14.2678C34.197 14.1938 34.0745 14.1231 33.9595 14.057C33.8304 13.9828 33.6962 13.9066 33.5761 13.8387C33.4426 13.7632 33.3619 13.7184 33.2633 13.6639C31.9583 12.954 30.332 12.0942 28.7762 11.2971C28.5786 11.1959 28.3979 11.1036 28.199 11.0024C27.1812 10.4855 26.1491 9.97342 25.1265 9.4892C24.3775 9.13463 23.6346 8.79533 22.8849 8.4734C21.7746 7.99639 20.6703 7.56997 19.5386 7.20403C18.8365 6.97626 18.1366 6.77414 17.4098 6.57686C17.3885 6.57106 17.3671 6.56527 17.3457 6.55946C15.3452 6.02023 13.4199 5.29029 11.5643 4.54018C9.72358 3.81519 7.75139 2.91171 6.32698 2.86259C5.77851 2.86877 5.55373 2.95838 5.2535 3.28305C5.3222 3.15362 5.1984 3.3829 5.19398 3.75837C5.1749 4.13049 5.1936 4.59899 5.18731 5.10926C5.18309 5.41785 5.17655 5.7244 5.16805 6.02903C5.12577 7.54246 5.02278 9.0781 4.92255 10.4864C4.86853 11.2439 4.81446 11.9823 4.76454 12.7082C4.76432 12.7107 4.76411 12.7132 4.76391 12.7157C4.72007 13.3527 4.67952 13.9805 4.64459 14.6034C4.57635 15.816 4.52979 17.0062 4.51232 18.1948C4.51054 18.3153 4.50903 18.4359 4.50776 18.5566C4.49395 19.8663 4.50917 21.1748 4.53886 22.4969C4.5684 23.8093 4.61231 25.1466 4.65569 26.4741C4.69927 27.8082 4.7421 29.121 4.77457 30.5031C4.79533 31.3824 4.81091 32.2581 4.81896 33.1406C4.82743 34.065 4.85153 34.9944 4.88637 35.9389C4.95327 37.7538 5.06074 39.5892 5.16242 41.4387C5.19788 42.0852 5.23228 42.7342 5.26363 43.3856C5.26374 43.3881 5.26384 43.3906 5.26396 43.3931C5.32178 44.5979 5.36881 45.811 5.38456 47.0325C5.39227 47.6364 5.39223 48.2426 5.38108 48.8513C5.35744 50.1322 5.3052 51.4074 5.24913 52.6798C5.16622 54.5512 5.07396 56.422 5.02818 58.2936C4.9837 60.1096 4.98094 61.9653 5.07857 63.8131C5.08167 63.8716 5.08472 63.93 5.08772 63.9883C5.1784 65.741 5.2302 67.5092 5.25047 69.2359C5.25588 69.6914 5.25925 70.1491 5.26069 70.603C5.26806 72.7662 5.23331 74.8571 5.19826 76.9163C5.17493 78.3052 5.1508 79.6922 5.14722 81.0741C5.14147 81.8351 5.05161 82.5342 4.95172 83.2277C4.63302 85.3282 4.18162 87.3695 3.85209 89.4218C3.52481 91.4755 3.26608 93.5187 3.43519 95.4579C3.56748 96.9987 4.08861 98.3651 5.10423 98.8549C5.02302 98.8255 5.29364 98.8858 5.57078 98.8315C5.97376 98.7707 6.46249 98.6065 6.90424 98.3897C7.4861 98.1074 8.07347 97.8388 8.64636 97.5882C9.78547 97.0899 10.9264 96.6348 12.0547 96.206C12.5124 96.032 12.9696 95.862 13.4219 95.6962C14.0827 95.454 14.738 95.2191 15.3825 94.9903C16.469 94.6048 17.5311 94.2342 18.5563 93.8734C19.4892 93.5453 20.391 93.2254 21.2654 92.9083C21.3528 92.8766 21.44 92.8447 21.527 92.8128C22.5023 92.4536 23.3013 92.1406 24.2534 91.7507C26.5764 90.8118 28.0145 90.2061 29.6169 89.5352C29.9325 89.4025 30.2548 89.2664 30.5909 89.124C32.488 88.3245 34.3895 87.5165 36.2995 86.7508C36.3254 86.7404 36.3513 86.7301 36.3772 86.7197C38.2947 85.9507 40.1738 85.1723 42.0631 84.3586C43.9334 83.5526 45.8049 82.716 47.6382 81.8438C49.4679 80.9709 51.2743 80.065 52.9787 79.072C53.2361 78.9215 53.4888 78.7697 53.7341 78.6177C55.1983 77.7087 56.6667 76.7401 58.0886 75.7935C59.055 75.1498 60.0836 74.4611 61.0438 73.8225C61.7368 73.3615 62.4213 72.9083 63.0956 72.4656C63.3713 72.2845 63.6456 72.105 63.9169 71.9281C64.7306 71.3974 65.5264 70.8843 66.3049 70.3885C66.428 70.31 66.5513 70.2325 66.6746 70.1559C67.6046 69.5789 68.518 69.0656 69.4159 68.5856C70.3164 68.1048 71.2017 67.6582 72.0894 67.2234C73.0094 66.7734 73.7738 66.4105 74.7499 65.9515C75.3824 65.6542 76.0056 65.3654 76.6243 65.0794C77.5497 64.6514 78.4623 64.2312 79.3642 63.801C80.2634 63.3712 81.1403 62.939 81.9662 62.4795C82.24 62.3271 82.5007 62.1749 82.7527 62.0181C83.1269 61.7849 83.4875 61.5346 83.7519 61.305C84.0171 61.0943 84.1774 60.8064 84.088 60.9515C84.0375 61.0332 84.0305 61.3446 84.0893 61.4636C84.1385 61.5868 84.1393 61.5537 84.0487 61.4834C83.7416 61.2172 83.4269 60.9529 83.105 60.6891C82.3777 60.0936 81.6284 59.5123 80.8625 58.9403C79.5525 57.9624 78.2817 57.0451 77.1499 56.2457C76.0142 55.4437 74.9351 54.7009 73.8787 53.9893C73.678 53.8541 73.4819 53.7226 73.2844 53.5907C72.4274 53.0184 71.5822 52.4642 70.7444 51.9245C69.7119 51.2593 68.682 50.6104 67.6561 49.9764C66.6383 49.3473 65.5862 48.7095 64.566 48.1029C63.7032 47.5898 62.8758 47.1051 61.9915 46.5942C61.8158 46.4928 61.6351 46.3887 61.4489 46.2816C60.3774 45.6653 59.2838 45.0474 58.0827 44.3726C56.8926 43.704 55.6416 43.0045 54.3749 42.2956C53.1095 41.5874 51.8238 40.8673 50.5488 40.1518C49.2722 39.4354 47.991 38.7153 46.7279 38.0052C45.4581 37.2913 44.1961 36.5816 42.9418 35.8777C41.6892 35.1748 40.3943 34.4498 39.1824 33.7745C37.2252 32.684 35.2633 31.6027 33.3024 30.5536C32.4779 30.1128 31.6591 29.6808 30.8435 29.2611C29.6998 28.6734 28.5801 28.1165 27.4454 27.6011C26.6446 27.2386 25.8133 26.8867 25.0886 26.6508C24.7403 26.5335 24.3585 26.4529 24.3154 26.455C24.3067 26.4241 24.4461 26.575 25.145 26.1616C25.4794 25.9481 25.7673 25.5162 25.8444 25.2701C25.9332 25.0157 25.9226 24.9249 25.9246 24.9322C25.9075 25.1706 25.9049 25.4614 25.9123 25.7672C25.9865 27.7639 26.24 30.1436 26.3156 32.4195C26.3355 32.9264 26.3508 33.4344 26.3613 33.9445C26.3714 34.4399 26.3771 34.9332 26.3782 35.4315C26.3808 36.7009 26.3727 37.9643 26.3626 39.2194C26.3624 39.2314 26.3623 39.2433 26.3621 39.2553C26.3439 41.4879 26.3187 43.6695 26.3182 45.8618C26.3182 46.6665 26.3213 47.438 26.3297 48.2199C26.3383 49.0025 26.3518 49.7684 26.3733 50.5374C26.3948 51.3077 26.4243 52.0712 26.4649 52.8155C26.4692 52.894 26.4736 52.9717 26.4781 53.0489C26.5175 53.7259 26.5631 54.3939 26.6137 55.0694C26.6655 55.76 26.722 56.4476 26.7861 57.2016C26.7919 57.2705 26.7978 57.339 26.8036 57.4078C26.8742 58.233 26.9555 59.1741 27.0274 60.052C27.2168 62.3778 27.4041 64.6589 27.5437 67.0064C27.5467 67.0569 27.5496 67.1073 27.5526 67.1578C27.649 69.8796 27.257 72.0617 27.0802 74.283C27.0041 75.1514 26.9447 76.0187 26.9571 76.7693C26.957 77.2765 27.0463 77.8173 27.073 77.8418C27.0716 77.8403 27.0568 77.7868 26.9668 77.669C26.881 77.5542 26.6821 77.3677 26.4304 77.2603C26.1758 77.1471 25.9343 77.1346 25.8204 77.1424C25.6937 77.151 25.664 77.1678 25.6715 77.1638C25.8032 77.1185 25.9399 77.0711 26.0714 77.025C28.2135 76.2737 30.2967 75.4177 32.2526 74.3807C33.7223 73.6005 35.1188 72.7159 36.3435 71.7059C36.8184 71.3137 37.2963 70.9373 37.7727 70.5723C39.7228 69.0838 41.6414 67.7536 43.3738 66.3252C44.2382 65.6164 45.0648 64.8847 45.8539 64.1179C46.8406 63.16 47.8148 62.1158 48.8517 61.0522C50.7106 59.1269 52.8298 57.2068 55.158 55.6702C55.2277 55.6237 55.2979 55.5772 55.3686 55.5309C55.7135 55.3248 55.8918 55.0993 55.75 55.2974C55.6837 55.3962 55.5952 55.7016 55.6276 55.9157C55.6537 56.1311 55.7134 56.1959 55.7014 56.1762C55.6433 56.0193 54.9516 55.409 54.2849 54.9889C53.7296 54.626 53.1807 54.2685 52.6263 53.909C50.4409 52.4918 48.251 51.0923 46.0437 49.7206C44.7244 48.9012 43.4022 48.0935 42.0688 47.3045C41.3577 46.9109 40.6638 46.5344 40.0044 46.1857C38.9093 45.6073 37.8891 45.0911 36.9109 44.6479C36.4265 44.4294 35.9579 44.2323 35.5388 44.0872C35.3248 44.0128 35.1323 43.9587 35.0276 43.9409C34.9848 43.9319 34.953 43.94 35.0788 43.9449C35.1651 43.9405 35.2328 43.958 35.5286 43.8716C35.6698 43.8242 35.8157 43.7675 36.0252 43.6203C36.2334 43.4733 36.443 43.2465 36.5791 42.9957C36.8407 42.4255 36.7143 42.468 36.7498 42.5553C36.7596 42.6566 36.7903 42.8515 36.8304 43.0671C36.9103 43.5069 37.0254 44.0443 37.0885 44.6846C37.2468 46.2585 37.5233 47.8787 37.884 49.6884C37.9855 50.184 38.0757 50.5887 38.1866 51.0841C38.2077 51.1786 38.2301 51.2791 38.2531 51.3817C38.398 52.0319 38.5677 52.7821 38.7783 53.8517C38.9531 54.7486 39.1568 55.8618 39.3198 57.2036C39.528 58.9242 39.7821 61.0006 40.1271 63.3551C40.2785 64.3801 40.2541 65.0484 40.0429 64.8671C39.8947 64.7359 39.6985 64.2186 39.5463 63.5574C39.7556 64.7871 39.9853 66.0139 40.2795 67.1592C40.3971 67.6151 40.492 68.0254 40.534 68.2921C40.5763 68.5597 40.5474 68.6535 40.4696 68.6824C40.3959 68.714 40.253 68.6207 40.0835 68.3271C39.9146 68.0373 39.7448 67.5887 39.6207 67.1181C39.2905 65.8588 39.0356 64.553 38.8009 63.2443C38.5682 61.9353 38.3631 60.6221 38.1759 59.3028C38.0852 58.6631 37.9992 58.0228 37.9177 57.3818C37.8286 56.6808 37.7218 55.9845 37.6039 55.2919C37.3759 53.9523 37.1071 52.6285 36.846 51.3121C36.5832 49.9872 36.3334 48.6961 36.1324 47.3849C36.0119 46.5992 35.9094 45.8044 35.8355 45.0247C35.8281 44.9474 35.8211 44.8707 35.8143 44.7942C35.7927 44.5496 35.7608 44.3177 35.7257 44.0934C35.6866 43.8436 35.6428 43.6019 35.6017 43.3638C35.5588 43.1152 35.5198 42.8748 35.5034 42.6722C35.4772 42.4779 35.5302 42.2849 35.4901 42.3984C35.3963 42.577 35.2163 42.6732 35.1529 42.6905C35.0731 42.7153 35.0695 42.7071 35.075 42.7084C35.0924 42.7065 35.1864 42.7161 35.2698 42.7341C35.4624 42.7741 35.6776 42.8417 35.9049 42.9229C36.3543 43.0847 36.813 43.2849 37.2786 43.5006C38.1935 43.9264 39.1176 44.4077 40.0244 44.8968C42.2973 46.1278 44.544 47.4524 46.7734 48.7959C49.0045 50.1427 51.2209 51.5187 53.4256 52.9083C53.9481 53.2377 54.4624 53.5631 54.9849 53.8949C55.7254 54.3665 56.4877 54.9277 56.8384 55.4758C57.003 55.7706 56.9972 55.818 56.9169 55.9837C56.8175 56.1682 56.4998 56.4281 56.131 56.6715C56.0267 56.7417 55.9236 56.8121 55.8216 56.8825C53.616 58.3926 51.6398 60.2403 49.8409 62.153C48.8569 63.1899 47.9115 64.2276 46.9296 65.2064C46.5169 65.6181 46.0945 66.0202 45.6627 66.4136C45.0976 66.9453 44.5223 67.4546 43.9415 67.9458C42.2531 69.3784 40.4503 70.7116 38.7206 72.1241C41.8626 69.6986 44.3905 67.8555 46.4951 65.7628C46.6629 65.5984 46.8266 65.4351 46.9908 65.2683C47.105 65.1522 47.2178 65.0364 47.3307 64.9194C49.8648 62.2892 52.1896 59.3383 56.1516 56.7024C56.5096 56.4671 56.8349 56.2121 56.9511 56.0118C57.0329 55.8585 57.0376 55.8178 56.9735 55.6275C56.9045 55.4478 56.7305 55.2143 56.5239 55.0036C56.1021 54.5738 55.5669 54.1908 55.0211 53.8384C45.6006 47.7283 38.1968 43.5817 35.3027 42.2956C35.3051 42.2692 35.268 42.4216 35.2778 42.582C35.2827 42.7467 35.3057 42.9348 35.3332 43.123C35.4162 43.6787 35.529 44.2477 35.5721 44.815C35.9566 49.0132 36.4681 51.0456 36.7069 52.9835C36.8696 54.1606 37.1243 55.7567 37.2992 57.4604C37.5727 60.1747 38.014 63.1129 38.3824 64.9184C38.594 65.9815 38.6699 66.865 38.5011 66.9011C38.3327 66.9417 37.979 66.1 37.7652 65.0241C37.4013 63.2335 36.9623 60.3642 36.6717 57.5401C36.4555 55.4594 36.0996 53.4148 35.8815 51.8579C35.7089 50.432 35.3116 48.8431 34.9477 44.8686C34.9069 44.3048 34.7799 43.7036 34.6906 43.0478C34.6542 42.7074 34.5927 42.3198 34.7537 41.9945C39.3065 42.692 45.5775 47.2292 55.3585 53.3111C55.9309 53.6818 56.4964 54.0806 56.9832 54.5781C57.4551 55.0498 57.8891 55.7739 57.4692 56.3639C57.2343 56.7222 56.8601 56.9795 56.4994 57.2228C52.7651 59.7085 50.5347 62.458 48.0156 65.1125C47.8237 65.3138 47.6299 65.5146 47.4325 65.7152C47.3483 65.8007 47.264 65.8855 47.1795 65.9697C47.1777 65.9715 47.1759 65.9732 47.1741 65.9749C44.7733 68.4391 41.6682 70.5443 37.9095 73.59C37.609 73.8425 37.2951 74.0912 36.9687 74.3356C34.0053 76.5558 30.257 78.2435 26.488 79.5522C26.1778 79.6584 25.8342 79.7221 25.4882 79.6043C25.14 79.4867 24.9043 79.1848 24.7698 78.892C24.505 78.2995 24.4579 77.6791 24.4257 77.0844C24.3795 75.887 24.4798 74.7224 24.5771 73.5938C24.7739 71.3401 25.066 69.1933 24.9631 67.3079C24.699 63.4253 24.3812 60.3947 24.248 58.9773C24.1706 58.1943 24.0946 57.436 24.0177 56.6367C23.92 55.6155 23.818 54.5227 23.7217 53.2087C23.5275 50.5652 23.438 47.0341 23.4411 41.4397C23.4389 39.6917 23.4485 37.6606 23.4322 35.4511C23.4314 35.3422 23.4303 35.2337 23.429 35.1258C23.3447 31.6165 22.82 28.3447 22.7094 25.231C22.7092 25.0648 22.7125 24.8937 22.7207 24.725C22.7335 24.5332 22.7484 24.2809 22.905 23.9732C23.0557 23.6601 23.4085 23.4013 23.678 23.3187C24.2331 23.1479 24.5812 23.2179 24.9285 23.2564C25.5981 23.3583 26.1645 23.5369 26.7239 23.7204C27.8305 24.0931 28.8582 24.5186 29.8604 24.9474C30.4802 25.2141 31.0792 25.4802 31.6985 25.7632C31.9438 25.8749 32.1923 25.9892 32.4499 26.1095C33.6547 26.67 34.8498 27.2486 36.0103 27.8279C37.1262 28.3852 38.2961 28.9723 39.522 29.5944C43.9958 31.8674 49.3243 34.65 56.0918 38.5831C58.8882 40.2101 61.5238 41.7668 63.9912 43.2525C67.8786 45.5942 71.3439 47.8037 74.4638 49.9112C70.7187 47.3688 67.7688 45.4985 65.3087 43.9558C64.8713 43.6822 64.4552 43.4233 64.042 43.1675C64.0177 43.1525 63.9934 43.1374 63.9691 43.1224C60.9442 41.2524 58.7285 39.9098 56.3354 38.5166C44.8816 31.8814 40.497 29.544 35.4678 27.018C34.5972 26.5851 33.6706 26.1344 32.6756 25.6666C32.1378 25.4135 31.6047 25.168 31.0415 24.9151C29.9322 24.4193 28.7685 23.9145 27.4833 23.4469C26.8354 23.2162 26.1768 22.9891 25.3785 22.8241C24.9702 22.7544 24.5635 22.651 23.8605 22.7578C23.5238 22.8125 22.9481 23.0224 22.5969 23.5312C22.2582 24.0295 22.2502 24.4435 22.2308 24.6933C22.1892 26.1973 22.3827 27.5015 22.5029 28.871C22.7074 30.9548 22.8821 33.1441 22.9467 35.4543C23.0069 37.5495 23.0424 39.7352 23.0853 41.9846C23.0853 41.9865 23.0853 41.9884 23.0853 41.9902C23.1029 42.9177 23.1216 43.8566 23.1438 44.8043C23.2106 47.5533 23.2919 50.3756 23.5108 53.2209C23.759 56.3448 24.1099 59.4659 24.4009 62.5438C24.4605 63.1718 24.5325 63.9235 24.6099 64.7869C24.6778 65.5449 24.75 66.3907 24.8182 67.3163C24.9294 68.9765 24.6997 70.982 24.5011 73.2179C24.4043 74.3413 24.2947 75.5213 24.3128 76.7847C24.3313 77.4175 24.3587 78.0757 24.5972 78.7517C24.7194 79.0783 24.9286 79.4607 25.3342 79.6568C25.7408 79.8501 26.1705 79.7775 26.5238 79.6569C29.0766 78.7757 31.7946 77.7057 34.4799 76.1955C35.6891 75.5112 36.894 74.7407 38.0767 73.7912C38.8987 73.1301 39.7842 72.478 40.7291 71.7976C41.4196 71.3001 42.1414 70.7872 42.8903 70.2381C44.4298 69.1086 46.1132 67.8078 47.8485 66.1362C49.7583 64.3124 51.6514 62.0663 54.1896 59.9426C55.0332 59.2371 55.951 58.5457 56.9448 57.8892C57.3277 57.6267 57.7787 57.3523 58.1531 56.7915C58.5754 56.2286 58.4806 55.2531 58.1461 54.765C57.4953 53.7301 56.6435 53.195 55.7976 52.6247C53.2578 50.9878 50.5794 49.289 47.8136 47.5937C44.9709 45.8595 42.067 44.1095 39.0695 42.5621C38.405 42.2236 37.7387 41.8981 37.0444 41.6059C36.6884 41.4578 36.3433 41.3223 35.9433 41.2052C35.7555 41.1522 35.5512 41.0969 35.28 41.0679C35.1626 41.0563 34.9913 41.0472 34.8089 41.0786C34.7065 41.0959 34.5688 41.1336 34.4393 41.2055C34.3032 41.2769 34.1323 41.4279 34.04 41.6031C33.6371 42.6028 33.9087 43.0293 33.9464 43.5537C34.0281 44.0506 34.1127 44.5078 34.1471 44.9375C34.513 49.4032 35.6887 53.531 36.1757 57.6032C36.5233 60.4246 36.9269 63.209 37.5092 65.9937C37.5096 65.9956 37.51 65.9975 37.5105 65.9994C37.7374 67.0816 37.8418 67.9761 37.6664 67.9883C37.4865 67.9931 37.096 67.0927 36.8695 65.9962C36.2958 63.2198 35.8977 60.4707 35.5543 57.6821C35.0773 53.6703 33.8977 49.5327 33.5234 44.9911C33.493 44.6047 33.4129 44.1651 33.3289 43.6567C33.2879 43.3997 33.2436 43.1277 33.2211 42.7892C33.2211 42.4456 33.1274 42.0476 33.4912 41.302C33.6431 41.0119 33.9321 40.7617 34.1472 40.6519C34.355 40.538 34.5726 40.4826 34.7151 40.4596C34.987 40.4156 35.2057 40.4316 35.3572 40.4466C35.6954 40.4848 35.9241 40.5492 36.1372 40.6097C36.5793 40.7407 36.9495 40.8878 37.3203 41.0429C38.0503 41.352 38.7365 41.6891 39.4196 42.0382C42.4045 43.5836 45.2871 45.3191 48.1262 47.0512C50.8926 48.7467 53.5816 50.4518 56.135 52.0975C57.0131 52.6985 57.8972 53.2113 58.6868 54.4494C58.8724 54.7739 59.0493 55.1895 59.073 55.711C59.1022 56.2282 58.9186 56.7672 58.683 57.1249C58.1985 57.8457 57.6883 58.1331 57.2927 58.4098C56.2738 59.0827 55.337 59.793 54.4783 60.5181C52.0576 62.5613 50.2011 64.7531 48.2898 66.5827C46.4006 68.404 44.5732 69.7913 42.9358 70.984C42.1413 71.5621 41.3944 72.0917 40.6967 72.5979C39.8958 73.1785 39.1589 73.7288 38.4788 74.2749C37.1782 75.3177 35.8955 76.123 34.6087 76.8414C31.9244 78.3289 29.2385 79.3814 26.7262 80.2489C26.2992 80.3926 25.6949 80.52 25.057 80.2178C24.4244 79.9035 24.1559 79.3543 24.0074 78.961C23.7229 78.1387 23.7084 77.4502 23.6866 76.7849C23.6689 75.4653 23.7811 74.2768 23.8779 73.147C24.0779 70.9069 24.2987 68.9075 24.1902 67.3527C24.1352 66.6089 24.0775 65.9163 24.0218 65.2792C23.9443 64.3948 23.871 63.617 23.8086 62.954C23.5109 59.7727 23.1417 56.5318 22.8807 53.2575C22.6754 50.5989 22.5917 47.9654 22.5253 45.3831C22.5019 44.4445 22.4824 43.5117 22.4643 42.5873C22.4642 42.5854 22.4641 42.5835 22.464 42.5816C22.416 40.135 22.3798 37.7428 22.3147 35.4585C22.2548 33.3329 22.1034 31.3046 21.9169 29.3592C21.7857 27.8094 21.5548 26.3985 21.5982 24.6524C21.6173 24.4001 21.6268 24.0072 21.9022 23.4552C22.1648 22.8923 22.8326 22.3932 23.2908 22.2548C24.2354 21.9646 24.6563 22.0934 25.0891 22.13C25.8995 22.2513 26.4918 22.4425 27.0822 22.6329C28.2427 23.0207 29.2687 23.4462 30.2768 23.8791C31.2001 24.2777 32.0909 24.6847 32.9659 25.0971C33.6956 25.4405 34.4409 25.8021 35.1495 26.1516C40.5159 28.8302 45.1278 31.3022 56.6291 37.9637ZM39.2441 61.646C39.0248 59.9905 38.8473 58.5284 38.6985 57.2826C38.6126 56.5652 38.514 55.9232 38.4177 55.3552C38.5155 55.9933 38.6038 56.6365 38.6776 57.2852C38.7572 57.9908 38.8425 58.6963 38.9335 59.4009C39.0304 60.1512 39.1336 60.9001 39.2441 61.646ZM24.0502 34.7981C24.0586 35.0165 24.066 35.2263 24.0727 35.4469C24.0792 35.6553 24.0854 35.8689 24.0913 36.0793C24.0896 35.8693 24.0876 35.6557 24.0854 35.4468C24.075 34.47 24.0466 33.498 24.0005 32.5281C23.933 31.0768 23.8196 29.6273 23.6988 28.1844C23.8861 30.4818 24.0214 32.7154 24.0502 34.7981ZM55.7931 39.1336C49.4127 35.4257 44.5313 32.8704 40.0977 30.6052C38.8219 29.9544 37.5828 29.3288 36.3547 28.7118C35.8381 28.4521 35.3325 28.202 34.8159 27.9496C37.7628 29.5276 40.4422 31.0279 42.6319 32.2617C49.1582 35.9526 52.819 38.1505 56.033 40.0733C56.9688 40.6347 57.8505 41.1658 58.7686 41.7189C59.5389 42.1473 60.3365 42.5935 61.1402 43.0485C61.8489 43.4493 62.618 43.8881 63.3567 44.3128C63.7902 44.5623 64.2109 44.8059 64.6275 45.0489C65.7817 45.7222 66.9537 46.4194 68.0916 47.1112C69.2386 47.8084 70.3726 48.5127 71.4947 49.2255C72.5507 49.8963 73.595 50.5744 74.5994 51.2404C74.6572 51.2787 74.7148 51.317 74.7722 51.3551C75.8335 52.0604 76.8587 52.7585 77.7961 53.4074C78.7505 54.0678 79.5402 54.6248 80.2419 55.1176C81.1208 55.7352 82.0043 56.3759 82.878 57.0389C83.7486 57.6998 84.6001 58.3735 85.436 59.0822C85.5809 59.2049 85.7389 59.341 85.8814 59.4651C86.2931 59.8265 86.7963 60.4267 86.7676 61.2702C86.7187 62.0947 86.2821 62.604 85.9293 62.9883C85.6295 63.3009 85.3164 63.5525 85.0108 63.7772C84.8599 63.8873 84.735 63.9741 84.5903 64.0707C85.1955 63.6673 85.8325 63.26 86.3956 62.4737C86.6693 62.081 86.9269 61.4538 86.7881 60.7869C86.6459 60.1276 86.2886 59.7297 85.9386 59.4021C85.3594 58.8743 84.7492 58.3476 84.1346 57.8353C81.6119 55.7384 78.8092 53.6646 75.654 51.4823C72.1526 49.0652 68.2164 46.5287 63.6699 43.7894C61.227 42.3185 58.6038 40.7689 55.7931 39.1336ZM57.1384 79.6911C57.9026 79.1871 59.01 78.4392 60.4267 77.4658C60.7618 77.2358 61.1141 76.9932 61.4839 76.7388C61.4751 76.7446 61.4661 76.7508 61.4573 76.7566C60.5304 77.37 59.673 77.9384 58.7441 78.5484C57.5379 79.3402 56.3479 80.1094 55.1384 80.8536C54.6789 81.1362 54.2155 81.4056 53.7466 81.6683C52.0163 82.6347 50.2613 83.4961 48.4903 84.3256C46.7146 85.1552 44.9232 85.9448 43.136 86.7048C41.3317 87.4718 39.5446 88.2026 37.7322 88.9217C37.5646 88.9882 37.397 89.0545 37.2297 89.1205C36.8239 89.2805 36.4155 89.4439 36.0085 89.6083C36.4125 89.4515 36.8224 89.2935 37.2358 89.1361C38.1502 88.7877 39.0896 88.4219 40.0621 88.0348C41.1939 87.5842 42.3714 87.1046 43.6048 86.5879C44.0772 86.3899 44.648 86.1504 45.313 85.8655C47.5852 84.8618 51.0126 83.4749 55.195 80.9436C55.8267 80.5479 56.476 80.1286 57.1384 79.6911ZM21.5798 95.3946C21.1523 95.5435 20.7295 95.6897 20.3096 95.8341C19.1163 96.2444 17.9532 96.6386 16.8166 97.0293C16.0195 97.3033 15.2313 97.5768 14.4601 97.8513C14.1344 97.9672 13.8092 98.0843 13.4893 98.2009C12.9518 98.3969 12.4206 98.5951 11.8962 98.7967C15.2419 97.5475 18.6117 96.4829 22.0795 95.3096C22.4423 95.1872 22.806 95.0619 23.1698 94.9342C23.2209 94.9163 23.272 94.8981 23.3235 94.88C22.8969 95.0099 22.4756 95.1353 22.0612 95.2555C21.8991 95.3025 21.7386 95.3488 21.5798 95.3946Z" fill="white" fill-opacity="0.26"/>
</svg>
