<svg width="128" height="128" viewBox="0 0 128 128" fill="none" xmlns="http://www.w3.org/2000/svg">
<path d="M64.0045 0.979468C72.5122 0.979467 80.7649 2.64405 88.534 5.92733C96.0378 9.09848 102.778 13.6386 108.565 19.4213C114.353 25.204 118.896 31.9367 122.071 39.435C125.357 47.1972 127.023 55.4436 127.023 63.9429C127.023 72.4421 125.357 80.6885 122.071 88.4508C118.897 95.948 114.353 102.682 108.565 108.464C102.778 114.247 96.0378 118.786 88.534 121.958C80.7649 125.242 72.5112 126.906 64.0045 126.906C55.4977 126.906 47.244 125.242 39.4749 121.958C31.9711 118.787 25.2314 114.247 19.4436 108.464C13.6558 102.682 9.1127 95.949 5.93772 88.4508C2.65154 80.6885 0.985488 72.4421 0.985487 63.9429C0.985486 55.4436 2.65154 47.1972 5.93772 39.435C9.11167 31.9377 13.6558 25.204 19.4436 19.4213C25.2314 13.6386 31.9711 9.09951 39.4749 5.92733C47.244 2.64405 55.4977 0.979468 64.0045 0.979468ZM64.0045 126.564C72.4663 126.564 80.6741 124.908 88.4014 121.642C95.8654 118.489 102.567 113.973 108.325 108.222C114.081 102.471 118.6 95.7737 121.757 88.3172C125.025 80.5968 126.683 72.3962 126.683 63.9418C126.683 55.4875 125.026 47.2869 121.757 39.5665C118.6 32.11 114.081 25.413 108.325 19.6619C102.568 13.9108 95.8654 9.39512 88.4014 6.24129C80.6741 2.97636 72.4663 1.31993 64.0045 1.31993C55.5426 1.31994 47.3348 2.97534 39.6076 6.2413C32.1445 9.39512 25.4416 13.9108 19.6854 19.6619C13.9292 25.413 9.40958 32.11 6.25297 39.5665C2.98515 47.2869 1.32726 55.4875 1.32726 63.9419C1.32726 72.3962 2.98413 80.5968 6.25297 88.3172C9.40958 95.7737 13.9292 102.471 19.6854 108.222C25.4416 113.973 32.1445 118.489 39.6076 121.642C47.3348 124.907 55.5426 126.564 64.0045 126.564Z" stroke="url(#paint0_linear_2056_127)"/>
<circle cx="17.54" cy="21.3447" r="3.81933" transform="rotate(180 17.54 21.3447)" fill="#F5D0A6"/>
<defs>
<linearGradient id="paint0_linear_2056_127" x1="64.0045" y1="0.979467" x2="64.0045" y2="126.906" gradientUnits="userSpaceOnUse">
<stop stop-color="#FF8800" stop-opacity="0.2"/>
<stop offset="1" stop-color="#FF8800"/>
</linearGradient>
</defs>
</svg>
