<svg width="128" height="128" viewBox="0 0 128 128" fill="none" xmlns="http://www.w3.org/2000/svg">
<path d="M64.0268 126.927C55.5191 126.927 47.2664 125.262 39.4973 121.979C31.9934 118.808 25.2537 114.268 19.4659 108.485C13.6781 102.702 9.13503 95.9695 5.96005 88.4713C2.67387 80.7091 1.00782 72.4626 1.00782 63.9634C1.00782 55.4642 2.67387 47.2177 5.96005 39.4555C9.134 31.9583 13.6781 25.2245 19.4659 19.4418C25.2537 13.6591 31.9934 9.12003 39.4972 5.94785C47.2663 2.66457 55.5201 0.99999 64.0268 0.999989C72.5335 0.999987 80.7872 2.66456 88.5563 5.94784C96.0602 9.119 102.8 13.6591 108.588 19.4418C114.375 25.2245 118.919 31.9572 122.094 39.4555C125.38 47.2177 127.046 55.4641 127.046 63.9634C127.046 72.4626 125.38 80.709 122.094 88.4713C118.92 95.9685 114.375 102.702 108.588 108.485C102.8 114.268 96.0602 118.807 88.5563 121.979C80.7872 125.262 72.5335 126.927 64.0268 126.927ZM64.0268 1.34249C55.5649 1.34249 47.3571 2.99789 39.6299 6.26385C32.1658 9.41768 25.4639 13.9333 19.7067 19.6844C13.9505 25.4355 9.43089 32.1326 6.27428 39.589C3.00646 47.3095 1.34858 55.51 1.34858 63.9644C1.34858 72.4188 3.00545 80.6193 6.27429 88.3398C9.4309 95.7962 13.9505 102.493 19.7067 108.244C25.4629 113.995 32.1658 118.511 39.6299 121.665C47.3572 124.93 55.565 126.586 64.0268 126.586C72.4886 126.586 80.6964 124.931 88.4237 121.665C95.8867 118.511 102.59 113.995 108.346 108.244C114.102 102.493 118.622 95.7962 121.778 88.3398C125.046 80.6193 126.704 72.4188 126.704 63.9644C126.704 55.51 125.047 47.3094 121.778 39.589C118.622 32.1326 114.102 25.4355 108.346 19.6844C102.59 13.9333 95.8867 9.41766 88.4237 6.26384C80.6964 2.99891 72.4886 1.34249 64.0268 1.34249Z" stroke="url(#paint0_linear_2056_241)"/>
<circle cx="110.491" cy="106.562" r="3.81933" fill="#F5D0A6"/>
<defs>
<linearGradient id="paint0_linear_2056_241" x1="64.0268" y1="126.927" x2="64.0268" y2="0.999989" gradientUnits="userSpaceOnUse">
<stop stop-color="#FF8800" stop-opacity="0.2"/>
<stop offset="1" stop-color="#FF8800"/>
</linearGradient>
</defs>
</svg>
