<svg width="179" height="29" viewBox="0 0 179 29" fill="none" xmlns="http://www.w3.org/2000/svg">
<path d="M7.7034 20.8155C7.7973 20.6831 7.75439 20.2926 7.64046 20.0733C7.52953 19.8427 7.44889 19.7819 7.50134 19.795C7.60581 19.8341 8.06509 20.0338 8.62557 20.181C9.75786 20.4875 11.2445 20.7289 12.9755 20.6795C20.7933 20.416 31.4282 17.246 39.5419 14.7995C40.7196 14.4432 41.9382 14.0685 43.1973 13.6744L43.216 13.6685C48.2672 12.1203 53.4242 10.7002 58.4923 9.40435C58.8144 9.32196 59.0266 9.34591 59.1734 9.3087C60.5648 8.95425 62.8647 8.30095 64.2408 7.97499C67.1401 7.27577 72.1898 6.10378 74.8798 5.61029C76.0178 5.39743 77.1865 5.16841 77.6654 5.25659C78.0833 5.18032 78.2759 4.97312 78.3828 4.94224C78.384 4.94216 78.3853 4.94206 78.3866 4.94197C78.7301 4.84351 79.6356 4.78028 79.8292 4.73492C79.8581 4.72808 79.6553 4.6463 80.1355 4.58829C80.1782 4.58307 80.155 4.6702 80.5536 4.59326C80.6573 4.57258 81.967 4.19251 82.3475 4.11362C83.6119 3.8449 86.6644 3.39452 88.1945 3.14072C88.4278 3.10161 88.5544 3.03238 88.8006 2.99079C88.9278 2.96925 89.1268 2.98881 89.1658 2.98214C89.3366 2.95197 90.0493 2.59977 89.8534 3.09941C90.6346 2.94433 90.3791 2.83107 90.3813 2.73009C91.2329 2.58054 91.6758 2.73366 91.8633 2.47158C96.0639 1.85944 100.281 1.35355 104.542 1.00976C104.54 0.972188 104.538 0.934622 104.536 0.897056C105.812 0.938098 106.22 0.654813 106.949 0.820557C107.387 0.741303 107.836 0.663306 108.277 0.588055C115.162 0.290575 122.15 0.168096 129.278 1.72052C135.743 3.28885 138.306 9.03657 140.216 12.7907C140.423 13.2141 140.403 13.3588 140.735 14.0377C141.102 14.7867 141.688 15.7618 142.167 16.5851C142.581 17.3194 143.173 18.2806 143.577 18.6373C143.669 18.7235 143.762 18.7304 143.77 18.7377C143.823 18.7809 143.778 18.8471 143.828 18.885C143.889 18.9303 143.986 18.9197 144.039 18.9509C144.236 19.0706 144.431 19.061 144.473 19.0653C144.618 19.0804 144.674 19.1498 144.688 19.1508C144.919 19.1391 144.825 19.0741 144.883 19.0712C145.127 19.0473 145.38 19.0936 145.756 18.9249C145.904 18.8595 146.069 18.7714 146.248 18.6529C146.251 18.7223 146.256 18.7916 146.258 18.8617C146.885 18.6386 146.412 18.6479 146.525 18.566C146.573 18.5424 147.913 17.9469 148.015 17.8909C148.378 17.7239 148.433 17.7918 148.463 17.7788C148.535 17.7481 149.397 17.1883 149.894 16.9965C150.486 16.7707 149.926 17.2849 150.079 17.2382C150.104 17.2321 150.675 16.8902 150.776 16.8949C150.89 16.8991 150.397 17.1778 150.413 17.1966C150.433 17.2072 151.313 16.845 151.199 17.0054C151.109 17.1577 149.938 17.6934 149.709 17.8562C149.672 17.8833 149.796 17.9333 149.762 17.9556C149.634 18.0689 146.996 19.3655 146.87 19.366C146.99 19.2632 147.108 19.1607 147.224 19.0575C147.044 19.1329 146.856 19.2099 146.674 19.2816C146.919 19.1374 147.157 18.9912 147.402 18.8379C146.963 18.7001 146.235 19.2252 145.986 19.5188C145.938 19.5844 145.913 19.6397 145.917 19.6765C145.922 19.7049 145.992 19.7243 146.074 19.7448C146.248 19.7796 146.463 19.825 146.184 20.0304C146.16 20.0492 146.131 20.069 146.098 20.0898C146.132 20.0856 146.167 20.081 146.202 20.0759C146.272 20.0647 146.343 20.0529 146.414 20.0404C146.612 19.9216 146.807 19.8003 147.001 19.6761C146.85 19.7152 146.71 19.7485 146.557 19.7855C146.599 19.7395 146.641 19.6931 146.68 19.6479C147.05 19.4478 147.424 19.2341 147.793 19.0143C147.999 18.939 147.992 19.0294 148.137 18.9768C149.934 18.2994 148.711 18.6412 149.839 18.0894C150.018 18.0409 150.201 17.9896 150.377 17.941C150.235 17.8192 150.784 17.6441 151.337 17.2368C151.293 17.3272 151.251 17.4172 151.208 17.507C152.053 16.9974 153.927 16.1684 153.296 16.191C153.503 16.0943 153.716 15.9918 153.923 15.8923C154.057 15.7472 154.192 15.6005 154.329 15.4521C154.562 15.3093 154.784 15.1723 155.012 15.0302C155.028 15.0527 155.045 15.0751 155.061 15.0976C154.88 15.2158 154.709 15.3272 154.525 15.4461C154.71 15.4271 154.884 15.4147 155.065 15.3972C155.19 15.2996 155.315 15.2008 155.441 15.101C154.836 15.4028 155.511 14.8047 155.616 14.6C156.055 14.259 156.439 14.1728 156.593 14.0757C156.666 14.0318 157.387 13.2269 157.207 13.6903C157.621 13.3648 158.056 13.0198 158.465 12.6891C158.648 12.5861 158.833 12.4815 159.019 12.3753C158.721 12.7477 159.89 12.1066 159.128 12.7172C158.551 13.1768 158.347 13.1695 158.057 13.3734C157.801 13.553 157.713 13.714 157.44 13.9062C155.571 15.2182 154.018 16.2119 152.162 17.2749C151.798 17.4825 151.483 17.7111 151.236 17.8451C150.958 17.9955 151.253 17.71 150.913 17.931C150.55 18.1652 150.514 18.2797 150.417 18.3349C150.36 18.3674 150.122 18.4112 149.945 18.5059C149.21 18.9051 148.153 19.4972 148.046 19.5432C147.968 19.5818 146.941 20.0183 146.268 20.2462C145.978 20.3463 145.783 20.3915 145.754 20.3963C145.703 20.4018 145.737 20.1119 145.415 20.4974C145.294 20.5306 145.178 20.5576 145.067 20.5791C145.077 20.5213 145.086 20.4634 145.095 20.4055C144.464 20.6854 144.66 20.5635 144.099 20.5205C142.792 20.5621 141.006 17.9706 139.943 15.7634C139.694 15.2818 139.538 15.1171 139.246 14.5319C138.976 13.9848 138.433 12.4275 138.342 12.8693C137.927 11.5044 137.444 11.4897 137.327 10.7378C137.252 10.6796 137.177 10.6215 137.101 10.5635C136.851 9.80047 136.604 9.65571 136.113 8.93448C135.894 8.6235 136.285 8.88758 135.689 8.36332C135.616 8.23521 135.541 8.10786 135.463 7.97907C135.517 7.98226 135.571 7.9857 135.625 7.98936C135.075 7.30954 135.041 7.26349 134.987 7.43583C134.743 7.09007 134.484 6.75063 134.203 6.41914C134.129 6.41547 134.055 6.41244 133.982 6.41004C134.04 6.49914 135.737 8.32853 136.927 10.4634C138.159 12.5853 139.207 14.7964 139.503 15.3028C139.997 16.6203 141.451 18.8748 142.075 19.4874C142.319 19.7609 142.346 19.9637 142.731 20.2748C143.12 20.5893 143.668 20.6855 143.881 20.7232C144.224 20.8596 145.491 20.7964 146.343 20.4413C147.113 20.1565 147.449 20.0554 146.383 20.5454C146.266 20.5981 146.133 20.6535 145.987 20.7077C146.089 20.7339 146.195 20.7568 146.305 20.7764C146.353 20.7505 146.399 20.7253 146.444 20.7009C147.517 20.0961 147.159 20.3641 148.217 19.9038C148.689 19.6979 149.7 19.0396 149.761 19.292C148.937 19.7753 147.992 20.1361 147.245 20.4565C147.201 20.4754 146.856 20.6706 146.497 20.8377C146.276 20.941 146.057 21.0221 145.898 21.0554C145.517 21.119 145.713 20.8621 144.961 21.242C144.362 21.0306 144.068 21.2008 143.904 21.2005C143.641 21.1891 143.65 21.0547 143.423 20.9576C143.179 20.8467 142.971 20.8251 142.936 20.8068C142.764 20.7196 142.239 20.3738 141.802 19.8943C141.364 19.429 141.007 18.8871 140.995 18.8253C141.072 18.8939 141.148 18.9601 141.224 19.0238C140.884 18.4872 140.858 18.6697 140.749 18.5387C140.68 18.4334 140.612 18.3254 140.544 18.2151C140.594 18.244 140.645 18.2723 140.696 18.3C140.287 17.6458 140.505 18.2151 139.956 17.2429C139.61 16.6144 139.37 15.897 139.331 15.8374C139.32 15.8198 139.358 16.0552 139.217 15.7964C138.983 15.3662 138.607 14.5915 138.652 14.4606C138.532 14.2455 138.455 14.3066 138.439 14.2783C138.376 14.1602 137.25 11.9533 137.018 11.5601C136.418 10.4701 135.723 9.24003 134.856 8.13424C134.767 8.02081 134.872 8.05627 134.781 7.94304C134.646 7.75518 133.779 6.90978 133.636 6.79368C133.322 6.47183 132.423 5.66592 132.241 5.58681C132.218 5.57437 132.486 5.87549 132.099 5.62224C131.663 5.35067 131.951 5.41821 131.93 5.40083C131.071 4.77905 130.413 4.57411 129.727 4.34065C129.51 4.26746 129.121 4.05983 128.785 4.00749C128.746 4.00131 128.803 4.09426 128.765 4.08921C128.753 4.08726 128.74 4.08522 128.728 4.08311C128.296 4.01391 127.921 3.796 127.732 3.74827C127.256 3.62957 127.497 3.78623 127.472 3.78178C127.153 3.72214 126.714 3.60142 126.241 3.52799C124.048 3.19385 122.315 3.02817 119.979 2.88584C119.694 2.86916 119.356 2.77853 119.312 2.77648C119.175 2.77101 119.211 2.85981 118.815 2.84184C117.972 2.80442 117.2 2.79068 116.376 2.7803C116.209 2.77828 116.139 2.69639 116.011 2.69379C115.574 2.68278 114.137 2.90633 114.108 2.64367C113.272 2.89 112.686 2.70304 112.021 2.72653C110.416 2.77857 107.895 2.97044 106.305 3.06642C105.97 3.08567 105.807 3.03074 105.619 3.04224C105.278 3.05987 103.371 3.26979 103.271 3.27131C103.072 3.27028 103.162 2.95868 102.174 3.32096C101.579 3.40103 101.638 3.2721 101.515 3.27829C100.563 3.32957 99.664 3.71111 99.8089 3.44137C98.6987 3.63889 98.0094 3.86659 97.5265 3.69128C97.5468 3.80425 97.0359 3.9383 96.4007 3.979C97.0189 3.70384 96.9269 3.58774 98.4818 3.42999C98.5063 3.42756 98.4698 3.5155 98.4943 3.51307C98.7138 3.49168 99.1767 3.39357 99.5577 3.35362C99.9386 3.31375 99.7339 3.39465 99.8859 3.37594C100.025 3.35881 100.011 3.28051 100.213 3.25649C100.866 3.17917 101.434 3.0964 101.808 3.05595C102.044 3.03041 102.315 3.07277 102.498 3.05444C103.206 2.98121 104.678 2.78998 105.587 2.72543C105.775 2.71212 105.703 2.79598 106.112 2.77041C106.159 2.76751 106.327 2.67244 106.682 2.6292C107.037 2.58606 107.315 2.6073 107.549 2.58297C107.743 2.56293 107.657 2.49574 108.055 2.46548C108.383 2.42685 112.134 2.30247 112.328 2.32275C112.616 2.33093 112.763 2.42897 112.942 2.41215C112.974 2.40873 113.025 2.30922 113.135 2.29971C114.923 2.12444 118.933 2.30477 120.995 2.47171C123.688 2.66004 126.254 2.95849 128.855 3.5365C130.625 3.92335 132.294 4.86044 133.618 6.11001C133.692 6.15675 133.766 6.20433 133.84 6.2527C133.492 5.91001 133.117 5.58013 132.719 5.27612C132.745 5.23744 132.77 5.19874 132.796 5.16001C132.247 4.74354 132.251 4.89786 132.232 4.9604C132.039 4.79525 131.838 4.63541 131.632 4.48344C131.378 4.48825 129.887 3.65389 129.01 3.48185C128.966 3.47089 128.921 3.46042 128.875 3.45046C128.421 3.3524 127.896 3.29615 127.656 3.24437C127.105 3.12613 127.135 3.03357 127.092 3.02334C127.006 3.00427 126.246 2.95735 125.69 2.87088C124.868 2.74493 124.79 2.57661 123.664 2.57568C122.216 2.33242 120.621 2.25505 119.088 2.2036C119.393 2.07416 117.986 2.15083 117.367 2.13915C113.567 2.03341 108.904 2.18507 105.083 2.45953C104.587 2.49431 104.21 2.44488 103.94 2.47237C103.793 2.4873 103.738 2.59075 103.532 2.59708C103.495 2.59807 103.462 2.50882 103.079 2.53197C102.114 2.58596 99.7772 2.99757 99.152 2.89853C95.9146 3.31103 92.6884 3.80405 89.4759 4.3568C89.3892 4.33304 89.3026 4.30932 89.2158 4.28566C88.637 4.57205 86.2056 4.87311 85.0346 5.09704C82.9709 5.48424 80.3543 6.05176 78.5568 6.42552C78.1667 6.50627 77.8342 6.51909 77.4642 6.59671C77.305 6.63021 77.1212 6.74023 76.9556 6.77512C75.0991 7.1661 72.5744 7.64335 70.7043 8.07263C66.4693 9.04263 62.4961 10.0098 58.2453 11.1339C53.3589 12.4288 48.5106 13.8237 43.7316 15.3258C34.5282 18.2374 25.2048 21.0284 15.9028 22.2395C15.7247 22.2607 15.7142 22.1804 15.5643 22.1975C14.6646 22.3069 12.8056 22.5309 11.8161 22.5415C11.0759 22.5661 9.89703 22.4034 9.6207 22.5013C12.2203 22.8624 15.2493 22.5246 18.1119 22.1335C18.3128 22.1058 18.3509 22.1774 18.3759 22.1749C18.8452 22.1259 18.5291 22.0714 19.2164 21.9508C19.4832 21.9101 21.5616 21.7723 21.2856 21.5729C21.8484 21.5783 25.3527 20.8752 26.0173 20.6736C26.2227 20.6154 26.0592 20.5793 26.0996 20.5661C26.2752 20.5085 26.3796 20.5864 26.5422 20.5505C26.9954 20.4504 28.0195 20.1164 28.2247 20.0651C28.6715 19.9567 30.1798 19.655 30.7457 19.4844C31.2992 19.3202 31.1678 19.2471 31.6546 19.1069C32.0417 18.995 31.6364 19.1961 32.5199 18.9836C32.989 18.8705 34.4083 18.4099 34.781 18.303C35.1433 18.2003 35.5669 18.1444 36.0782 17.9916C36.8218 17.7708 38.3127 17.2944 39.0639 17.0463C39.1079 17.0318 39.1924 16.9216 39.3025 16.8902C39.5307 16.8247 39.4915 16.9413 39.6667 16.8988C39.8657 16.8525 42.6982 15.9654 43.2301 15.795C43.4668 15.7207 43.6464 15.635 43.7983 15.5685C43.8744 15.5362 43.9368 15.5106 43.9963 15.4923C44.1428 15.4474 44.1832 15.5223 44.3335 15.4768C44.3799 15.4624 44.7544 15.2708 45.1578 15.1492C45.5471 15.0308 46.9932 14.6667 47.1613 14.618C47.2701 14.5858 47.1335 14.5646 47.456 14.47C47.7505 14.3838 47.9673 14.4 48.137 14.351C48.5329 14.2367 48.9307 14.0515 49.3433 13.9309C50.5259 13.5863 50.4989 13.6952 50.5699 13.6776C50.7731 13.6282 50.8251 13.5224 50.8886 13.5023C51.1548 13.4183 51.8154 13.2136 52.0589 13.1414C52.3616 13.0515 52.5132 13.095 52.8386 13.004C53.0851 12.9348 53.542 12.723 54.0867 12.5683C55.3243 12.2161 56.7844 11.8052 58.0121 11.4835C58.3788 11.3872 58.4548 11.4458 58.5647 11.4188C59.1455 11.2767 59.4511 11.1097 59.6178 11.0674C60.8171 10.7616 62.9617 10.3548 64.0803 10.091C64.5223 9.98505 66.4987 9.43892 67.607 9.18892C67.7347 9.15983 67.6291 9.24592 67.7688 9.20328C68.103 9.10129 68.0439 8.99101 68.2172 8.95393C68.3009 8.93641 68.5064 8.95814 68.751 8.90792C70.0238 8.64658 70.8669 8.40107 71.4456 8.27398C76.9758 7.0598 82.6371 5.95935 87.8555 5.08321C88.4377 4.98526 89.1476 4.79312 90.0353 4.72047C90.0683 4.75323 90.1012 4.786 90.1344 4.81873C90.1594 4.77728 90.1844 4.73583 90.2094 4.69439C91.2052 4.51477 91.5752 4.40883 92.5986 4.3014C92.6871 4.29202 92.9778 4.42199 93.1136 4.18638C94.1499 4.18997 93.5712 4.11733 94.3206 3.99477C95.0713 3.87301 95.7972 3.82106 96.5348 3.73411C96.9443 3.756 95.2903 4.15591 95.1843 4.17179C95.0091 4.19548 94.8122 4.11609 94.6423 4.13445C94.1393 4.18855 93.6658 4.34278 93.5395 4.26572C92.9048 4.4602 93.7058 4.29178 93.6376 4.39298C93.1983 4.41954 92.7623 4.44689 92.3267 4.47538C92.1561 4.80803 89.7076 4.79104 89.9125 4.99656C89.7165 4.98105 89.5202 4.96579 89.3237 4.95077C88.5436 5.37631 88.0215 5.25452 86.9012 5.36048C86.9872 5.38352 87.0731 5.40659 87.159 5.42971C87.1391 5.44858 86.1767 5.67793 86.4969 5.45991C85.536 5.84293 85.5162 5.49173 84.6664 5.90282C84.1408 6.03216 84.4334 5.82835 83.484 6.00741C82.9214 6.11381 82.2374 6.32173 81.6103 6.44852C81.4658 6.47748 81.3867 6.40628 81.258 6.43131C81.1292 6.4564 81.0823 6.55042 80.9268 6.58298C80.6057 6.65037 80.177 6.67555 79.977 6.72113C79.7978 6.76172 79.5546 6.88502 79.1232 6.98385C77.6179 7.33099 78.0527 7.13687 77.8066 7.15073C77.5416 7.16685 77.3847 7.3403 76.8695 7.43157C76.8178 7.44066 76.933 7.32852 76.7668 7.36678C76.6327 7.39762 76.5841 7.50329 76.1425 7.61444C75.9689 7.65545 73.2151 8.27144 72.8015 8.36819C72.1613 8.51209 70.7104 8.75884 70.0514 8.9119C69.797 8.9705 69.542 9.10666 69.2688 9.1697C68.3618 9.37845 66.9393 9.70881 65.7905 9.98445C64.7661 10.2284 62.9301 10.5147 62.4066 10.8024C60.9856 11.1821 60.5981 11.1522 60.4902 11.1777C60.1956 11.2488 60.0812 11.366 59.7145 11.4655C54.9781 12.7406 48.6947 14.4615 44.2507 15.855C44.1426 15.8887 44.035 15.9223 43.9277 15.9559C33.7815 19.1107 23.4001 22.3545 12.9503 23.1655C12.925 23.2047 12.8997 23.2438 12.8745 23.2828C14.1116 23.2405 15.6446 23.1414 16.8298 22.9926C18.5152 22.7899 20.8589 22.2063 22.1683 22.2006C21.6601 22.3265 20.845 22.3807 20.8851 22.5072C21.7677 22.3511 22.6486 22.183 23.5114 22.0091C23.4726 21.9549 23.4339 21.9008 23.3953 21.8466C24.3173 21.633 25.2368 21.4406 26.1405 21.2205C26.299 21.1819 26.1738 21.1543 26.3124 21.1215C26.4678 21.0848 26.3753 21.1644 26.4046 21.158C26.7989 21.0656 26.9078 20.9805 26.9565 20.9698C27.0825 20.9418 26.9965 21.0186 27.3639 20.9455C27.9983 20.8212 28.427 20.565 28.3334 20.836C28.5408 20.7846 28.7497 20.7324 28.9603 20.6793C28.9988 20.6021 29.0374 20.5249 29.0761 20.4476C30.4715 20.3658 30.9015 19.7706 31.71 19.9357C31.9293 19.8189 32.1503 19.7012 32.3729 19.5827C32.5238 19.6096 32.6754 19.6361 32.8277 19.6623C32.8393 19.601 32.8508 19.5396 32.8623 19.4782C34.1476 19.1695 35.4161 18.7403 36.6725 18.3816C37.4848 18.1494 37.6893 18.112 38.4257 17.8888C40.0817 17.3827 38.4589 17.9867 39.8864 17.6817C39.7934 17.638 39.7006 17.5941 39.608 17.5502C39.8302 17.4567 40.0633 17.3595 40.2786 17.2675C40.4475 17.2747 40.617 17.2816 40.7873 17.2881C41.3839 16.8006 41.9054 16.8844 42.0001 16.855C42.0775 16.8302 42.2838 16.5834 43.1665 16.4616C42.7459 16.3428 43.8077 16.2581 43.8903 16.233C43.9032 16.2291 43.9411 16.2156 43.9972 16.1953C44.2641 16.0996 44.9582 15.8469 45.283 15.7497C45.5861 15.6585 46.2697 15.5046 46.7079 15.3702C47.1036 15.2489 47.041 15.1829 47.0696 15.1734C47.5596 15.0198 47.269 15.1726 47.6273 15.069C47.9863 14.9654 48.2481 14.8158 48.3282 14.7986C48.3685 14.7901 48.2582 14.9017 48.4407 14.8555C48.9177 14.7353 49.752 14.4225 50.3057 14.2649C50.5004 14.2093 50.7687 14.199 50.984 14.1394C51.3105 14.0487 51.4406 13.9228 51.6323 13.8709C51.6991 13.8531 52.1588 13.8593 52.6876 13.6895C52.7872 13.6573 53.0142 13.3034 53.5162 13.574C53.5312 13.512 53.5463 13.4501 53.5614 13.3881C55.2875 12.7653 55.9346 13.061 56.6073 12.4633C57.9121 12.1593 57.0647 12.5487 57.2127 12.5337C57.3083 12.5237 57.7209 12.3691 57.7684 12.359C57.8523 12.3416 57.851 12.3939 57.9416 12.3695C59.6029 11.9203 58.8343 12.0262 59.3438 11.8302C60.5526 11.3674 61.6089 11.422 59.4145 11.8934C59.4216 11.9205 59.4287 11.9476 59.4358 11.9747C59.9585 11.8096 61.3274 11.4705 60.9069 11.7254C60.5663 11.925 57.3594 12.6928 59.2056 12.3696C59.6252 12.2964 59.8112 12.1389 60.5783 12.1439C61.0543 12.0321 61.0684 11.7648 61.729 11.7018C61.6022 11.6422 61.4755 11.5827 61.3489 11.5232C62.1871 11.1886 63.3083 11.0673 63.9754 10.8505C64.2007 10.7767 64.9191 10.1627 64.8294 10.6219C65.2023 10.5016 67.0508 10.1346 67.3716 10.0203C67.4509 9.99234 67.5013 9.7464 68.6968 9.54644C68.7852 9.55481 68.8735 9.56321 68.9619 9.57164C67.9026 9.90405 69.826 9.54025 69.3573 9.86997C69.1592 9.81687 68.292 9.95995 68.1442 9.94536C67.8912 9.91952 68.563 9.64995 67.6821 9.88872C67.2058 10.3698 68.7669 9.83077 68.6008 10.22C69.7329 9.79129 69.8869 9.91279 70.1503 9.85816C71.2809 9.62424 71.9901 9.42708 73.0654 9.2289C73.3125 9.1015 71.3526 9.43643 71.1214 9.52152C71.9475 9.07995 70.4274 9.41299 69.8256 9.70416C69.7555 9.64352 69.6844 9.58314 69.6136 9.52271C70.4531 9.36973 71.2679 9.20521 72.0829 8.95933C72.1429 8.97454 72.2029 8.98977 72.263 9.005C72.0864 9.08775 71.91 9.1706 71.7339 9.25355C72.4361 9.16639 71.9785 9.04486 72.9341 9.02795C72.9441 8.93937 72.9541 8.85079 72.9642 8.76221C73.8456 8.59543 74.7315 8.43119 75.6181 8.27048C76.0387 8.00644 77.7464 7.71413 77.4806 7.9935C78.1679 7.86694 77.2995 7.92763 77.9302 7.74294C78.205 7.66256 78.7493 7.54488 78.8955 7.57541C78.8792 7.79116 78.0683 7.98319 77.8504 8.17469C78.01 8.18291 81.7735 7.28007 81.4833 7.58974C81.7921 7.55967 81.6287 7.46316 82.1699 7.32623C83.6863 6.94138 86.1121 6.75277 87.2952 6.23416C85.8121 6.31646 85.4127 6.57616 84.3 6.78763C83.5891 6.91437 79.2672 7.78958 80.1911 7.38548C80.0376 7.4445 79.8843 7.50364 79.731 7.56289C79.5576 7.53072 79.3841 7.49868 79.2107 7.46679C79.6611 7.36623 80.112 7.2666 80.5633 7.16795C80.6841 7.2108 80.8049 7.25371 80.9257 7.2967C80.9666 7.24108 81.0075 7.18546 81.0484 7.12985C81.2375 7.0834 81.4266 7.03713 81.6157 6.99106C81.5727 7.05657 81.5298 7.12209 81.487 7.18762C81.7828 7.13994 82.0787 7.09269 82.3746 7.04589C82.2813 6.98734 82.188 6.92882 82.0946 6.87035C83.4773 6.58726 83.0169 6.72332 83.8114 6.71724C84.3883 6.625 83.3911 6.66224 84.6007 6.40225C86.0088 6.10383 85.1213 6.49428 86.9441 6.1232C86.964 6.08173 86.984 6.04026 87.0039 5.99879C87.4124 5.96567 87.8247 5.93283 88.2345 5.9014C88.1733 5.86455 88.1121 5.82772 88.0509 5.79091C88.8885 5.66611 90.0207 5.39143 90.3266 5.52763C89.4679 5.57731 89.5286 5.89157 89.757 5.91333C90.2289 5.93528 96.9142 4.82894 98.2277 4.68696C99.8964 4.46963 101.162 4.43043 102.683 4.1193C101.625 4.08537 98.0044 4.61614 97.307 4.62527C97.2377 4.62551 97.2192 4.33281 96.8224 4.7166C95.4004 4.84737 93.7246 5.17837 91.9709 5.43917C92.0118 5.34774 92.0527 5.25632 92.0936 5.16492C93.1966 5.17638 94.1487 4.64278 94.0534 4.98674C94.2693 4.95549 94.485 4.92458 94.7005 4.89403C94.6926 4.83827 94.6847 4.78252 94.6768 4.72676C95.0019 4.68067 95.3265 4.63537 95.6507 4.5909C95.6583 4.64669 95.666 4.70248 95.6736 4.75827C95.9411 4.72156 96.2113 4.685 96.4824 4.64887C96.5031 4.58945 96.5239 4.53003 96.5447 4.47062C97.3714 4.47294 100.085 3.83165 98.9115 4.31122C99.2938 4.26493 99.6757 4.21987 100.056 4.17613C100.05 4.13537 100.044 4.0946 100.038 4.05384C100.202 4.02952 100.365 4.00544 100.527 3.9816C100.478 4.02468 100.428 4.06778 100.378 4.1109C101.121 3.95958 101.843 4.08057 102.329 3.9014C101.999 3.90673 101.669 3.91313 101.345 3.91973C101.966 3.90535 103.117 3.67958 103.217 3.6704C103.53 3.63965 103.703 3.70693 104.041 3.68008C104.346 3.65587 104.298 3.59616 104.355 3.59326C106.023 3.51327 105.418 3.9147 106.159 3.44357C106.245 3.49299 106.332 3.54249 106.418 3.59207C106.523 3.53719 106.629 3.48242 106.735 3.42779C107.217 3.3965 107.715 3.36661 108.207 3.33986C108.038 3.28041 107.869 3.2213 107.7 3.16252C108.439 3.08202 108.789 3.20346 108.86 3.20225C109.062 3.19867 109.148 3.10568 109.21 3.10204C112.209 2.96005 110.399 3.12609 111.903 3.3973C112.428 3.25021 111.889 3.13743 111.808 3.00823C112.515 3.04679 112.737 3.00374 113.495 2.99547C113.692 2.99365 113.903 3.06158 114.027 3.06083C114.133 3.06008 114.465 2.98023 114.72 2.97821C115.136 2.9745 115.723 3.01867 116.308 3.02328C116.792 3.02449 118.289 2.99962 119.33 3.05056C119.771 3.07148 119.665 3.13036 119.778 3.13617C119.824 3.1385 120.172 3.08103 120.464 3.09899C122.777 3.24043 125.181 3.55356 127.488 4.0109C127.892 4.09112 128.292 4.17325 128.687 4.2593C129.996 4.54085 131.266 5.12958 132.31 5.95154C132.603 6.18477 132.412 6.10532 132.537 6.20949C132.577 6.24677 132.702 6.20867 133.098 6.62839C133.239 6.78096 133.02 6.66641 133.164 6.80889C133.232 6.87986 133.329 6.84158 133.739 7.25041C134.474 8.00391 134.692 8.53331 134.753 8.60265C134.862 8.73955 134.889 8.65571 135.024 8.84128C135.682 9.75477 136.158 10.5496 136.636 11.4099C136.882 11.8087 138.276 14.6062 138.332 14.7604C138.474 15.114 138.186 14.8623 138.404 15.2951C138.497 15.399 138.592 15.5077 138.685 15.6126C138.614 15.4055 138.545 15.1995 138.475 14.9935C138.694 15.5492 139.052 16.1181 139.251 16.5077C139.286 16.578 139.572 17.2673 139.761 17.5824C139.66 17.4597 139.559 17.3342 139.459 17.2062C139.465 17.2674 139.471 17.3284 139.478 17.3892C139.869 18.0295 140.272 18.7073 140.707 19.3131C140.865 19.5298 140.764 19.4916 140.928 19.7049C141.973 20.8924 141.767 20.447 142.778 21.5832C142.306 21.4115 140.913 20.1513 140.782 19.8784C140.662 19.7234 140.537 18.8932 140.38 19.3422C139.517 18.0373 140.424 19.0686 139.633 17.84C139.607 17.8893 139.58 17.9387 139.554 17.9881C139.272 17.5568 139.069 17.2248 138.998 16.9094C138.74 16.9285 138.065 15.2791 137.627 14.4041C136.988 13.1432 136.223 11.7291 135.485 10.5258C135.231 10.1094 135.155 9.83111 135.122 9.77945C135.073 9.70519 134.868 9.53676 134.766 9.39011C134.423 8.82716 133.191 7.15928 132.635 7.0034C135.552 9.77237 136.94 13.6008 138.748 17.0362C138.577 16.5801 140.554 19.9695 140.771 20.0399C140.883 20.1833 140.727 20.1136 140.759 20.1583C140.992 20.4894 141.316 20.6578 141.405 20.7426C141.474 20.8074 141.577 20.9818 141.848 21.1943C141.897 21.2326 141.944 21.1999 141.997 21.239C142.35 21.5004 142.727 21.7127 143.137 21.8616C143.161 21.8712 143.24 21.9835 143.347 22.0152C143.454 22.0474 143.581 21.9959 143.607 22.0017C143.943 22.0908 144.546 22.1812 144.879 22.151C144.997 22.1424 144.911 22.0913 145.043 22.0798C145.45 22.0308 145.318 22.1722 145.817 22.0362C145.987 21.9842 145.953 21.9068 146.257 21.8282C146.475 21.7683 146.503 21.9198 146.54 21.9138C146.56 21.9096 146.688 21.848 146.856 21.7658C147.092 21.649 147.427 21.4891 147.593 21.4852C147.162 21.9582 148.191 21.2457 148.083 21.1645C148.389 21.0598 148.692 20.9506 148.997 20.8361C149.086 20.7618 149.173 20.6879 149.257 20.6148C150.478 20.1546 151.144 19.7031 152.277 19.1009C152.337 19.0707 153.294 18.5811 153.276 18.6372C152.751 19.0321 152.19 19.3581 151.77 19.4477C151.288 19.9953 151.188 19.8354 150.227 20.3761C149.904 20.5553 149.913 20.6234 149.875 20.6437C149.072 21.0764 147.923 21.6342 146.935 21.9714C146.336 22.1804 145.823 22.2613 145.462 22.2502C145.204 22.3558 146.17 22.1796 145.802 22.2971C145.714 22.3357 144.387 22.6409 143.327 22.2946C142.271 21.973 141.645 21.3562 142.36 21.7089C142.218 21.6335 142.075 21.5483 141.94 21.4591C141.677 21.5505 141.072 20.9471 141.297 20.8597C141.212 20.8379 141.127 20.8138 141.041 20.7876C140.905 20.6999 140.768 20.5824 140.593 20.394C139.723 19.7758 137.218 14.4918 137.072 14.2289C137.024 14.2446 136.976 14.2602 136.928 14.2758C138.042 16.5817 139.037 18.8972 140.941 21.1024C140.914 21.0096 140.888 20.9167 140.864 20.8235C141.594 21.694 142.589 22.4426 143.79 22.6899C142.45 22.6689 140.683 21.3517 140.01 20.2586C139.882 20.0714 140.035 20.1637 140.01 20.1177C139.947 19.9985 139.759 19.9453 139.476 19.5467C139.183 19.149 138.642 18.0478 138.594 17.9556C138.486 17.7717 138.1 17.3218 137.937 16.9973C137.721 16.5682 137.938 16.8189 137.896 16.7322C137.726 16.3788 137.533 16.0776 137.402 15.798C137.209 15.3852 136.921 14.4703 136.594 14.2758C136.73 14.5728 136.863 14.8677 136.998 15.165C136.157 13.6146 135.795 12.2511 134.741 10.8887C134.33 10.6896 135.074 11.866 134.377 10.9128C134.492 11.0932 134.604 11.2736 134.715 11.457C134.785 11.4741 134.856 11.4915 134.926 11.5093C135.079 11.8509 135.224 12.1937 135.367 12.5409C135.358 12.425 135.349 12.3091 135.339 12.1932C136 13.34 136.629 14.5468 136.611 15.0775C136.678 15.0757 136.744 15.0739 136.811 15.0721C137.282 16.2303 138.39 17.8132 137.929 17.6502C137.973 17.6949 138.018 17.7416 138.062 17.7869C138.373 18.5042 138.337 18.1432 138.492 18.3882C138.527 18.4661 139.269 19.8039 138.824 19.2775C139.583 20.5873 139.613 20.0146 139.86 20.338C140.282 21.2491 141.917 22.2252 141.15 21.929C141.265 22.0338 141.383 22.134 141.506 22.2306C142.04 22.3621 142.372 22.7891 142.922 23.046C143.11 23.1108 143.302 23.1654 143.5 23.209C143.648 23.1716 143.783 23.1264 143.918 23.0769C144.828 23.322 145.115 23.1008 145.291 23.0057C145.46 22.8968 145.486 22.8663 145.956 23.1337C145.841 23.2028 145.724 23.2688 145.606 23.3316C145.329 23.3987 144.985 23.454 144.678 23.4791C145.643 23.4698 146.476 23.2656 147.317 22.9587C147.592 22.8579 147.885 22.7443 148.156 22.6345C149.524 22.2609 150.13 21.7192 151.551 21.1409C151.668 21.0561 151.789 20.9684 151.901 20.8852C151.855 21.0946 151.358 21.3421 152.293 20.9095C152.425 20.9677 151.824 21.3176 151.497 21.3918C151.419 21.4092 151.953 21.023 151.305 21.3666C150.866 21.593 151.734 21.3042 150.373 21.9436C150.436 21.9433 150.501 21.942 150.563 21.9421C150.415 22.0161 150.265 22.0899 150.119 22.1611C149.96 22.167 149.804 22.1709 149.641 22.177C149.342 22.4219 149.21 22.6366 148.403 22.9565C148.604 22.825 148.259 22.8354 147.865 22.9991C147.883 23.0425 147.9 23.0859 147.918 23.1293C147.713 23.2201 147.567 23.2759 147.455 23.3142C146.962 23.475 147.042 23.3928 146.321 23.676C146.211 23.665 146.103 23.6516 145.997 23.6359C145.754 23.7695 145.097 23.9404 144.537 23.948C143.954 23.9628 143.515 23.8415 143.729 23.7608C143.074 23.9395 141.806 23.3365 141.54 22.9215C141.485 22.9431 141.43 22.964 141.375 22.9844C141.156 22.8587 140.95 22.7246 140.754 22.5826C140.664 22.4768 140.579 22.3692 140.496 22.2601C140.351 22.1704 140.214 22.0812 140.076 21.985C140.037 21.8817 140.001 21.7784 139.967 21.675C139.746 21.5237 139.542 21.3753 139.334 21.2112C139.263 21.0652 139.198 20.9223 139.138 20.7811C139.036 20.8363 138.175 19.6185 138.05 19.2484C137.966 19.1615 137.881 19.0734 137.798 18.9843C137.809 18.9108 137.82 18.8373 137.832 18.7639C137.757 18.7074 137.683 18.6509 137.609 18.5934C137.545 18.4017 137.482 18.209 137.421 18.0152C136.848 17.4152 137.017 17.2956 136.933 17.1352C136.779 16.8403 136.154 15.8882 136.08 15.7183C136.004 15.5462 136.039 15.4307 135.98 15.293C135.014 13.0348 135.26 14.0452 135.012 13.624C134.877 13.4009 134.86 13.2031 134.745 13.0047C134.56 12.649 133.503 11.0355 133.443 10.9575C133.368 10.817 133.875 10.9359 133.513 10.5524C133.347 10.6368 132.878 9.6432 132.953 10.2105C132.714 9.83498 132.465 9.47769 132.198 9.13492C132.057 9.32206 131.828 8.82175 131.411 8.44902C130.84 7.85855 129.33 7.1792 129.47 7.02451C129.286 6.99812 129.102 6.97958 128.919 6.96861C128.661 6.85417 128.4 6.76597 128.119 6.69674C127.073 6.44099 125.959 6.2839 124.86 6.12685C120.566 5.51087 115.748 5.39187 111.342 5.52024C111.129 5.52641 111.156 5.44871 111.003 5.45342C110.182 5.47546 108.115 5.64607 106.983 5.71646C106.624 5.73746 106.443 5.67678 106.329 5.68219C105.94 5.70056 106.039 5.79165 105.86 5.80322C105.575 5.8199 104.074 5.85943 103.562 5.90091C103.308 5.92054 103.014 6.02794 102.712 6.03415C102.687 6.0348 102.726 5.94979 102.704 5.95059C102.157 5.99636 102.493 6.03226 102.308 6.04759C101.002 6.15615 99.5876 6.31679 98.1774 6.4781C97.8255 6.51807 97.2785 6.53161 96.9741 6.56659C96.8581 6.58008 97.0739 6.613 96.673 6.6613C96.5356 6.67794 96.478 6.60542 96.3223 6.62128C95.6581 6.68965 95.4722 6.97379 94.8734 6.85101C93.7695 7.01979 91.8723 7.37458 90.8661 7.53879C90.6283 7.57712 90.505 7.54944 90.28 7.5868C90.1202 7.6133 89.8504 7.73111 89.601 7.77326C89.3514 7.81536 88.9457 7.81256 88.4649 7.89676C87.9585 7.98513 87.3361 8.13515 87.2228 8.15479C87.0854 8.17881 87.0062 8.10384 86.8688 8.12911C86.4535 8.20448 85.3548 8.48903 84.8203 8.5973C84.2468 8.71276 83.8942 8.73586 83.6978 8.77354C83.516 8.80885 83.3175 8.92153 83.2346 8.93793C83.1055 8.96354 83.0589 8.88453 82.8948 8.91652C82.6268 8.96907 82.3605 9.07534 81.9588 9.15469C74.7257 10.5871 67.658 12.1712 60.6879 13.9121C59.9071 14.1078 59.5033 14.2753 58.3415 14.5555C57.875 14.6682 58.0471 14.5301 57.6919 14.6426C57.5338 14.6929 57.5923 14.7497 57.3913 14.8072C56.5141 15.058 55.4326 15.2872 55.0511 15.3939C54.898 15.4365 54.744 15.5616 54.4324 15.6494C52.0787 16.3121 49.3078 17.0891 46.8138 17.8604C46.2056 18.0482 45.4711 18.2836 44.7273 18.526C43.7655 18.8449 42.7711 19.1696 41.9399 19.4287C37.6917 20.7558 33.0891 22.0477 29.1438 23.0374C23.1997 24.4861 17.2017 25.9607 10.7896 25.917C13.8029 26.1564 17.795 25.6032 20.9385 25.0394C28.8696 23.6123 36.8997 21.2104 44.7919 18.6998L44.7823 18.7028C45.9544 18.335 47.1831 17.9598 48.3675 17.6078C51.4737 16.6817 55.4148 15.5679 58.8583 14.7041C59.016 14.6644 59.326 14.5191 59.66 14.4382C59.7307 14.4209 60.6426 14.298 60.9436 14.2216C60.6075 14.1034 61.8349 13.9689 62.1918 13.8735C62.6436 13.7516 63.5691 13.4142 64.6637 13.2006C65.6421 13.0107 65.3948 13.151 65.4491 13.1424C65.7993 13.0882 65.8901 12.9395 66.151 12.863C67.2227 12.5391 72.7875 11.3162 74.3461 10.9925C74.7479 10.9057 74.7761 10.9798 74.8667 10.9603C75.1066 10.9087 75.432 10.7592 75.8174 10.677C76.5108 10.5292 77.3228 10.4339 77.705 10.3546C78.6193 10.1639 80.3344 9.72639 81.5245 9.49298C81.859 9.4271 81.8541 9.51106 82.0054 9.48137C82.6717 9.34932 84.3903 8.92703 85.2204 8.77623C86.5681 8.52892 87.9616 8.33849 89.3302 8.08348C89.423 8.10481 89.5158 8.12619 89.6086 8.14763C89.7393 8.08739 89.87 8.02727 90.0008 7.96726C92.327 7.61549 94.6804 7.18115 96.9946 6.88057C97.2634 6.84439 98.5914 6.74502 98.8094 6.71966C98.9921 6.6972 99.1581 6.58634 99.4345 6.56655C99.8193 6.53932 99.48 6.75153 100.098 6.62989C100.264 6.59735 100.093 6.54316 100.427 6.48187C100.539 6.45822 102.681 6.19763 102.804 6.19378C102.998 6.18277 103.186 6.32209 103.236 6.32057C103.497 6.3129 103.474 6.19413 103.646 6.16655C104.156 6.08442 104.823 6.10663 104.911 6.09734C105.929 5.98325 107.788 5.74758 108.859 5.74375C109.006 5.743 108.993 5.83367 109.019 5.83507C109.185 5.84401 109.282 5.73621 109.438 5.7252C110.268 5.66634 111.629 5.67653 112.463 5.67121C112.559 5.67025 112.763 5.61533 112.942 5.61567C113.94 5.62045 113.616 5.70816 113.673 5.70983C113.807 5.71584 114.04 5.6247 114.392 5.61547C115.285 5.58755 117.053 5.61247 118.02 5.65316C118.755 5.68217 118.737 5.78393 118.785 5.78725C118.886 5.79508 119.174 5.72657 119.645 5.74209C120.563 5.77487 120.462 5.8507 120.838 5.87228C120.87 5.87472 120.821 5.79349 121.238 5.81694C122.03 5.85513 123.838 6.11897 124.682 6.24304C125.012 6.2888 125.1 6.22719 125.432 6.27784C125.949 6.35161 127.127 6.65758 127.214 6.67943C127.239 6.68476 127.315 6.61333 127.466 6.64537C127.631 6.68065 127.783 6.75905 127.904 6.78626C127.962 6.79943 128.025 6.81249 128.089 6.82558C128.685 6.92869 129.476 7.18261 129.13 7.33319C129.327 7.33684 129.528 7.3513 129.732 7.37675C130.821 7.98245 131.78 8.8714 132.639 9.98985C132.834 10.2438 132.938 10.4928 133.093 10.7183C133.253 10.933 133.973 11.9342 134.074 12.1235C134.271 12.4297 135.275 14.3573 135.386 14.6183C135.613 15.1071 135.73 15.6348 135.851 15.8267C135.947 15.9793 135.938 15.7993 136.106 16.098C136.394 16.6121 136.775 17.5732 136.866 17.7408C136.905 17.8123 136.877 17.6504 137.236 18.3157C137.433 18.6767 137.486 18.8919 137.563 19.0268C137.589 19.0659 137.631 18.9642 138.048 19.6754C138.351 20.1808 138.434 20.4246 138.468 20.4768C138.523 20.5563 138.72 20.7017 138.949 21.0068C139.454 21.7332 140.69 23.0863 141.679 23.5452C141.863 23.63 141.824 23.546 142.579 23.8316C143.124 24.0096 143.015 24.0451 143.228 24.1001C143.572 24.1772 144.101 24.1699 144.816 24.1473C145.177 24.1485 146.387 24.0337 147.558 23.5818C149.218 22.9828 151.033 22.0777 151.185 22.0164C151.358 21.9457 151.541 21.8499 151.64 21.8451C151.591 21.9169 151.543 21.9884 151.495 22.0596C150.711 22.3089 151.077 22.2995 150.892 22.4066C150.622 22.5659 149.56 23.0565 149.308 23.2056C149.22 23.2591 149.468 23.2443 148.986 23.5075C148.453 23.793 148.151 23.7464 148.004 24.0322C147.916 24.0422 147.83 24.0558 147.748 24.072C146.867 24.2672 146.278 24.6217 147.305 24.3775C147.387 24.3549 147.56 24.3026 147.803 24.2149C149.219 23.7777 152.901 21.9247 153.681 21.4481C154.432 21.0309 155.765 20.1474 156.651 19.5978C157.184 19.273 158.437 18.4578 158.445 18.5851C158.904 18.2956 158.365 18.522 158.451 18.4458C158.635 18.2878 160.078 17.3983 160.33 17.2159C161.616 16.3073 163.145 15.0471 164.447 14.2529C164.408 14.3193 164.369 14.3855 164.33 14.4516C164.095 14.6967 162.767 15.5711 162.7 15.7945C164.589 14.4285 166.429 13.0376 168.259 11.6121C168.153 11.5448 170.398 9.77787 170.541 9.72933C170.538 9.80733 170.535 9.88529 170.533 9.96321C169.13 10.7911 169.416 10.9414 168.47 11.4815C168.119 11.7528 168.283 11.7487 168.122 11.8981C166.518 13.3714 167.98 11.7569 166.705 12.847C167.188 12.6563 166.143 13.5215 165.658 13.908C165.554 13.9943 164.063 15.0601 163.885 15.1908C162.913 15.9244 161.239 17.2164 160.185 17.8441C159.379 18.3869 158.995 18.767 158.278 19.2694C157.724 19.655 157.848 19.488 157.585 19.658C157.026 20.0173 156.961 20.3146 156.44 20.2865C156.074 20.5613 155.719 20.8251 155.347 21.095C155.322 21.0549 155.298 21.0149 155.274 20.9748C155.033 21.1208 154.79 21.2668 154.543 21.413C154.495 21.4959 154.446 21.5785 154.398 21.6609C153.583 22.0621 153.851 21.7738 153.64 21.7433C153.464 21.8334 153.298 21.9172 153.117 22.0085C153.033 22.1726 152.949 22.3357 152.865 22.498C152.087 22.9176 151.296 23.3212 150.481 23.7051C150.408 23.6889 150.334 23.6723 150.261 23.6553C150.279 23.6983 150.298 23.7413 150.316 23.7843C149.579 24.1411 148.822 24.4809 148.028 24.7943C147.178 25.1249 146.292 25.3793 145.25 25.4742C144.971 25.5263 145.614 25.5312 146.303 25.4113C147.056 25.285 147.757 25.0514 148.081 24.9317C148.127 24.9151 148.159 24.9032 148.175 24.8975C149.217 24.5498 151.646 23.2669 151.707 23.4073C152.225 23.0098 153.884 22.1233 154.462 21.9492C153.688 22.3916 152.91 22.8179 152.109 23.2302C152.16 23.2663 152.211 23.3022 152.263 23.3381C151.153 23.6636 151.026 23.7442 150.039 24.4414C150.007 24.3739 149.974 24.3063 149.942 24.2388C149.495 24.6469 148.597 24.8558 148.119 25.0321C147.854 25.1325 147.687 25.2165 147.702 25.3147C147.163 25.4718 146.57 25.6039 145.954 25.6762C145.294 25.7907 145.463 25.8324 145.148 25.9151C144.871 25.8966 143.824 26.4396 140.978 25.1396C140.615 24.9428 140.722 24.9187 140.212 24.6079C140.082 24.5191 139.103 24.0718 138.063 22.8737C137.905 22.6904 137.947 22.6305 137.797 22.4345C137.448 21.9876 136.747 21.2048 137.206 21.4668C136.153 19.7538 136.48 20.56 136.095 20.0796C135.855 19.7609 136.014 19.7653 135.826 19.4922C135.605 19.1594 135.594 19.463 134.941 18.0453C135.026 18.193 135.116 18.3488 135.204 18.5005C135.197 18.4047 135.189 18.3091 135.182 18.2136C134.707 17.4702 134.865 17.4882 134.498 17.217C134.31 16.6228 134.088 16.144 133.718 15.4312C133 14.075 133.16 14.8553 132.635 13.2457C132.468 13.0337 132.301 12.8278 132.134 12.6303C131.994 12.2265 132.266 12.451 131.956 11.9166C132.029 12.4349 131.396 11.3138 131.116 11.2878C131.141 11.2429 131.166 11.1978 131.191 11.1527C131.115 11.0504 131.038 10.951 130.962 10.8546C130.932 10.8776 130.903 10.9007 130.873 10.9238C130.794 10.7796 130.713 10.6375 130.631 10.5004C130.526 10.4356 130.421 10.3749 130.317 10.3187C130.247 10.1291 130.173 9.94442 130.095 9.76482C130.016 9.68448 129.936 9.60617 129.856 9.5318C129.846 9.59689 129.836 9.66176 129.825 9.72642C129.733 9.62131 129.639 9.52119 129.545 9.4258C129.612 9.5965 129.467 9.60537 129.151 9.38632C128.887 9.22023 129.293 9.21995 128.665 8.97314C128.618 8.964 128.497 9.02061 127.927 8.85644C127.8 8.82258 127.704 8.79937 127.634 8.78049C127.143 8.65744 127.499 8.67044 127.331 8.62984C127.291 8.62013 126.921 8.60893 126.575 8.55075C126.379 8.5175 126.198 8.42719 126.171 8.42243C126.049 8.40224 125.996 8.47239 125.828 8.44533C125.412 8.37773 124.843 8.24845 124.41 8.19183C124.215 8.16579 124.02 8.18687 123.934 8.17624C123.803 8.15951 123.644 8.06769 123.508 8.05155C123.01 7.99085 122.208 8.14719 121.995 7.79942C121.488 8.05263 120.481 7.61525 120.54 7.82311C119.22 7.63112 115.637 7.81939 115.733 7.49313C114.955 7.78229 115.034 7.57376 114.713 7.57981C114.356 7.5877 114.542 7.64228 114.257 7.64299C113.597 7.64526 112.932 7.63613 112.28 7.65567C112.382 7.60586 112.485 7.5562 112.587 7.50669C111.892 7.51305 112.136 7.61309 111.423 7.66072C110.104 7.7542 110.654 7.64598 110.453 7.53235C110.502 7.64585 108.965 7.70933 108.801 7.70631C108.705 7.70313 109.113 7.5242 108.157 7.63458C108.213 7.67774 108.268 7.72092 108.324 7.76415C107.877 7.72751 106.711 7.89387 106.509 7.89502C106.417 7.89473 105.894 7.55801 105.464 7.89385C105.405 7.85196 105.346 7.81011 105.287 7.76829C104.781 7.8682 104.299 7.96852 103.801 8.07251C103.713 7.9964 103.625 7.92036 103.537 7.8444C103.378 7.85988 103.218 7.87563 103.058 7.89164C103.172 7.95535 103.285 8.01919 103.398 8.08316C102.405 8.14565 101.224 8.3947 100.993 8.16759C100.787 8.23765 100.582 8.3081 100.376 8.37895C100.229 8.3116 100.082 8.24445 99.934 8.17749C98.952 8.31584 98.9528 8.37338 98.296 8.54591C98.3138 8.4777 98.3316 8.4095 98.3494 8.34129C97.8709 8.49405 96.9763 8.6971 96.2705 8.80589C95.9355 8.85694 95.3441 8.84905 95.2655 8.86859C95.1862 8.88816 94.445 9.35279 94.3144 9.06231C93.165 9.36832 92.639 9.31071 92.1651 9.38751C91.8584 9.4377 91.7297 9.53243 91.3835 9.59518C90.8866 9.68538 90.3846 9.7312 90.0993 9.78335C89.9363 9.81334 89.9175 9.88924 89.8052 9.91014C89.2738 10.0097 89.5742 9.88502 89.0124 9.98448C88.9606 9.99408 88.5639 10.1499 88.098 10.219C87.8379 10.2573 87.1525 10.2775 87.0934 10.2884C86.8316 10.3366 87.0759 10.4923 86.1403 10.4291C86.1729 10.4613 86.2055 10.4934 86.2382 10.5256C85.1469 10.8191 84.9419 10.6891 84.7162 10.7188C84.6875 10.7231 84.4298 10.8366 84.267 10.8581C83.9919 10.8942 83.8656 10.8282 83.8046 10.8357C83.5894 10.8624 82.881 11.0367 82.3969 11.0438C82.5426 11.2707 80.9226 11.679 80.5043 11.4739C80.2255 11.587 79.947 11.7004 79.6688 11.8143C79.5286 11.7949 79.3884 11.7757 79.248 11.7566C79.1775 11.8186 79.1071 11.8808 79.0367 11.9429C78.5935 11.9289 78.1503 11.9158 77.7072 11.9035C77.7014 12.01 77.6957 12.1164 77.69 12.2229C77.5696 12.2362 77.4492 12.2495 77.3288 12.2629C77.2198 12.2023 77.1108 12.1416 77.0017 12.081C76.8575 12.1276 76.7133 12.1742 76.5693 12.2209C76.5452 12.2866 76.5211 12.3523 76.497 12.418C75.7181 12.6552 76.0037 12.0137 74.5997 12.8289C74.355 12.8348 74.1105 12.8409 73.8662 12.8473C73.6522 13.1275 73.123 13.1045 72.7272 13.22C72.4484 13.3014 72.4836 13.3859 72.0995 13.4752C71.7154 13.5646 71.7101 13.4774 71.68 13.4837C71.3657 13.5501 71.1472 13.6785 70.9147 13.7166C70.8792 13.7225 70.7719 13.6419 70.4751 13.7041C70.1792 13.7662 70.0265 13.9137 69.585 13.9962C69.3589 14.0386 69.2745 13.9698 69.0745 14.0091C68.1246 14.1953 67.2735 14.8507 66.4429 14.5192C66.2956 14.6224 65.2082 15.1267 64.7026 15.2397C63.9252 15.4121 64.1983 15.2391 63.8875 15.2979C63.843 15.3062 63.616 15.3984 62.9731 15.5553C62.8581 15.5834 62.8989 15.6324 62.8826 15.6373C62.1386 15.8248 60.6524 16.1626 59.8402 16.3688C59.7707 16.3863 59.4176 16.6447 58.709 16.6106C57.7899 17.0196 55.865 17.1881 54.6766 17.7699C54.5034 17.8235 54.2688 17.8297 54.1913 17.8534C53.5214 18.0606 53.8063 18.1588 52.2367 18.342C52.3836 18.3923 52.0518 18.5703 51.5435 18.7101C50.7851 18.9192 51.2744 18.6049 50.6746 18.7935C50.6877 18.8384 50.7008 18.8832 50.7139 18.9281C49.3174 19.2058 49.0517 19.4929 47.6902 19.9041C47.1901 20.0552 46.4121 20.1852 46.2965 20.2207C46.2498 20.2352 45.7433 20.5093 45.6933 20.5259C45.5717 20.5651 45.4701 20.5877 45.3746 20.6067L45.3949 20.6003C45.255 20.63 45.1271 20.6523 44.9745 20.7004C44.097 20.977 43.1255 21.4315 43.2306 21.1203C43.013 21.2467 42.7965 21.3724 42.5812 21.4975C41.635 21.4919 41.0669 22.0724 40.7948 21.8664C40.6487 21.97 40.5032 22.0733 40.3582 22.1763C36.5468 23.2895 32.6749 24.3452 28.7494 25.2748C28.6501 25.393 26.8592 25.7859 26.7862 25.7859C26.3725 25.8165 26.7469 25.5333 25.9504 25.7591C25.8802 25.8618 25.8102 25.9643 25.7404 26.0668C24.6753 26.3305 25.1717 26.134 24.7402 26.1691C24.5682 26.2168 24.6379 26.2692 24.4045 26.3238C23.1899 26.616 20.5312 27.1301 19.0992 27.3529C18.8184 27.3983 18.8521 27.3305 18.7654 27.3438C18.5458 27.3785 18.0308 27.5347 17.5354 27.6025C14.4545 27.9927 10.0567 28.5066 6.06229 27.4336C5.80219 27.3582 5.78127 27.2746 5.58509 27.2101C5.30111 27.1192 4.7326 26.9732 4.39235 26.8065C4.10357 26.6664 3.94942 26.5257 3.65509 26.3477C2.9248 25.896 2.02061 25.2526 1.29483 24.0855C0.573255 22.9468 0.351147 21.5048 0.501245 20.5075C0.509507 20.4245 0.627364 19.8644 0.810088 19.4085C0.984165 18.9584 1.20265 18.5731 1.2149 18.5656C1.30317 18.4829 1.27695 18.7948 1.34327 18.8586C1.41751 18.9287 1.53105 18.6704 2.04761 17.7503C1.71705 18.6342 1.74727 19.0237 1.90361 18.8329C2.06682 18.6564 2.41082 17.9457 3.02648 17.0658C2.50288 18.0058 2.00738 19.0784 1.92845 20.4902C1.95901 20.4943 1.98957 20.4983 2.02014 20.5023C2.2762 19.2651 2.71185 18.3211 3.48178 17.1061C3.48147 17.1596 3.4816 17.213 3.48216 17.2662C2.93246 18.3729 2.34436 20.0186 2.6933 21.2459C2.72115 19.4648 3.58975 18.2991 4.39862 17.3122C4.38106 17.3781 4.36427 17.4438 4.34828 17.5093C4.03722 18.0419 3.47314 19.3058 3.43565 19.8773C3.36345 20.9385 3.45883 20.4614 3.61352 19.8691C3.78071 19.2682 4.13636 18.6087 4.06765 18.9002C3.65971 19.806 3.38674 20.9247 3.80827 21.983C4.23541 23.0475 5.22458 23.6543 6.15191 24.0057C6.18748 23.9868 5.72699 23.818 5.13955 23.3936C4.55327 22.992 3.84982 22.1212 3.84664 21.1323C3.86021 19.1578 5.31063 17.7993 5.33864 17.9114C5.02486 18.4044 4.75147 18.9249 4.56304 19.4646C4.72349 19.2479 4.89109 19.0588 5.07391 18.8665C5.06101 18.939 5.04965 19.0107 5.03989 19.0816C4.67446 19.9313 4.52984 20.8659 4.83594 21.5065C4.46115 20.4683 5.01471 19.3967 5.42274 18.8056C5.86791 18.1839 6.31009 17.8837 6.73616 17.8022C6.6993 17.8698 6.66349 17.9374 6.62879 18.0048C6.31425 18.1229 5.71419 18.7935 5.35978 19.6188C4.97507 20.4652 5.06322 21.274 5.34556 21.5949C5.33988 21.4896 5.24452 21.2951 5.21743 21.0456C5.18425 20.8016 5.22701 20.495 5.28126 20.3922C5.30995 20.3372 5.3411 20.5557 5.40283 20.4267C5.47449 20.272 5.67691 19.794 5.95239 19.4033C6.22091 19.0094 6.51275 18.7047 6.48191 18.8519C6.46958 18.9379 6.03696 19.6645 5.89622 20.3034C5.74785 20.9789 5.92266 21.1405 5.95566 21.2206C5.92303 21.034 5.91995 20.8218 6.10877 20.3309C6.29636 19.8629 6.66429 19.3054 7.12647 18.8136C6.9676 19.2263 6.87334 19.6143 6.79331 20.0103C6.71168 20.3858 6.69292 20.8363 6.72123 20.8611C6.79541 20.8365 6.80048 20.9404 6.98592 20.5269C7.16683 20.1433 7.64928 19.5196 7.69244 19.5218C7.46964 19.9681 7.33165 20.4046 7.32516 20.6658C7.36925 20.4601 7.502 20.134 7.69934 19.7914C7.71975 19.803 7.74014 19.8146 7.76053 19.8262C7.53335 20.2754 7.45086 20.7056 7.4936 20.8377C7.51093 20.9027 7.55979 20.867 7.5543 20.7167C7.55399 20.5705 7.45725 20.3244 7.35417 20.211C7.40612 20.1787 7.50327 20.2432 7.59096 20.4059C7.67937 20.5659 7.70312 20.7573 7.7034 20.8155ZM160.946 17.6619C161.033 17.7271 160.483 18.089 160.168 18.3026C160.225 18.2857 160.283 18.2686 160.341 18.2515C159.662 18.6982 158.403 19.4887 158.46 19.6881C157.988 20.0278 158.108 19.741 157.942 19.8262C157.882 19.8564 157.295 20.3581 156.725 20.5714C156.601 20.6498 156.479 20.7273 156.357 20.804C156.368 20.8742 156.379 20.9445 156.39 21.0147C156.177 21.0539 155.971 21.0876 155.753 21.1282C157.534 20.0197 159.258 18.8558 160.944 17.6636C160.945 17.663 160.946 17.6624 160.946 17.6619ZM138.933 23.4981C138.123 22.71 137.356 21.5161 137.381 21.857C137.738 22.325 138.15 22.8127 138.639 23.291C138.736 23.3614 138.833 23.4305 138.933 23.4981ZM77.7557 11.7222C77.1246 11.6742 76.614 11.9377 75.6859 12.1052C75.695 12.1414 75.7041 12.1776 75.7132 12.2137C76.0715 12.0446 77.0738 11.8913 77.7557 11.7222ZM175.143 5.84687C175.256 5.77044 175.37 5.69366 175.484 5.61653C175.185 6.12656 175.018 6.08166 174.553 6.49144C174.525 6.51612 174.564 6.54323 174.555 6.55172C174.438 6.65225 174.291 6.70149 174.184 6.79068C173.978 6.96278 173.845 7.14531 173.48 7.44131C173.2 7.66883 173.139 7.6045 173.04 7.68827C172.952 7.76399 172.273 8.62882 171.655 8.99233C170.499 9.67714 174.835 6.0945 175.143 5.84687ZM178.261 3.44241C178.161 3.52856 178.061 3.61442 177.962 3.69997C178.176 3.34094 177.579 3.87441 177.141 4.24714C177.07 4.1381 178.043 3.38862 178.447 2.99343C178.385 3.1434 178.323 3.29305 178.261 3.44241ZM165.133 13.6526C165.536 13.3334 165.566 13.5127 165.577 13.5646C165.446 13.6638 165.315 13.7624 165.185 13.8602C165.168 13.791 165.15 13.7218 165.133 13.6526ZM168.182 11.2466C168.117 11.4374 167.271 12.1548 166.849 12.489C166.831 12.503 166.91 12.3664 166.614 12.6001C166.525 12.6714 165.779 13.5139 165.821 13.169C166.609 12.5362 167.391 11.8988 168.181 11.2475C168.181 11.2472 168.181 11.2469 168.182 11.2466ZM169.108 10.6035C168.962 10.762 168.817 10.9195 168.673 11.076C168.556 11.1023 168.439 11.1282 168.323 11.1538C168.502 10.9976 168.681 10.8402 168.862 10.6813C168.944 10.6555 169.026 10.6296 169.108 10.6035ZM26.2015 24.553C26.2611 24.596 26.3209 24.6389 26.3808 24.6817C26.57 24.6738 27.4269 24.2258 27.1276 24.2483C26.8152 24.3518 26.5065 24.4534 26.2015 24.553ZM22.3405 25.2588C22.1398 25.2699 21.941 25.2801 21.7441 25.2894C21.5414 25.4234 21.3403 25.5564 21.1411 25.6883C22.0872 25.5792 23.1738 25.4316 22.9349 25.1985C23.1441 25.1562 23.3554 25.1129 23.5687 25.0685C23.4133 25.2171 23.4411 25.2507 24.0202 25.2029C24.111 25.0214 24.7126 24.977 25.4023 24.7875C24.8937 24.8912 24.3958 24.9896 23.9084 25.0828C23.9027 25.0554 23.8969 25.028 23.8911 25.0006C24.9836 24.7782 23.5822 24.898 22.9266 25.1424C22.8647 25.1168 22.8063 25.0906 22.7385 25.0662C22.6051 25.1308 22.4724 25.195 22.3405 25.2588ZM98.8578 7.2032C98.7224 7.19151 98.5867 7.17997 98.4509 7.1686C97.9859 7.59685 98.9786 7.12004 99.7646 7.3199C99.4917 7.12971 100.633 7.00559 100.695 6.98451C100.556 6.92556 100.417 6.86679 100.277 6.80819C99.8047 6.93789 99.3234 7.07058 98.8578 7.2032ZM95.0661 7.45096C95.5533 7.56521 93.2893 7.90163 92.5322 7.98049C92.347 7.99881 92.0036 7.9504 91.8726 7.98374C91.7977 8.03299 91.7229 8.08228 91.648 8.13161C91.5321 8.01902 90.076 8.398 89.508 8.56371C89.4457 8.52672 89.3833 8.48976 89.3208 8.45282C89.112 8.50647 88.903 8.56041 88.694 8.61463C88.7129 8.56422 88.7318 8.51381 88.7507 8.4634C88.5995 8.54575 88.4484 8.62823 88.2973 8.71087C87.6778 8.88038 88.0222 8.56361 87.5634 8.7234C87.0542 8.90127 87.9389 8.90073 87.9405 9.00054C88.3632 8.90138 89.3237 8.68153 89.7554 8.60785C90.0036 8.56575 89.7502 8.78444 90.7876 8.41134C91.0309 8.42 91.2738 8.42907 91.5164 8.43853C91.9366 8.29622 92.3565 8.15514 92.7761 8.01533C92.8663 8.06761 92.9564 8.11994 93.0464 8.17234C93.0928 8.1751 94.0693 7.88002 94.0098 7.83967C94.4341 7.90338 95.2691 7.8049 96.141 7.6921C96.2201 7.64547 96.2991 7.59889 96.3782 7.55235C95.5457 7.74345 96.1049 7.55178 95.8442 7.51902C95.6937 7.50015 95.2379 7.48624 95.0661 7.45096ZM32.0859 22.9457C30.7294 23.4671 31.587 23.1093 30.0166 23.512C30.1461 23.5661 30.2761 23.62 30.4067 23.6736C31.1758 23.3189 32.3699 23.1075 32.0874 22.9453C32.0869 22.9454 32.0864 22.9456 32.0859 22.9457ZM16.8266 26.4291C17.6668 26.2653 17.2165 26.1978 18.3154 25.9935C18.3159 25.9935 18.3164 25.9934 18.3168 25.9933C17.7415 26.0708 17.1721 26.1406 16.6289 26.1999C16.6944 26.2765 16.7603 26.3529 16.8266 26.4291ZM64.0147 14.0311C64.7933 13.8744 64.6306 13.8473 65.3533 13.8036C66.3491 13.3952 65.4792 13.632 65.4447 13.492C65.2183 13.5912 64.9936 13.6904 64.7673 13.7901C64.1559 13.803 64.6884 13.6007 64.6855 13.5881C64.685 13.5882 64.6845 13.5883 64.684 13.5884C64.6736 13.5464 64.6901 13.5329 64.4616 13.5627C64.3122 13.7188 64.1632 13.8749 64.0147 14.0311ZM67.2618 13.0501C67.0192 13.2072 66.929 13.3552 67.6398 13.2475C67.6403 13.2474 67.6407 13.2473 67.6412 13.2472C67.6463 13.0256 68.348 13.0356 68.6476 12.9501C68.7217 12.9087 68.7957 12.8672 68.8699 12.8258C68.332 12.8998 67.8026 12.973 67.2618 13.0501ZM78.859 10.2608C78.9091 10.492 78.3281 10.6339 79.1961 10.6788C79.355 10.642 79.5139 10.6054 79.673 10.5689C79.7676 10.4968 79.8624 10.4247 79.9572 10.3526C82.0714 10.369 82.5344 9.5286 79.1567 10.486C79.1563 10.4862 79.1558 10.4865 79.1554 10.4867C79.0567 10.4114 78.958 10.336 78.859 10.2608ZM75.2881 11.0333C75.2885 11.1602 75.289 11.2872 75.2896 11.4141C74.7782 11.2185 74.261 11.6234 73.3417 11.6113C73.271 11.6657 73.2 11.7203 73.1285 11.7749C72.7763 11.7642 69.5673 12.4764 70.3033 12.5039C70.6261 12.5145 71.2589 12.253 71.3169 12.2424C71.5117 12.2075 71.7869 12.2541 72.1116 12.1742C72.2992 12.1279 72.6694 11.9157 73.0557 11.8297C73.9146 11.6376 75.5572 11.6225 76.6236 11.0711C76.7129 11.0905 76.8021 11.1098 76.8913 11.1292C77.7267 10.9298 77.422 10.8725 78.2339 10.8482C78.6533 10.1549 75.096 11.5396 75.7628 10.9105C75.7623 10.9106 75.7618 10.9107 75.7613 10.9108C75.6035 10.9515 75.4457 10.9924 75.2881 11.0333ZM52.3457 16.9677C52.2685 16.8792 51.3577 17.3104 51.5116 17.0023C51.2183 17.1786 50.9276 17.3546 50.6394 17.5304C50.6484 17.5524 50.6574 17.5743 50.6663 17.5963C50.9721 17.4881 51.2801 17.3798 51.5905 17.2712C51.602 17.3069 51.6136 17.3425 51.6251 17.3781C52.0484 17.1138 53.9963 16.6247 53.9793 16.7683C54.0689 16.6851 54.1588 16.6018 54.2489 16.5186C55.2031 16.4106 55.9659 16.0323 57.0214 15.9004C57.0869 15.8346 57.1524 15.7688 57.2181 15.703C57.2786 15.7255 57.339 15.7479 57.3995 15.7704C57.7671 15.6761 58.1368 15.5819 58.5085 15.4877C59.6784 15.0203 57.2797 15.457 57.0111 15.5547C56.9747 15.5677 57.0056 15.6597 56.7772 15.7375C56.3487 15.8794 54.016 16.4228 53.2943 16.6951C53.2706 16.635 53.2469 16.5749 53.2232 16.5148C52.9286 16.6659 52.6361 16.8169 52.3457 16.9677ZM83.4439 9.61489C83.5097 9.66903 83.5754 9.72319 83.6411 9.77738C84.5538 9.53883 85.1471 9.48926 84.8705 9.31984C84.87 9.31993 84.8695 9.32002 84.869 9.32011C84.3939 9.41715 83.9189 9.51541 83.4439 9.61489ZM144.474 24.7726C144.429 24.6367 143.777 24.6117 142.874 24.4773C142.907 24.5247 142.941 24.5718 142.975 24.6187C143.456 24.603 144.05 24.9684 145.429 24.808C145.422 24.743 145.414 24.678 145.407 24.613C145.099 24.6855 144.787 24.7392 144.474 24.7726ZM82.6402 9.73926C82.3434 9.71742 81.597 10.1011 82.1196 10.0113C82.5191 9.9427 82.7993 9.75096 82.6402 9.73926ZM13.4043 26.6412C13.63 26.6403 13.8599 26.6374 14.0941 26.6325C14.2098 26.5674 14.3329 26.5012 14.4433 26.4357C14.4428 26.4358 14.4423 26.4358 14.4418 26.4358C14.094 26.5084 13.7419 26.5774 13.4043 26.6412ZM61.3977 14.7074C62.105 14.5165 62.7913 14.3331 63.4921 14.1482C63.4902 14.1113 63.4883 14.0743 63.4865 14.0373C62.8166 14.3428 62.5023 14.276 62.3373 14.309C62.338 14.3088 62.3388 14.3086 62.3395 14.3084C61.812 14.4134 61.2953 14.5246 60.789 14.6112C60.9916 14.6432 61.1945 14.6752 61.3977 14.7074ZM58.9432 15.1125C59.1273 15.3293 59.2928 15.315 60.314 14.8615C60.2636 14.842 60.2132 14.8225 60.1629 14.8031C59.613 14.9664 59.308 15.1084 59.3704 14.9536C59.2284 15.0064 59.0853 15.0595 58.9432 15.1125ZM69.9525 12.4561C69.8029 12.4067 68.7904 12.7287 68.8564 12.7557C68.8813 12.766 70.2421 12.5526 69.9525 12.4561ZM153.102 21.469C152.872 21.5778 152.635 21.6891 152.406 21.7935C152.685 21.6084 152.977 21.4123 153.25 21.2243C153.201 21.3061 153.151 21.3877 153.102 21.469ZM155.302 19.7393C155.472 19.6719 155.095 20.1801 156.04 19.6592C155.377 20.0822 154.724 20.4873 154.039 20.8961C154.338 20.6771 154.636 20.4548 154.928 20.2334C154.839 20.2102 154.75 20.1867 154.662 20.1629C154.872 20.0248 155.095 19.8777 155.302 19.7393ZM156.103 19.4379C155.658 19.5167 157.497 18.3221 157.683 18.2169C157.725 18.1956 157.975 18.189 158.058 18.1684C157.788 18.348 157.501 18.5377 157.225 18.7176C157.34 18.6922 157.457 18.6662 157.573 18.6396C157.253 18.8666 156.94 19.0872 156.614 19.3126C156.732 19.1873 156.852 19.06 156.97 18.9335C156.678 19.1055 156.388 19.2745 156.103 19.4379ZM148.168 23.7413C148.444 23.6334 148.714 23.5231 148.984 23.4087C148.905 23.3719 148.826 23.335 148.745 23.2989C148.583 23.3697 148.422 23.438 148.264 23.5039C148.235 23.5819 148.201 23.6621 148.168 23.7413ZM153.352 21.0524C153.157 21.5295 151.837 21.4797 153.102 21.0594C153.228 21.0172 153.371 21.0065 153.352 21.0524ZM158.387 17.7936C158.973 17.1206 159.103 17.646 158.336 17.9828C158.297 17.9992 158.342 17.8441 158.387 17.7936ZM163.648 14.0634C163.705 14.0233 163.897 14.0869 164.339 13.5623C164.438 13.5117 164.541 13.458 164.637 13.4094C164.475 13.6305 162.738 14.967 162.885 14.6551C163.152 14.4568 163.372 14.2614 163.648 14.0634ZM161.576 14.8236C161.312 15.0188 161.052 15.2101 160.783 15.4071C160.901 15.386 161.02 15.3644 161.14 15.3424C161.014 15.4491 160.889 15.555 160.765 15.66C160.486 15.7489 160.22 15.8279 159.936 15.9182C160.51 15.4997 161.088 15.0709 161.654 14.6453C161.628 14.7048 161.602 14.7642 161.576 14.8236ZM154.226 19.5741C154.806 19.2994 155.435 18.8305 156.305 18.284C156.305 18.2838 156.306 18.2837 156.306 18.2835C156.35 18.2565 156.469 18.2636 156.606 18.1784C156.727 18.113 158.993 16.5009 158.878 16.7169C158.059 17.4058 157.618 17.4989 157.558 17.8593C157.484 17.8407 157.409 17.8233 157.333 17.8058C156.412 18.2951 156.264 18.6178 155.816 18.9867C155.795 18.9498 155.775 18.9128 155.754 18.8758C155.416 19.0844 155.091 19.282 154.753 19.4843C154.815 19.4789 154.877 19.4733 154.939 19.4676C154.819 19.5414 154.7 19.6143 154.582 19.6863C154.228 19.7547 153.856 19.9432 154.226 19.5741ZM162.821 14.0049C162.882 13.5686 165.373 11.9845 166.398 11.1009C165.952 11.6898 165.002 12.2465 164.384 12.7073C163.185 13.5993 164.083 13.0755 163.911 13.2689C163.822 13.3676 163.031 13.6982 162.821 14.0049ZM152.239 20.7949C152.913 20.4473 153.239 20.1717 153.859 19.9414C153.823 19.9897 153.788 20.0378 153.753 20.0859C153.561 20.1828 151.931 21.0292 152.239 20.7949ZM168.004 9.95842C166.812 10.7443 167.537 10.5463 166.816 10.8306C167.196 10.5188 167.578 10.2034 167.952 9.89235C167.97 9.91437 167.987 9.9364 168.004 9.95842ZM80.815 8.86466C80.2257 8.97347 79.5581 9.0481 79.2314 9.23806C79.6338 9.1755 80.0364 9.11368 80.4393 9.05263C80.5644 8.9899 80.6897 8.92724 80.815 8.86466ZM97.507 4.90718C97.3672 4.89568 96.8387 5.05113 96.7817 5.05883C96.6759 5.07282 96.6993 5.02718 96.6963 5.01645C96.0045 5.11645 96.6611 5.16061 96.1522 5.25779C96.066 5.27347 94.8644 5.37379 94.377 5.45017C93.6278 5.56581 92.8776 5.67001 92.6005 5.7144C92.1304 5.78914 91.2706 6.02137 90.4948 6.1514C90.1746 6.20487 90.0527 6.14501 89.7325 6.19936C87.6739 6.54175 83.6516 7.37744 81.8268 7.68673C81.3756 7.76136 80.9275 7.74446 80.6917 7.79954C80.5118 7.87336 80.332 7.94733 80.1523 8.02145C79.5109 7.80437 79.3773 8.13827 78.7648 8.29507C78.3758 8.39476 78.1707 8.33475 78.118 8.34583C77.7676 8.42004 77.6044 8.5027 77.3309 8.56775C77.0239 8.64059 76.5716 8.68962 76.4631 8.72095C76.3965 8.74099 76.6404 8.82401 75.4443 9.07716C74.2201 9.33724 73.0257 9.58588 71.7809 9.86064C72.2816 10.1601 72.5801 9.81085 73.0799 9.68479C73.2142 9.65096 73.1424 9.73233 73.2594 9.70351C73.5899 9.62235 74.2141 9.42114 74.4936 9.37603C74.7954 9.32725 74.7247 9.49403 75.0917 9.35883C75.1102 9.35194 75.0368 9.30523 75.1237 9.27599C76 8.98413 76.31 9.02636 77.4429 8.79279C78.1937 8.62911 82.7422 7.66784 82.9087 7.68524C83.7649 7.73427 78.9575 8.67111 78.3957 8.77974C78.1979 8.81433 78.3904 8.7058 78.2086 8.72998C78.1315 8.74051 77.4747 9.00727 76.8043 9.15948C75.9956 9.34186 74.3372 9.60989 73.5659 9.78427C66.9102 11.2822 60.3736 12.8397 53.8109 14.6663C53.6733 14.7047 53.5033 14.8321 53.0453 14.9609C50.184 15.7657 47.3001 16.6067 44.4075 17.4981C38.6829 19.2953 32.8749 20.9787 27.0944 22.3841C25.1767 22.8481 23.3307 23.3281 21.3413 23.6488C21.1099 23.7502 20.8812 23.8501 20.655 23.9486C21.2436 23.7977 22.4335 23.693 22.5418 23.6719C22.5778 23.6652 22.7887 23.5582 23.1586 23.4851C23.6797 23.3816 23.9277 23.384 23.9708 23.3749C24.1065 23.346 24.0052 23.3078 24.1352 23.2802C25.138 23.0659 25.8096 22.8959 26.7004 22.6865C27.7166 22.4462 28.2169 22.4348 28.8987 22.142C28.9905 22.1672 29.0827 22.1923 29.1751 22.2172C29.6865 21.8873 32.8311 21.087 34.1397 20.727C34.5345 20.6208 34.4882 20.7186 34.6212 20.6815C34.7083 20.6565 34.637 20.567 35.6998 20.287C36.2378 20.1447 36.4031 20.1782 36.6747 20.0972C36.8228 20.0528 36.7769 19.9854 36.991 19.9232C38.1661 19.5816 39.1368 19.3194 40.345 18.9682C40.6849 18.8691 40.7082 18.9296 40.7785 18.9073C41.0407 18.8243 41.4661 18.5798 42.1492 18.3685C42.7216 18.1916 43.5954 17.9189 44.4594 17.6521C45.2403 17.4164 46.0228 17.1913 46.4924 17.0762C46.6343 17.0414 46.7674 17.0824 46.865 17.0517C47.0131 17.0049 47.0484 16.9096 47.0745 16.9013C47.5747 16.7493 47.2948 16.9122 47.6266 16.7936C47.8061 16.7296 47.9693 16.5842 48.3955 16.4468C48.9589 16.2655 48.8842 16.4023 49.1106 16.3241C49.1346 16.3153 49.12 16.24 49.3472 16.1707C50.2048 15.9091 51.4973 15.5182 52.3121 15.2878C52.55 15.2204 52.7412 15.2196 53.0761 15.1262C53.7562 14.9305 57.5549 13.8587 57.8784 13.8083C57.9124 13.8024 57.6003 14.0021 58.1431 13.8539C58.2891 13.7665 58.4355 13.6791 58.5824 13.5918C58.8684 13.5936 59.1504 13.5968 59.4302 13.6009C59.3523 13.3525 60.8926 12.9102 60.9454 13.1711C61.1187 13.1375 61.2923 13.1039 61.4662 13.0703C61.7804 12.8007 62.0235 12.808 62.6812 12.5305C62.8014 12.558 62.9217 12.5855 63.0421 12.613C63.0598 12.57 63.0775 12.5269 63.0953 12.4838C63.5098 12.5885 64.063 12.2405 64.1364 12.2212C64.4188 12.1463 64.6382 12.1452 64.7689 12.1112C65.2547 11.9853 66.3009 11.6567 66.8867 11.5499C66.9142 11.545 66.9078 11.6358 67.0745 11.6067C67.3755 11.5543 67.3719 11.4246 67.7985 11.4761C67.8688 11.4209 67.9393 11.3656 68.0098 11.3104C68.0983 11.3093 68.1869 11.3082 68.2754 11.3071C68.7696 11.1799 69.2656 11.0534 69.7633 10.9275C69.3412 11.1766 69.8863 11.1335 70.3496 10.9081C70.5068 10.8316 70.3394 10.7785 70.3918 10.7525C70.4613 10.7159 72.7086 10.2526 72.8719 10.2773C72.972 10.2261 73.071 10.1753 73.1706 10.1243C73.2363 10.1674 73.3019 10.2105 73.3675 10.2537C73.4215 10.2215 73.4756 10.1894 73.5297 10.1573C74.131 10.1249 75.5989 9.57443 75.8781 9.53407C76.0265 9.5123 75.9446 9.77463 76.6416 9.60198C76.6523 9.53234 76.6631 9.4627 76.6739 9.39306C76.8329 9.34985 76.9919 9.30676 77.1511 9.26376C77.4547 9.20608 77.9185 9.22658 77.9484 9.30021C78.0334 9.23473 78.1186 9.16928 78.2037 9.10387C78.4896 9.20016 79.8307 8.87207 80.3577 8.66959C80.5262 8.68304 80.6946 8.69662 80.863 8.71034C81.0665 8.61313 81.2701 8.51613 81.4739 8.41932C81.9676 8.30601 81.4604 8.49956 81.5678 8.48657C81.7946 8.4581 82.9071 8.0846 82.8686 8.29176C83.0244 8.2626 83.1803 8.23357 83.3361 8.20466C83.4058 8.13454 83.4756 8.06444 83.5453 7.99436C83.8488 8.13399 84.2973 7.97978 85.2615 7.87591C85.3333 7.81771 85.4051 7.75953 85.477 7.70139C85.7823 7.71037 86.0873 7.71988 86.3921 7.72992C86.4396 7.64678 86.4871 7.56366 86.5346 7.48055C86.6606 7.44753 86.7866 7.41461 86.9126 7.38178C87.2005 7.49851 87.6361 7.24225 87.8865 7.26835C88.2509 7.30674 88.0011 7.46866 87.3619 7.60272C87.4294 7.71121 89.34 7.3299 89.7792 7.25102C89.7463 7.23269 89.7133 7.21436 89.6803 7.19604C89.2316 7.28869 88.7825 7.38265 88.3331 7.47787C87.9031 7.24472 89.1465 7.11542 89.7031 6.98545C89.7543 6.97334 90.0262 6.81235 90.5978 6.73125C90.82 6.69942 91.7072 6.72865 91.8724 6.71282C93.2084 6.58481 92.1981 6.49658 93.525 6.50949C93.2296 6.39137 93.999 6.41082 94.7711 6.2698C94.903 6.24491 96.004 5.96058 96.0786 5.94775C96.5481 5.8632 96.052 6.07281 96.7338 5.94436C96.8114 5.89644 96.8891 5.84857 96.9667 5.80075C97.1265 5.7797 97.2862 5.75886 97.4457 5.73823C98.4549 5.9433 98.646 5.675 98.9847 5.60178C99.1217 5.57244 98.9522 5.68007 99.3127 5.61829C99.4483 5.59523 99.5913 5.50538 99.9572 5.45767C101.105 5.3098 101.507 5.57682 102.537 5.14794C102.704 5.17777 102.871 5.20787 103.037 5.23824C103.14 5.17192 103.244 5.10571 103.348 5.0396C104.195 5.12137 103.879 4.98535 104.179 4.9594C104.969 4.88951 106.614 4.79082 106.761 4.91574C107.414 4.55879 108.277 4.84969 108.543 4.82172C108.702 4.7746 108.861 4.72778 109.019 4.68128C109.21 4.70772 109.401 4.73461 109.59 4.76195C109.481 4.46531 110.475 4.71168 110.573 4.7128C110.685 4.71014 112.187 4.56123 112.742 4.55115C113.312 4.53632 114.289 4.60385 114.373 4.60393C114.471 4.60238 115.416 4.51195 116.171 4.52013C116.825 4.50086 120.65 4.77628 120.43 4.64869C120.176 4.59535 119.818 4.54267 119.515 4.51023C118.559 4.35837 112.875 4.27028 111.425 4.34867C108.511 4.4167 105.458 4.65525 102.547 4.92164C102.374 4.93749 102.34 4.86252 102.192 4.87608C101.963 4.8972 101.409 5.03476 101.189 5.05732C100.37 5.13942 99.3608 5.24576 98.92 5.2978C97.9418 5.41312 97.2604 5.45423 96.5125 5.5463C96.2731 5.57547 95.1213 5.83013 94.3071 5.90716C94.1578 5.90649 94.0084 5.90599 93.8588 5.90565C94.2715 5.81871 95.3514 5.59829 95.8538 5.5226C96.6035 5.40912 97.0105 5.4203 97.2879 5.38302C97.5226 5.35087 98.698 5.12952 99.2425 5.06364C99.412 5.0428 99.4564 5.12001 99.6012 5.10263C100.389 5.00727 101.41 4.89222 102.084 4.74197C101.809 4.79542 103.553 4.67003 103.642 4.66371C103.797 4.64902 103.958 4.55678 104.275 4.52805C104.879 4.47401 104.825 4.63903 105.578 4.41531C105.772 4.44623 105.966 4.47755 106.159 4.50929C106.151 4.29158 108.571 4.40958 109.235 4.11882C109.255 4.08002 106.125 4.20683 105.871 4.23181C104.313 4.3279 102.041 4.60375 100.553 4.73634C100.105 4.77382 98.6663 4.81504 98.5657 4.83105C98.3951 4.85578 98.5587 4.91042 98.4852 4.92216C96.9779 5.16684 97.7138 4.92483 97.507 4.90718ZM155.561 18.5835C155.149 18.8331 154.758 19.066 154.342 19.3086C154.347 19.2507 154.352 19.1929 154.357 19.1349C154.553 19.0369 154.746 18.9391 154.937 18.8423C155.062 18.7316 155.188 18.6197 155.315 18.5067C155.397 18.5325 155.48 18.5571 155.561 18.5835ZM156.429 17.7943C156.754 17.5547 156.826 17.6247 156.908 17.5771C157.155 17.4324 157.33 17.2683 157.557 17.1187C157.432 17.4851 156.805 17.7695 156.429 17.7943ZM149.048 21.899C149.133 21.8721 149.81 21.8353 150.335 21.3028C150.836 21.1317 151.337 20.95 151.836 20.7609C151 21.0954 149.944 21.7618 149.542 21.9454C149.388 22.0172 149.326 21.9605 149.205 22.016C148.502 22.3406 147.873 22.79 147.698 22.583C148.407 22.3749 148.937 21.9352 149.048 21.899ZM153.171 19.8178C153.301 19.8035 153.433 19.7884 153.566 19.7723C153.192 19.9937 152.798 20.2215 152.422 20.434C152.497 20.329 152.573 20.2234 152.649 20.1172C152.821 20.0196 153.002 19.9159 153.171 19.8178ZM128.537 5.73683C128.776 5.79947 129.005 5.87106 129.233 5.95464C129.232 5.91147 128.972 5.82203 128.88 5.76777C128.881 5.76791 128.881 5.76804 128.882 5.76818C128.78 5.70662 128.843 5.67099 128.643 5.59295C128.607 5.64072 128.572 5.68868 128.537 5.73683ZM20.3133 23.8398C19.8458 23.9501 15.7191 24.551 16.1093 24.6216C16.2751 24.6772 17.6926 24.4242 18.1255 24.3551C18.6459 24.2821 20.2414 24.1664 20.3133 23.8398ZM12.955 24.741C12.881 24.9051 15.498 24.7086 15.7666 24.6347C15.7083 24.6211 15.6174 24.586 15.5427 24.584C15.1798 24.582 13.5124 24.7577 12.955 24.741ZM113.825 4.05958C114.034 4.12813 114.243 4.19732 114.45 4.26718C114.395 4.17414 114.339 4.08116 114.284 3.98822C114.131 4.01166 113.978 4.03545 113.825 4.05958ZM93.6986 5.97306C90.2611 6.47381 86.8315 7.05226 83.4128 7.69038C83.7062 7.59563 83.9996 7.50135 84.2932 7.40753C87.2434 6.87534 90.4043 6.38394 93.2523 5.90038C93.4011 5.92447 93.55 5.94867 93.6986 5.97306ZM147.961 21.9238C147.653 22.0558 147.352 22.1884 147.065 22.3062C146.536 22.5195 146.015 22.6796 145.371 22.7058C146.067 22.519 146.492 22.4495 147.033 22.2246C147.207 22.1492 147.398 22.053 147.605 21.9223C147.605 21.9221 147.606 21.9219 147.606 21.9217C147.723 21.9237 147.842 21.9244 147.961 21.9238ZM134.468 10.1123C134.668 10.2984 134.866 10.4907 135.062 10.6881C134.893 10.4096 134.721 10.1377 134.542 9.86826C134.518 9.94997 134.494 10.0318 134.468 10.1123ZM63.8918 11.6199C63.0136 11.9837 60.6447 12.3217 59.9507 12.682C59.9064 12.7053 60.3591 12.662 59.6919 12.9812C60.2147 12.8148 60.5851 12.6889 60.5972 12.5717C60.7653 12.5669 60.9336 12.5621 61.1022 12.5574C61.3596 12.4619 61.6176 12.3666 61.8701 12.273C61.8691 12.3867 61.8877 12.3757 62.2709 12.2007C62.4611 12.1812 62.6515 12.1617 62.8423 12.1423C62.9089 12.0775 62.9755 12.0127 63.0423 11.9479C63.2178 11.9708 63.3935 11.9939 63.5693 12.017C64.1767 11.7925 63.7659 11.7651 63.8918 11.6199ZM67.0726 10.87C66.9079 10.8787 62.7429 11.9867 64.6963 11.7303C65.1875 11.6018 65.6811 11.4737 66.1768 11.3463C65.6781 11.0935 67.1146 11.0799 67.2258 11.0617C67.7626 10.9695 68.42 10.7252 68.808 10.6388C69.1416 10.5645 69.3544 10.5817 69.5887 10.5255C70.3855 10.3337 71.6385 10.0463 71.7809 9.86064C71.1593 9.99786 70.5304 10.14 69.8902 10.2921C69.2072 10.4547 68.572 10.4565 67.3453 10.9493C67.0264 11.0041 67.112 10.867 67.0726 10.87ZM135.458 11.3954C135.318 11.4382 136.124 12.8611 136.176 12.8481C136.209 12.8347 135.962 12.3604 135.937 12.2869C135.936 12.2865 135.936 12.286 135.936 12.2856C135.926 12.2547 136.053 12.3707 135.949 12.1406C135.788 11.8895 135.625 11.6422 135.458 11.3954ZM26.5607 22.1882C26.3259 22.1797 21.3787 23.2718 21.1991 23.3195C21.1611 23.3381 21.224 23.364 21.2121 23.3881C22.4053 23.0424 24.0269 22.8462 25.1688 22.5977C25.4678 22.533 25.3657 22.4944 25.3823 22.4896C25.383 22.4894 25.3837 22.4892 25.3844 22.4891C25.552 22.4516 26.3651 22.4147 26.5607 22.1882ZM58.3921 13.1628C58.6083 13.1299 58.83 13.0958 59.0411 13.0646C59.0819 13.0055 59.1227 12.9465 59.1636 12.8875C59.1631 12.8876 59.1627 12.8877 59.1622 12.8878C58.9095 12.9781 58.6505 13.0704 58.3921 13.1628ZM51.1186 15.01C51.1801 15.0265 51.2373 15.0443 51.2967 15.0615C51.8149 14.9178 52.3388 14.7737 52.8681 14.6293C52.82 14.6622 52.7718 14.695 52.7238 14.7279C53.5365 14.5503 53.8372 14.3471 54.2594 14.2471C54.2589 14.2472 54.2584 14.2474 54.258 14.2475C54.3038 14.2368 54.3767 14.2877 54.546 14.2432C54.9323 14.1414 56.0612 13.8592 56.1812 13.7556C56.4269 13.5351 54.1881 14.2203 53.782 14.3287C53.5973 14.3769 53.3456 14.3851 53.2306 14.4159C53.1031 14.4503 52.9519 14.5768 52.644 14.6611C52.5522 14.6858 51.5372 14.8748 51.1186 15.01ZM41.9005 17.9007C42.0817 17.9222 42.3955 17.7498 42.5229 17.7227C42.5533 17.7163 42.342 17.8471 42.626 17.778C42.6923 17.7131 42.7587 17.648 42.8252 17.5829C42.5146 17.69 42.2064 17.7959 41.9005 17.9007ZM136.803 13.8115C136.797 13.7619 136.395 12.9722 136.365 12.9401C136.007 12.5288 136.843 14.157 136.803 13.8115ZM153.841 18.3126C153.408 18.3786 157.575 15.9377 157.943 15.6381C157.995 15.7539 156.97 16.2955 157.569 16.0963C157.03 16.3515 155.746 17.2525 155.402 17.4365C155.202 17.545 155.097 17.4847 155.067 17.5001C154.95 17.5625 154.006 18.2956 153.841 18.3126ZM161.263 13.4024C160.869 13.659 160.493 13.9008 160.1 14.1514C160.535 13.8246 160.965 13.4978 161.397 13.1666C161.352 13.2454 161.311 13.3218 161.263 13.4024ZM161.695 13.019C161.614 12.9313 162.919 12.0834 163.237 11.809C162.981 12.2551 162.257 12.5532 161.695 13.019ZM139.795 18.8702C139.485 18.2245 139.018 18.1457 139.605 18.807C139.624 18.8276 139.807 18.8981 139.795 18.8702ZM63.5508 11.1756C63.4288 11.2029 61.9199 11.4614 61.8511 11.5402C61.6278 11.7899 62.5751 11.4716 62.9191 11.4583C63.4735 11.4372 62.72 11.7224 63.9919 11.3339C63.9481 11.3833 63.9044 11.4328 63.8607 11.4823C64.619 11.3065 64.3058 11.1174 64.4333 11.0514C64.4717 11.0314 64.9443 10.9374 65.0251 10.9006C66.0301 10.4386 63.669 11.1459 63.5508 11.1756ZM129.247 4.95086C128.954 4.83246 128.74 4.76809 128.578 4.72704C128.022 4.59192 128.137 4.70608 126.995 4.47553C126.954 4.52252 127.896 4.69777 128.555 4.82325C128.905 4.88864 129.179 4.95464 129.247 4.95086ZM77.1832 8.19755C75.7419 8.53179 74.5228 8.68462 73.2076 9.12337C73.3394 9.31526 77.5699 8.16968 77.1832 8.19755ZM9.6979 23.7437C15.3953 24.3915 21.9432 22.8418 27.9007 21.4113C28.5329 21.2556 28.6196 21.3241 28.8499 21.2568C29.0017 21.2123 28.9574 21.1502 29.1621 21.0982C34.3365 19.7795 39.2792 18.2603 44.1576 16.7007C46.2297 16.0499 48.3608 15.4135 50.4512 14.8231C50.9159 14.6899 53.071 14.2366 53.4907 13.8822C53.7951 13.6154 52.2674 14.185 52.0147 14.2561C51.8215 14.3098 51.7909 14.2332 51.6626 14.2694C51.5267 14.3079 51.6542 14.3298 51.497 14.3755C50.8423 14.5663 50.0724 14.7659 49.4745 14.9455C47.6831 15.4828 45.8698 16.0372 44.1236 16.5857C40.0238 17.8972 35.9765 19.0993 31.8308 20.2052C31.1142 20.3956 31.2472 20.2914 31.2106 20.301C31.2101 20.3013 31.2097 20.3016 31.2093 20.3019C27.3433 21.3177 22.9662 22.5107 18.7608 23.1385C15.8335 23.5607 12.8467 23.8772 9.95853 23.709C9.88307 23.7217 9.78458 23.7327 9.6979 23.7437ZM66.6808 10.6468C66.2591 10.4937 66.2328 10.7555 64.9124 10.975C64.8171 11.042 64.722 11.109 64.6271 11.1761C65.3081 10.9985 65.9936 10.8218 66.683 10.6462C66.6823 10.6464 66.6816 10.6466 66.6808 10.6468ZM58.0916 12.7283C57.7846 12.4608 54.9475 13.4698 53.6477 13.7695C53.4544 13.9971 55.31 13.4046 55.7708 13.299C56.0077 13.2432 57.2203 13.0937 58.1128 12.758C58.1058 12.7481 58.0987 12.7382 58.0916 12.7283ZM149.203 20.3291C149.019 20.4304 148.823 20.5356 148.635 20.6352C149.144 20.4363 149.636 20.232 150.132 20.0159C149.358 20.3918 148.575 20.746 147.78 21.0665C147.9 20.9383 148.012 20.8126 148.129 20.6829C148.491 20.5699 148.85 20.4508 149.203 20.3291ZM146.683 21.4811C146.702 21.4738 146.72 21.4666 146.737 21.4595C147.66 21.075 147.224 21.3482 146.771 21.5481C146.586 21.6292 146.402 21.6886 146.3 21.6968C146.082 21.7143 146.537 21.544 146.683 21.4811ZM143.195 21.5491C143.797 21.7078 145.015 21.6611 144.582 21.9084C143.902 21.775 143.443 21.8256 142.6 21.2968C142.748 21.328 142.894 21.3503 143.038 21.3636C143.039 21.3638 143.039 21.3641 143.04 21.3643C143.089 21.427 143.14 21.4887 143.195 21.5491ZM147.26 21.0918C147.792 20.9521 147.199 21.2302 146.714 21.4007C146.328 21.5369 146.038 21.5864 146.373 21.4363C146.387 21.4296 146.52 21.3836 146.683 21.3197C146.923 21.2266 147.241 21.0964 147.26 21.0918ZM15.9367 23.2005C15.8319 23.294 16.5558 23.2026 16.8101 23.1722C17.9367 23.0446 19.2795 22.7907 20.4091 22.5944C20.322 22.5836 20.2353 22.5727 20.1491 22.5616C18.7238 22.8164 17.3078 23.0355 15.9367 23.2005ZM23.9055 21.8951C24.7107 21.721 25.4265 21.5592 26.2005 21.3784C26.2718 21.3619 26.5942 21.2158 26.3392 21.2587C25.5131 21.4816 24.7623 21.6808 23.9055 21.8951ZM71.4282 9.04733C70.8257 9.13765 72.4823 8.52955 72.4598 8.78638C72.1153 8.87297 71.7714 8.95995 71.4282 9.04733ZM76.9224 7.75025C76.5548 7.85093 76.1877 7.95218 75.8212 8.05396C75.8149 8.02652 75.8085 7.99909 75.8022 7.97165C76.1751 7.89729 76.5485 7.82347 76.9224 7.75025ZM12.8809 23.4228C13.2539 23.5013 14.2486 23.4106 14.7997 23.3544C14.4136 23.3123 13.4136 23.4375 12.8809 23.4228ZM62.568 11.0673C62.6311 11.1174 60.2944 11.6976 61.075 11.3787C61.5767 11.2728 62.0678 11.1707 62.568 11.0673ZM57.8002 12.2025C58.2992 12.0549 58.6979 11.9734 58.6196 12.1006C58.351 12.1669 58.0819 12.2337 57.8145 12.3003C57.8098 12.2677 57.805 12.2351 57.8002 12.2025ZM141.405 20.0037C140.867 19.4171 140.401 18.7372 139.965 18.0188C140.006 18.0313 140.046 18.0436 140.086 18.0557C140.507 18.7443 140.955 19.3892 141.47 19.9496C141.448 19.9676 141.427 19.9857 141.405 20.0037ZM12.3955 23.1937C11.7797 23.2378 11.2731 23.2657 10.6564 23.2743C11.273 23.3029 11.7818 23.3124 12.4019 23.3054C12.4002 23.268 12.3986 23.2306 12.397 23.1932C12.3965 23.1934 12.396 23.1936 12.3955 23.1937ZM151.031 18.6385C148.688 19.7628 151.533 18.0725 152.214 17.8717C152.215 17.8712 152.215 17.8707 152.216 17.8702C152.276 17.8546 152.209 17.9899 152.312 17.968C152.068 18.068 151.813 18.173 151.566 18.2714C151.382 18.43 151.191 18.5909 151.002 18.7492C150.923 18.772 150.845 18.7943 150.767 18.8161C150.855 18.7576 150.943 18.6984 151.031 18.6385ZM159.878 12.8229C161.828 11.4303 159.968 13.0407 158.903 13.588C158.884 13.5559 159.705 12.9459 159.878 12.8229ZM154.735 16.3786C154.432 16.5947 154.122 16.8125 153.815 17.0255C153.762 17.0305 153.709 17.0354 153.657 17.0402C153.885 16.8717 154.122 16.6954 154.351 16.5227C154.478 16.4756 154.606 16.4276 154.735 16.3786ZM144.247 20.8253C144.053 20.7949 143.821 20.7976 143.79 20.8442C143.762 20.8789 143.927 21.039 144.635 21.0079C144.634 20.9798 144.632 20.9516 144.631 20.9235C144.578 20.9301 144.417 20.9526 144.407 20.9492C144.383 20.9402 144.413 20.8511 144.247 20.8253ZM162.996 9.59997C163.043 9.55051 162.898 9.28866 163.64 9.10917C163.798 8.96506 163.957 8.81975 164.117 8.67323C164.201 8.69108 164.285 8.70882 164.37 8.72645C163.675 9.19671 163.69 9.34965 163.644 9.38908C163.434 9.56421 163.553 9.38784 163.413 9.49335C163.044 9.77237 162.242 10.4316 162.501 9.994C162.594 9.83735 162.947 9.65026 162.996 9.59997ZM161.601 10.4353C161.696 10.3954 161.489 10.6576 161.565 10.6322C161.629 10.6118 162.486 10.0816 162.357 10.3617C162.224 10.4535 162.085 10.5499 161.95 10.6428C161.881 10.6438 161.812 10.6448 161.744 10.6457C161.639 10.7701 161.534 10.8938 161.43 11.0168C161.163 11.0907 160.62 11.331 161.119 10.8626C160.926 11.0162 160.727 11.1728 160.533 11.325C160.458 11.4389 160.383 11.5523 160.308 11.6653C160.319 11.5677 160.331 11.4699 160.342 11.3721C160.762 11.0629 161.185 10.7479 161.601 10.4353ZM167.706 5.75032C167.706 5.79814 167.706 5.84614 167.705 5.89468C168.366 5.27864 169.464 4.35386 168.983 5.04548C168.023 5.84622 167.08 6.62342 166.112 7.40819C166.03 7.43678 165.948 7.46518 165.867 7.4934C166.657 7.01101 166.159 6.81563 166.861 6.42884C166.981 6.36211 166.772 6.73439 167.375 6.1228C167.328 6.11237 167.281 6.10191 167.234 6.09142C167.39 5.9786 167.55 5.86329 167.706 5.75032ZM173.81 0.808272C172.571 1.77788 173.81 0.560169 174.104 0.459159C174.104 0.459474 174.104 0.459795 174.103 0.460109C174.907 0.18846 173.507 1.17309 173.427 1.24133C173.321 1.3338 173.226 1.70442 172.436 1.94124C172.902 1.5588 173.346 1.1925 173.81 0.808272ZM169.839 4.02739C169.937 3.93791 169.916 4.02808 169.96 3.99119C169.961 3.99087 169.961 3.99055 169.961 3.99023C170.6 3.45549 172.104 2.14542 172.387 2.14563C171.922 2.55673 169.806 4.34557 169.591 4.35714C169.673 4.24757 169.756 4.13766 169.839 4.02739ZM165.324 7.80475C164.845 8.02809 165.746 7.30664 166.017 7.16228C166.068 7.13675 165.817 7.57529 165.324 7.80475ZM138.121 11.0798C137.488 10.0543 138.175 11.4786 137.819 11.05C137.935 11.2469 138.049 11.4437 138.162 11.6402C138.15 11.4543 138.136 11.2677 138.121 11.0798ZM87.2419 4.01865C86.975 4.05129 87.1119 4.09651 87.0891 4.10145C86.9146 4.12964 86.7426 4.10349 86.677 4.12084C85.4678 4.44587 86.2947 4.35875 86.3093 4.36952C86.3468 4.43104 86.0379 4.5649 86.4979 4.562C86.765 4.49113 87.0317 4.42074 87.3005 4.35043C87.4419 4.36393 87.5833 4.37754 87.7247 4.39128C88.2519 4.22059 87.5408 4.31908 87.4425 4.22846C87.4045 4.19266 87.9054 4.05621 87.2419 4.01865ZM137.227 9.06005C137.02 8.9471 136.628 8.61083 136.789 9.08422C136.789 9.08468 136.79 9.08514 136.79 9.08561C136.82 9.17275 137.001 9.48911 137.031 9.60022C137.563 10.1964 137.565 9.86291 137.227 9.06005ZM92.1021 3.01704C92.5459 2.97742 92.9903 2.93896 93.438 2.90133C93.4407 2.97233 93.4434 3.04332 93.446 3.11431C93.2069 3.13003 92.9655 3.14648 92.728 3.1627C92.6504 3.20688 92.5727 3.2511 92.4951 3.29537C92.7981 3.33126 93.1039 3.36727 93.4093 3.40393C93.759 3.32421 94.1083 3.24539 94.4573 3.16748C94.2898 3.15357 94.1222 3.13988 93.9544 3.12639C94.8122 2.96218 94.6484 3.15904 95.3696 3.12533C95.6045 3.02696 95.8384 2.92915 96.0771 2.83114C96.4424 2.84849 96.8067 2.86689 97.1701 2.88635C97.7623 2.77944 97.8083 2.72362 97.3977 2.70013C97.6835 2.5773 98.0245 2.67023 98.3759 2.59194C98.405 2.58554 98.3398 2.51225 98.3657 2.5081C100.214 2.22991 100.141 2.45847 100.437 2.4328C100.646 2.41506 101.46 2.18329 101.468 2.13386C101.482 2.06741 99.7079 1.99106 102.44 1.70046C100.998 1.6636 99.4356 2.02951 100.494 2.17388C100.048 2.19389 98.088 2.49432 97.9683 2.50362C97.7856 2.51446 97.8368 2.40748 97.6092 2.43357C97.474 2.44966 97.1492 2.71856 96.0546 2.66369C95.9232 2.71908 95.7906 2.77477 95.6613 2.83014C95.5305 2.81689 95.3996 2.80376 95.2686 2.79077C95.515 2.64607 95.7598 2.50208 96.0105 2.35777C94.9866 2.61537 94.0979 2.51623 93.4902 2.79551C92.9393 2.85378 92.6692 2.87266 92.8908 2.74206C92.7257 2.76657 92.5637 2.79078 92.4 2.81543C92.3006 2.88256 92.2013 2.94976 92.1021 3.01704ZM134.799 6.10622C134.431 5.55827 134.084 5.57339 134.151 5.65195C134.511 6.09447 134.982 6.38924 134.799 6.10622ZM88.2432 3.9757C88.8489 3.93562 89.4523 3.898 90.0571 3.86234C90.0453 3.78858 90.0334 3.71482 90.0215 3.64107C89.4281 3.75058 88.8365 3.86195 88.2432 3.9757ZM138.352 11.1564C138.329 11.2338 138.307 11.311 138.284 11.3879C138.783 11.903 138.818 12.6353 139.017 12.902C139.06 12.9601 139.086 12.7874 139.044 12.6552C139.023 12.576 138.432 11.2579 138.352 11.1564ZM155.275 14.5521C155.094 14.7173 154.914 14.8801 154.736 15.0404C154.713 14.9805 154.69 14.9206 154.666 14.8607C154.758 14.7872 154.849 14.7131 154.942 14.6385C155.052 14.6103 155.164 14.5815 155.275 14.5521ZM153.049 16.0967C152.685 16.3158 152.327 16.5276 151.958 16.741C153.304 15.8628 152.162 16.5214 152.953 15.941C152.985 15.9929 153.017 16.0448 153.049 16.0967ZM149.314 18.098C149.343 18.0403 149.369 17.9843 149.395 17.9276C149.757 17.7365 150.122 17.5371 150.486 17.3326C150.188 17.3503 149.907 17.356 149.61 17.3686C149.476 17.4408 149.344 17.5113 149.213 17.58C149.247 17.7524 149.283 17.9242 149.314 18.098ZM75.543 5.98812C75.2842 6.04036 74.4038 6.34614 74.4516 6.37903C74.8379 6.34844 75.2242 6.31852 75.6085 6.28966C75.5947 6.21606 75.5809 6.14246 75.5671 6.06886C75.6277 6.09408 75.6884 6.11932 75.749 6.14457C75.9562 6.07209 76.1636 5.99977 76.3711 5.92764C76.4921 5.96912 76.613 6.01066 76.7339 6.05227C76.8267 5.95659 76.9195 5.86095 77.0125 5.76534C75.9543 5.85047 76.0177 5.9737 75.8031 6.01733C75.6944 6.03968 75.6162 6.0089 75.5728 5.99426C75.5629 5.99221 75.5529 5.99017 75.543 5.98812ZM88.5763 3.43682C87.3295 3.6261 86.6525 3.94447 85.7281 3.94061C86.3613 4.17858 90.0196 3.19099 91.3881 3.28325C91.516 3.20642 91.644 3.1297 91.772 3.0531C91.0636 3.21256 90.5482 3.17712 90.1952 3.2166C89.9149 3.24809 89.9533 3.3018 89.9319 3.30436C89.9309 3.30453 89.9299 3.30469 89.9289 3.30485C89.2769 3.38559 89.0678 3.36267 88.5763 3.43682ZM139.041 11.8925C138.965 11.5421 138.669 10.9953 138.551 11.0499C138.678 11.373 138.801 11.6942 138.92 12.013C138.918 11.9359 139.054 11.9524 139.041 11.8925ZM148.722 17.9964C148.488 18.0697 147.984 18.3587 148.257 18.3495C148.303 18.3498 148.792 18.0156 148.575 18.3513C149.077 18.0939 148.855 17.955 148.722 17.9964ZM110.074 1.25052C110.301 1.23583 110.527 1.22178 110.753 1.20839C110.803 1.15378 110.853 1.0992 110.904 1.04466C110.628 1.11231 110.352 1.18093 110.074 1.25052ZM140.383 14.4163C140.282 14.7914 140.715 15.1072 140.768 15.6696C140.855 15.842 140.939 16.0054 141.028 16.1754C141.028 16.1758 141.028 16.1762 141.028 16.1766C141.092 16.1482 141.157 16.1197 141.221 16.0912C140.94 15.5579 140.664 14.9974 140.383 14.4163ZM96.1885 2.43298C96.3295 2.44703 96.4703 2.46123 96.6109 2.47559C96.8489 2.4061 97.0866 2.33706 97.3242 2.26847C97.1897 2.25826 97.0549 2.2482 96.9201 2.23828C96.6764 2.3027 96.4325 2.36761 96.1885 2.43298ZM141.953 17.3014C141.668 16.7715 141.355 16.6749 141.759 17.3518C141.935 17.6356 142.261 17.8469 141.953 17.3014ZM62.2613 9.15973C62.5034 9.1184 62.746 9.07717 62.9892 9.03606C63.0591 8.97029 63.1291 8.90453 63.1991 8.83877C62.8854 8.94559 62.5728 9.05258 62.2613 9.15973ZM151.527 16.4739C151.527 16.5281 151.528 16.5824 151.528 16.6366C151.346 16.7325 151.16 16.8299 150.974 16.926C150.997 16.8596 151.019 16.793 151.041 16.7263C151.208 16.64 151.364 16.5594 151.527 16.4739ZM63.8699 8.78803C64.0608 8.75005 64.2521 8.71214 64.4437 8.67431C64.5655 8.62093 64.6875 8.56757 64.8097 8.51425C64.6266 8.53572 64.4438 8.55726 64.2613 8.57887C64.1306 8.64856 64.0001 8.71828 63.8699 8.78803ZM144.677 19.5731C144.558 19.5328 144.101 19.664 144.511 19.7394C144.797 19.7667 144.698 19.5783 144.677 19.5731ZM145.449 19.3725C144.886 19.4085 145.273 19.8177 145.93 19.3732C146.004 19.3252 146.08 19.2695 146.158 19.2054C146.062 19.2485 145.98 19.2843 145.907 19.3142C145.327 19.5414 145.492 19.3607 145.449 19.3725ZM152.741 15.3114C152.762 15.2983 152.82 15.3546 152.993 15.2501C153.616 14.8735 154.433 14.3815 154.877 14.0931C155.937 13.4294 159.018 11.085 159.518 10.9882C159.624 10.9703 159.528 11.2154 159.564 11.1983C159.673 11.1453 160.149 10.7128 160.116 10.8667C159.608 11.2364 159.079 11.6173 158.562 11.9841C158.649 11.8315 158.733 11.681 158.815 11.531C157.541 12.4874 157.974 12.1707 157.69 12.5675C157.432 12.6726 157.176 12.7747 156.922 12.8738C156.475 13.2589 156.038 13.6318 155.581 14.0127C155.665 13.9005 155.75 13.7876 155.835 13.674C155.052 14.0952 155.297 13.9985 154.955 14.3605C154.928 14.322 154.902 14.2835 154.875 14.245C154.23 14.8051 154.019 14.7713 153.861 14.871C153.545 15.0679 153.432 15.8061 151.924 16.0751C151.54 16.6133 151.279 16.1407 151.118 16.5521C150.089 16.8028 151.808 15.9385 152.592 15.4571C152.592 15.4568 152.592 15.4566 152.593 15.4563C152.651 15.4211 152.532 15.4359 152.741 15.3114ZM148.385 18.0927C148.805 17.6214 146.706 18.6063 147.544 18.5941C147.652 18.5564 147.761 18.5175 147.871 18.4772C148.051 18.3472 148.211 18.2241 148.387 18.092C148.386 18.0923 148.386 18.0925 148.385 18.0927ZM136.098 6.52877C134.115 4.44261 135.123 5.75478 135.852 6.39164C135.996 6.52224 136.088 6.5789 136.098 6.52877ZM86.7676 3.55501C86.7385 3.58962 86.7094 3.62424 86.6803 3.65886C87.4599 3.49433 88.996 3.35237 88.9427 3.1628C88.2184 3.2903 87.4925 3.42122 86.7676 3.55501ZM92.9653 2.42746C92.7913 2.44092 92.1003 2.51656 92.1939 2.57692C92.5006 2.58319 92.8059 2.59026 93.1154 2.5973C93.2507 2.54445 93.3861 2.49174 93.5214 2.43916C93.3244 2.45658 93.0119 2.42367 92.9653 2.42746Z" fill="#FF8800"/>
</svg>
